<svg width="92" height="93" viewBox="0 0 92 93" fill="none" xmlns="http://www.w3.org/2000/svg">
<g clip-path="url(#clip0_1424_2131)">
<path d="M58.5542 80.8243C70.6746 80.8243 80.5001 70.9988 80.5001 58.8784C80.5001 46.7581 70.6746 36.9326 58.5542 36.9326C46.4339 36.9326 36.6084 46.7581 36.6084 58.8784C36.6084 70.9988 46.4339 80.8243 58.5542 80.8243Z" fill="#FFE81C"/>
<path d="M34.6343 76.186H55.1234" stroke="#00263E" stroke-width="1.91667" stroke-linecap="round" stroke-linejoin="round"/>
<path d="M40.2499 72.4673H49.4883C49.9966 72.4673 50.4841 72.6692 50.8435 73.0287C51.203 73.3881 51.4049 73.8756 51.4049 74.384V76.1856H38.3333V74.384C38.3333 73.8756 38.5352 73.3881 38.8946 73.0287C39.2541 72.6692 39.7416 72.4673 40.2499 72.4673Z" stroke="#00263E" stroke-width="1.91667" stroke-linecap="round" stroke-linejoin="round"/>
<path d="M47.7058 65.031H42.1475V72.4485H47.7058V65.031Z" stroke="#00263E" stroke-width="1.91667" stroke-linecap="round" stroke-linejoin="round"/>
<path d="M68.2143 48.1833H55.1618C54.1456 48.1833 53.3218 49.0029 53.3218 50.0138C53.3218 51.0247 54.1456 51.8442 55.1618 51.8442H68.2143C69.2305 51.8442 70.0543 51.0247 70.0543 50.0138C70.0543 49.0029 69.2305 48.1833 68.2143 48.1833Z" stroke="#00263E" stroke-width="1.91667" stroke-linecap="round" stroke-linejoin="round"/>
<path d="M57.9155 18.2905L49.2288 21.4351L56.2289 40.7729L64.9156 37.6283L57.9155 18.2905Z" stroke="#00263E" stroke-width="1.91667" stroke-linecap="round" stroke-linejoin="round"/>
<path d="M50.9341 15.4353L52.6101 14.8285C53.0881 14.6555 53.6152 14.6794 54.0756 14.8951C54.5359 15.1107 54.8917 15.5004 55.0647 15.9784L56.1347 18.934L50.8542 20.8455L49.7842 17.8899C49.6112 17.4119 49.6351 16.8848 49.8508 16.4244C50.0664 15.9641 50.4561 15.6083 50.9341 15.4353Z" stroke="#00263E" stroke-width="1.91667" stroke-linecap="round" stroke-linejoin="round"/>
<path d="M57.9277 40.1616L63.2263 38.2436L63.8199 39.8836C63.993 40.3616 63.969 40.8887 63.7534 41.349C63.5378 41.8094 63.1481 42.1652 62.6701 42.3382L60.994 42.9449C60.5161 43.118 59.9889 43.094 59.5286 42.8784C59.0683 42.6628 58.7125 42.2731 58.5394 41.7951L57.9458 40.1551L57.9277 40.1616Z" stroke="#00263E" stroke-width="1.91667" stroke-linecap="round" stroke-linejoin="round"/>
<path d="M53.801 23.5156L56.0819 22.6147L57.3469 26.1797" stroke="#00263E" stroke-width="1.91667" stroke-linecap="round" stroke-linejoin="round"/>
<path d="M62.905 51.8636C61.6719 55.132 59.569 58.0012 56.8235 60.1612C54.0781 62.3211 50.7946 63.6897 47.3278 64.119C43.861 64.5483 40.3428 64.022 37.1535 62.597C33.9641 61.1719 31.2248 58.9023 29.2317 56.0335C27.2385 53.1646 26.0673 49.8056 25.8447 46.3195C25.622 42.8333 26.3562 39.3526 27.9682 36.2535C29.5801 33.1544 32.0083 30.5547 34.9904 28.7354C37.9725 26.9161 41.3952 25.9465 44.8884 25.9312C47.0952 25.9319 49.2859 26.3079 51.3667 27.0428M53.1492 32.237C50.531 30.5612 47.4653 29.7207 44.3585 29.8271C41.2517 29.9334 38.2506 30.9816 35.7532 32.8325C33.2557 34.6835 31.3798 37.2498 30.3742 40.1913C29.3686 43.1327 29.2808 46.3103 30.1225 49.3028C30.9641 52.2953 32.6954 54.9613 35.0869 56.9474C37.4783 58.9334 40.4169 60.1457 43.5131 60.4234C46.6093 60.7012 49.7167 60.0313 52.4235 58.5026C55.1302 56.9739 57.3084 54.6586 58.6692 51.8636" stroke="#00263E" stroke-width="1.91667" stroke-linecap="round" stroke-linejoin="round"/>
</g>
<defs>
<clipPath id="clip0_1424_2131">
<rect width="69" height="69" fill="white" transform="translate(11.5 11.8242)"/>
</clipPath>
</defs>
</svg>
