<svg width="96" height="97" viewBox="0 0 96 97" fill="none" xmlns="http://www.w3.org/2000/svg">
<path d="M61.1002 84.3244C73.7475 84.3244 84.0002 74.0717 84.0002 61.4244C84.0002 48.7771 73.7475 38.5244 61.1002 38.5244C48.4529 38.5244 38.2002 48.7771 38.2002 61.4244C38.2002 74.0717 48.4529 84.3244 61.1002 84.3244Z" fill="#FFE81C"/>
<path d="M37.7525 81.8658H17.3359C16.5623 81.8658 15.8204 81.5585 15.2735 81.0115C14.7265 80.4645 14.4192 79.7227 14.4192 78.9491V17.6991C14.4192 16.9256 14.7265 16.1837 15.2735 15.6367C15.8204 15.0898 16.5623 14.7825 17.3359 14.7825H56.0984C56.8706 14.7932 57.6103 15.0953 58.1692 15.6283L68.9609 26.4491C69.2364 26.7193 69.4557 27.0414 69.6059 27.3969C69.7561 27.7523 69.8343 28.1341 69.8359 28.52V38.1158" stroke="#00263E" stroke-width="2" stroke-linecap="round" stroke-linejoin="round"/>
<path d="M23.1692 58.5325H40.6692" stroke="#00263E" stroke-width="2" stroke-linecap="round" stroke-linejoin="round"/>
<path d="M27.5443 43.9492H30.4609C30.6524 43.9492 30.8421 43.9869 31.019 44.0602C31.196 44.1335 31.3567 44.2409 31.4921 44.3764C31.6276 44.5118 31.735 44.6725 31.8083 44.8495C31.8815 45.0264 31.9193 45.216 31.9193 45.4076V58.5326H26.0859V45.4076C26.0859 45.0208 26.2396 44.6498 26.5131 44.3764C26.7866 44.1029 27.1575 43.9492 27.5443 43.9492Z" stroke="#00263E" stroke-width="2" stroke-linecap="round" stroke-linejoin="round"/>
<path d="M43.5858 49.7826V36.6576C43.5858 36.2708 43.4321 35.8998 43.1586 35.6264C42.8851 35.3529 42.5142 35.1992 42.1274 35.1992H39.2108C38.824 35.1992 38.4531 35.3529 38.1796 35.6264C37.9061 35.8998 37.7524 36.2708 37.7524 36.6576V58.5326" stroke="#00263E" stroke-width="2" stroke-linecap="round" stroke-linejoin="round"/>
<path d="M68.6401 57.4824L77.536 61.449L81.5026 52.4949" stroke="#00263E" stroke-width="2" stroke-linecap="round" stroke-linejoin="round"/>
<path d="M45.9775 57.8324C47.1908 54.338 49.5583 51.3611 52.6898 49.3923C55.8214 47.4235 59.5302 46.5802 63.2052 47.0014C66.8802 47.4225 70.3021 49.083 72.907 51.7093C75.512 54.3355 77.1446 57.7707 77.5359 61.449" stroke="#00263E" stroke-width="2" stroke-linecap="round" stroke-linejoin="round"/>
<path d="M54.9316 71.2491L46.0358 67.2825L42.0691 76.2366" stroke="#00263E" stroke-width="2" stroke-linecap="round" stroke-linejoin="round"/>
<path d="M77.5942 70.87C76.3829 74.3637 74.018 77.3408 70.8889 79.311C67.7598 81.2812 64.053 82.1272 60.3789 81.7095C56.7048 81.2919 53.2825 79.6355 50.6755 77.0132C48.0684 74.3909 46.4321 70.9589 46.0359 67.2825" stroke="#00263E" stroke-width="2" stroke-linecap="round" stroke-linejoin="round"/>
</svg>
