<svg width="92" height="93" viewBox="0 0 92 93" fill="none" xmlns="http://www.w3.org/2000/svg">
<g clip-path="url(#clip0_1424_2143)">
<path d="M58.5542 81.1478C70.6746 81.1478 80.5001 71.3223 80.5001 59.2019C80.5001 47.0816 70.6746 37.2561 58.5542 37.2561C46.4339 37.2561 36.6084 47.0816 36.6084 59.2019C36.6084 71.3223 46.4339 81.1478 58.5542 81.1478Z" fill="#FFE81C"/>
<path d="M66.9501 72.6333C68.33 68.3736 66.4527 63.9498 62.7569 62.7526C59.0611 61.5553 54.9464 64.0379 53.5665 68.2976C52.1865 72.5573 54.0639 76.9811 57.7597 78.1783C61.4554 79.3756 65.5701 76.893 66.9501 72.6333Z" stroke="#00263E" stroke-width="1.91667" stroke-linecap="round" stroke-linejoin="round"/>
<path d="M56.8673 71.0085C56.6933 70.3815 56.6933 69.7189 56.8673 69.0918C57.1514 68.2203 57.7537 67.488 58.554 67.041" stroke="#00263E" stroke-width="1.91667" stroke-linecap="round" stroke-linejoin="round"/>
<path d="M25.0511 72.6381C25.5496 74.5858 26.7931 76.2598 28.5139 77.2995C30.2348 78.3391 32.2951 78.6612 34.2511 78.1964C35.1874 77.8644 36.0388 77.3298 36.7445 76.6307C37.4502 75.9316 37.9929 75.0853 38.3336 74.1522C39.0296 72.2712 39.0634 70.2092 38.4295 68.3064C37.9269 66.3622 36.6816 64.6928 34.9613 63.657C33.2409 62.6212 31.1829 62.3017 29.2295 62.7672C28.7203 62.92 28.2361 63.1459 27.792 63.4381C26.3954 64.4637 25.372 65.9174 24.8772 67.578C24.3825 69.2386 24.4436 71.0153 25.0511 72.6381Z" stroke="#00263E" stroke-width="1.91667" stroke-linecap="round" stroke-linejoin="round"/>
<path d="M53.6666 74.1519C51.2463 75.1975 48.6364 75.7325 45.9999 75.7235C43.3635 75.7325 40.7535 75.1975 38.3333 74.1519" stroke="#00263E" stroke-width="1.91667" stroke-linecap="round" stroke-linejoin="round"/>
<path d="M64.304 50.9609L64.764 53.4526C65.4504 56.7307 65.2115 60.135 64.074 63.2851" stroke="#00263E" stroke-width="1.91667" stroke-linecap="round" stroke-linejoin="round"/>
<path d="M27.964 63.342C26.7857 60.2868 26.552 56.9482 27.2932 53.7587L27.9448 50.9028" stroke="#00263E" stroke-width="1.91667" stroke-linecap="round" stroke-linejoin="round"/>
<path d="M27.9451 50.8652L22.1951 52.9735C21.0528 53.4109 19.7868 53.3967 18.6546 52.9338C17.5223 52.471 16.6089 51.5942 16.1001 50.4819C15.837 49.9057 15.6903 49.2832 15.6684 48.6502C15.6465 48.0171 15.7498 47.386 15.9724 46.793C16.195 46.2 16.5325 45.6568 16.9656 45.1945C17.3986 44.7323 17.9187 44.3601 18.496 44.0994L34.2126 37.0652" stroke="#00263E" stroke-width="1.91667" stroke-linecap="round" stroke-linejoin="round"/>
<path d="M64.3042 50.961L69.8626 52.9735C70.9978 53.394 72.2499 53.3711 73.369 52.9093C74.488 52.4474 75.3918 51.5806 75.9001 50.4819C76.1632 49.9057 76.3099 49.2832 76.3318 48.6502C76.3537 48.0171 76.2504 47.386 76.0278 46.793C75.8052 46.2 75.4677 45.6568 75.0346 45.1945C74.6016 44.7323 74.0815 44.3601 73.5042 44.0994L58.0176 37.0652" stroke="#00263E" stroke-width="1.91667" stroke-linecap="round" stroke-linejoin="round"/>
<path d="M46.0001 42.2583C54.1192 42.2583 60.701 36.4917 60.701 29.3783C60.701 22.2649 54.1192 16.4983 46.0001 16.4983C37.8811 16.4983 31.2993 22.2649 31.2993 29.3783C31.2993 36.4917 37.8811 42.2583 46.0001 42.2583Z" stroke="#00263E" stroke-width="1.91667" stroke-linecap="round" stroke-linejoin="round"/>
<path d="M53.9924 18.5496C54.3339 17.4577 55.0178 16.5047 55.9429 15.8316C56.868 15.1585 57.9851 14.8011 59.1291 14.8121C60.555 14.6926 61.9699 15.1445 63.0626 16.0682C64.1553 16.992 64.8363 18.312 64.9558 19.7379C65.0752 21.1638 64.6234 22.5787 63.6996 23.6714C62.7758 24.7641 61.4558 25.4451 60.0299 25.5646" stroke="#00263E" stroke-width="1.91667" stroke-linecap="round" stroke-linejoin="round"/>
<path d="M31.9701 25.566C31.0287 25.4046 30.1472 24.9957 29.4159 24.3813C28.6846 23.7669 28.1299 22.969 27.8086 22.0696C27.4872 21.1701 27.4109 20.2014 27.5873 19.2627C27.7638 18.324 28.1867 17.4491 28.8127 16.7278C29.4387 16.0064 30.2452 15.4644 31.1497 15.1575C32.0542 14.8506 33.024 14.7897 33.9597 14.9811C34.8955 15.1725 35.7635 15.6093 36.4748 16.2467C37.1861 16.8841 37.7151 17.6992 38.0076 18.6085" stroke="#00263E" stroke-width="1.91667" stroke-linecap="round" stroke-linejoin="round"/>
<path d="M46.0959 42.1063C49.8749 42.1063 52.9384 39.2573 52.9384 35.743C52.9384 32.2286 49.8749 29.3796 46.0959 29.3796C42.3169 29.3796 39.2534 32.2286 39.2534 35.743C39.2534 39.2573 42.3169 42.1063 46.0959 42.1063Z" stroke="#00263E" stroke-width="1.91667" stroke-linecap="round" stroke-linejoin="round"/>
<path d="M46.0001 34.8419C46.7411 34.8419 47.3418 34.4987 47.3418 34.0753C47.3418 33.6518 46.7411 33.3086 46.0001 33.3086C45.2591 33.3086 44.6584 33.6518 44.6584 34.0753C44.6584 34.4987 45.2591 34.8419 46.0001 34.8419Z" stroke="#00263E" stroke-width="1.91667" stroke-linecap="round" stroke-linejoin="round"/>
<path d="M46 34.0759V38.8484" stroke="#00263E" stroke-width="1.91667" stroke-linecap="round" stroke-linejoin="round"/>
<path d="M38.8125 27.4433C39.3523 27.4433 39.79 27.0056 39.79 26.4658C39.79 25.9259 39.3523 25.4883 38.8125 25.4883C38.2726 25.4883 37.835 25.9259 37.835 26.4658C37.835 27.0056 38.2726 27.4433 38.8125 27.4433Z" stroke="#00263E" stroke-width="1.91667" stroke-linecap="round" stroke-linejoin="round"/>
<path d="M53.1875 27.4433C53.7273 27.4433 54.165 27.0056 54.165 26.4658C54.165 25.9259 53.7273 25.4883 53.1875 25.4883C52.6476 25.4883 52.21 25.9259 52.21 26.4658C52.21 27.0056 52.6476 27.4433 53.1875 27.4433Z" stroke="#00263E" stroke-width="1.91667" stroke-linecap="round" stroke-linejoin="round"/>
<path d="M53.283 58.5695L45.9997 65.8145L37.3747 57.1895C36.4103 56.2229 35.8687 54.9132 35.8687 53.5478C35.8687 52.1824 36.4103 50.8727 37.3747 49.9062C38.3437 48.9464 39.6525 48.408 41.0164 48.408C42.3803 48.408 43.689 48.9464 44.658 49.9062L45.9997 51.2478" stroke="#00263E" stroke-width="1.91667" stroke-linecap="round" stroke-linejoin="round"/>
<path d="M46 65.8145L54.625 57.1895C55.5894 56.2229 56.1311 54.9132 56.1311 53.5478C56.1311 52.1824 55.5894 50.8727 54.625 49.9062C53.656 48.9464 52.3472 48.408 50.9833 48.408C49.6194 48.408 48.3107 48.9464 47.3417 49.9062L46 51.2478" stroke="#00263E" stroke-width="1.91667" stroke-linecap="round" stroke-linejoin="round"/>
</g>
<defs>
<clipPath id="clip0_1424_2143">
<rect width="69" height="69" fill="white" transform="translate(11.5 12.1484)"/>
</clipPath>
</defs>
</svg>
