<svg width="96" height="97" viewBox="0 0 96 97" fill="none" xmlns="http://www.w3.org/2000/svg">
<g clip-path="url(#clip0_1770_2941)">
<path d="M61.1002 84.633C73.7475 84.633 84.0002 74.3803 84.0002 61.733C84.0002 49.0857 73.7475 38.833 61.1002 38.833C48.4529 38.833 38.2002 49.0857 38.2002 61.733C38.2002 74.3803 48.4529 84.633 61.1002 84.633Z" fill="#FFE81C"/>
<path d="M47.88 53.613C50.0339 53.613 51.78 51.8669 51.78 49.713C51.78 47.5591 50.0339 45.813 47.88 45.813C45.7261 45.813 43.98 47.5591 43.98 49.713C43.98 51.8669 45.7261 53.613 47.88 53.613Z" stroke="#00263E" stroke-width="2" stroke-linecap="round" stroke-linejoin="round"/>
<path d="M64.4998 74.9527C67.6699 74.9527 70.2398 72.3828 70.2398 69.2127C70.2398 66.0425 67.6699 63.4727 64.4998 63.4727C61.3297 63.4727 58.7598 66.0425 58.7598 69.2127C58.7598 72.3828 61.3297 74.9527 64.4998 74.9527Z" stroke="#00263E" stroke-width="2" stroke-linecap="round" stroke-linejoin="round"/>
<path d="M70.2402 53.5726C73.8742 53.5726 76.8202 50.6266 76.8202 46.9926C76.8202 43.3586 73.8742 40.4126 70.2402 40.4126C66.6061 40.4126 63.6602 43.3586 63.6602 46.9926C63.6602 50.6266 66.6061 53.5726 70.2402 53.5726Z" stroke="#00263E" stroke-width="2" stroke-linecap="round" stroke-linejoin="round"/>
<path d="M60.54 34.3926C62.7492 34.3926 64.54 32.6017 64.54 30.3926C64.54 28.1834 62.7492 26.3926 60.54 26.3926C58.3309 26.3926 56.54 28.1834 56.54 30.3926C56.54 32.6017 58.3309 34.3926 60.54 34.3926Z" stroke="#00263E" stroke-width="2" stroke-linecap="round" stroke-linejoin="round"/>
<path d="M33.0798 35.1128C38.4701 35.1128 42.8398 30.7431 42.8398 25.3528C42.8398 19.9625 38.4701 15.5928 33.0798 15.5928C27.6895 15.5928 23.3198 19.9625 23.3198 25.3528C23.3198 30.7431 27.6895 35.1128 33.0798 35.1128Z" stroke="#00263E" stroke-width="2" stroke-linecap="round" stroke-linejoin="round"/>
<path d="M23.3202 54.0329C25.6066 54.0329 27.4602 52.1794 27.4602 49.8929C27.4602 47.6065 25.6066 45.7529 23.3202 45.7529C21.0337 45.7529 19.1802 47.6065 19.1802 49.8929C19.1802 52.1794 21.0337 54.0329 23.3202 54.0329Z" stroke="#00263E" stroke-width="2" stroke-linecap="round" stroke-linejoin="round"/>
<path d="M33.0802 81.6727C39.067 81.6727 43.9202 76.8194 43.9202 70.8327C43.9202 64.8459 39.067 59.9927 33.0802 59.9927C27.0935 59.9927 22.2402 64.8459 22.2402 70.8327C22.2402 76.8194 27.0935 81.6727 33.0802 81.6727Z" stroke="#00263E" stroke-width="2" stroke-linecap="round" stroke-linejoin="round"/>
<path d="M27.4001 67.0527C27.4001 67.0527 24.6201 68.6327 26.0001 72.9527" stroke="#00263E" stroke-width="2" stroke-linecap="round" stroke-linejoin="round"/>
</g>
<defs>
<clipPath id="clip0_1770_2941">
<rect width="72" height="72" fill="white" transform="translate(12 12.6328)"/>
</clipPath>
</defs>
</svg>
