<svg width="96" height="97" viewBox="0 0 96 97" fill="none" xmlns="http://www.w3.org/2000/svg">
<path d="M61.1002 84.2814C73.7475 84.2814 84.0002 74.0288 84.0002 61.3814C84.0002 48.7341 73.7475 38.4814 61.1002 38.4814C48.4529 38.4814 38.2002 48.7341 38.2002 61.3814C38.2002 74.0288 48.4529 84.2814 61.1002 84.2814Z" fill="#FFE81C"/>
<path d="M56.8462 41.7188H66.2292C67.0027 41.7188 67.7446 42.026 68.2916 42.573C68.8385 43.12 69.1458 43.8619 69.1458 44.6354V81.0938H47.2708V57.0896" stroke="#00263E" stroke-width="2" stroke-linecap="round" stroke-linejoin="round"/>
<path d="M38.5208 60.677H47.2708V81.0937H35.6042V63.5937C35.6042 62.8201 35.9115 62.0783 36.4584 61.5313C37.0054 60.9843 37.7473 60.677 38.5208 60.677Z" stroke="#00263E" stroke-width="2" stroke-linecap="round" stroke-linejoin="round"/>
<path d="M69.1458 60.677H77.8958C78.6694 60.677 79.4112 60.9843 79.9582 61.5313C80.5052 62.0783 80.8125 62.8201 80.8125 63.5937V81.0937H69.1458V60.677Z" stroke="#00263E" stroke-width="2" stroke-linecap="round" stroke-linejoin="round"/>
<path d="M34.2479 50.1683L35.8608 49.5558C43.5317 46.6391 50.1875 39.2775 50.1875 31.07V21.1737C50.1878 20.5801 50.0145 19.9994 49.6891 19.503C49.3637 19.0066 48.9003 18.6161 48.3558 18.3796C43.3216 16.4982 37.9974 15.5111 32.6233 15.4629C27.2908 15.5084 22.0082 16.4958 17.0192 18.3796C16.4747 18.6161 16.0113 19.0066 15.6859 19.503C15.3605 19.9994 15.1872 20.5801 15.1875 21.1737V31.0729C15.1875 39.2804 21.715 46.6362 29.3858 49.5587L30.9988 50.1712C32.0453 50.5699 33.2021 50.5689 34.2479 50.1683Z" stroke="#00263E" stroke-width="2" stroke-linecap="round" stroke-linejoin="round"/>
<path d="M26.125 34.7917L29.6688 37.4488C29.8928 37.6177 30.1733 37.6937 30.4519 37.6611C30.7306 37.6285 30.986 37.4898 31.165 37.2738L41.4375 24.948" stroke="#00263E" stroke-width="2" stroke-linecap="round" stroke-linejoin="round"/>
<path d="M55.8546 60.677H60.5621" stroke="#00263E" stroke-width="2" stroke-linecap="round" stroke-linejoin="round"/>
<path d="M55.8546 50.4688H60.5621" stroke="#00263E" stroke-width="2" stroke-linecap="round" stroke-linejoin="round"/>
<path d="M55.8546 70.8855H60.5621" stroke="#00263E" stroke-width="2" stroke-linecap="round" stroke-linejoin="round"/>
<path d="M69.1458 67.7676H73.8562" stroke="#00263E" stroke-width="2" stroke-linecap="round" stroke-linejoin="round"/>
<path d="M41.4375 67.7676H46.1479" stroke="#00263E" stroke-width="2" stroke-linecap="round" stroke-linejoin="round"/>
<path d="M69.1458 74.397H73.8562" stroke="#00263E" stroke-width="2" stroke-linecap="round" stroke-linejoin="round"/>
<path d="M42.5604 74.397H47.2708" stroke="#00263E" stroke-width="2" stroke-linecap="round" stroke-linejoin="round"/>
</svg>
