<svg width="96" height="97" viewBox="0 0 96 97" fill="none" xmlns="http://www.w3.org/2000/svg">
<path d="M61.1002 84.9299C73.7475 84.9299 84.0002 74.6772 84.0002 62.0299C84.0002 49.3826 73.7475 39.1299 61.1002 39.1299C48.4529 39.1299 38.2002 49.3826 38.2002 62.0299C38.2002 74.6772 48.4529 84.9299 61.1002 84.9299Z" fill="#FFE81C"/>
<path d="M72.4375 34.3449C72.4136 32.9413 72.1069 31.5569 71.5359 30.2746C70.9646 28.9923 70.1407 27.8383 69.1134 26.8817C68.0859 25.9251 66.8761 25.1856 65.5562 24.7074C64.2366 24.2292 62.8338 24.022 61.432 24.0984C60.1854 21.6087 58.2663 19.5179 55.8924 18.0631C53.5183 16.6083 50.7841 15.8476 48 15.8673C44.274 15.8134 40.6671 17.1804 37.9126 19.6903C35.1581 22.2002 33.4626 25.6647 33.1707 29.3797C32.031 29.1276 30.8495 29.1311 29.7113 29.3899C28.573 29.6488 27.5063 30.1565 26.5876 30.8767C25.6689 31.5969 24.9212 32.5117 24.3982 33.5552C23.8751 34.5988 23.5897 35.7453 23.5625 36.9122C23.5625 44.7379 32.061 44.6171 32.061 44.6171H62.8752C62.8752 44.6171 72.4375 43.4068 72.4375 34.3449Z" stroke="#00263E" stroke-width="2" stroke-linecap="round" stroke-linejoin="round"/>
<path d="M72.4375 77.6797C72.4375 78.8234 71.9833 79.9205 71.1745 80.7292C70.3658 81.5379 69.2687 81.9922 68.125 81.9922H27.875C26.7313 81.9922 25.6343 81.5379 24.8256 80.7292C24.0169 79.9205 23.5625 78.8234 23.5625 77.6797V71.9297C23.5625 70.786 24.0169 69.6889 24.8256 68.8802C25.6343 68.0714 26.7313 67.6172 27.875 67.6172H68.125C69.2687 67.6172 70.3658 68.0714 71.1745 68.8802C71.9833 69.6889 72.4375 70.786 72.4375 71.9297V77.6797Z" stroke="#00263E" stroke-width="2" stroke-linecap="round" stroke-linejoin="round"/>
<path d="M32.9063 61.1484C32.5093 61.1484 32.1875 60.8267 32.1875 60.4297C32.1875 60.0326 32.5093 59.7109 32.9063 59.7109" stroke="#00263E" stroke-width="2"/>
<path d="M32.9062 61.1484C33.3032 61.1484 33.625 60.8267 33.625 60.4297C33.625 60.0326 33.3032 59.7109 32.9062 59.7109" stroke="#00263E" stroke-width="2"/>
<path d="M32.9063 75.5205C32.5093 75.5205 32.1875 75.1988 32.1875 74.8018C32.1875 74.405 32.5093 74.083 32.9063 74.083" stroke="#00263E" stroke-width="2"/>
<path d="M32.9062 75.5205C33.3032 75.5205 33.625 75.1988 33.625 74.8018C33.625 74.405 33.3032 74.083 32.9062 74.083" stroke="#00263E" stroke-width="2"/>
<path d="M40.0937 75.5205C39.6968 75.5205 39.375 75.1988 39.375 74.8018C39.375 74.405 39.6968 74.083 40.0937 74.083" stroke="#00263E" stroke-width="2"/>
<path d="M40.0938 75.5205C40.4907 75.5205 40.8125 75.1988 40.8125 74.8018C40.8125 74.405 40.4907 74.083 40.0938 74.083" stroke="#00263E" stroke-width="2"/>
<path d="M40.0937 61.1484C39.6968 61.1484 39.375 60.8267 39.375 60.4297C39.375 60.0326 39.6968 59.7109 40.0937 59.7109" stroke="#00263E" stroke-width="2"/>
<path d="M40.0938 61.1484C40.4907 61.1484 40.8125 60.8267 40.8125 60.4297C40.8125 60.0326 40.4907 59.7109 40.0938 59.7109" stroke="#00263E" stroke-width="2"/>
<path d="M72.4375 63.3047C72.4375 64.4484 71.9833 65.5455 71.1745 66.3542C70.3658 67.1629 69.2687 67.6172 68.125 67.6172H27.875C26.7313 67.6172 25.6343 67.1629 24.8256 66.3542C24.0169 65.5455 23.5625 64.4484 23.5625 63.3047V57.5547C23.5625 56.411 24.0169 55.3139 24.8256 54.5052C25.6343 53.6964 26.7313 53.2422 27.875 53.2422H68.125C69.2687 53.2422 70.3658 53.6964 71.1745 54.5052C71.9833 55.3139 72.4375 56.411 72.4375 57.5547V63.3047Z" stroke="#00263E" stroke-width="2" stroke-linecap="round" stroke-linejoin="round"/>
</svg>
