<svg width="96" height="97" viewBox="0 0 96 97" fill="none" xmlns="http://www.w3.org/2000/svg">
<path d="M61.1002 84.6057C73.7475 84.6057 84.0002 74.353 84.0002 61.7057C84.0002 49.0583 73.7475 38.8057 61.1002 38.8057C48.4529 38.8057 38.2002 49.0583 38.2002 61.7057C38.2002 74.353 48.4529 84.6057 61.1002 84.6057Z" fill="#FFE81C"/>
<path d="M72.7917 54.1647C75.0315 53.1285 76.917 51.4564 78.2136 49.3565C79.5101 47.2566 80.1603 44.8218 80.0833 42.3551C80.056 40.5082 79.6566 38.6857 78.9089 36.9967C78.1613 35.3077 77.0807 33.7867 75.7319 32.5248C74.3831 31.2628 72.7937 30.2858 71.0587 29.652C69.3238 29.0183 67.4788 28.7409 65.6342 28.8363C64.005 25.5581 61.4887 22.8028 58.3713 20.8837C55.254 18.9646 51.6606 17.9588 48 17.9805C43.0971 17.9147 38.3536 19.7209 34.7362 23.031C31.1188 26.3411 28.8998 30.906 28.5312 35.7955C27.0307 35.4656 25.4757 35.4727 23.9782 35.8163C22.4808 36.1599 21.0782 36.8314 19.8715 37.7825C18.6649 38.7335 17.6843 39.9404 17.0004 41.3162C16.3166 42.692 15.9464 44.2023 15.9167 45.7384C15.7985 47.9401 16.4671 50.112 17.8028 51.8661C19.1386 53.6202 21.0545 54.8423 23.2083 55.3138" stroke="#00263E" stroke-width="2" stroke-linecap="round" stroke-linejoin="round"/>
<path d="M62.5833 76.3139C62.5833 77.0874 62.276 77.8293 61.7291 78.3763C61.1821 78.9233 60.4402 79.2305 59.6667 79.2305H39.25C38.4764 79.2305 37.7346 78.9233 37.1876 78.3763C36.6406 77.8293 36.3333 77.0874 36.3333 76.3139V58.8139C36.3333 58.0403 36.6406 57.2985 37.1876 56.7515C37.7346 56.2045 38.4764 55.8972 39.25 55.8972H59.6667C60.4402 55.8972 61.1821 56.2045 61.7291 56.7515C62.276 57.2985 62.5833 58.0403 62.5833 58.8139V76.3139Z" stroke="#00263E" stroke-width="2" stroke-linecap="round" stroke-linejoin="round"/>
<path d="M45.8125 67.7476C45.8125 68.7146 46.1966 69.6419 46.8803 70.3256C47.5641 71.0094 48.4914 71.3935 49.4583 71.3935C50.4253 71.3935 51.3526 71.0094 52.0363 70.3256C52.7201 69.6419 53.1042 68.7146 53.1042 67.7476C53.1042 66.7807 52.7201 65.8534 52.0363 65.1696C51.3526 64.4859 50.4253 64.1018 49.4583 64.1018C48.4914 64.1018 47.5641 64.4859 46.8803 65.1696C46.1966 65.8534 45.8125 66.7807 45.8125 67.7476Z" stroke="#00263E" stroke-width="2" stroke-linecap="round" stroke-linejoin="round"/>
<path d="M56.75 51.5221C56.75 49.5883 55.9818 47.7336 54.6143 46.3661C53.2469 44.9987 51.3922 44.2305 49.4583 44.2305C47.5245 44.2305 45.6698 44.9987 44.3024 46.3661C42.9349 47.7336 42.1667 49.5883 42.1667 51.5221V55.8971H56.75V51.5221Z" stroke="#00263E" stroke-width="2" stroke-linecap="round" stroke-linejoin="round"/>
</svg>
