<svg width="96" height="96" viewBox="0 0 96 96" fill="none" xmlns="http://www.w3.org/2000/svg">
<path d="M61.1002 84.0002C73.7475 84.0002 84.0002 73.7475 84.0002 61.1002C84.0002 48.4529 73.7475 38.2002 61.1002 38.2002C48.4529 38.2002 38.2002 48.4529 38.2002 61.1002C38.2002 73.7475 48.4529 84.0002 61.1002 84.0002Z" fill="#FFE81C"/>
<path d="M52.3125 46.5166H43.6875" stroke="#00263E" stroke-width="2" stroke-linecap="round" stroke-linejoin="round"/>
<path d="M56.625 30.7041C56.5606 28.437 55.6312 26.2804 54.0274 24.6767C52.4237 23.0729 50.2671 22.1435 48 22.0791C45.7329 22.1435 43.5763 23.0729 41.9726 24.6767C40.3688 26.2804 39.4394 28.437 39.375 30.7041C39.4071 32.1736 39.8217 33.6094 40.5779 34.8698C41.3342 36.1303 42.4059 37.1718 43.6875 37.8916V40.7666H52.3125V37.8916C53.5937 37.1713 54.6651 36.1297 55.4213 34.8694C56.1775 33.6091 56.5924 32.1735 56.625 30.7041Z" stroke="#00263E" stroke-width="2" stroke-linecap="round" stroke-linejoin="round"/>
<path d="M19.9688 65.9229C19.9687 66.5836 20.0989 67.2378 20.3517 67.8482C20.6046 68.4586 20.9752 69.0133 21.4424 69.4805C21.9096 69.9477 22.4642 70.3183 23.0746 70.5711C23.685 70.824 24.3393 70.9541 25 70.9541C25.6607 70.9541 26.315 70.824 26.9254 70.5711C27.5358 70.3183 28.0904 69.9477 28.5576 69.4805C29.0248 69.0133 29.3954 68.4586 29.6483 67.8482C29.9011 67.2378 30.0313 66.5836 30.0313 65.9229C30.0313 65.2621 29.9011 64.6079 29.6483 63.9975C29.3954 63.3871 29.0248 62.8324 28.5576 62.3652C28.0904 61.898 27.5358 61.5274 26.9254 61.2746C26.315 61.0217 25.6607 60.8916 25 60.8916C24.3393 60.8916 23.685 61.0217 23.0746 61.2746C22.4642 61.5274 21.9096 61.898 21.4424 62.3652C20.9752 62.8324 20.6046 63.3871 20.3517 63.9975C20.0989 64.6079 19.9687 65.2621 19.9688 65.9229Z" stroke="#00263E" stroke-width="2" stroke-linecap="round" stroke-linejoin="round"/>
<path d="M35.0625 81.0166C34.4923 78.7806 33.1936 76.7982 31.3715 75.3824C29.5494 73.9666 27.3075 73.198 25 73.198C22.6925 73.198 20.4506 73.9666 18.6285 75.3824C16.8064 76.7982 15.5077 78.7806 14.9375 81.0166H35.0625Z" stroke="#00263E" stroke-width="2" stroke-linecap="round" stroke-linejoin="round"/>
<path d="M42.9688 65.9229C42.9688 67.2572 43.4988 68.5369 44.4424 69.4805C45.3859 70.424 46.6656 70.9541 48 70.9541C49.3344 70.9541 50.6141 70.424 51.5576 69.4805C52.5012 68.5369 53.0312 67.2572 53.0312 65.9229C53.0312 64.5885 52.5012 63.3088 51.5576 62.3652C50.6141 61.4217 49.3344 60.8916 48 60.8916C46.6656 60.8916 45.3859 61.4217 44.4424 62.3652C43.4988 63.3088 42.9688 64.5885 42.9688 65.9229Z" stroke="#00263E" stroke-width="2" stroke-linecap="round" stroke-linejoin="round"/>
<path d="M58.0625 81.0166C57.4923 78.7806 56.1936 76.7982 54.3715 75.3824C52.5494 73.9666 50.3075 73.198 48 73.198C45.6925 73.198 43.4506 73.9666 41.6285 75.3824C39.8064 76.7982 38.5077 78.7806 37.9375 81.0166H58.0625Z" stroke="#00263E" stroke-width="2" stroke-linecap="round" stroke-linejoin="round"/>
<path d="M65.9688 65.9229C65.9688 67.2572 66.4988 68.5369 67.4424 69.4805C68.3859 70.424 69.6656 70.9541 71 70.9541C72.3344 70.9541 73.6141 70.424 74.5576 69.4805C75.5012 68.5369 76.0312 67.2572 76.0312 65.9229C76.0312 64.5885 75.5012 63.3088 74.5576 62.3652C73.6141 61.4217 72.3344 60.8916 71 60.8916C69.6656 60.8916 68.3859 61.4217 67.4424 62.3652C66.4988 63.3088 65.9688 64.5885 65.9688 65.9229Z" stroke="#00263E" stroke-width="2" stroke-linecap="round" stroke-linejoin="round"/>
<path d="M81.0625 81.0166C80.4923 78.7806 79.1936 76.7982 77.3715 75.3824C75.5494 73.9666 73.3075 73.198 71 73.198C68.6925 73.198 66.4506 73.9666 64.6285 75.3824C62.8064 76.7982 61.5077 78.7806 60.9375 81.0166H81.0625Z" stroke="#00263E" stroke-width="2" stroke-linecap="round" stroke-linejoin="round"/>
<path d="M48 14.8916V17.7666" stroke="#00263E" stroke-width="2" stroke-linecap="round" stroke-linejoin="round"/>
<path d="M59.1811 19.5232L57.1484 21.5558" stroke="#00263E" stroke-width="2" stroke-linecap="round" stroke-linejoin="round"/>
<path d="M63.8125 29.2666H60.9375" stroke="#00263E" stroke-width="2" stroke-linecap="round" stroke-linejoin="round"/>
<path d="M36.8193 19.5232L38.852 21.5558" stroke="#00263E" stroke-width="2" stroke-linecap="round" stroke-linejoin="round"/>
<path d="M32.1875 29.2666H35.0625" stroke="#00263E" stroke-width="2" stroke-linecap="round" stroke-linejoin="round"/>
<path d="M45.125 52.2666H50.875" stroke="#00263E" stroke-width="2" stroke-linecap="round" stroke-linejoin="round"/>
</svg>
