<svg width="96" height="96" viewBox="0 0 96 96" fill="none" xmlns="http://www.w3.org/2000/svg">
<path d="M61.1002 84.0002C73.7475 84.0002 84.0002 73.7475 84.0002 61.1002C84.0002 48.4529 73.7475 38.2002 61.1002 38.2002C48.4529 38.2002 38.2002 48.4529 38.2002 61.1002C38.2002 73.7475 48.4529 84.0002 61.1002 84.0002Z" fill="#FFE81C"/>
<path d="M46.5028 14.4583C47.2763 14.4583 48.0182 14.7655 48.5652 15.3125C49.1121 15.8595 49.4194 16.6014 49.4194 17.3749V34.8749C49.4194 35.6485 49.1121 36.3903 48.5652 36.9373C48.0182 37.4843 47.2763 37.7916 46.5028 37.7916H40.6694V45.0833L33.3778 37.7916H17.3361C16.9531 37.7916 16.5738 37.7161 16.2199 37.5696C15.8661 37.423 15.5445 37.2082 15.2737 36.9373C15.0029 36.6665 14.788 36.3449 14.6415 35.9911C14.4949 35.6372 14.4194 35.2579 14.4194 34.8749V17.3749C14.4194 16.6014 14.7267 15.8595 15.2737 15.3125C15.8207 14.7655 16.5626 14.4583 17.3361 14.4583H46.5028Z" stroke="#00263E" stroke-width="2" stroke-linecap="round" stroke-linejoin="round"/>
<path d="M81.0069 43.625C79.7269 41.4082 77.8859 39.5674 75.669 38.2876C73.4522 37.0078 70.9375 36.334 68.3777 36.334C65.8179 36.334 63.3032 37.0078 61.0864 38.2876C58.8695 39.5674 57.0285 41.4082 55.7485 43.625" stroke="#00263E" stroke-width="2" stroke-linecap="round" stroke-linejoin="round"/>
<path d="M60.8237 18.8333C62.1881 20.2252 63.8177 21.3296 65.6161 22.081C67.4146 22.8325 69.3454 23.2158 71.2946 23.2083C73.3006 23.2151 75.2864 22.808 77.1279 22.0124" stroke="#00263E" stroke-width="2" stroke-linecap="round" stroke-linejoin="round"/>
<path d="M59.6279 23.2083C59.6279 24.3573 59.8543 25.4951 60.294 26.5567C60.7337 27.6183 61.3782 28.5829 62.1907 29.3954C63.0033 30.2079 63.9679 30.8525 65.0294 31.2922C66.091 31.7319 67.2289 31.9583 68.3779 31.9583C69.527 31.9583 70.6648 31.7319 71.7264 31.2922C72.788 30.8525 73.7526 30.2079 74.5651 29.3954C75.3776 28.5829 76.0221 27.6183 76.4619 26.5567C76.9016 25.4951 77.1279 24.3573 77.1279 23.2083C77.1279 20.8876 76.2061 18.662 74.5651 17.0211C72.9242 15.3801 70.6986 14.4583 68.3779 14.4583C66.0573 14.4583 63.8317 15.3801 62.1907 17.0211C60.5498 18.662 59.6279 20.8876 59.6279 23.2083Z" stroke="#00263E" stroke-width="2" stroke-linecap="round" stroke-linejoin="round"/>
<path d="M40.1734 81.5418C38.8934 79.325 37.0524 77.4842 34.8356 76.2043C32.6187 74.9245 30.104 74.2507 27.5442 74.2507C24.9844 74.2507 22.4697 74.9245 20.2529 76.2043C18.036 77.4842 16.195 79.325 14.915 81.5418" stroke="#00263E" stroke-width="2" stroke-linecap="round" stroke-linejoin="round"/>
<path d="M19.9902 56.75C22.0614 58.8762 24.7321 60.3198 27.6454 60.8878C30.5588 61.4559 33.5762 61.1215 36.2944 59.9292" stroke="#00263E" stroke-width="2" stroke-linecap="round" stroke-linejoin="round"/>
<path d="M18.7944 61.125C18.7944 63.4456 19.7163 65.6712 21.3572 67.3122C22.9982 68.9531 25.2238 69.875 27.5444 69.875C29.8651 69.875 32.0907 68.9531 33.7316 67.3122C35.3726 65.6712 36.2944 63.4456 36.2944 61.125C36.2944 58.8044 35.3726 56.5788 33.7316 54.9378C32.0907 53.2969 29.8651 52.375 27.5444 52.375C25.2238 52.375 22.9982 53.2969 21.3572 54.9378C19.7163 56.5788 18.7944 58.8044 18.7944 61.125Z" stroke="#00263E" stroke-width="2" stroke-linecap="round" stroke-linejoin="round"/>
<path d="M42.1278 26.125H23.1694" stroke="#00263E" stroke-width="2" stroke-linecap="round" stroke-linejoin="round"/>
<path d="M29.0028 21.75L23.1694 26.125L29.0028 30.5" stroke="#00263E" stroke-width="2" stroke-linecap="round" stroke-linejoin="round"/>
<path d="M49.4196 49.4583C48.646 49.4583 47.9042 49.7655 47.3572 50.3125C46.8102 50.8595 46.5029 51.6014 46.5029 52.3749V69.8749C46.5029 70.6485 46.8102 71.3903 47.3572 71.9373C47.9042 72.4843 48.646 72.7916 49.4196 72.7916H55.2529V80.0833L62.5446 72.7916H78.5863C79.3598 72.7916 80.1017 72.4843 80.6487 71.9373C81.1956 71.3903 81.5029 70.6485 81.5029 69.8749V52.3749C81.5029 51.6014 81.1956 50.8595 80.6487 50.3125C80.1017 49.7655 79.3598 49.4583 78.5863 49.4583H49.4196Z" stroke="#00263E" stroke-width="2" stroke-linecap="round" stroke-linejoin="round"/>
<path d="M53.7944 61.125H72.7528" stroke="#00263E" stroke-width="2" stroke-linecap="round" stroke-linejoin="round"/>
<path d="M66.9194 56.75L72.7528 61.125L66.9194 65.5" stroke="#00263E" stroke-width="2" stroke-linecap="round" stroke-linejoin="round"/>
</svg>
