<svg width="1599" height="1472" viewBox="0 0 1599 1472" fill="none" xmlns="http://www.w3.org/2000/svg">
<g clip-path="url(#clip0_1826_3122)">
<g clip-path="url(#clip1_1826_3122)">
<mask id="mask0_1826_3122" style="mask-type:alpha" maskUnits="userSpaceOnUse" x="0" y="-86" width="1600" height="1559">
<path d="M1441.96 949.286C1132.23 1428.67 843.463 1529.49 518.221 1445.13C79.4866 1331.33 -180.658 703.23 148.419 219.927C470.767 -253.499 939.418 -57.3006 1168.22 24.4708C1573.3 169.269 1751.69 469.898 1441.96 949.286Z" fill="#D0E2F3"/>
</mask>
<g mask="url(#mask0_1826_3122)">
<path d="M1405.89 999.611C1103.91 1432.84 822.363 1523.95 505.258 1447.72C77.4982 1344.87 -176.139 777.245 144.706 340.473C458.99 -87.3723 915.918 89.9363 1138.99 163.835C1533.95 294.692 1707.87 566.378 1405.89 999.611Z" fill="#D0E2F3"/>
<path d="M761.459 886.523V962.754C761.459 964.848 760.971 966.906 759.995 968.79C758.391 971.895 758.077 975.454 759.158 978.768C761.145 984.874 763.83 995.201 761.459 1000.75C750.65 1026.39 731.508 1050.53 718.817 1052.66C713.029 1053.64 717.352 1036.86 720.63 1033.58L713.308 1036.68L697.827 933.099L712.087 880.557L761.459 886.523Z" fill="white"/>
<path d="M822.338 975.139C822.338 975.139 817.736 1135.28 853.858 1325.84C881.752 1472.93 897.093 1526.41 902.149 1542.01C903.439 1545.92 904.067 1550.03 904.067 1554.15V1572.61C904.067 1576.97 905.392 1581.22 907.902 1584.82L911.075 1589.39C914.387 1594.17 915.573 1600.06 914.457 1605.79C911.772 1619.64 909.576 1654.18 924.743 1730.69C946.395 1840.03 970.035 1947.42 965.119 1969.08C962.504 1980.53 960.447 1989.81 959.122 1995.98C958.11 2000.55 961.249 2004.98 965.921 2005.54C980.112 2007.22 1008.18 2010.81 1023.21 2014.4C1043.88 2019.32 1050.79 2024.66 1050.79 2024.66L1063.62 2006.55C1066.79 2002.09 1068.33 1996.64 1067.98 1991.17C1066.48 1967.48 1062.26 1898.85 1060.65 1849.87C1058.7 1789.79 1056.71 1688.44 1045.87 1610.08C1036.77 1544.31 1027.01 1274.41 1024.08 1189.18C1023.97 1186.63 1027.71 1186.18 1028.19 1188.73C1038.65 1243.33 1062.43 1373.88 1068.5 1460.79C1074.67 1548.99 1106.99 1625.01 1120.56 1653.62C1125.05 1663.11 1128.68 1672.98 1131.4 1683.13C1140.15 1715.79 1159.01 1790.38 1171.88 1872.58C1179.86 1923.62 1180.21 1971.87 1179.97 1990.99C1179.9 1996.16 1183.39 2000.69 1188.41 2001.91C1199.88 2004.7 1220.55 2008.89 1236.87 2007.53C1260.93 2005.54 1275.68 1997.41 1282.51 1992.53C1285.41 1990.47 1287.08 1987.19 1287.08 1983.63C1287.01 1949.16 1285.44 1750.89 1258.52 1664.68C1228.99 1570.1 1207.34 1527.74 1205.35 1517.9C1203.36 1508.06 1224.6 1378.45 1237.33 1219.46C1253.29 1019.97 1225.51 989.617 1225.51 989.617L822.373 975.139H822.338Z" fill="#225597"/>
<path d="M1198.41 359.776C1198.41 359.776 1278.15 371.254 1293.91 429.379C1309.67 487.503 1355.94 747.563 1353.95 769.229C1351.97 790.895 1341.12 822.818 1327.38 828.331C1311.17 834.855 1272.15 831.087 1256.36 829.203C1252.59 828.749 1249.14 831.401 1248.62 835.169L1233.84 938.649C1233.84 938.649 1265.81 982.225 1242.2 1061.77C1241.82 1063.06 1240.01 1063.27 1239.41 1062.05C1233.35 1049.94 1206.29 1011.74 1103.89 1000.72C951.797 984.318 822.336 975.107 822.336 975.107C822.336 975.107 825.753 920.472 846.952 857.881C855.181 833.529 868.5 809.491 873.974 800.036C875.578 797.245 876.205 794 875.717 790.825C874.288 781.44 871.08 760.158 867.628 737.481C864.176 714.803 862.049 698.65 860.899 689.16C860.724 687.59 858.458 687.555 858.214 689.125C854.379 713.861 844.302 776.207 838.096 787.965C831.889 799.722 791.513 826.726 791.513 826.726V803.071C791.513 803.071 817.559 804.188 797.755 757.158C777.95 710.128 767.734 699.312 767.734 699.312L790.956 597.263C790.956 597.263 806.75 471.629 838.235 431.437C871.707 388.733 915.431 379.523 915.431 379.523L1198.41 359.811V359.776Z" fill="#5A92CB"/>
<path d="M1096.39 194.889C1096.39 194.889 1086.98 259.817 1096.39 286.228C1110.9 326.943 1198.41 359.773 1198.41 359.773C1198.41 359.773 1118.04 436.144 1009.85 443.227C899.392 450.449 904.796 386.707 915.396 379.485C925.995 372.263 969.614 354.4 979.133 335.49C983.84 326.105 982.48 281.622 982.48 281.622L1096.36 194.854L1096.39 194.889Z" fill="white"/>
<path opacity="0.2" d="M1083.56 203.471C1083.56 203.471 1063.2 235.15 1031.05 258.107C1006.47 275.656 989.697 305.695 989.697 305.695C989.697 305.695 1023.31 317.662 1055 273.702C1078.15 241.57 1083.56 203.436 1083.56 203.436V203.471Z" fill="#225597"/>
<path d="M920.8 78.7072C920.8 78.7072 910.653 115.096 911.037 130.901C911.874 163.836 911.037 192.514 920.8 230.403C927.634 256.953 936.594 291.982 970.032 303.286C1037.95 326.277 1082.93 220.53 1083.56 203.469C1084.19 186.409 1080.28 105.606 1080.28 105.606L1010.72 47.1678L920.8 78.7072Z" fill="white"/>
<path d="M791.515 826.722V869.216C791.515 872.077 790.992 874.903 789.911 877.554C786.076 887.009 775.651 909.722 761.46 916.42V902.918C738.483 880.59 706.196 898.313 706.196 898.313V793.891L737.053 762.352L791.515 803.067V826.722Z" fill="#5A92CB"/>
<path d="M300.066 1058.52C300.066 1058.52 302.541 1217.44 310.421 1331.74C318.301 1446.03 250.764 1581.96 243.198 1755.32C235.632 1928.68 251.357 2027.21 251.357 2027.21C251.357 2027.21 284.132 2003.55 311.049 2009.49C328.134 2013.25 345.776 2022.71 356.411 2029.13C360.909 2031.85 366.662 2028.85 366.976 2023.58C370.323 1966.15 385.595 1717.08 402.958 1637.12C422.658 1546.48 499.435 1298.25 499.435 1298.25C499.435 1298.25 483.013 1581.96 480.398 1684.39C477.783 1786.83 506.269 2015.38 506.269 2015.38C506.269 2015.38 543.054 2060.21 575.062 2046.43C607.07 2032.65 616.414 2029.23 616.414 2029.23C616.414 2029.23 607.209 1875.51 616.344 1830.19C625.444 1784.87 647.132 1440.1 671.748 1392.83C696.364 1345.55 720.213 1051.72 714.076 1020.46L300.066 1058.56V1058.52Z" fill="#2D3B4F"/>
<path d="M499.434 1298.24C557.976 1247.06 590.019 1195.49 590.019 1195.49C590.019 1195.49 555.57 1402.63 529.978 1623.3C504.386 1843.97 524.608 2024.62 524.608 2024.62L515.404 2020.86L506.268 2015.34C506.268 2015.34 468.403 1847.91 478.061 1633.17C487.615 1421.05 499.434 1298.21 499.434 1298.21V1298.24Z" fill="#171C26"/>
<path d="M521.749 233.021L510.453 229.847C503.2 227.788 495.39 230.3 490.683 236.196L469.414 262.781C467.81 264.77 466.939 267.247 466.939 269.829C466.939 275.167 463.173 279.772 457.943 280.854C429.596 286.75 342.638 307.404 319.242 342.711C291.174 385.066 250.345 637.242 246.405 655C242.465 672.758 237.549 747.594 262.165 757.433C278.936 764.167 299.403 768.597 310.7 770.726C315.546 771.633 318.824 776.133 318.301 781.018C303.726 917.398 296.021 1030.96 293.824 1065.71C293.406 1072.23 297.38 1078.2 303.587 1080.29C332.631 1090.1 417.497 1112.63 492.531 1117.97C571.714 1123.62 610.625 1116.19 622.41 1113.19C624.991 1112.53 627.083 1110.72 628.094 1108.27C630.43 1102.69 635.137 1090.27 641.971 1067.1L641.343 1114.9C641.343 1116.47 642.947 1117.52 644.377 1116.82C651.455 1113.33 669.481 1103.67 684.474 1088.39C715.819 1056.43 716.516 1034.76 716.516 1034.76C716.447 985.989 703.162 941.61 703.162 941.61C710.031 937.842 717.702 937.947 721.502 938.331C722.827 938.47 724.013 937.459 724.048 936.133C724.187 932.435 723.908 925.073 720.7 916.386C716.342 904.524 706.126 898.279 706.126 898.279C706.126 898.279 712.123 843.12 709.125 824.384C706.126 805.649 803.37 660.303 803.37 660.303C803.37 660.303 771.048 495.628 767.178 476.649C765.539 468.694 767.318 390.544 725.826 367.308C695.352 350.247 677.884 339.711 669.655 334.582C665.82 332.21 662.752 328.791 660.729 324.744L647.027 296.937L521.715 232.987L521.749 233.021Z" fill="#5A92CB"/>
<path d="M624.014 417.371L626.175 519.072C624.606 542.343 619.795 519.595 619.934 529.538C620.876 597.606 623.909 807.845 627.988 879.088C632.626 960.448 628.372 1041.29 628.372 1041.29" stroke="#225597" stroke-width="11.2606" stroke-miterlimit="10" stroke-linecap="round"/>
<path d="M521.75 170.815C521.75 170.815 524.365 214.635 521.75 233.021C519.135 251.407 552.991 337.687 574.225 363.714C588.869 381.682 602.502 390.718 609.65 394.66C612.544 396.23 616.17 395.009 617.565 392.044C636.009 353.003 620.145 320.871 627.118 310.23C627.118 310.23 664.844 294.146 680.569 240.278C689.739 208.948 688.205 187.073 688.205 187.073C688.205 187.073 705.987 183.095 703.198 126.506C700.409 69.8817 669.935 22.9215 663.763 22.2586C657.592 21.5957 561.777 22.2586 561.777 22.2586C561.777 22.2586 542.078 34.0859 533.57 49.1927C525.028 64.2995 521.75 170.849 521.75 170.849V170.815Z" fill="white"/>
<path d="M284.307 606.122L344.104 622.66C344.104 622.66 316.699 626.009 298.637 631.417" stroke="#225597" stroke-width="11.2606" stroke-miterlimit="10" stroke-linecap="round"/>
<path d="M969.302 630.018C969.302 630.018 979.971 618.365 969.302 612.434C958.633 606.503 934.749 614.214 930.425 607.899C926.102 601.584 937.922 592.094 937.922 592.094" stroke="white" stroke-width="11.2606" stroke-miterlimit="10" stroke-linecap="round"/>
<path opacity="0.2" d="M532.557 235.603C532.557 235.603 546.887 288.075 582.277 305.624C605.08 316.963 626.21 310.02 626.21 310.02C626.21 310.02 597.201 340.024 563.589 305.24C540.786 281.656 532.592 235.603 532.592 235.603H532.557Z" fill="#225597"/>
<path d="M636.319 176.219C632.763 196.734 635.901 209.922 637.365 218.539C637.784 220.982 635.587 223.075 633.181 222.482C627.463 221.121 618.572 217.946 614.911 210.969" stroke="#0A253C" stroke-width="7.50704" stroke-miterlimit="10" stroke-linecap="round"/>
<path d="M948.729 180.51C947.648 197.536 941.582 211.945 938.478 218.364C937.607 220.179 939.141 222.481 941.442 222.481C949.287 222.481 960.305 217.806 960.305 217.806" stroke="#0A253C" stroke-width="7.50704" stroke-miterlimit="10" stroke-linecap="round"/>
<path d="M599.145 177.122C599.444 172.044 597.458 167.796 594.709 167.634C591.96 167.472 589.489 171.458 589.191 176.536C588.892 181.614 590.878 185.862 593.627 186.024C596.376 186.186 598.846 182.2 599.145 177.122Z" fill="#0A253C"/>
<path d="M666.297 182.252C666.596 177.174 664.61 172.926 661.861 172.764C659.112 172.602 656.641 176.587 656.342 181.665C656.044 186.744 658.03 190.991 660.779 191.153C663.528 191.315 665.998 187.33 666.297 182.252Z" fill="#0A253C"/>
<path d="M985.427 186.874C988.173 186.665 990.087 182.384 989.702 177.312C989.318 172.24 986.78 168.297 984.034 168.505C981.288 168.714 979.374 172.995 979.759 178.067C980.144 183.139 982.682 187.082 985.427 186.874Z" fill="#0A253C"/>
<path d="M928.89 193.3C931.635 193.092 933.55 188.811 933.165 183.739C932.78 178.666 930.242 174.723 927.497 174.932C924.751 175.14 922.837 179.421 923.221 184.494C923.606 189.566 926.144 193.509 928.89 193.3Z" fill="#0A253C"/>
<path d="M655.255 157.521C653.546 157.835 652.71 155.183 654.174 153.997C658.079 150.857 664.495 147.752 673.665 149.566C680.638 150.961 684.648 154.59 686.844 157.765C687.89 159.265 686.496 161.568 684.962 160.87C681.475 159.265 676.175 157.346 669.934 156.788C664.041 156.265 658.916 156.823 655.255 157.521Z" fill="#0A253C"/>
<path d="M965.679 158.148C963.726 158.811 962.157 156.369 963.657 154.938C967.666 151.066 974.674 146.635 985.971 146.495C994.584 146.391 1000.09 149.147 1003.4 151.798C1004.97 153.054 1003.79 155.601 1001.8 155.217C997.303 154.38 990.609 153.578 983.043 154.345C975.93 155.043 969.898 156.683 965.679 158.148Z" fill="#0A253C"/>
<path d="M908.284 164.884C906.924 165.547 905.599 163.663 906.575 162.407C909.121 159.058 913.793 155.115 921.882 154.348C928.053 153.79 932.237 155.674 934.818 157.627C936.038 158.569 935.41 160.663 933.946 160.488C930.668 160.07 925.787 159.825 920.418 160.837C915.362 161.814 911.178 163.489 908.284 164.884Z" fill="#0A253C"/>
<path d="M577.959 154.801C575.972 155.254 574.717 152.673 576.32 151.382C580.609 147.963 587.896 144.334 598.914 145.416C607.317 146.253 612.373 149.567 615.302 152.568C616.696 153.998 615.302 156.406 613.384 155.813C609.095 154.487 602.645 152.987 595.218 152.917C588.21 152.847 582.178 153.824 577.924 154.801H577.959Z" fill="#0A253C"/>
<path d="M590.475 243.804C603.272 261.004 624.296 258.248 624.296 258.248" stroke="#0A253C" stroke-width="7.50704" stroke-miterlimit="10" stroke-linecap="round"/>
<path d="M953.194 254.894C973.975 255.871 989.7 243.765 989.7 243.765" stroke="#0A253C" stroke-width="7.50704" stroke-miterlimit="10" stroke-linecap="round"/>
<path d="M421.091 634.553C421.091 634.553 393.929 629.982 349.788 625.202C349.788 625.202 322.731 650.113 310.911 679.036" stroke="#225597" stroke-width="11.2606" stroke-miterlimit="10" stroke-linecap="round"/>
<path d="M472.31 708.802L479.179 737.062C479.946 740.272 478.9 743.621 476.425 745.819C467.324 753.878 442.639 772.404 402.925 777.498" stroke="#225597" stroke-width="11.2606" stroke-miterlimit="10" stroke-linecap="round"/>
<path d="M562.125 72.7789C562.125 72.7789 560.486 108.296 543.227 150.511L522.9 167.537C522.9 167.537 522.098 139.94 510.94 134.706L501.143 125.496C501.143 125.496 497.586 61.161 526.491 31.5405C546.993 10.5376 573.248 -5.99968 633.812 2.02471C692.876 16.6431 709.09 47.1358 713.553 80.6638C717.458 110.04 689.425 181.736 689.425 181.736C703.511 98.9803 684.508 82.1291 684.508 82.1291C667.249 136.8 562.09 72.7441 562.09 72.7441L562.125 72.7789Z" fill="#225597"/>
<path d="M764.637 693.408L755.607 676.104C753.828 672.719 754.735 668.498 757.803 666.195C759.198 665.148 760.244 664.207 760.802 663.334C763.486 659.113 756.932 630.748 753.863 618.398C752.957 614.734 750.69 611.559 747.517 609.501L742.392 606.187L733.954 673.173L697.762 693.862C697.762 693.862 706.13 712.772 711.047 732.763C715.091 749.265 731.13 787.259 744.031 798.772C761.394 814.263 803.967 830.905 810.487 779.548C816.415 732.902 784.999 709.318 772.552 701.886C769.135 699.863 766.415 696.862 764.567 693.373L764.637 693.408Z" fill="white"/>
<path d="M374.644 587.701C374.644 587.701 409.581 439.913 397.343 391.034C388.208 354.575 355.189 345.399 355.189 345.399" stroke="#225597" stroke-width="11.2606" stroke-miterlimit="10" stroke-linecap="round"/>
<path d="M522.07 185.243C530.195 182.703 532.223 166.048 526.601 148.042C520.979 130.037 509.836 117.499 501.712 120.039C493.588 122.579 491.559 139.234 497.181 157.239C502.803 175.245 513.946 187.782 522.07 185.243Z" fill="white"/>
<path d="M644.436 457.818C647.609 457.655 650.002 454.029 649.78 449.718C649.559 445.408 646.808 442.046 643.634 442.209C640.461 442.372 638.068 445.998 638.29 450.309C638.511 454.619 641.262 457.982 644.436 457.818Z" fill="white"/>
<path d="M644.423 745.339C647.596 745.176 649.989 741.549 649.768 737.239C649.546 732.928 646.795 729.566 643.622 729.729C640.449 729.892 638.056 733.519 638.277 737.829C638.498 742.14 641.25 745.502 644.423 745.339Z" fill="white"/>
<path d="M647.746 854.336C650.919 854.173 653.312 850.546 653.091 846.236C652.869 841.925 650.118 838.563 646.944 838.726C643.771 838.889 641.378 842.516 641.6 846.826C641.821 851.137 644.572 854.499 647.746 854.336Z" fill="white"/>
<path d="M647.733 975.205C650.906 975.042 653.299 971.416 653.078 967.105C652.857 962.795 650.105 959.433 646.932 959.596C643.759 959.759 641.366 963.385 641.587 967.696C641.808 972.006 644.56 975.369 647.733 975.205Z" fill="white"/>
<path d="M917.944 78.0757C917.944 78.0757 920.14 109.162 960.726 124.059C1016.34 144.469 1060.86 131.49 1060.86 131.49C1060.86 131.49 1055.15 161.006 1081.4 176.846L1096.36 194.848C1088.09 231.9 1092.07 254.926 1092.07 254.926C1092.07 254.926 1176.48 114.43 1105.84 54.3514C1019.2 -19.3334 1006.4 24.0332 1006.4 24.0332C1006.4 24.0332 976.485 20.4396 946.848 25.9869C878.439 38.7911 917.909 78.0408 917.909 78.0408L917.944 78.0757Z" fill="#225597"/>
<path d="M924.22 61.5081C924.22 61.5081 906.507 73.8239 903.439 96.1875C899.952 121.761 911.04 130.867 911.04 130.867C911.04 130.867 915.364 84.6393 941.932 83.1391L924.22 61.4733V61.5081Z" fill="#225597"/>
<path d="M1111.04 181.025C1116.66 163.02 1114.63 146.365 1106.51 143.825C1098.38 141.285 1087.24 153.823 1081.62 171.828C1076 189.834 1078.02 206.489 1086.15 209.029C1094.27 211.568 1105.42 199.031 1111.04 181.025Z" fill="white"/>
<path d="M1009.86 650.045C1012.78 650.429 1014.77 653.22 1014.11 656.116L1010.2 673.77L1002.01 708.763L1015.3 744.629L999.675 758.41L933.567 759.84L925.095 652.208C924.885 649.383 927.012 646.905 929.836 646.766C965.017 645.091 997.304 648.44 1009.79 650.01L1009.86 650.045Z" fill="#0A253C"/>
<path d="M1219.09 536.764C1216.69 606.925 1239.77 698.228 1244.82 717.382C1245.35 719.371 1247.3 720.627 1249.32 720.278C1260.03 718.464 1293.19 715.742 1322.47 744.63" stroke="#225597" stroke-width="11.2606" stroke-miterlimit="10" stroke-linecap="round"/>
<path d="M861.737 668.852C853.334 566.035 867.769 497.758 867.769 497.758" stroke="#225597" stroke-width="11.2606" stroke-miterlimit="10" stroke-linecap="round"/>
<path d="M861.741 668.851C839.809 618.785 839.809 564.987 839.809 564.987" stroke="#225597" stroke-width="11.2606" stroke-miterlimit="10" stroke-linecap="round"/>
<path opacity="0.2" d="M972.965 998.793C972.965 998.793 979.346 1079.63 1005.46 1137.41" stroke="white" stroke-width="9.3838" stroke-miterlimit="10" stroke-linecap="round"/>
<path d="M1240.46 729.241C1243.22 729.346 1245.87 729.939 1248.38 731.02C1257.41 734.893 1276.03 746.441 1272.26 775.189C1268.91 800.693 1252.98 814.021 1244.37 819.463C1241.12 821.522 1237.22 822.045 1233.52 821.068C1216.82 816.567 1165.15 802.472 1146.29 795.878C1132.23 790.994 1114.8 784.505 1103.54 780.248C1096.22 777.492 1088.37 776.585 1080.63 777.527C1062.92 779.69 1028.05 782.551 999.705 776.48C997.961 776.097 996.218 775.887 994.44 775.887H972.439C967.278 775.887 962.153 775.155 957.202 773.689C943.708 769.782 917.837 761.304 919.336 754.466C921.01 746.755 947.718 755.442 955.598 756.419C963.478 757.396 984.154 754.78 984.154 754.78C984.154 754.78 929.029 746.232 917.209 739.673C905.39 733.114 909.155 725.927 917.209 726.206C922.718 726.38 958.876 730.811 968.08 731.125C977.285 731.439 990.081 729.485 990.081 729.485C990.081 729.485 952.983 725.543 936.909 720.938C920.836 716.332 910.585 712.739 914.908 706.494C919.441 699.935 950.019 703.877 966.755 703.214C977.076 702.795 984.573 702.516 989.175 702.307C990.779 702.237 991.267 700.109 989.872 699.341C983.248 695.608 971.567 689.433 966.755 689.433C946.219 689.328 919.336 693.131 919.511 683.188C919.65 674.571 932.342 671.745 946.428 668.744C958.039 666.267 984.503 662.848 1015.01 675.652C1045.52 688.456 1065.67 698.748 1105.6 711.099C1150.61 725.054 1224.21 728.578 1240.5 729.206L1240.46 729.241Z" fill="white"/>
<path d="M470.845 296.347C481.723 345.401 502.12 373.242 512.65 384.929C516.66 389.395 523.006 390.826 528.585 388.662C534.163 386.499 541.834 382.976 552.259 376.975C552.887 376.626 553.654 376.731 554.142 377.254C557.698 381.301 573.075 397.524 590.473 399.652" stroke="#225597" stroke-width="11.2606" stroke-miterlimit="10" stroke-linecap="round"/>
<path d="M664.947 345.399C664.947 345.399 681.056 367.693 685.24 384.893C685.345 385.312 685.066 385.731 684.647 385.835C679.068 386.847 645.387 393.72 624.048 417.375" stroke="#225597" stroke-width="11.2606" stroke-miterlimit="10" stroke-linecap="round"/>
<path d="M570.595 595.448L572.164 510.808C572.234 506.447 575.93 503.063 580.288 503.342L740.014 513.669C744.198 513.948 747.371 517.542 747.127 521.728L737.155 701.998C736.911 706.255 733.285 709.464 729.031 709.185L587.157 699.765C583.426 699.521 580.428 696.59 580.079 692.892L570.665 596.355C570.665 596.076 570.63 595.762 570.665 595.483L570.595 595.448Z" fill="#0A253C"/>
<path d="M441.343 640.208C441.343 640.208 424.502 644.29 403.234 694.077C393.75 716.231 390.263 731.687 388.938 740.095C388.415 743.549 391.762 746.34 395.075 745.188L523.838 700.775C527.988 699.345 532.52 700.042 536.112 702.554C541.272 706.183 549.814 710.753 559.473 710.16C575.232 709.183 659.262 678.9 666.793 674.713C678.369 668.224 672.895 662.467 669.199 659.886C668.257 659.223 668.397 657.792 669.443 657.304C673.941 655.211 682.797 650.431 684.296 644.395C685.412 639.86 683.146 637.243 681.472 635.987C680.775 635.464 680.67 634.452 681.263 633.859C683.111 632.044 685.691 628.276 682.065 623.706C678.439 619.136 664.841 617.252 658.634 616.589C657.449 616.449 656.926 615.089 657.658 614.147C659.576 611.809 661.424 608.006 656.717 604.971C643.885 596.632 570.56 595.865 570.56 595.865L571.048 553.998C565.888 557.522 563.029 562.721 561.495 566.593C560.309 569.594 558.182 572.175 555.323 573.676C550.721 576.083 543.085 581.212 534.403 591.678C527.43 600.086 523.315 606.611 520.91 611.041C518.504 615.472 514.564 618.787 509.752 620.182L441.343 640.174V640.208Z" fill="white"/>
<path d="M565.891 625.167L592.669 621.294C597.446 620.596 602.292 620.178 607.139 620.038L647.375 618.782" stroke="#C3D6ED" stroke-width="5.63028" stroke-miterlimit="10" stroke-linecap="round"/>
<path d="M572.305 650.776L606.265 645.857L668.015 637.972" stroke="#C3D6ED" stroke-width="5.63028" stroke-miterlimit="10" stroke-linecap="round"/>
<path d="M568.821 679.037L612.648 668.85L655.604 660.337" stroke="#C3D6ED" stroke-width="5.63028" stroke-miterlimit="10" stroke-linecap="round"/>
<path opacity="0.2" d="M547.9 698.747C549.504 699.026 550.515 697.072 549.33 695.921C546.436 693.095 542.426 688.664 539.427 683.396C537.3 679.663 536.568 675.441 536.324 672.511C536.115 670.173 535.278 667.975 533.953 666.021C532.105 663.265 529.769 658.555 529.56 652.101C529.316 645.263 531.408 639.89 533.326 636.506C534.79 633.889 534.581 630.609 532.872 628.132C530.85 625.237 528.549 621.155 528.13 617.038C527.991 615.607 526.248 615.014 525.271 616.061C518.786 623.039 504.804 642.053 512.963 669.65C519.379 691.42 538.59 697.212 547.9 698.712V698.747Z" fill="#225597"/>
<path opacity="0.2" d="M543.475 595.862H570.566L570.741 581.628C555.26 577.441 543.475 595.862 543.475 595.862Z" fill="#225597"/>
<path d="M775.858 693.795C794.93 684.236 816.617 684.899 816.617 684.899" stroke="#225597" stroke-width="11.2606" stroke-miterlimit="10" stroke-linecap="round"/>
<path d="M1126.03 136.382C1126.03 136.382 1145.14 126.752 1169.68 146.011C1212.74 179.818 1166.86 246.316 1255.77 263.446C1257.51 263.795 1257.79 266.168 1256.12 266.83C1241.44 272.761 1199.7 286.019 1164.87 262.644C1108.98 225.173 1119.13 182.33 1119.13 182.33L1126.03 136.347V136.382Z" fill="#225597"/>
<path d="M1126.27 186.616C1134.05 164.705 1135.37 147.505 1135.37 147.505" stroke="white" stroke-width="11.2606" stroke-miterlimit="10" stroke-linecap="round"/>
<path d="M948.832 61.5054C948.832 61.5054 965.847 79.4382 981.816 79.9964C997.785 80.5546 988.581 65.7269 988.581 65.7269" stroke="#5A92CB" stroke-width="7.50704" stroke-miterlimit="10" stroke-linecap="round"/>
</g>
</g>
</g>
<defs>
<clipPath id="clip0_1826_3122">
<rect width="1599" height="1472" fill="white"/>
</clipPath>
<clipPath id="clip1_1826_3122">
<rect width="1599" height="1582" fill="white" transform="translate(0 -110)"/>
</clipPath>
</defs>
</svg>
