<svg width="1706" height="1667" viewBox="0 0 1706 1667" fill="none" xmlns="http://www.w3.org/2000/svg">
<g clip-path="url(#clip0_1828_4232)">
<path d="M1082.17 1464.91C1495.82 1235.25 1767.59 955.534 1548.39 614.59C1329.18 273.647 722.927 59.5985 309.281 289.257C-104.365 518.915 -16.7993 722.287 202.406 1063.23C421.611 1404.17 668.476 1694.52 1082.12 1464.91H1082.17Z" fill="#D0E2F3"/>
<path d="M223.793 745.53L218.282 747.599C216.163 748.426 214.043 747.185 213.62 745.117L213.196 740.98C212.772 737.671 210.652 735.19 207.685 733.535L203.446 731.467C198.36 728.985 194.968 724.435 194.544 719.058L191.153 688.45C191.153 686.382 188.61 685.555 186.915 686.795L184.371 688.45C182.676 689.691 181.404 691.759 181.404 694.241L183.523 720.299C183.947 724.849 181.404 729.399 177.589 731.881L169.535 736.844C167.416 738.085 165.296 738.499 162.753 738.499C159.786 738.085 156.818 739.326 154.275 741.394L107.647 786.066C105.528 788.134 102.984 788.961 100.441 788.961L64.8344 787.72C61.4433 787.72 58.0522 786.066 55.5089 783.584L27.5322 754.217C25.4128 751.735 24.5649 748.839 24.5649 745.53L26.2605 733.122C26.2605 731.881 26.6844 730.64 27.5322 729.399L30.0756 725.676C32.195 721.954 31.3472 717.404 27.9561 714.922L23.2933 711.613C19.9022 709.131 18.2066 704.995 19.0544 700.859L26.6844 669.01C27.956 664.46 27.956 659.91 26.6844 655.36L21.5978 633.024C20.75 628.474 20.75 623.924 21.5978 619.374L29.2277 589.18C30.0755 586.698 30.0756 583.803 30.0756 581.321L29.6516 559.399C29.6516 554.849 31.771 550.299 35.1622 546.99L73.3122 515.554C76.7033 512.659 80.5183 510.177 84.7572 508.109L161.481 472.124C165.296 470.469 168.263 467.574 170.383 464.265L190.73 433.243C193.697 428.693 197.512 425.384 202.174 422.902L218.706 414.63C220.826 413.389 222.521 411.734 222.945 409.253L224.217 403.875C224.641 402.221 223.793 400.566 222.097 399.739L220.826 398.912C218.282 397.671 218.282 394.776 219.978 393.121L242.02 374.508C246.259 371.199 249.226 366.649 250.498 361.686L269.997 298.401C271.692 293.024 273.812 288.06 276.779 283.51L325.95 205.749C327.222 203.68 328.917 201.612 331.037 199.958L339.938 192.512L357.742 186.308C359.861 185.481 359.437 182.585 357.318 182.172L344.601 180.517C342.482 180.104 339.938 180.517 338.243 181.758L327.646 188.376C326.374 189.203 324.678 190.031 322.983 190.444L297.973 197.062C295.006 197.89 292.463 199.13 290.343 200.785L275.083 211.953C273.388 213.194 270.845 211.126 271.692 209.471L276.779 199.958C278.898 196.235 281.866 192.926 286.105 190.858L313.233 178.036C315.777 176.795 316.201 173.899 314.081 171.831L310.266 168.109C307.299 165.213 307.723 160.663 311.114 158.595L332.308 144.118C335.276 142.05 339.515 143.291 340.786 146.6C341.634 148.668 344.177 150.323 346.721 149.909L362.829 147.841C367.491 147.427 371.306 144.118 372.154 139.568L377.241 120.128C378.089 115.992 380.208 112.269 382.327 108.96L397.587 87.4515C400.555 83.3153 406.489 82.488 410.304 85.7971L416.662 91.1741C417.934 92.415 419.206 93.656 420.054 94.8969L425.988 104.41L448.454 68.8384C450.573 65.1157 455.236 63.4612 459.475 64.2885L473.463 66.7702C478.126 67.5975 483.213 65.1157 484.909 60.5658L499.745 27.0621C501.016 24.1667 503.136 22.0986 506.103 20.8577L523.059 14.6533C526.026 13.4125 529.417 16.3079 528.569 19.6169L519.244 50.6388C518.396 52.707 520.091 54.7751 522.635 54.7751H523.059C526.026 54.7751 528.569 52.707 529.417 50.2252L540.862 17.1351C541.71 15.067 544.677 15.4806 545.101 17.5488L548.068 33.2665C548.492 35.3346 551.035 36.5755 553.155 35.7483L554.85 34.9211C556.97 34.0939 558.665 32.0257 559.089 29.9576L565.871 3.89917C566.295 1.83104 567.991 0.590061 569.686 0.176435L574.349 -0.23709C577.316 -0.650716 579.86 1.41731 579.86 4.31269V21.2714C579.86 24.5804 583.251 27.0621 586.642 25.4076C587.914 24.5804 588.761 23.3396 589.185 22.0987L591.305 8.86261C591.729 5.96722 594.696 3.89912 597.663 5.14L631.998 16.3079C636.661 17.5488 638.78 22.5122 637.085 27.0621L634.965 32.853C633.27 37.8165 629.031 41.5391 623.944 43.1936L613.347 46.5026C610.804 47.3298 610.804 51.0524 613.347 51.8797L628.183 57.6705C630.726 58.4978 633.27 59.3249 635.813 60.1522L649.377 63.0476C652.345 63.8749 654.04 67.1839 652.345 70.0793L651.073 71.7338C649.378 74.2156 646.834 75.4564 643.867 75.8701L640.052 76.2837C635.813 76.6973 632.846 80.42 633.27 84.5562C633.27 85.7971 633.27 87.4516 632.422 88.6925L623.096 107.306C621.825 109.787 618.434 110.615 615.89 108.96C614.619 108.133 613.771 106.892 613.771 105.238L613.347 82.4881C613.347 77.111 610.38 72.5611 605.293 70.0793L591.305 63.0476C587.066 60.9795 581.555 60.9795 577.316 63.4613L563.328 69.252C559.089 71.7338 556.122 76.2836 555.698 81.2471L554.002 116.819C553.578 122.61 552.307 128.401 549.34 133.778L543.405 144.945C540.438 150.323 534.504 154.045 528.145 153.632L487.452 151.977C481.941 151.564 476.431 149.082 473.04 144.532L462.019 130.469C459.051 126.332 453.117 125.919 449.302 129.228L437.433 139.568C434.042 142.464 432.346 146.6 431.922 150.736L431.498 159.009C431.498 161.491 430.651 163.972 429.379 166.454L426.412 172.245C424.716 175.967 420.477 177.622 416.662 176.795L401.402 173.486C399.707 173.072 397.587 173.486 396.316 175.14L390.805 181.345C389.11 182.999 388.686 185.481 389.11 187.549L389.957 191.685C390.381 192.926 389.957 194.581 389.533 195.822L387.414 200.371C385.718 204.094 381.904 206.576 377.665 206.162H374.697C370.035 205.749 365.796 208.23 363.252 212.367L349.688 236.357C348.416 238.839 347.569 242.148 347.992 245.043L349.688 261.174C350.112 264.897 349.264 268.206 346.721 271.515C342.906 276.892 335.7 290.128 332.308 296.333C331.037 298.401 329.765 300.469 327.646 301.71L311.114 314.946C306.875 318.255 304.332 323.218 304.756 328.595L305.18 358.79C305.18 362.513 304.332 366.235 302.636 369.958L286.105 403.462C284.409 406.357 284.833 410.08 286.105 412.975L289.92 420.42C290.767 421.661 291.191 423.316 291.191 424.557L292.039 435.725C292.463 439.861 288.648 442.756 284.833 442.343L272.54 440.275C268.725 439.447 264.91 441.102 262.367 443.583L244.14 464.265C242.444 466.333 241.172 468.815 241.172 471.71L238.205 525.068C237.781 530.031 239.477 535.408 242.868 539.545L247.107 545.335C250.074 549.058 251.346 554.022 250.074 558.985L245.835 577.598C244.987 581.321 245.835 585.044 248.378 587.939L258.976 599.934C261.519 602.416 261.943 606.138 260.671 609.447L256.432 620.202C255.585 622.27 254.313 623.511 252.193 624.752L251.77 625.165C247.955 626.82 246.259 630.956 247.531 634.679L253.041 653.292C253.889 656.601 253.889 659.91 253.041 662.805L247.531 678.523C246.259 681.832 244.14 684.727 241.172 686.795L230.575 693.827C228.032 695.482 226.336 697.55 225.912 700.445L223.793 707.89C222.945 710.372 222.945 712.854 224.217 715.336L228.032 725.676C228.879 727.745 228.88 730.226 228.456 732.294L225.065 744.703C225.488 744.289 224.641 745.117 223.793 745.53Z" fill="#ABCAE9"/>
<path d="M150.041 467.162C148.77 470.057 146.226 472.125 143.259 472.952L134.357 475.021C130.966 475.848 127.999 472.539 129.695 469.23C130.118 468.403 130.966 467.575 131.814 467.162L144.531 461.785C147.922 460.544 151.313 463.853 150.041 467.162Z" fill="#ABCAE9"/>
<path d="M258.556 228.918L258.98 229.745C260.252 232.642 257.709 235.952 254.317 235.125L252.198 234.711C251.774 234.711 251.35 234.297 250.926 233.883L249.655 231.4C248.383 228.918 250.926 226.021 253.47 226.848L256.861 228.09C257.709 228.09 258.132 228.504 258.556 228.918Z" fill="#ABCAE9"/>
<path d="M363.251 126.749L361.132 132.543C360.708 133.784 359.436 134.612 358.165 134.612H357.317C355.197 134.612 353.502 132.543 353.926 130.474L355.197 125.508C355.621 124.266 356.045 123.439 357.317 123.025L359.012 122.611C361.556 121.37 364.523 124.266 363.251 126.749Z" fill="#ABCAE9"/>
<path d="M476.427 39.4721L473.884 44.022C473.036 45.6765 470.917 46.5038 468.797 46.0901L465.406 45.6765C461.591 44.8492 459.895 40.2994 462.863 37.8176L464.982 35.7495C465.406 35.3359 465.83 34.9223 466.254 34.9223L470.069 33.2677C474.308 30.786 478.547 35.3358 476.427 39.4721Z" fill="#ABCAE9"/>
<path d="M443.929 617.128C447.32 617.541 447.32 620.437 446.896 622.505C446.049 625.814 445.201 629.123 444.353 632.432C443.929 633.673 443.505 634.914 443.081 634.914C439.69 635.741 440.538 638.636 440.114 640.704C439.69 642.359 439.266 644.427 438.419 645.668C434.18 650.631 435.027 656.009 435.451 661.799C435.451 663.454 436.723 665.522 437.571 665.936C441.81 668.417 446.472 670.899 451.135 672.967C457.494 675.449 463.852 677.931 470.21 679.585C479.112 682.067 481.655 688.685 483.775 696.13C484.622 698.612 482.503 701.094 479.96 701.094H353.641C350.674 701.094 348.978 698.612 349.826 695.717C350.673 693.649 351.097 691.58 351.945 689.099C353.641 684.962 356.184 682.067 360.847 680.412C367.629 677.931 374.411 675.449 380.77 672.967C385.009 671.313 389.671 669.245 393.91 667.177C398.997 664.281 400.692 653.527 397.725 648.563C395.606 645.254 394.758 641.532 393.486 637.809C393.062 636.982 392.215 636.155 391.791 635.327C390.943 634.5 390.095 633.259 389.671 632.432C388.824 629.95 388.4 627.468 387.552 624.987C386.28 621.678 386.28 618.782 389.247 616.714C388.824 610.096 387.976 603.892 387.552 597.687C387.128 594.378 387.976 590.656 388.823 587.347C390.095 582.383 394.758 578.661 399.845 579.074C401.54 575.351 404.507 574.524 408.746 574.111C413.409 573.697 418.072 572.456 422.311 573.283C426.973 574.111 431.636 576.592 435.451 579.074C438.419 581.556 441.81 584.865 443.081 588.588C446.472 598.101 446.472 607.614 443.929 617.128C443.929 616.714 443.929 616.714 443.929 617.128Z" fill="#4095DA"/>
<path d="M29.5546 324.625L105.431 324.625L105.431 313.452L29.5546 313.452L29.5546 324.625Z" fill="#BFDCF3"/>
<path d="M29.5546 355.132L105.431 355.132L105.431 343.958L29.5546 343.958L29.5546 355.132Z" fill="#BFDCF3"/>
<path d="M29.5546 385.635L105.431 385.635L105.431 374.462L29.5546 374.462L29.5546 385.635Z" fill="#BFDCF3"/>
<path d="M29.5546 416.15L105.431 416.15L105.431 404.977L29.5546 404.977L29.5546 416.15Z" fill="#BFDCF3"/>
<path d="M279.883 637.389H342.619" stroke="#7FB8E6" stroke-width="6.76267" stroke-miterlimit="10" stroke-linecap="round"/>
<path d="M142.548 350.335H219.272" stroke="#7FB8E6" stroke-width="6.76267" stroke-miterlimit="10" stroke-linecap="round"/>
<path d="M244.704 671.303C263.9 671.303 279.463 656.117 279.463 637.385C279.463 618.653 263.9 603.468 244.704 603.468C225.507 603.468 209.945 618.653 209.945 637.385C209.945 656.117 225.507 671.303 244.704 671.303Z" stroke="#7FB8E6" stroke-width="6.76267" stroke-miterlimit="10" stroke-linecap="round"/>
<path d="M244.707 651.861C252.901 651.861 259.543 645.38 259.543 637.384C259.543 629.389 252.901 622.908 244.707 622.908C236.513 622.908 229.871 629.389 229.871 637.384C229.871 645.38 236.513 651.861 244.707 651.861Z" fill="#4095DA"/>
<path d="M254.03 384.252C273.227 384.252 288.789 369.067 288.789 350.335C288.789 331.603 273.227 316.417 254.03 316.417C234.833 316.417 219.271 331.603 219.271 350.335C219.271 369.067 234.833 384.252 254.03 384.252Z" stroke="#7FB8E6" stroke-width="6.76267" stroke-miterlimit="10" stroke-linecap="round"/>
<path d="M254.033 364.813C262.227 364.813 268.869 358.332 268.869 350.337C268.869 342.341 262.227 335.86 254.033 335.86C245.839 335.86 239.197 342.341 239.197 350.337C239.197 358.332 245.839 364.813 254.033 364.813Z" fill="#4095DA"/>
<path d="M627.907 901.947C627.907 901.947 795.436 853.185 810.494 694.262L829.559 914.491H728.202L627.907 901.994V901.947Z" fill="#235595"/>
<path d="M791.285 419.377C791.285 419.377 754.362 405.135 753.88 375.803C753.156 335.341 796.691 320.581 796.691 320.581C796.691 320.581 818.072 319.496 814.839 354.299C811.605 389.101 787.376 395.468 787.376 395.468" fill="#235595"/>
<path d="M606.431 1127.97L477.997 1395.69L498.51 1429.97L662.853 1160.18L606.431 1127.97Z" fill="white"/>
<path d="M622.636 1451.35L589.236 1620.89L628.765 1628.86L667.764 1469.84L622.636 1451.35Z" fill="white"/>
<path d="M1050.85 1495.9C1059.4 1491.28 1064.71 1482.51 1064.71 1472.94V1179.85H1011.04V1472.94C1011.04 1492.93 1033 1505.57 1050.85 1495.9Z" fill="white"/>
<path d="M1153.22 522.086C1261.28 522.086 1342.47 626.07 1321.66 737.835L1253.03 1106.28C1241.59 1167.78 1190.43 1212.1 1131.02 1212.1H757.879L955.428 665.73C986.704 579.242 1065.38 522.133 1153.17 522.133L1153.22 522.086Z" fill="#235595"/>
<path d="M971.266 543.448C971.266 543.448 1026.77 531.328 1055.78 553.209C1161.33 632.954 1297.06 827.009 1254.1 871.904C1211.14 916.799 1061.86 907.65 1061.86 907.65L933.571 922.08L829.657 914.441C829.657 914.441 742.924 603.197 891.05 556.369L971.315 543.4L971.266 543.448Z" fill="#5A90C9"/>
<path d="M800.792 414.379C800.792 414.379 779.651 462.669 752.816 486.861C751.272 488.276 751.706 490.728 753.685 491.53C762.276 494.972 783.657 502.093 812.713 501.81C838.004 501.575 838.969 471.063 838.969 471.063L800.84 414.379H800.792Z" fill="#235595"/>
<path d="M824.302 341.702L814.794 354.246L805.672 348.587C804.803 350.049 792.061 349.106 793.605 349.814L790.565 360.566C773.72 429.369 799.011 500.484 820.972 516.706C846.118 535.239 873.87 514.207 876.235 557.498C876.718 566.269 880.531 571.127 880.531 571.127C880.531 571.127 915.668 637.761 966.491 565.279C970.931 558.913 972.572 551.084 971.318 543.492V543.209C971.318 543.209 950.177 519.536 959.203 496.287C965.864 479.168 973.2 469.878 973.2 469.878C973.2 469.878 935.601 462.899 935.843 433.661C936.036 404.47 936.422 405.13 914.51 399.094C892.645 393.058 910.214 358.632 905.339 354.341C900.464 350.049 875.608 356.651 861.128 349.814C846.649 342.928 824.302 341.655 824.302 341.655V341.702Z" fill="white"/>
<path d="M780.574 354.676C793.75 280.732 916.537 253.569 986.377 336.379C1036.77 396.128 1024.6 509.214 914.558 502.894C911.324 502.706 909.394 499.263 910.986 496.481C916.054 487.662 923.825 469.365 919.288 445.692L904.229 429.611C893.08 417.68 886.902 402.117 886.902 385.989C806.106 385.989 780.574 354.676 780.574 354.676Z" fill="#235595"/>
<path d="M934.145 401.122C944.57 403.999 948.287 416.213 942.398 428.379C936.51 440.546 923.334 448.044 912.908 445.168C902.483 442.291 898.767 430.077 904.655 417.91C910.495 405.743 923.72 398.245 934.145 401.122Z" fill="white"/>
<path d="M347.389 1317.66C342.466 1317.56 340.294 1323.6 344.059 1326.67L485.186 1440.27C489.868 1443.99 496.818 1443.15 500.293 1438.34C505.795 1430.74 511.973 1417.44 509.801 1397.21C509.801 1397.21 492.184 1407.12 481.952 1372.08C481.952 1372.08 456.613 1364.3 412.113 1339.07C385.325 1323.84 360.758 1318.04 347.389 1317.71V1317.66Z" fill="#241C27"/>
<path d="M454.38 1653.62C448.975 1657.01 451.484 1665.17 457.904 1665.31L639.525 1668.19C645.558 1668.28 650.433 1663.33 650.095 1657.44C649.564 1648.15 645.848 1634 631.224 1619.52C631.224 1619.52 609.649 1631.83 590.681 1613.63C590.681 1613.63 568.527 1625.79 517.752 1633.71C484.015 1639 464.999 1647.01 454.38 1653.62Z" fill="#241C27"/>
<path d="M502.511 897.892L506.228 895.11C517.715 886.574 532.05 882.613 546.433 884.027L706.528 900.203C708.169 900.391 708.024 902.749 706.383 902.749H504.201C501.546 902.749 500.388 899.448 502.511 897.845V897.892Z" fill="#171C26"/>
<path d="M975.411 904.579C975.411 904.579 928.642 863.457 883.948 868.267C838.145 873.218 828.299 904.579 828.299 904.579H975.411Z" fill="#241C27"/>
<path d="M1013.01 868.365L1019.43 910.383L975.265 891.378C961.51 885.483 946.547 882.89 931.585 883.691C906.053 885.012 855.278 885.625 861.311 870.11C866.524 856.764 904.122 838.655 944.52 844.361C987.042 850.398 976.954 868.365 995.006 868.365H1013.06H1013.01Z" fill="white"/>
<path d="M670.383 905.104C670.383 904.491 670.528 903.83 670.818 903.17C676.03 889.824 713.388 873.366 754.027 877.422C790.081 881.006 802.099 900.152 804.657 905.104H670.432H670.383Z" fill="white"/>
<path d="M861.124 474.836C852.726 485.876 838.922 484.083 838.922 484.083" stroke="#0B253C" stroke-width="4.50845" stroke-miterlimit="10" stroke-linecap="round"/>
<path d="M846.999 424.169C849.98 423.998 852.133 419.496 851.808 414.114C851.484 408.732 848.805 404.508 845.825 404.679C842.845 404.851 840.691 409.353 841.016 414.735C841.34 420.117 844.019 424.34 846.999 424.169Z" fill="#0B253C"/>
<path d="M797.224 428.809C800.205 428.638 802.358 424.136 802.033 418.754C801.709 413.372 799.03 409.148 796.05 409.319C793.069 409.491 790.916 413.993 791.241 419.375C791.565 424.757 794.244 428.981 797.224 428.809Z" fill="#0B253C"/>
<path opacity="0.2" d="M928.454 474.738C928.454 474.738 922.373 498.6 900.943 514.068C887.091 524.018 873.335 526.517 873.335 526.517C873.335 526.517 893.51 531.044 912.816 509.352C925.896 494.638 928.454 474.785 928.454 474.785V474.738Z" fill="#235595"/>
<path d="M816.577 417.589C811.606 431.831 804.849 439.093 800.843 444.045C799.685 445.459 800.409 447.534 802.146 448.006C806.345 449.138 813.826 448.619 820.632 445.79" stroke="#0B253C" stroke-width="4.50845" stroke-miterlimit="10" stroke-linecap="round"/>
<path d="M800.99 403.063C803.355 402.874 803.741 399.241 801.472 398.25C797.852 396.694 792.833 395.75 786.51 397.779C781.442 399.383 778.45 401.695 776.712 403.865C775.216 405.705 777.195 408.724 779.367 407.875C782.359 406.743 786.462 405.375 791.095 404.431C794.908 403.676 798.287 403.252 801.038 403.016L800.99 403.063Z" fill="#0A253C"/>
<path d="M857.89 398.586C860.593 398.917 861.944 395.473 859.676 394.01C856.104 391.651 850.747 389.622 843.169 390.188C837.088 390.613 833.178 392.17 830.62 393.916C828.448 395.378 829.848 398.728 832.454 398.445C836.074 397.973 840.997 397.596 846.403 397.737C850.843 397.879 854.753 398.209 857.842 398.634L857.89 398.586Z" fill="#0A253C"/>
<path d="M923.337 341.707C923.337 341.707 930.19 365.286 951.282 379.764C972.374 394.241 973.339 379.057 973.339 379.057" stroke="#5A92CB" stroke-width="4.50845" stroke-miterlimit="10" stroke-linecap="round"/>
<path d="M829.606 914.491C829.606 914.491 820.725 1067.71 1229.34 975.278L1197.77 886.243L829.606 914.491Z" fill="#5A90C9"/>
<path d="M1026.14 866.237C1026.14 866.237 1092.51 839.922 1155.83 823.087C1155.83 823.087 1096.51 745.229 1075.9 689.205" stroke="#235595" stroke-width="6.76267" stroke-miterlimit="10" stroke-linecap="round"/>
<path d="M579.875 1592.16L665.015 1071.39L678.674 1078.04L1131.64 1117.89C1131.64 1117.89 1107.17 1167.07 1027.78 1179.85C952.723 1191.92 845.719 1173.06 810.824 1167.31C799.337 1165.42 788.187 1172.12 784.712 1182.96L650.97 1601.73C649.135 1607.53 643.633 1611.49 637.407 1611.49H596.768C586.246 1611.49 578.234 1602.3 579.875 1592.16Z" fill="#171C26"/>
<path d="M1239.18 955.712C1239.18 955.712 1234.55 1077.47 1170.79 1127.98C1086.66 1194.66 891.287 1124.11 781.773 1093.84C749.291 1084.88 714.877 1098.84 698.033 1127.93L584.031 1324.82C578.432 1334.49 564.339 1334.96 558.112 1325.62L530.312 1284.07C527.512 1279.92 526.981 1274.69 528.815 1270.02L627.276 1024.7C646.293 982.687 688.235 955.712 734.473 955.712H1239.13H1239.18Z" fill="#235595"/>
<path d="M1200.72 813.431L1163.12 823.57C1163.12 823.57 1186.96 825.362 1191.69 828.946" stroke="#225597" stroke-width="6.76267" stroke-miterlimit="10" stroke-linecap="round"/>
<path d="M453.417 914.491L457.616 905.201C462.876 893.6 474.412 886.573 486.719 886.196V876.811C486.719 856.722 491.691 836.916 501.247 819.09L555.594 717.228L584.601 731.989L530.255 833.85C523.16 847.102 519.443 861.815 519.443 876.764V894.449L565.247 908.879C568.384 909.869 567.66 914.396 564.378 914.396H453.417V914.491Z" fill="white"/>
<path d="M213.923 938.073L1520.7 938.073C1530.91 938.073 1539.19 929.987 1539.19 920.012C1539.19 910.037 1530.91 901.95 1520.7 901.95L213.923 901.95C203.714 901.95 195.437 910.037 195.437 920.012C195.437 929.987 203.714 938.073 213.923 938.073Z" fill="white"/>
<path d="M525.135 315.011L516.593 337.929C506.216 365.847 502.692 395.745 506.36 425.219L550.282 778.434C552.116 793.053 557.28 807.059 565.485 819.414L592.851 860.724C597.292 867.421 608.007 863.601 606.945 855.678L536.333 316.237C535.561 310.342 527.211 309.446 525.135 315.011Z" fill="white"/>
</g>
<defs>
<clipPath id="clip0_1828_4232">
<rect width="1705" height="1667" fill="white" transform="translate(0.970459)"/>
</clipPath>
</defs>
</svg>
