<svg width="1785" height="1107" viewBox="0 0 1785 1107" fill="none" xmlns="http://www.w3.org/2000/svg">
<path d="M8.84753 399.922C-6.23328 507.5 -4.771 658.839 34.9193 748.135C206.499 1277.53 1492.29 1133.15 1685.6 875.532C1837.63 617.911 1753.88 42.5526 1167.82 139.896C1069.49 155.993 969.373 152.543 872.472 128.399C597.5 60.1818 87.0292 -157.785 8.84753 399.922Z" fill="#BFD8F1"/>
<g clip-path="url(#clip0_1826_3200)">
<g clip-path="url(#clip1_1826_3200)">
<path d="M1339 3H733.4V516.829H1339V3Z" fill="#E5EEF7"/>
<path d="M1083.18 47.4844H790.706V77.2216H1083.18V47.4844Z" fill="#D3E1F1"/>
<path d="M1266.37 448.116H867.446V477.853H1266.37V448.116Z" fill="#D3E1F1"/>
<path d="M791.15 106.03H837.385V99.0536H791.15V106.03Z" fill="#C3D6ED"/>
<path d="M791.15 125.168H837.385V118.192H791.15V125.168Z" fill="#C3D6ED"/>
<path d="M791.15 144.279H837.385V137.302H791.15V144.279Z" fill="#C3D6ED"/>
<path d="M791.15 163.403H837.385V156.426H791.15V163.403Z" fill="#C3D6ED"/>
<path d="M1058.11 97.8411H865.938V424.008H1058.11V97.8411Z" fill="#D3E1F1"/>
<path d="M1266.37 97.8406H1074.19V424.008H1266.37V97.8406Z" fill="#D3E1F1"/>
<path d="M1107.53 152.574L1242.54 152.574V143.469L1107.53 143.469V152.574Z" fill="#B1C9E6"/>
<path d="M1107.53 177.531L1242.54 177.531V168.426L1107.53 168.426V177.531Z" fill="#B1C9E6"/>
<path d="M1107.53 202.487L1242.54 202.487V193.382L1107.53 193.382V202.487Z" fill="#B1C9E6"/>
<path d="M1107.53 227.443L1242.54 227.443V218.339L1107.53 218.339V227.443Z" fill="#B1C9E6"/>
<path d="M971.069 136.183H1013.68V131.227H971.069V136.183Z" fill="#B1C9E6"/>
<path d="M971.069 149.759H1013.68V144.803H971.069V149.759Z" fill="#B1C9E6"/>
<path d="M971.069 163.335H1013.68V158.379H971.069V163.335Z" fill="#B1C9E6"/>
<path d="M971.069 176.911H1013.68V171.954H971.069V176.911Z" fill="#B1C9E6"/>
<path d="M971.069 216.399H1013.68V211.443H971.069V216.399Z" fill="#B1C9E6"/>
<path d="M971.069 229.988H1013.68V225.032H971.069V229.988Z" fill="#B1C9E6"/>
<path d="M971.069 243.55H1013.68V238.594H971.069V243.55Z" fill="#B1C9E6"/>
<path d="M971.069 257.125H1013.68V252.169H971.069V257.125Z" fill="#B1C9E6"/>
<path d="M971.069 320.682H1013.68V315.725H971.069V320.682Z" fill="#B1C9E6"/>
<path d="M971.069 334.257H1013.68V329.301H971.069V334.257Z" fill="#B1C9E6"/>
<path d="M971.069 347.833H1013.68V342.876H971.069V347.833Z" fill="#B1C9E6"/>
<path d="M971.069 361.409H1013.68V356.452H971.069V361.409Z" fill="#B1C9E6"/>
<path d="M1107.53 284.25H1242.54V275.146H1107.53V284.25Z" fill="#B1C9E6"/>
<path d="M1107.53 309.22H1242.54V300.115H1107.53V309.22Z" fill="#B1C9E6"/>
<path d="M1107.53 334.177H1242.54V325.072H1107.53V334.177Z" fill="#B1C9E6"/>
<path d="M1107.53 359.132H1242.54V350.028H1107.53V359.132Z" fill="#B1C9E6"/>
<path d="M923.204 245.288C922.571 245.288 922.045 245.073 921.614 244.642C921.183 244.211 920.968 243.685 920.968 243.052V231.901C920.968 231.268 921.183 230.743 921.614 230.312C922.045 229.881 922.571 229.665 923.204 229.665H927.661C928.294 229.665 928.82 229.881 929.251 230.312C929.682 230.743 929.897 231.268 929.897 231.901V243.052C929.897 243.685 929.682 244.211 929.251 244.642C928.82 245.073 928.294 245.288 927.661 245.288H923.204ZM909.816 245.288C909.183 245.288 908.658 245.073 908.227 244.642C907.796 244.211 907.581 243.685 907.581 243.052V211.82C907.581 211.187 907.796 210.662 908.227 210.231C908.658 209.8 909.183 209.584 909.816 209.584H914.274C914.907 209.584 915.433 209.8 915.864 210.231C916.295 210.662 916.51 211.187 916.51 211.82V243.052C916.51 243.685 916.295 244.211 915.864 244.642C915.433 245.073 914.907 245.288 914.274 245.288H909.816ZM896.429 245.288C895.796 245.288 895.271 245.073 894.84 244.642C894.409 244.211 894.194 243.685 894.194 243.052V222.972C894.194 222.339 894.409 221.813 894.84 221.382C895.271 220.951 895.796 220.736 896.429 220.736H900.887C901.52 220.736 902.045 220.951 902.476 221.382C902.907 221.813 903.123 222.339 903.123 222.972V243.052C903.123 243.685 902.907 244.211 902.476 244.642C902.045 245.073 901.52 245.288 900.887 245.288H896.429Z" fill="#B1C9E6"/>
<path d="M892.267 162.299C891.85 161.881 891.648 161.383 891.661 160.804C891.675 160.224 891.877 159.74 892.267 159.363L903.365 148.103C904.173 147.295 905.17 146.891 906.368 146.891C907.567 146.891 908.564 147.295 909.372 148.103L914.786 153.571L925.722 142.73H922.355C921.762 142.73 921.264 142.528 920.86 142.124C920.456 141.72 920.254 141.221 920.254 140.629C920.254 140.036 920.456 139.538 920.86 139.134C921.264 138.73 921.762 138.528 922.355 138.528H930.772C931.365 138.528 931.863 138.73 932.267 139.134C932.671 139.538 932.873 140.036 932.873 140.629V149.046C932.873 149.639 932.671 150.137 932.267 150.541C931.863 150.945 931.365 151.147 930.772 151.147C930.18 151.147 929.681 150.945 929.277 150.541C928.873 150.137 928.671 149.639 928.671 149.046V145.679L917.776 156.575C916.968 157.383 915.971 157.787 914.772 157.787C913.574 157.787 912.577 157.383 911.769 156.575L906.355 151.161L895.203 162.312C894.813 162.703 894.328 162.891 893.735 162.891C893.143 162.891 892.644 162.703 892.267 162.312V162.299Z" fill="#B1C9E6"/>
<path d="M911.419 333.799H927.756C927.163 329.489 925.372 325.839 922.382 322.85C919.392 319.86 915.729 318.068 911.419 317.476V333.799ZM906.719 354.822V317.476C901.978 318.068 898.046 320.129 894.934 323.671C891.823 327.213 890.261 331.375 890.261 336.156C890.261 340.937 891.823 345.085 894.934 348.641C898.046 352.183 901.978 354.243 906.719 354.836V354.822ZM911.419 354.822C915.729 354.27 919.392 352.493 922.409 349.476C925.426 346.459 927.204 342.796 927.756 338.499H911.419V354.822ZM909.062 359.631C905.817 359.631 902.759 359.011 899.891 357.785C897.036 356.546 894.544 354.876 892.429 352.762C890.315 350.647 888.645 348.156 887.406 345.301C886.167 342.445 885.561 339.388 885.561 336.142C885.561 332.897 886.18 329.839 887.406 326.984C888.631 324.129 890.315 321.637 892.429 319.523C894.544 317.408 897.036 315.738 899.891 314.499C902.746 313.26 905.803 312.654 909.062 312.654C912.322 312.654 915.365 313.274 918.207 314.499C921.049 315.725 923.54 317.422 925.668 319.55C927.796 321.678 929.493 324.169 930.719 327.011C931.944 329.853 932.564 332.897 932.564 336.142C932.564 339.388 931.944 342.392 930.719 345.247C929.493 348.102 927.81 350.607 925.695 352.735C923.581 354.863 921.089 356.546 918.234 357.785C915.379 359.024 912.322 359.631 909.062 359.631Z" fill="#B1C9E6"/>
</g>
</g>
<mask id="mask0_1826_3200" style="mask-type:alpha" maskUnits="userSpaceOnUse" x="0" y="20" width="1785" height="1087">
<path d="M8.84778 399.922C-6.23291 507.5 -4.77075 658.839 34.9196 748.135C206.499 1277.53 1492.29 1133.15 1685.6 875.532C1837.63 617.911 1884.56 -67.8437 1298.5 29.5C1200.17 45.5962 969.373 152.543 872.472 128.399C597.5 60.1819 87.0294 -157.784 8.84778 399.922Z" fill="#BFD8F1"/>
</mask>
<g mask="url(#mask0_1826_3200)">
<path d="M1120.19 335.04C1120.19 335.04 1102.94 310.376 1101.64 297.966C1100.33 285.555 1104.25 273.819 1104.58 265.973C1104.74 262.421 1104.29 259.093 1103.75 256.485C1103.12 253.473 1100.9 251.045 1097.95 250.235C1092.24 248.639 1083.99 248.369 1079.46 239.871C1075.21 231.867 1058.96 202.212 1046.16 191.578C1032.08 179.864 1025.92 184.406 1027.88 188.97C1029.83 193.534 1051.65 218.759 1048.12 224.875C1043.57 232.744 1039.23 226.561 1033.75 231.395C1028.64 235.914 1032.4 250.73 1027.47 261.409C1023.25 270.604 1016.12 267.277 1014.16 276.427C1012.2 285.555 1028.53 316.244 1043.53 329.307C1058.55 342.369 1081.02 361.344 1081.02 361.344L1120.19 335.04Z" fill="white"/>
<path d="M1765.41 1301.41C1766.47 1298.04 1765.75 1294.42 1763.54 1291.68C1746.32 1270.21 1668.15 1170.95 1649.51 1114.27C1625 1039.69 1615.44 886.428 1606.35 843.958C1606.35 843.958 1551.55 1006.31 1544.65 1033.24C1537.74 1060.17 1523.91 1103.03 1523.91 1103.03C1523.91 1103.03 1590.12 1218.52 1632.94 1267.53C1675.75 1316.54 1709.6 1353.84 1715.8 1353.15C1722.01 1352.45 1742.74 1340.04 1753.09 1326.21C1759.72 1317.38 1763.52 1307.42 1765.39 1301.39L1765.41 1301.41Z" fill="#225597"/>
<path d="M1191.28 410.897C1191.28 410.897 1134.29 330.611 1127.77 326.699C1121.25 322.787 1118.64 322.135 1102.97 333.871C1090.55 343.179 1077.33 354.51 1072.36 358.849C1071.15 359.906 1070.99 361.57 1071.71 363.009C1078.77 377.443 1114.23 417.597 1118.71 423.195C1123.81 429.602 1130.83 436.999 1130.83 436.999C1130.83 436.999 1152.89 446.352 1168.27 436.999C1183.65 427.646 1191.3 410.897 1191.3 410.897H1191.28Z" fill="#26396F"/>
<path d="M1588.79 770.552C1588.79 770.552 1637.34 841.035 1592.93 964.42C1548.54 1087.78 1506.1 1295.34 1503.5 1348.22C1500.89 1401.1 1502.84 1431.11 1495.02 1431.77C1487.19 1432.42 1476.13 1431.09 1454.54 1428.87C1440.44 1427.41 1423.84 1430.46 1423.19 1422.64C1422.54 1414.82 1425.15 1202.02 1423.19 1169.37C1421.23 1136.73 1404.82 996.975 1396.95 925.255C1387.62 840.068 1403.27 798.947 1403.27 798.947C1403.27 798.947 1444.58 768.258 1502.8 749.958C1561.02 731.657 1590.73 764.661 1588.77 770.552H1588.79Z" fill="#5A92CB"/>
<path d="M1565.07 347.472C1565.07 347.472 1624.95 488.101 1633.77 517.936C1651.58 578.144 1659.14 638.016 1604.85 737.254C1604.85 737.254 1564.66 626.819 1559.96 555.797C1555.26 484.774 1565.07 347.472 1565.07 347.472Z" fill="#244574"/>
<path d="M1447.66 80.8279C1447.66 80.8279 1439.74 87.1455 1433.94 105.424C1431.45 113.293 1428.07 130.222 1404.57 141.486C1387.41 149.715 1377.81 155.201 1376.51 161.069C1375.2 166.937 1384.09 180.471 1383.03 188.475C1381.09 203.179 1369.58 258.643 1432.12 269.413C1437.67 270.379 1441.36 275.685 1440.44 281.238C1438.75 291.558 1435.09 307.656 1427.6 321.392L1428.81 325.574C1428.81 325.574 1441.79 315.367 1455.51 312.107C1469.22 308.847 1519.55 294.233 1519.55 294.233C1519.55 294.233 1480.31 241.849 1498.59 217.702C1516.88 193.556 1530.59 181.146 1507.07 158.303C1483.57 135.461 1473.12 106.728 1465.94 98.2519C1458.77 89.776 1447.66 80.8279 1447.66 80.8279Z" fill="white"/>
<path d="M1404.39 370.337C1404.39 370.337 1378.28 386.008 1352.81 411.458C1327.33 436.908 1286.47 474.387 1269.24 470.205C1226.15 459.751 1159.21 338.389 1141.58 343.605C1123.95 348.821 1081.58 370.27 1082.23 390.504C1082.88 410.739 1209.45 571.894 1257.01 570.163C1293.19 568.859 1371.25 542.509 1371.25 542.509C1371.25 542.509 1370.64 600.829 1371.25 644.581C1372.19 713.827 1360.61 780.646 1355.73 805.489C1354.51 811.694 1357.78 818.214 1363.78 820.17C1381.95 826.151 1415.52 829.298 1452.02 833.772C1529.45 843.283 1668.92 831.502 1634.8 763.896C1601.48 697.865 1571.7 559.866 1578.7 506.11C1602.8 320.583 1519.53 294.233 1519.53 294.233L1404.37 370.337H1404.39Z" fill="#225597"/>
<path d="M1422.27 360.603C1416.51 363.233 1410.13 358.489 1410.96 352.217C1411.95 344.707 1414.69 334.995 1421.55 325.395C1429.08 314.85 1439.81 311.343 1460.48 300.574C1473.61 293.739 1533.43 267.3 1537.99 286.882C1542.56 306.464 1499.22 326.699 1477.68 335.827C1462.95 342.077 1437.13 353.79 1422.25 360.603H1422.27Z" fill="#225597"/>
<path d="M1467.09 62.5047C1446.65 64.2583 1436.73 89.4839 1451.46 103.738C1452.04 104.3 1452.63 104.84 1453.28 105.357C1468.48 117.7 1464.68 164.239 1479.88 179.437C1495.09 194.635 1497.51 177.459 1507.97 191.713C1514.49 200.593 1508.38 206.978 1502.84 210.508C1497.31 214.06 1493.69 219.951 1492.59 226.403C1487.13 258.419 1493.58 328.092 1533.09 356.061C1577.08 387.199 1606.85 378.589 1628.53 363.3C1643.91 352.464 1594.82 355.117 1595.76 295.29C1596.71 235.464 1626.06 158.348 1567.63 98.9941C1533.95 64.7754 1494.14 60.189 1467.09 62.5047Z" fill="#272E3F"/>
<path d="M1501.2 213.589C1491.07 213.589 1482.85 205.376 1482.85 195.244C1482.85 185.111 1491.07 176.898 1501.2 176.898C1511.34 176.898 1519.55 185.111 1519.55 195.244C1519.55 205.376 1511.34 213.589 1501.2 213.589Z" fill="white"/>
<path d="M1410.89 541.296C1436.19 559.575 1422.22 624.707 1423.12 645.728C1425.19 693.729 1411.9 712.322 1402.28 736.468C1396.07 752.026 1401.45 797.689 1406.03 828.175C1388.65 825.905 1373.85 823.454 1363.8 820.149C1357.8 818.17 1354.54 811.651 1355.75 805.468C1360.63 780.624 1372.21 713.806 1371.27 644.559C1370.66 600.808 1371.27 542.488 1371.27 542.488C1371.27 542.488 1401.69 534.642 1410.89 541.296Z" fill="#244574"/>
<path d="M1420.97 161.373C1422.62 162.635 1425.84 161.191 1428.17 158.149C1430.5 155.107 1431.05 151.619 1429.41 150.357C1427.76 149.096 1424.53 150.539 1422.2 153.581C1419.87 156.623 1419.32 160.112 1420.97 161.373Z" fill="#0A253C"/>
<path d="M1425.14 135.449C1423.76 134.845 1424.06 132.78 1425.56 132.754C1429.59 132.66 1435.54 133.737 1441.8 139.193C1446.57 143.354 1448.28 147.515 1448.83 150.545C1449.1 151.98 1447.24 152.753 1446.33 151.576C1444.26 148.929 1440.98 145.226 1436.46 141.929C1432.23 138.818 1428.15 136.736 1425.14 135.449Z" fill="#0A253C"/>
<path d="M1384.33 226.901C1398.21 227.528 1408.71 219.766 1408.71 219.766" stroke="#0A253C" stroke-width="2.28329" stroke-miterlimit="10" stroke-linecap="round"/>
<path d="M492.543 642.347C492.543 642.347 495.58 748.022 471.745 873.773C453.34 970.838 443.217 1006.13 439.881 1016.42C439.03 1019 438.616 1021.72 438.616 1024.43V1036.61C438.616 1039.49 437.741 1042.3 436.085 1044.67L433.991 1047.69C431.806 1050.84 431.023 1054.73 431.76 1058.51C433.531 1067.65 434.981 1090.44 424.973 1140.93C410.685 1213.08 395.087 1283.95 398.331 1298.25C400.056 1305.8 401.414 1311.92 402.288 1316C402.955 1319.01 400.885 1321.94 397.802 1322.31C388.438 1323.41 369.918 1325.78 360.002 1328.15C346.359 1331.4 341.803 1334.92 341.803 1334.92L333.337 1322.97C331.243 1320.03 330.231 1316.43 330.461 1312.82C331.451 1297.19 334.234 1251.9 335.293 1219.58C336.581 1179.93 337.892 1113.05 345.047 1061.34C351.052 1017.94 357.494 839.838 359.427 783.593C359.496 781.912 357.034 781.613 356.712 783.293C349.81 819.324 334.119 905.476 330.116 962.826C326.044 1021.03 304.717 1071.19 295.767 1090.07C292.799 1096.34 290.407 1102.85 288.612 1109.55C282.837 1131.1 270.391 1180.32 261.901 1234.56C256.633 1268.25 256.403 1300.09 256.564 1312.7C256.61 1316.11 254.309 1319.1 250.996 1319.91C243.427 1321.75 229.784 1324.52 219.017 1323.62C203.142 1322.3 193.41 1316.94 188.901 1313.72C186.992 1312.36 185.887 1310.2 185.887 1307.85C185.933 1285.1 186.969 1154.26 204.73 1097.37C224.216 1034.96 238.503 1007.01 239.815 1000.51C241.126 994.022 227.115 908.492 218.718 803.576C208.181 671.932 246.876 613.135 246.876 613.135L492.52 642.347H492.543Z" fill="#225597"/>
<path opacity="0.2" d="M393.154 657.957C393.154 657.957 388.944 711.301 371.712 749.427" stroke="white" stroke-width="2.81322" stroke-miterlimit="10" stroke-linecap="round"/>
<path d="M371.237 214.706C358.983 211.158 355.85 222.666 345.683 214.102C342.294 211.248 335.017 211.795 336.598 207.595C273.164 290.108 337.38 331.143 337.38 331.143C337.38 331.143 396.829 306.846 357.53 222.54C359.406 219.872 371.237 214.706 371.237 214.706Z" fill="#00579C"/>
<path d="M331.558 207.97C332.879 221.475 347.549 227.368 347.549 227.368" stroke="#00263E" stroke-width="8.84091" stroke-miterlimit="10" stroke-linecap="round"/>
<path d="M245 615.5C323.952 659.114 415.055 665.659 497 645.5C497 645.5 476.5 606 472.606 473.413C472.794 470.894 476.161 470.312 477.097 472.638C488.558 536.04 495.136 591.923 495.136 591.923L550.388 581.019C550.388 581.019 544.389 446.082 524.078 397.014C485.163 303.002 415.918 290.429 415.918 290.429L382.616 280.93L348.005 291.398C200.578 307.68 186.733 564.324 186.733 564.324C186.733 564.324 210.681 539.513 218.164 553.663C238.557 547.073 234.628 558.897 255.582 554.245L245 615.5Z" fill="#244574"/>
<path d="M365.217 237.512C365.217 237.512 366.527 252.438 359.792 272.597C355.488 285.584 347.444 292.563 342.579 296.052C340.334 297.603 339.96 300.898 342.018 302.836C349.315 309.814 366.153 323.383 390.661 329.392C437.06 340.635 425.647 308.07 420.222 296.246C418.912 293.532 418.351 290.43 418.725 287.329L421.718 262.905L365.217 237.512Z" fill="white"/>
<path opacity="0.2" d="M357.35 241.406C357.35 241.406 385.89 265.884 403.728 268.818C421.567 271.751 429.862 275.014 429.862 275.014C429.862 275.014 417.822 295.938 394.821 288.923C368.939 280.958 357.35 241.406 357.35 241.406Z" fill="#00579C"/>
<path d="M446.11 100.044C446.11 100.044 469.913 97.0866 475.096 141.592C480.279 186.097 480.31 258.781 439.599 280.114C410.105 295.549 367.498 279.125 349.963 226.998C332.428 174.871 399.331 107.062 399.331 107.062L446.11 100.044Z" fill="white"/>
<path d="M410.203 190.806C410.151 186.845 408.434 183.658 406.367 183.688C404.301 183.717 402.668 186.951 402.72 190.912C402.773 194.873 404.49 198.06 406.557 198.031C408.623 198.002 410.256 194.767 410.203 190.806Z" fill="#00263E"/>
<path d="M459.74 194.12C459.688 190.159 457.971 186.972 455.904 187.001C453.838 187.03 452.205 190.265 452.257 194.226C452.309 198.186 454.027 201.374 456.093 201.344C458.16 201.315 459.793 198.08 459.74 194.12Z" fill="#00263E"/>
<path d="M446.222 173.884C444.943 174.368 443.888 172.699 444.767 171.855C447.203 169.145 451.678 166.088 458.782 165.747C464.207 165.534 467.888 167.2 470.076 168.979C471.077 169.875 470.439 171.478 469.119 171.383C466.266 170.82 461.934 170.563 457.096 171.122C452.817 171.638 448.967 172.9 446.222 173.884Z" fill="#00263E"/>
<path d="M389.447 172.131C389.447 172.131 393.902 163.438 406.34 164.252C413.498 164.685 416.701 167.554 417.97 169.596C418.397 170.341 417.705 171.171 416.945 171.033C414.451 170.249 409.678 169.054 404.066 169.282C395.456 169.541 389.447 172.131 389.447 172.131Z" fill="#00263E"/>
<path d="M433.31 190.405C433.31 190.405 435.005 203.882 443.069 214.547C444.324 216.396 443.567 218.98 441.542 219.521C438.223 220.354 433.385 220.912 428.371 218.957" stroke="#00263E" stroke-width="2.21023" stroke-miterlimit="10" stroke-linecap="round"/>
<path d="M401.014 238.119C412.453 251.446 432.321 245.869 432.321 245.869" stroke="#00263E" stroke-width="2.21023" stroke-miterlimit="10" stroke-linecap="round"/>
<path d="M476.795 112.304C467.963 93.3396 449.914 92.7542 449.914 92.7542C449.914 92.7542 422.815 70.1108 374.732 90.6373C299.51 122.729 320.389 219.888 349.026 224.341C348.25 221.29 347.752 216.858 351.205 217.958L346.666 212.08L354.853 213.797L360.181 198.819C414.907 171.379 443.381 114.624 443.381 114.624C472.906 126.396 476.352 167.533 476.352 167.533C476.352 167.533 486.937 133.892 476.795 112.304Z" fill="#00579C"/>
<path d="M357.598 222.661C363.446 220.225 365.375 211.004 361.906 202.064C358.438 193.125 350.885 187.852 345.037 190.288C339.189 192.724 337.26 201.945 340.729 210.885C344.197 219.824 351.75 225.096 357.598 222.661Z" fill="white"/>
<path d="M292.067 410.612C292.067 410.612 286.267 455.389 270.552 495.901" stroke="#00579C" stroke-width="3.31534" stroke-miterlimit="10" stroke-linecap="round"/>
<path d="M364.845 437.555L360.354 410.029L435.19 409.06C437.248 409.06 438.932 410.998 438.558 413.131L425.088 498.226C424.526 501.522 421.907 503.848 418.727 503.848L379.251 504.235C375.883 504.235 373.077 501.716 372.702 498.42L364.845 437.555Z" fill="#00263E"/>
<path d="M416.48 451.511C412.738 442.401 371.765 443.952 371.765 443.952C371.765 443.952 395.526 432.903 396.087 426.118C396.461 419.528 372.327 428.057 359.417 439.881C341.644 456.357 331.354 477.874 331.354 477.874C331.354 477.874 323.87 489.504 286.265 504.817C234.815 525.752 214.61 518.386 194.778 544.167C179.624 564.132 180.559 621.509 273.73 574.987C323.87 549.982 347.256 510.051 347.256 510.051C347.256 510.051 362.598 502.685 369.52 494.544C376.443 486.403 380.933 482.913 380.933 482.913C380.933 482.913 399.455 483.495 402.261 477.874C403.945 474.578 397.397 471.477 391.41 469.345C399.829 471.477 417.602 470.508 412.364 464.111C408.809 459.846 402.074 457.133 396.648 455.582C408.622 456.939 417.976 455.388 416.48 451.511Z" fill="white"/>
<path d="M413.86 118.987C413.86 118.987 397.538 148.396 365.961 160.879C334.571 173.347 338.373 152.654 338.373 152.654" stroke="#4794D0" stroke-width="2.21023" stroke-miterlimit="10" stroke-linecap="round"/>
<path d="M437.994 415.069H360.539C359.417 415.069 358.481 414.1 358.481 412.937V411.192C358.481 410.029 359.417 409.06 360.539 409.06H437.994C439.117 409.06 440.052 410.029 440.052 411.192V412.937C440.052 414.1 439.117 415.069 437.994 415.069Z" fill="white"/>
<path d="M379.997 400.143C379.997 400.143 385.797 393.746 379.997 390.451C374.198 387.156 361.475 391.42 359.043 387.931C356.611 384.442 363.159 379.208 363.159 379.208" stroke="white" stroke-width="3.31534" stroke-miterlimit="10" stroke-linecap="round"/>
<path d="M494.148 551.347C494.148 551.347 492.178 549.317 522.861 526.106C545.859 508.685 537.58 520.197 537.58 520.197" stroke="#00579C" stroke-width="3.31534" stroke-miterlimit="10" stroke-linecap="round"/>
<path d="M517.57 767.199C517.57 767.199 519.203 872.068 524.403 947.491C529.602 1022.91 485.039 1112.61 480.046 1227.01C475.054 1341.41 485.43 1406.43 485.43 1406.43C485.43 1406.43 507.056 1390.82 524.817 1394.73C536.09 1397.22 547.732 1403.46 554.749 1407.7C557.717 1409.49 561.513 1407.51 561.72 1404.04C563.928 1366.14 574.005 1201.78 585.463 1149.01C598.461 1089.2 649.122 925.389 649.122 925.389C649.122 925.389 638.286 1112.61 636.56 1180.21C634.835 1247.8 653.631 1398.62 653.631 1398.62C653.631 1398.62 677.903 1428.21 699.024 1419.12C720.144 1410.02 726.309 1407.76 726.309 1407.76C726.309 1407.76 720.236 1306.33 726.263 1276.42C732.268 1246.51 757.5 1026.5 762.821 987.805C768.142 949.109 794.8 762.71 790.751 742.081L517.57 767.222V767.199Z" fill="#2D3B4F"/>
<path d="M815.242 677.016C830.591 664.328 839.245 602.41 839.245 602.41C839.245 602.41 835.326 622.034 812.956 618.482C795.811 615.606 793.199 594.967 793.199 594.967L792.709 520.53L806.098 512.24C806.098 512.24 808.058 435.774 788.954 425.623C769.849 415.473 700.781 384.852 700.781 384.852L635.141 377.239C635.141 377.239 536.191 399.57 517.087 430.698C502.229 455.059 505.821 764.654 517.087 833C587.5 882 678 885 793.199 833C793.199 833 800.947 807 793.526 746C786.106 685 784.382 682.26 784.382 682.26C784.382 682.26 799.894 689.873 815.242 677.016Z" fill="#4794D0"/>
<path d="M837.45 606.302C837.45 617.298 826.184 620.005 815.57 619.497C807.733 619.159 795.487 611.885 795.487 600.888C795.487 589.892 799.242 595.813 809.855 595.813C820.306 595.813 837.45 595.306 837.45 606.302Z" fill="#00579C"/>
<path d="M635.14 376.224C635.14 376.224 648.04 315.659 648.693 309.4C649.346 302.971 700.78 383.837 700.78 383.837L686.248 409.889L635.14 376.224Z" fill="white"/>
<path d="M733.285 302.364L732.453 302.388C732.512 303.415 732.375 304.315 732.166 304.885C732.08 305.252 731.957 305.455 731.675 305.695C731.552 305.898 731.393 305.936 731.234 305.973L730.879 305.884C730.683 305.756 730.451 305.464 730.219 305.172C729.951 304.715 729.842 304.22 729.697 303.56C729.624 303.231 729.588 303.066 729.515 302.736C729.456 301.709 729.593 300.809 729.802 300.238C729.888 299.871 730.011 299.668 730.293 299.428C730.416 299.225 730.575 299.188 730.735 299.15L731.089 299.24C731.285 299.367 731.517 299.659 731.749 299.951C732.017 300.408 732.126 300.903 732.271 301.563C732.344 301.893 732.38 302.058 732.453 302.388L733.285 302.364L734.118 302.341C734.045 302.011 733.972 301.681 733.863 301.186C733.645 300.197 733.268 299.245 732.608 298.533C732.376 298.241 731.985 297.987 731.594 297.732C731.203 297.477 730.849 297.388 730.371 297.501L730.053 297.576C729.575 297.689 729.134 297.967 728.888 298.372C727.956 299.461 727.487 301.133 727.728 302.985C727.8 303.315 727.873 303.645 727.982 304.14C728.2 305.129 728.578 306.081 729.237 306.793C729.469 307.085 729.86 307.339 730.251 307.594C730.642 307.849 730.997 307.938 731.474 307.825L731.793 307.75C732.27 307.637 732.711 307.359 732.957 306.954C733.89 305.865 734.358 304.193 734.118 302.341L733.285 302.364Z" fill="white"/>
<path d="M568.198 492.614C568.198 492.614 568.198 492.783 568.361 493.291C569.504 499.889 578.648 554.532 578.648 616.45C578.648 617.296 578.648 618.141 578.648 618.987C578.648 620.341 579.791 621.525 581.097 621.525C582.404 621.525 583.547 620.341 583.547 618.987C583.547 618.141 583.547 617.296 583.547 616.45C583.547 549.964 573.096 491.937 573.096 491.768C572.77 490.415 571.627 489.4 570.157 489.738C568.688 489.907 567.871 491.261 568.198 492.614Z" fill="#00579C"/>
<path d="M775.83 610.594C775.83 610.594 775.855 610.685 775.776 610.999C775.675 614.827 775.14 646.453 784.251 679.62C784.376 680.073 784.5 680.526 784.625 680.979C784.824 681.704 783.926 682.633 782.701 682.969C781.476 683.306 780.229 682.966 780.03 682.241C779.905 681.788 779.781 681.335 779.657 680.882C769.873 645.269 771.136 611.494 771.111 611.403C771.218 610.594 772.141 609.756 773.569 609.558C774.972 609.27 775.937 609.785 775.83 610.594Z" fill="#00579C"/>
<path d="M547.46 621.358L566.075 628.633C566.401 628.802 566.401 628.802 566.564 628.971C566.728 629.14 566.728 629.309 566.728 629.648C566.728 629.817 566.728 630.155 566.564 630.324C566.401 630.494 566.401 630.663 566.075 630.663L538.97 640.644C537.663 641.152 537.01 642.505 537.5 643.858C537.99 645.212 539.296 645.889 540.602 645.381L567.707 635.4C569.014 634.892 569.993 634.046 570.647 633.031C571.3 632.016 571.626 630.832 571.626 629.648C571.626 628.464 571.3 627.279 570.647 626.264C569.993 625.249 569.014 624.403 567.707 623.896L549.093 616.621C547.787 616.114 546.481 616.791 545.991 618.144C545.501 619.497 546.317 620.851 547.46 621.358Z" fill="#00579C"/>
<path d="M693.69 365.874C698.356 370.323 702.239 374.263 705.194 377.034C705.404 376.464 705.49 376.097 705.49 376.097C705.49 376.097 701.757 370.559 693.69 365.874Z" fill="#9BB6DB"/>
<path d="M646.798 341.569C646.798 341.569 662.733 369.034 679.273 377.962C688.209 382.789 694.216 383.45 698.196 382.508C702.494 381.491 704.495 378.414 705.16 376.869C702.363 374.06 698.321 370.158 693.655 365.709C691.345 364.346 688.912 363.187 686.002 362.14C672.586 357.506 646.798 341.569 646.798 341.569Z" fill="#C9CEE4"/>
<path d="M741.799 254.364C741.217 257.799 748.46 370.441 716 377.428C683.54 384.414 643.835 341.056 643.835 341.056L625.324 271.512L672.328 211.975L741.799 254.364Z" fill="white"/>
<path d="M713.359 298.578C713.359 298.578 713.625 311.183 723.152 320.208C726.962 323.818 713.836 326.577 708.616 324.168" fill="white"/>
<path d="M711.698 298.62C711.734 298.785 711.693 300.878 712.42 304.176C713.474 308.959 715.992 315.825 721.94 321.532L722.136 321.66L722.613 321.547L722.099 321.495L722.136 321.66L722.613 321.547L722.099 321.495L722.454 321.584L722.258 321.457L722.613 321.547L722.418 321.419C722.418 321.419 722.418 321.419 722.136 321.66C721.731 322.102 720.494 322.569 718.902 322.945C717.31 323.322 715.523 323.571 713.662 323.491C711.962 323.373 710.261 323.255 709.319 322.783C708.573 322.439 707.496 322.868 707.163 323.64C706.831 324.413 707.245 325.53 707.991 325.874C709.678 326.69 711.574 326.935 713.594 326.978C715.613 327.021 717.719 326.696 719.629 326.244C721.221 325.867 722.458 325.401 723.622 324.605C724.223 324.289 724.627 323.846 724.996 323.239C725.364 322.631 725.66 321.693 725.319 320.906C725.137 320.082 724.674 319.497 724.246 319.078C718.922 313.917 716.708 307.673 715.763 303.385C715.435 301.901 715.34 300.709 715.158 299.884C715.086 299.554 715.172 299.187 715.099 298.857L715.063 298.692C715.04 297.829 714.345 296.953 713.353 297.014C712.362 297.075 711.675 297.758 711.698 298.62Z" fill="#00263E"/>
<path d="M716.188 344.065C716.188 344.065 704.168 345.001 692.948 343.491L716.188 344.065Z" fill="white"/>
<path d="M716.144 342.34C716.144 342.34 715.985 342.378 715.666 342.453C713.206 342.688 702.937 343.209 693.418 341.818C692.549 341.676 691.703 342.397 691.567 343.297C691.43 344.197 692.126 345.073 692.994 345.215C704.409 346.852 716.43 345.917 716.589 345.879C717.421 345.856 718.231 344.97 718.049 344.145C717.795 342.991 716.976 342.317 716.144 342.34Z" fill="#00263E"/>
<path d="M691.896 230.078C691.896 230.078 686.198 255.894 670.613 274.852C654.869 293.848 639.027 301.761 639.027 301.761C639.027 301.761 635.372 294.297 632.524 298.094C629.677 301.891 621.716 309.848 621.716 309.848C621.716 309.848 580.797 239.707 637.039 203.84C693.44 167.936 675.243 194.8 675.243 194.8C675.243 194.8 689.858 182.839 718.33 197.273C750.408 213.63 756.008 232.955 756.008 232.955C756.008 232.955 745.131 226.158 745.567 228.137C745.967 229.952 754.792 240.358 753.652 257.98C752.517 273.346 742.42 279.206 742.42 279.206C742.42 279.206 745.107 253.408 726.231 244.513C709.114 236.763 691.896 230.078 691.896 230.078Z" fill="#00579C"/>
<path d="M641.813 328.421C647.633 325.657 648.85 315.499 644.53 305.731C640.21 295.964 631.989 290.285 626.169 293.049C620.348 295.812 619.132 305.97 623.452 315.738C627.772 325.506 635.992 331.184 641.813 328.421Z" fill="white"/>
<path d="M677.273 286.81C676.195 287.239 675.231 285.905 676.041 285.02C678.029 282.64 681.804 280.012 688.071 279.57C692.87 279.302 695.853 280.679 697.808 281.951C698.627 282.625 698.122 284.133 697.057 283.864C694.647 283.567 690.89 283.241 686.679 283.891C682.859 284.795 679.588 285.916 677.273 286.81Z" fill="#00263E"/>
<path d="M722.356 282.389C721.242 282.653 720.437 281.282 721.283 280.561C723.503 278.474 727.51 276.137 733.727 276.228C738.439 276.328 741.495 278.034 743.168 279.547C743.987 280.221 743.322 281.767 742.258 281.498C739.775 280.871 736.141 280.342 732.016 280.624C727.855 280.741 724.512 281.532 722.356 282.389Z" fill="#00263E"/>
<path d="M635.14 376.224C635.14 376.224 666.327 426.13 692.289 426.299C718.251 426.468 700.617 384.006 700.617 384.006L635.14 376.224Z" fill="white"/>
<path d="M659.477 590.739C659.477 590.739 669.764 588.371 689.521 569.592C705.523 554.367 714.504 547.092 719.402 543.37C721.198 542.017 723.158 541.171 725.28 540.663C731.975 539.141 747.16 535.757 753.202 534.573C755.161 534.235 757.121 534.235 758.917 534.742L784.552 540.833L780.797 552.337L761.856 550.306C761.366 550.306 760.876 550.306 760.386 550.306L753.038 551.829C752.549 551.998 752.385 552.675 753.038 552.844C756.141 553.859 761.856 555.889 762.509 558.427C763.489 561.979 759.08 566.378 757.121 568.07C756.794 568.408 756.794 568.916 757.121 569.254C758.1 569.931 759.407 571.792 757.284 576.021C755.488 579.912 752.059 582.788 750.426 583.972C749.936 584.31 749.773 584.987 749.936 585.664C750.263 587.525 750.263 591.416 744.221 595.307C737.527 599.536 729.852 599.367 727.403 599.198C726.913 599.198 726.26 598.859 725.934 598.521L723.648 596.322C723.158 595.814 722.505 595.983 722.015 596.322C719.402 599.367 710.422 609.179 702.911 611.548C698.012 613.07 693.277 612.732 690.664 612.393C689.195 612.224 687.889 612.562 686.746 613.578L672.703 627.111C672.703 627.111 663.233 610.194 661.273 604.442C659.477 598.69 659.477 590.739 659.477 590.739Z" fill="white"/>
<path d="M732.624 561.809L752.055 568.237C752.708 568.406 753.361 568.068 753.524 567.391C753.688 566.715 753.361 566.038 752.708 565.869L733.277 559.44C732.624 559.271 731.971 559.609 731.808 560.286C731.644 560.793 731.971 561.639 732.624 561.809Z" fill="#BFD8F1"/>
<path d="M734.094 548.108L748.627 552.845C749.28 553.014 749.933 552.676 750.096 551.999C750.259 551.322 749.933 550.646 749.28 550.477L734.747 545.74C734.094 545.57 733.441 545.909 733.278 546.586C733.115 547.093 733.441 547.77 734.094 548.108Z" fill="#BFD8F1"/>
<path d="M728.376 575.852L747.154 582.788C747.807 582.957 748.46 582.619 748.786 581.942C748.95 581.266 748.623 580.589 747.97 580.251L729.193 573.314C728.539 573.145 727.886 573.484 727.56 574.16C727.396 575.006 727.723 575.683 728.376 575.852Z" fill="#BFD8F1"/>
<path d="M733.34 295.755C733.735 299.827 732.283 303.12 730.178 303.445C728.036 303.605 726.194 300.57 725.799 296.498C725.404 292.427 726.856 289.134 728.961 288.809C730.944 288.687 732.945 291.684 733.34 295.755Z" fill="#00263E"/>
<path d="M695.158 298.357C694.797 294.357 692.831 291.276 690.766 291.475C688.701 291.675 687.319 295.08 687.679 299.08C688.039 303.081 690.006 306.162 692.071 305.962C694.136 305.762 695.518 302.357 695.158 298.357Z" fill="#00263E"/>
<path d="M673.108 220.814C672.898 221.384 671.188 225.78 667.357 231.198C663.723 236.744 658.091 243.108 650.236 247.744C646.952 249.562 644.514 250.659 642.604 251.111C641.33 251.412 640.339 251.474 639.47 251.332C638.247 251.101 637.819 250.681 637.356 250.097C636.892 249.513 636.587 248.891 636.442 248.231C636.369 247.901 636.296 247.571 636.224 247.241L636.187 247.076C636.165 246.214 635.469 245.338 634.637 245.361C633.805 245.384 632.959 246.105 632.981 246.967C633.018 247.132 633.004 247.83 633.258 248.984C633.549 250.304 634.267 252.042 635.904 253.39C636.723 254.064 637.823 254.498 639.047 254.729C640.27 254.96 641.739 254.786 643.331 254.41C645.719 253.845 648.475 252.672 651.723 250.689C660.301 245.536 666.424 238.36 670.341 232.575C674.221 226.624 675.895 222.063 676.055 222.025C676.35 221.088 675.973 220.136 675.068 219.83C674.322 219.485 673.44 220.041 673.108 220.814Z" fill="#4794D0"/>
<path d="M590.569 628.973C590.569 628.973 598.243 625.589 607.877 621.022C617.51 616.454 628.777 610.702 636.451 605.796C645.268 600.044 651.473 594.8 655.229 591.416C655.392 591.247 655.555 591.247 655.718 591.247C655.882 591.247 656.045 591.247 656.208 591.416C656.372 591.585 656.372 591.585 656.535 591.754C657.841 595.984 659.964 602.412 662.74 609.01C665.515 615.608 668.618 622.375 671.884 627.619C672.21 628.127 672.373 628.804 672.373 629.311C672.373 630.157 672.047 631.172 671.23 631.849C659.964 642.507 630.573 668.559 603.468 688.014C602.325 688.86 602.162 690.383 602.815 691.567C603.468 692.751 605.101 692.921 606.244 692.244C633.675 672.62 663.066 646.398 674.496 635.57C676.292 633.879 677.109 631.68 677.109 629.311C677.109 627.789 676.619 626.097 675.802 624.743C672.863 620.007 669.598 613.24 666.985 606.811C664.372 600.382 662.087 594.123 660.944 590.063C660.617 588.709 659.801 587.694 658.821 587.017C657.841 586.341 656.698 586.002 655.555 586.002C654.249 586.002 652.779 586.51 651.8 587.525C648.371 590.739 642.329 595.815 633.839 601.397C626.654 606.134 615.388 611.717 605.917 616.285C601.182 618.484 596.937 620.514 593.834 621.867C592.365 622.544 591.058 623.052 590.242 623.559C589.426 623.897 588.936 624.067 588.936 624.067C587.629 624.574 587.14 626.097 587.629 627.45C588.119 628.804 589.262 629.48 590.569 628.973Z" fill="#00579C"/>
<path d="M513.448 687.561C514.711 687.276 515.966 688 516.369 689.201L516.439 689.448L516.631 690.241C517.686 694.329 520.14 700.178 524.274 705.167C528.649 710.445 534.79 714.64 543.108 715.002C544.488 715.062 545.558 716.229 545.498 717.608C545.442 718.901 544.412 719.923 543.148 719.996L542.892 719.998L541.954 719.943C532.353 719.238 525.293 714.231 520.425 708.357C515.747 702.713 512.993 696.164 511.783 691.466L511.562 690.552L511.518 690.3C511.364 689.042 512.186 687.847 513.448 687.561Z" fill="#00579C"/>
<path d="M724.787 596.151L732.461 592.26L724.787 590.23C724.134 590.061 723.481 590.4 723.317 591.076C723.154 591.753 723.481 592.43 724.134 592.599L725.277 592.937L723.644 593.783C722.991 594.121 722.827 594.798 723.154 595.475C723.317 596.151 724.134 596.321 724.787 596.151Z" fill="#BFD8F1"/>
<path d="M766.912 588.198L791.894 517.991C792.384 516.806 793.2 515.96 794.507 515.622L830.102 505.472C830.919 505.302 831.735 505.472 832.388 505.979L833.695 506.994C834.511 507.671 834.838 508.686 834.511 509.701L807.079 584.984L770.667 591.074C769.035 591.243 767.238 589.89 766.912 588.198Z" fill="#00263E"/>
<path d="M835.819 577.036C835.002 576.021 834.676 574.837 834.676 573.653C834.839 566.886 835.002 547.262 831.247 544.893C826.675 542.017 803.978 535.589 800.713 540.833C797.447 546.246 810.51 550.476 816.225 552.168C817.531 552.506 818.347 554.029 817.857 555.382L815.408 561.98C815.082 562.826 814.265 563.333 813.449 563.333C806.591 562.995 780.792 561.472 773.444 563.164C768.546 564.348 765.444 572.299 780.792 574.16C792.549 575.683 801.529 577.375 805.448 577.882C806.101 577.882 806.591 578.728 806.428 579.405L805.611 582.111C805.448 582.619 804.958 582.957 804.468 582.957C801.039 582.619 789.283 581.435 780.956 578.559C770.669 574.837 761.198 574.837 761.198 578.559C761.198 584.311 772.465 589.217 778.67 591.247C784.874 593.277 792.712 595.984 792.712 595.984C792.712 595.984 767.566 580.251 765.28 584.818C762.178 590.739 781.119 601.905 790.589 602.92C800.06 603.935 800.386 610.702 811.163 612.563C814.102 613.07 817.694 613.409 819.654 613.578C820.633 613.578 821.613 613.916 822.593 614.255C825.532 615.608 832.716 617.976 836.472 611.548C840.88 603.427 841.207 583.465 835.819 577.036Z" fill="white"/>
<path d="M777.367 573.313L776.224 576.696C776.55 576.865 777.04 576.865 777.367 577.035L778.51 573.482C778.183 573.482 777.693 573.313 777.367 573.313ZM825.535 510.887H825.372L797.777 519.177C796.307 519.515 795.328 520.7 794.838 522.053L781.122 562.147C781.612 562.147 781.939 562.147 782.428 562.147L795.981 522.56C796.307 521.545 797.124 520.7 798.104 520.361L825.698 512.072C826.025 511.903 826.188 511.564 826.188 511.226C826.025 511.057 825.862 510.887 825.535 510.887Z" fill="#304156"/>
<path d="M776.219 576.697L775.076 580.081C774.913 580.419 775.076 580.757 775.403 580.926H775.566C775.893 580.926 776.056 580.757 776.219 580.588L777.362 577.036C777.036 576.866 776.546 576.866 776.219 576.697ZM782.424 562.148C781.934 562.148 781.608 562.148 781.118 562.148L777.362 573.314C777.689 573.483 778.179 573.483 778.505 573.483L782.424 562.148Z" fill="white"/>
<path d="M772.793 589.893C772.793 589.893 780.304 594.461 787.815 596.999C788.468 597.168 789.121 596.829 789.284 596.153C789.448 595.476 789.121 594.799 788.468 594.63C784.876 593.446 781.12 591.585 778.508 590.232C777.201 589.555 775.895 588.878 775.242 588.371C774.915 588.202 774.589 588.032 774.262 587.863C774.099 587.694 773.936 587.694 773.936 587.694C773.283 587.356 772.629 587.525 772.303 588.202C771.976 588.878 772.303 589.555 772.793 589.893Z" fill="#BFD8F1"/>
</g>
<defs>
<clipPath id="clip0_1826_3200">
<rect width="606" height="513.08" fill="white" transform="translate(733 3)"/>
</clipPath>
<clipPath id="clip1_1826_3200">
<rect width="983.74" height="1033.54" fill="white" transform="translate(355.26 3)"/>
</clipPath>
</defs>
</svg>
