<svg width="1908" height="1106" viewBox="0 0 1908 1106" fill="none" xmlns="http://www.w3.org/2000/svg">
<g clip-path="url(#clip0_1828_3165)">
<path d="M14.2372 408.953C-0.843506 516.531 -17.5096 616.737 40.309 757.166C205.535 1158.46 1240.53 1259.46 1746.03 814.464C2140.08 467.579 1759.27 51.5839 1173.21 148.928C1074.88 165.024 974.763 161.575 877.861 137.43C602.889 69.2131 92.4188 -148.753 14.2372 408.953Z" fill="#BFD8F1"/>
<mask id="mask0_1828_3165" style="mask-type:alpha" maskUnits="userSpaceOnUse" x="2" y="-97" width="1904" height="1203">
<path d="M14.161 408.953C-0.919678 516.531 -8.37415 638.736 31.3162 728.031C178.399 1188.9 1289.32 1238.03 1747.32 818.031C2134.23 463.215 1759.2 -147.815 1173.14 -50.4716C1074.81 -34.3754 974.687 -37.8246 877.785 -61.9689C602.813 -130.186 92.3427 -148.753 14.161 408.953Z" fill="#BFD8F1"/>
</mask>
<g mask="url(#mask0_1828_3165)">
<path d="M1627.78 935.998C1641.04 927.023 1653.41 917.75 1664.89 908.28C1641.44 902.076 1623.63 894.453 1623.63 894.453L1627.75 935.965L1627.78 935.998Z" fill="#C3D6ED"/>
<path d="M1769.75 776.815C1761.04 727.185 1746.26 663.73 1730 585.722C1697.02 427.43 1657.54 399.018 1657.54 399.018C1657.54 399.018 1627.49 381.595 1555.84 368.264C1493.11 356.582 1449.93 361.301 1449.93 361.301L1423.84 368.693L1282.63 423.569C1282.63 423.569 1136.15 479.27 1110.42 510.849C1084.69 542.428 1056.66 745.928 1056.66 745.928L1156.8 920.786L1139.19 1084.13C1371.26 1058.52 1526.09 1004.9 1627.78 935.965L1623.66 894.453C1623.66 894.453 1641.47 902.043 1664.92 908.28C1713.91 867.923 1747.48 823.408 1769.78 776.815H1769.75Z" fill="#272E3F"/>
<path d="M1074.17 731.907C1074.17 731.907 1082.35 748.868 1104.58 750.914C1126.82 752.96 1139.58 750.914 1139.58 750.914C1139.58 750.914 1170.06 921.647 1161.88 929.698C1153.7 937.75 1113.95 986.884 1062.5 961.145C1011.07 935.407 1008.73 886.668 1022.75 850.238C1036.77 813.808 1044.95 791.568 1056.66 767.017C1068.37 742.466 1074.21 731.94 1074.21 731.94L1074.17 731.907Z" fill="#272E3F"/>
<path d="M1577.02 516.229C1577.02 516.229 1577.02 605.556 1602.98 685.18" stroke="white" stroke-width="7.54617" stroke-miterlimit="10" stroke-linecap="round"/>
<path d="M1084.7 606.182L1025.82 493.757C1023.48 489.302 1026.35 483.924 1031.33 483.33L1108.54 474.222C1112.5 473.76 1116.33 475.773 1118.17 479.304L1205.72 647.364L1199.28 654.722L1129.72 660.563L1084.7 606.182Z" fill="#272E3F"/>
<path d="M1074.17 730.421V710.655C1074.17 706.959 1073.28 703.296 1071.63 699.997L1050.49 658.386C1048.25 653.964 1047.39 648.981 1048.02 644.065L1049.8 630.304C1050.29 626.444 1049.86 622.484 1048.54 618.821L1029.61 566.123C1028.42 562.79 1028.56 559.127 1030.04 555.893C1034.56 546.06 1044.55 524.974 1049.37 521.377C1062.13 511.808 1074.73 505.967 1079.02 514.943C1082.16 521.476 1073.55 530.947 1066.03 547.677C1064.11 551.967 1062.96 555.002 1062.27 557.081C1061.47 559.556 1061.74 562.229 1062.93 564.539L1079.29 595.788C1080.7 598.527 1083.97 599.781 1086.84 598.692L1104.22 592.224C1110.39 589.915 1116.76 588.133 1123.22 586.879C1137.4 584.107 1162.51 579.817 1174.84 581.401C1194.14 583.876 1198.59 588.1 1198.69 595.59C1198.79 602.52 1187.01 606.117 1187.01 606.117C1187.01 606.117 1214.13 604.302 1217.99 616.94C1220.23 624.266 1217.29 630.106 1191 635.353C1164.72 640.6 1145.42 650.565 1145.42 650.565L1133.88 657.891C1132.82 658.551 1133.38 660.201 1134.6 660.102L1177.61 656.472C1179.69 656.307 1181.6 657.594 1182.2 659.574C1183.22 662.907 1184.37 667.955 1183.35 671.156C1181.74 676.304 1174.15 680.957 1174.15 680.957L1147.1 696.268C1144.92 697.489 1143.97 700.096 1144.86 702.439C1148.16 711.051 1154.06 732.137 1140.87 749.263C1140.01 750.385 1138.76 751.144 1137.34 751.507C1132.75 752.629 1121.31 754.477 1104.55 750.88C1084.37 746.524 1077.21 737.516 1075.03 733.688C1074.47 732.665 1074.17 731.543 1074.17 730.388V730.421Z" fill="white"/>
<path d="M1085.29 643.042L1120.81 622.748C1127.48 618.953 1134.67 616.181 1142.19 614.498L1170.85 608.163" stroke="#C3D6ED" stroke-width="4.5277" stroke-miterlimit="10" stroke-linecap="round"/>
<path d="M1398.38 246.568C1410.15 313.62 1432.78 348.202 1441.95 359.95C1444.49 363.217 1445.38 367.44 1444.32 371.466C1438.19 394.202 1413.35 467.392 1344.28 488.643C1284.38 507.056 1269.01 455.909 1269.01 455.909L1274.49 450.332C1280.99 443.699 1285.01 435.054 1285.87 425.814L1289.96 381.465L1398.38 246.568Z" fill="white"/>
<path opacity="0.2" d="M1398.38 276.035C1398.38 276.035 1354.77 337.973 1323.9 349.918C1293.02 361.831 1277.06 386.744 1277.06 386.744C1277.06 386.744 1327.59 407.401 1371.99 368.298C1411.77 333.287 1398.38 276.035 1398.38 276.035Z" fill="#225597"/>
<path d="M1162.77 120.021L1139.55 167.076C1155.71 250.001 1180.02 328.272 1209.05 358.466C1241.73 392.487 1287.38 407.369 1342.47 371.764C1376.77 349.589 1399.07 304.349 1403.13 261.649C1407.15 218.916 1357.94 117.018 1357.94 117.018L1289.99 39.439L1162.8 120.021H1162.77Z" fill="white"/>
<path d="M1232.47 239.474C1232.47 239.474 1236 265.806 1226.03 290.093C1224.35 294.185 1227.25 298.738 1231.67 298.573C1238.7 298.342 1248.46 296.726 1256.97 290.621" stroke="#0A253C" stroke-width="6.03694" stroke-miterlimit="10" stroke-linecap="round"/>
<path d="M1276.76 240.211C1280.89 239.329 1282.92 232.416 1281.29 224.77C1279.66 217.123 1274.99 211.64 1270.85 212.522C1266.72 213.404 1264.69 220.317 1266.32 227.963C1267.95 235.61 1272.62 241.093 1276.76 240.211Z" fill="#0A253C"/>
<path d="M1200.86 258.937C1204.99 258.056 1207.02 251.142 1205.39 243.496C1203.76 235.849 1199.09 230.366 1194.95 231.248C1190.82 232.13 1188.79 239.043 1190.42 246.69C1192.05 254.336 1196.72 259.819 1200.86 258.937Z" fill="#0A253C"/>
<path d="M1290.32 194.233C1294.34 193.54 1294.74 187.864 1290.85 186.709C1284.65 184.828 1276 184.201 1265.35 188.359C1256.77 191.692 1251.83 195.718 1248.99 199.38C1246.55 202.515 1250.08 206.838 1253.71 205.221C1258.72 202.944 1265.61 200.205 1273.46 198.027C1279.93 196.245 1285.67 195.058 1290.32 194.266V194.233Z" fill="#0A253C"/>
<path d="M1200.9 218.354C1204.92 217.661 1205.32 211.985 1201.43 210.83C1195.23 208.949 1186.58 208.322 1175.93 212.48C1167.35 215.813 1162.41 219.839 1159.57 223.501C1157.13 226.636 1160.66 230.959 1164.29 229.342C1169.3 227.065 1176.19 224.326 1184.04 222.148C1190.51 220.367 1196.25 219.179 1200.9 218.387V218.354Z" fill="#0A253C"/>
<path d="M1298.37 312.433C1298.37 312.433 1279.53 326.16 1250.64 331.77Z" fill="white"/>
<path d="M1298.37 312.433C1298.37 312.433 1279.53 326.16 1250.64 331.77" stroke="#0A253C" stroke-width="6.03694" stroke-miterlimit="10" stroke-linecap="round"/>
<path d="M1360.48 203.34L1353.91 179.813C1352.53 174.797 1348.97 170.705 1344.25 168.527C1335.25 164.37 1317.99 154.041 1293.55 129.127C1293.55 129.127 1258.69 95.7002 1213.8 106.227C1168.9 116.753 1141.99 120.944 1139.65 88.4406C1137.31 55.9373 1221.02 47.7538 1221.02 47.7538C1221.02 47.7538 1246.09 -3.98743 1332.31 39.1413C1373.74 59.8641 1392.87 72.6674 1392.87 72.6674C1417.67 137.674 1397.45 198.622 1397.45 198.622H1372.29L1365.36 204.792C1363.71 206.277 1361.1 205.485 1360.51 203.373L1360.48 203.34Z" fill="#225597"/>
<path d="M1390.43 234.886C1400.43 234.886 1408.54 218.65 1408.54 198.621C1408.54 178.592 1400.43 162.356 1390.43 162.356C1380.43 162.356 1372.32 178.592 1372.32 198.621C1372.32 218.65 1380.43 234.886 1390.43 234.886Z" fill="white"/>
<path d="M1236.89 12.8424C1164.68 38.0861 1130.68 75.3081 1116.13 97.0869C1109.6 106.854 1109.33 119.559 1115.27 129.722L1131.04 156.781C1133.15 160.41 1132.52 164.997 1129.52 167.901C1114.97 181.991 1084.43 238.913 1112.01 216.441C1196.58 147.475 1270.86 212.482 1393.46 74.0212C1393.46 74.0212 1371.3 -34.147 1236.92 12.8754L1236.89 12.8424Z" fill="#0A253C"/>
<path opacity="0.2" d="M1147.23 154.734C1147.23 154.734 1162.01 120.086 1294.84 107.778" stroke="white" stroke-width="6.03694" stroke-miterlimit="10" stroke-linecap="round"/>
<path d="M1611.23 395.093C1609.71 393.378 1602.78 392.718 1595.72 393.642C1588.66 394.565 1584.18 396.71 1585.7 398.426C1587.21 400.142 1594.14 400.802 1601.2 399.878C1608.26 398.954 1612.74 396.809 1611.23 395.093Z" fill="#E2B745"/>
<path opacity="0.2" d="M1513.86 398.524C1513.86 398.524 1545.19 402.187 1565.48 411.031C1572.4 414.067 1577.98 416.739 1582.27 418.917C1590.97 423.372 1601.89 424.131 1611.79 420.831C1623.56 416.871 1637.91 410.503 1643.32 401.725" stroke="white" stroke-width="6.03694" stroke-miterlimit="10" stroke-linecap="round"/>
<path d="M1676.01 543.749L1642.69 553.187C1635.63 555.167 1631.28 563.35 1634.68 568.333C1646.06 585.063 1665.72 610.901 1685.21 614.927C1707.8 619.612 1692.27 566.683 1685.44 547.676C1684.15 544.145 1680.3 542.528 1676.01 543.749Z" fill="#E2B745"/>
<path d="M1675.74 544.311L1656.22 550.778C1650.38 552.725 1646.75 559.292 1649.09 563.747C1656.35 577.441 1670.99 602.058 1684.09 605.324C1698.9 609.053 1688.97 565.001 1684.68 548.204C1683.76 544.575 1679.93 542.892 1675.74 544.278V544.311Z" fill="#CE5935"/>
<path d="M1458.57 575.23C1458.57 575.23 1436.74 567.607 1410.02 570.379" stroke="#CEB84D" stroke-width="9.05541" stroke-miterlimit="10" stroke-linecap="round"/>
<path d="M1401.84 726.263L1395.24 743.752L1407.55 748.9L1414.77 731.642L1401.84 726.263Z" fill="white"/>
<path d="M1407.55 748.9L1404.35 757.018C1410.91 759.031 1416.92 760.747 1422.23 762.232L1424.77 756.127L1407.51 748.9H1407.55Z" fill="white"/>
<path d="M1431.99 738.869L1424.77 756.127L1436.94 761.242L1444.36 744.05L1431.99 738.869Z" fill="white"/>
<path d="M1424.17 666.8L1422.49 671.255L1436.94 680.132L1438.75 675.776C1434.3 672.443 1429.19 670.496 1424.14 666.833L1424.17 666.8Z" fill="white"/>
<path d="M1466.62 692.572L1467.51 690.493C1464.41 687.853 1458.15 688.48 1453.96 685.214L1454.15 687.358L1436.9 680.132L1429.68 697.39L1446.93 704.617L1439.71 721.875L1422.46 714.648L1429.68 697.39L1414.97 691.219L1408.37 708.741L1421.93 714.417L1414.71 731.675L1431.96 738.902L1439.18 721.644L1451.75 726.923L1459.17 709.764L1446.93 704.649L1454.15 687.391L1466.59 692.605L1466.62 692.572Z" fill="white"/>
<path d="M1407.55 748.9L1395.28 743.752L1391.78 753.058C1396.17 754.477 1400.36 755.797 1404.35 757.018L1407.55 748.9Z" fill="#272E3F"/>
<path d="M1414.73 731.617L1407.51 748.875L1424.76 756.102L1431.98 738.844L1414.73 731.617Z" fill="#272E3F"/>
<path d="M1421.96 714.417L1408.4 708.742L1401.84 726.264L1414.77 731.642L1421.96 714.417Z" fill="#272E3F"/>
<path d="M1451.78 726.891L1439.21 721.644L1431.99 738.869L1444.36 744.05L1451.78 726.891Z" fill="#272E3F"/>
<path d="M1422.23 762.231C1427.07 763.584 1431.36 764.706 1435.02 765.63L1436.94 761.241L1424.77 756.16L1422.23 762.264V762.231Z" fill="#272E3F"/>
<path d="M1436.94 680.132L1421.6 673.698L1415 691.22L1429.71 697.358L1436.94 680.132Z" fill="#272E3F"/>
<path d="M1456.6 681.584C1452.04 678.02 1446.9 674.06 1441.26 669.836L1436.94 680.132L1454.19 687.358L1456.6 681.584Z" fill="#272E3F"/>
<path d="M1429.71 697.331L1422.48 714.589L1439.73 721.816L1446.96 704.557L1429.71 697.331Z" fill="#272E3F"/>
<path d="M1454.19 687.358L1446.96 704.616L1459.2 709.731L1466.62 692.572L1454.19 687.358Z" fill="#272E3F"/>
<path d="M1067.74 766.818L1065.4 778.334L1081.56 781.634L1084.04 769.491L1067.74 766.818Z" fill="white"/>
<path d="M1057.81 776.948C1057.19 782.987 1056.72 788.465 1056.36 793.348L1062.07 794.503L1065.37 778.334L1057.78 776.948H1057.81Z" fill="white"/>
<path d="M1062.1 794.505L1059.76 805.922L1075.89 809.42L1078.26 797.805L1062.1 794.505Z" fill="white"/>
<path d="M1132.92 777.608L1129.98 792.029L1139.61 794.009C1141.73 789.587 1143.97 784.835 1146.28 779.852L1132.92 777.641V777.608Z" fill="white"/>
<path d="M1126.68 808.198L1129.98 792.029L1113.82 788.729L1110.52 804.898L1094.36 801.598L1097.66 785.429L1113.82 788.729L1116.62 774.936L1100.33 772.23L1097.72 784.934L1081.56 781.634L1078.26 797.804L1094.43 801.103L1092.02 812.884L1108.15 816.382L1110.49 804.898L1126.65 808.198L1124.28 819.879L1126.26 820.308C1128 817.174 1129.95 813.478 1132.09 809.32L1126.68 808.231V808.198Z" fill="white"/>
<path d="M1065.4 778.335L1067.74 766.819L1059.1 765.4C1058.6 769.426 1058.18 773.319 1057.81 776.982L1065.4 778.368V778.335Z" fill="#272E3F"/>
<path d="M1065.47 778.419L1062.17 794.584L1078.33 797.887L1081.63 781.722L1065.47 778.419Z" fill="#272E3F"/>
<path d="M1097.76 784.933L1100.33 772.196L1084.04 769.49L1081.56 781.634L1097.76 784.933Z" fill="#272E3F"/>
<path d="M1092.02 812.884L1094.43 801.104L1078.26 797.804L1075.89 809.419L1092.02 812.884Z" fill="#272E3F"/>
<path d="M1056.36 793.316C1056.03 797.738 1055.8 801.665 1055.6 804.998L1059.73 805.889L1062.07 794.471L1056.36 793.316Z" fill="#272E3F"/>
<path d="M1129.98 792.028L1132.92 777.608L1116.62 774.902L1113.82 788.729L1129.98 792.028Z" fill="#272E3F"/>
<path d="M1132.09 809.321C1134.4 804.767 1136.94 799.619 1139.65 794.01L1130.02 792.03L1126.72 808.199L1132.13 809.288L1132.09 809.321Z" fill="#272E3F"/>
<path d="M1097.71 785.541L1094.4 801.706L1110.56 805.01L1113.86 788.845L1097.71 785.541Z" fill="#272E3F"/>
<path d="M1126.68 808.231L1110.52 804.898L1108.18 816.382L1124.31 819.88L1126.68 808.231Z" fill="#272E3F"/>
<path d="M1423.84 329.889L1471.34 387.174C1471.34 387.174 1451.78 459.803 1344.22 488.644C1236.65 517.484 1256.94 455.15 1256.94 455.15L1285.8 425.815L1288.18 400.307C1370.77 435.517 1423.84 329.889 1423.84 329.889Z" fill="#272E3F"/>
<g opacity="0.2">
<path d="M1341.35 416.938C1341.05 416.938 1340.75 416.971 1340.42 417.07C1338.68 417.565 1337.65 419.413 1338.15 421.162L1341.22 431.886C1341.84 434.031 1342.14 436.242 1342.14 438.486C1342.14 439.509 1342.07 440.532 1341.94 441.555C1339.57 459.869 1332.54 533.257 1326.04 625.916C1319.58 718.542 1313.67 830.373 1313.67 925.408C1313.67 991.437 1316.51 1049.32 1324.03 1087.3C1324.33 1088.88 1325.71 1089.97 1327.26 1089.97C1327.46 1089.97 1327.69 1089.97 1327.92 1089.9C1329.7 1089.54 1330.86 1087.82 1330.53 1086.01C1323.14 1048.92 1320.27 991.239 1320.3 925.408C1320.3 830.637 1326.17 718.938 1332.64 626.378C1339.1 533.851 1346.16 460.397 1348.51 442.413C1348.67 441.126 1348.77 439.806 1348.77 438.519C1348.77 435.681 1348.37 432.876 1347.58 430.104L1344.51 419.38C1344.09 417.928 1342.77 416.971 1341.35 416.971" fill="white"/>
</g>
<path d="M1163.26 783.416C1163.26 783.416 1168.38 850.204 1158.61 903.827" stroke="white" stroke-width="7.54617" stroke-miterlimit="10" stroke-linecap="round"/>
<path d="M1328.35 560.347C1322.58 552.758 1314.27 547.511 1304.97 545.531L1238.8 531.474C1234.74 530.616 1230.55 530.814 1226.63 532.101L1155.88 554.738C1155.88 554.738 1152.77 570.577 1175.63 568.762C1191.47 567.508 1213.3 562.69 1224.48 560.017C1229.27 558.862 1234.28 559.126 1238.93 560.776L1261.79 568.861C1263.77 569.554 1264.13 572.194 1262.42 573.381L1237.28 591.069C1232.14 594.698 1228.97 600.539 1228.77 606.842L1227.52 646.044C1227.39 650.003 1229.27 653.765 1232.5 656.075L1250.28 668.68C1253.61 671.023 1257.57 672.31 1261.62 672.31H1263.93C1265.61 672.31 1267.3 672.541 1268.95 672.97L1294.15 679.603C1295.99 680.098 1297.94 679.834 1299.56 678.844C1302.43 677.095 1306.02 673.465 1304.07 666.667C1302.59 661.487 1297.41 656.537 1294.51 654.062C1293.68 653.369 1293.95 652.016 1295 651.686C1297.21 650.993 1300.45 649.904 1302.95 648.815C1303.81 648.452 1304.73 648.32 1305.62 648.551L1308.59 649.31C1310.94 649.904 1312.45 652.115 1312.16 654.524C1311.13 662.873 1310.97 682.144 1328.22 695.145C1342.24 705.374 1372.35 720.29 1372.35 720.29L1398.41 652.445L1328.38 560.413L1328.35 560.347Z" fill="white"/>
<path d="M1291.11 583.942L1249.22 615.654C1246.48 617.733 1244.87 620.999 1244.87 624.464V650.137" stroke="#C3D6ED" stroke-width="4.5277" stroke-miterlimit="10" stroke-linecap="round"/>
<path d="M1309.15 594.369L1267.26 626.08C1264.53 628.159 1262.91 631.426 1262.91 634.891V660.564" stroke="#C3D6ED" stroke-width="4.5277" stroke-miterlimit="10" stroke-linecap="round"/>
<path d="M1668.06 731.906C1627.16 712.008 1631.81 738.934 1548.82 722.534C1478.17 708.609 1418.76 667.526 1402.67 655.614C1400.49 653.997 1397.39 654.921 1396.4 657.462L1375.29 712.338C1373.38 717.321 1374.53 722.93 1378.26 726.758C1389.08 737.912 1416.75 763.65 1477.51 806.713" stroke="white" stroke-width="7.54617" stroke-miterlimit="10" stroke-linecap="round"/>
<path opacity="0.2" d="M1108.18 485.079L1163.26 594.369" stroke="white" stroke-width="2.26385" stroke-miterlimit="10" stroke-linecap="round"/>
<path d="M778.643 957.633C809.54 932.911 826.975 812.713 826.975 812.713C826.975 812.713 818.963 850.897 773.981 843.772C739.505 838.322 734.153 798.168 734.153 798.168L733.136 653.642L759.994 637.456C759.994 637.456 763.835 489.187 725.518 469.389C687.201 449.624 548.346 390.297 548.346 390.297L416.485 375.457C416.485 375.457 217.479 418.729 179.162 479.271C149.152 526.681 145.179 780.242 167.769 912.949C281.44 1016.21 467.181 1092.67 735.303 1104.03L716.85 967.516C716.85 967.516 747.747 982.356 778.643 957.633Z" fill="#5A92CB"/>
<path d="M823.298 820.166C823.298 841.375 800.577 846.629 779.235 845.676C763.475 844.987 738.915 830.902 738.915 809.693C738.915 788.483 746.598 799.909 767.841 799.909C789.085 799.909 823.298 798.957 823.298 820.166Z" fill="#225597"/>
<path d="M416.485 373.815C416.485 373.815 442.457 256.407 443.672 244.03C444.887 231.652 548.346 388.655 548.346 388.655L519.091 439.347L416.485 373.847V373.815Z" fill="white"/>
<path d="M628.697 249.157C629.3 244.591 627.735 240.618 625.2 240.283C622.665 239.948 620.121 243.378 619.517 247.944C618.914 252.51 620.479 256.483 623.014 256.818C625.549 257.153 628.093 253.723 628.697 249.157Z" stroke="white" stroke-width="3.01847" stroke-miterlimit="10"/>
<path d="M286.693 598.747C286.693 598.747 308.265 714.053 307.707 844.724" stroke="#225597" stroke-width="9.05541" stroke-miterlimit="10" stroke-linecap="round"/>
<path d="M242.203 844.725L279.601 858.941C285.741 861.272 285.643 869.973 279.47 872.173L224.9 891.675" stroke="#225597" stroke-width="9.05541" stroke-miterlimit="10" stroke-linecap="round"/>
<path opacity="0.2" d="M442.064 284.906C442.064 284.906 485.996 326.307 510.096 341.377C534.196 356.447 542.371 376.278 542.371 376.278C542.371 376.278 528.712 401.296 489.903 368.201C461.534 344.037 442.031 284.906 442.031 284.906H442.064Z" fill="#225597"/>
<path d="M666.155 162.444C663.692 168.617 629.085 384.914 562.334 383.699C495.583 382.484 436.679 282.675 436.679 282.675L430.506 142.679L548.347 51.2095L666.188 162.444H666.155Z" fill="white"/>
<path d="M591.129 233.262C591.129 233.262 586.073 257.197 600.881 278.636C606.758 287.172 579.999 286.516 570.707 279.555" fill="white"/>
<path d="M591.129 233.262C591.129 233.262 586.073 257.197 600.881 278.636C606.758 287.172 579.999 286.516 570.707 279.555" stroke="#0A253C" stroke-width="6.03694" stroke-miterlimit="10" stroke-linecap="round"/>
<path d="M577.306 320.661C577.306 320.661 553.206 317.082 532.094 309.038Z" fill="white"/>
<path d="M577.306 320.661C577.306 320.661 553.206 317.082 532.094 309.038" stroke="#0A253C" stroke-width="6.03694" stroke-miterlimit="10" stroke-linecap="round"/>
<path d="M578.718 94.1537C578.718 94.1537 556.456 140.512 517.515 169.24C478.574 197.968 444.099 206.111 444.099 206.111C444.099 206.111 440.093 190.319 432.87 196.196C425.646 202.072 406.504 213.761 406.504 213.761C406.504 213.761 356.465 62.635 482.416 19.9862C608.4 -22.6625 561.25 19.9862 561.25 19.9862C561.25 19.9862 595.2 3.99707 644.55 44.0849C700.269 89.3602 702.961 128.43 702.961 128.43C702.961 128.43 684.41 110.832 684.41 114.51C684.41 118.187 697.314 141.76 687.234 174.691C678.467 203.353 656.009 209.854 656.009 209.854C656.009 209.854 672.327 162.313 639.395 137.131C609.516 114.28 578.718 94.1209 578.718 94.1209V94.1537Z" fill="#225597"/>
<path d="M438.209 257.797C450.778 255.183 457.516 236.47 453.259 216.001C449.001 195.533 435.36 181.059 422.79 183.673C410.22 186.287 403.482 205 407.74 225.469C411.998 245.938 425.639 260.411 438.209 257.797Z" fill="white"/>
<path d="M525.692 194.783C523.426 195.144 522.179 192.189 524.083 190.909C529.14 187.429 537.611 183.948 549.923 185.918C559.314 187.428 564.797 191.434 567.884 194.947C569.361 196.621 567.588 199.15 565.52 198.394C560.791 196.621 553.666 194.52 545.294 193.929C537.414 193.371 530.584 194.028 525.725 194.783H525.692Z" fill="#0A253C"/>
<path d="M615.755 206.47C613.456 206.634 612.504 203.581 614.474 202.464C619.826 199.444 628.56 196.719 640.643 199.772C649.869 202.103 654.958 206.568 657.717 210.344C659.03 212.15 657.06 214.514 655.057 213.562C650.526 211.395 643.565 208.67 635.291 207.323C627.509 206.076 620.614 206.109 615.722 206.47H615.755Z" fill="#0A253C"/>
<path d="M416.485 373.816C416.485 373.816 479.132 470.736 531.437 470.834C583.741 470.933 548.346 388.623 548.346 388.623L416.485 373.783V373.816Z" fill="white"/>
<path d="M465.474 789.961C465.474 789.961 486.159 785.364 525.757 748.987C557.77 719.569 576.124 705.353 585.778 698.261C589.324 695.667 593.329 693.862 597.631 692.91C610.961 690.02 641.529 683.454 653.908 681.123C657.782 680.401 661.722 680.466 665.531 681.353L717.015 693.008L709.496 715.465L671.572 711.558C670.587 711.46 669.57 711.492 668.617 711.722L653.908 714.776C652.824 715.005 652.759 716.483 653.809 716.811C660.146 718.715 671.474 722.885 672.689 727.547C674.528 734.541 665.695 743.011 661.854 746.262C661.131 746.852 661.131 748.002 661.886 748.56C663.856 750.004 666.319 753.583 662.28 761.66C658.57 769.08 651.774 774.76 648.556 777.156C647.571 777.912 647.144 779.126 647.407 780.341C648.228 783.788 648.195 791.471 635.816 799.121C622.322 807.46 607.054 807.132 601.899 806.738C600.75 806.64 599.699 806.18 598.845 805.425L594.249 801.255C593.329 800.434 591.95 800.467 591.129 801.386C585.909 807.132 567.752 826.24 552.681 830.87C542.798 833.89 533.44 833.201 528.22 832.347C525.396 831.887 522.507 832.741 520.405 834.711L492.267 860.911C492.267 860.911 473.223 828.079 469.381 816.883C465.54 805.655 465.54 789.994 465.54 789.994L465.474 789.961Z" fill="white"/>
<path d="M613.391 731.52L652.496 743.931" stroke="#C3D6ED" stroke-width="4.5277" stroke-miterlimit="10" stroke-linecap="round"/>
<path d="M616.411 704.827L645.502 714.052" stroke="#C3D6ED" stroke-width="4.5277" stroke-miterlimit="10" stroke-linecap="round"/>
<path d="M605.051 758.967L642.81 772.362" stroke="#C3D6ED" stroke-width="4.5277" stroke-miterlimit="10" stroke-linecap="round"/>
<path d="M631.671 236.777C632.69 229.065 630.135 222.367 625.965 221.815C621.794 221.264 617.587 227.069 616.567 234.781C615.548 242.492 618.102 249.191 622.273 249.742C626.444 250.294 630.651 244.489 631.671 236.777Z" fill="#0A253C"/>
<path d="M555.609 224.54C556.629 216.828 554.074 210.129 549.903 209.578C545.733 209.027 541.525 214.832 540.506 222.543C539.486 230.255 542.041 236.954 546.212 237.505C550.382 238.056 554.59 232.252 555.609 224.54Z" fill="#0A253C"/>
<path d="M548.609 69.9878C548.609 69.9878 527.464 101.08 490.493 112.177C453.49 123.274 459.498 100.719 459.498 100.719" stroke="#5A92CB" stroke-width="6.03694" stroke-miterlimit="10" stroke-linecap="round"/>
<path d="M325.01 859.564C325.01 859.564 386.804 833.594 416.486 815.077C433.921 804.177 446.233 794.13 453.424 787.695C456.937 784.543 462.552 786.086 463.931 790.584C468.856 806.705 481.825 839.504 494.433 858.94C497.454 863.603 496.6 869.775 492.496 873.518C469.644 894.399 410.641 944.993 355.842 983.013" stroke="#225597" stroke-width="9.05541" stroke-miterlimit="10" stroke-linecap="round"/>
<path d="M595.694 798.234L605.051 793.736L596.121 791.405" stroke="#C3D6ED" stroke-width="4.5277" stroke-miterlimit="10" stroke-linecap="round"/>
<path d="M681.586 785.035L731.724 648.684C732.577 646.386 734.482 644.613 736.846 643.989L808.522 624.29C810.164 623.83 811.904 624.192 813.218 625.209L815.844 627.212C817.453 628.427 818.044 630.561 817.355 632.432L762.358 778.371L689.27 790.321C685.724 790.912 682.309 788.581 681.586 785.035Z" fill="#0A253C"/>
<path d="M819.981 763.302C818.405 761.463 817.716 759.067 817.782 756.637C818.11 743.439 818.438 705.288 810.919 700.691C801.824 695.11 756.054 682.535 749.618 692.779C743.183 703.023 769.417 711.625 780.844 714.711C783.536 715.433 784.981 718.322 784.028 720.916L779.267 733.589C778.644 735.231 777.068 736.281 775.295 736.216C761.669 735.526 709.758 732.637 694.983 735.953C685.166 738.153 678.861 753.617 709.758 757.294C733.267 760.085 751.391 763.663 759.304 764.484C760.749 764.648 761.669 766.06 761.242 767.439L759.6 772.758C759.272 773.775 758.287 774.465 757.236 774.366C750.472 773.775 726.569 771.412 710.021 765.699C689.237 758.541 670.423 758.41 670.325 765.699C670.16 776.697 693.013 786.219 705.523 790.224C718.032 794.23 733.793 799.319 733.793 799.319C733.793 799.319 683.228 768.916 678.533 777.551C672.36 788.878 710.283 810.679 729.491 812.78C748.699 814.881 749.159 827.784 770.796 831.494C776.575 832.479 783.831 833.07 788.001 833.366C790.004 833.497 791.974 833.924 793.846 834.745C799.624 837.24 814.268 841.869 821.722 829.491C830.554 814.815 831.014 776.107 820.08 763.368L819.981 763.302Z" fill="white"/>
<path opacity="0.2" d="M799.559 636.177L744.201 652.297C741.771 653.02 739.834 654.825 738.98 657.222L699.021 769.77" stroke="white" stroke-width="2.26385" stroke-miterlimit="10" stroke-linecap="round"/>
<path d="M694.786 786.284C694.786 786.284 709.857 794.984 724.665 799.909" stroke="#C3D6ED" stroke-width="4.5277" stroke-miterlimit="10" stroke-linecap="round"/>
<path d="M734.548 832.675L709.726 876.769" stroke="#225597" stroke-width="9.05541" stroke-miterlimit="10" stroke-linecap="round"/>
</g>
<path d="M1065.1 229.135H850.459C849.919 229.135 849.492 229.562 849.492 230.103V391.047C849.492 391.587 849.919 392.014 850.459 392.015H1015.27C1022.75 392.015 1029.89 395.066 1035.05 400.5L1064.42 431.288C1064.61 431.483 1064.77 431.55 1064.91 431.576C1065.07 431.607 1065.27 431.593 1065.47 431.513C1065.67 431.432 1065.82 431.306 1065.92 431.177C1065.99 431.067 1066.07 430.903 1066.07 430.619V230.103C1066.07 229.562 1065.64 229.135 1065.1 229.135Z" stroke="#5A92CB" stroke-width="8.20745" stroke-miterlimit="10" stroke-linecap="round"/>
<path d="M954.965 254.562V262.466" stroke="#225597" stroke-width="5.47163" stroke-linecap="round" stroke-linejoin="round"/>
<path d="M954.965 351.745V359.649" stroke="#225597" stroke-width="5.47163" stroke-linecap="round" stroke-linejoin="round"/>
<path d="M901.864 307.568H919.171" stroke="#225597" stroke-width="5.47163" stroke-linecap="round" stroke-linejoin="round"/>
<path d="M991.652 307.568H1007.78" stroke="#225597" stroke-width="5.47163" stroke-linecap="round" stroke-linejoin="round"/>
<path d="M998.568 263.55L986.425 275.694" stroke="#225597" stroke-width="5.47163" stroke-linecap="round" stroke-linejoin="round"/>
<path d="M923.282 338.836L909.162 352.956" stroke="#225597" stroke-width="5.47163" stroke-linecap="round" stroke-linejoin="round"/>
<path d="M910.501 263.55L924.589 277.638" stroke="#225597" stroke-width="5.47163" stroke-linecap="round" stroke-linejoin="round"/>
<path d="M985.755 338.836L997.357 350.438" stroke="#225597" stroke-width="5.47163" stroke-linecap="round" stroke-linejoin="round"/>
<path d="M958.503 277.925C955.703 277.403 952.823 277.507 950.068 278.229C947.313 278.951 944.752 280.273 942.568 282.1C940.384 283.928 938.632 286.216 937.435 288.8C936.239 291.385 935.629 294.201 935.649 297.049C935.613 300.401 936.471 303.702 938.135 306.611C939.57 309.097 941.036 311.552 942.247 314.133L944.351 318.659C945.74 321.655 946.458 324.919 946.454 328.222" stroke="#225597" stroke-width="5.47163" stroke-linecap="round" stroke-linejoin="round"/>
<path d="M951.14 277.925C953.94 277.403 956.82 277.507 959.575 278.229C962.33 278.951 964.891 280.273 967.075 282.1C969.259 283.928 971.011 286.216 972.208 288.8C973.404 291.385 974.014 294.201 973.994 297.049C974.031 300.401 973.172 303.702 971.508 306.611C970.073 309.097 968.607 311.552 967.396 314.133L965.292 318.659C963.903 321.655 963.185 324.919 963.189 328.222" stroke="#225597" stroke-width="5.47163" stroke-linecap="round" stroke-linejoin="round"/>
<path d="M963.188 327.966H946.455" stroke="#225597" stroke-width="5.47163" stroke-linecap="round" stroke-linejoin="round"/>
<path d="M944.287 297.687L952.67 308.874C954.051 310.818 954.777 313.151 954.742 315.536M954.742 315.536V327.966M954.742 315.536C954.744 313.137 955.515 310.803 956.941 308.874L965.292 297.687" stroke="#225597" stroke-width="5.47163" stroke-linecap="round" stroke-linejoin="round"/>
<path d="M946.455 327.966H963.188V333.385C963.188 334.23 962.853 335.041 962.255 335.639C961.657 336.236 960.846 336.572 960.001 336.572H949.642C948.797 336.572 947.986 336.236 947.388 335.639C946.791 335.041 946.455 334.23 946.455 333.385V327.966Z" stroke="#225597" stroke-width="5.47163" stroke-linecap="round" stroke-linejoin="round"/>
<path d="M1714.81 179.798C1715.23 179.798 1715.7 179.798 1716.15 179.798C1722.52 179.798 1728.91 179.798 1735.28 179.798C1737.52 179.798 1738.91 181.561 1738.15 183.455C1737.7 184.587 1736.75 185.139 1735.25 185.139C1728.83 185.139 1722.41 185.139 1715.99 185.139C1715.07 185.139 1714.65 185.297 1714.44 186.297C1713.86 189.244 1712.39 191.796 1710.28 194.19C1710.86 194.217 1711.28 194.243 1711.68 194.243C1722.1 194.243 1732.52 194.243 1742.94 194.243C1744.75 194.243 1745.94 195.164 1746.07 196.69C1746.2 198.242 1745.12 199.505 1743.57 199.61C1743.31 199.61 1743.02 199.61 1742.75 199.61C1693.29 199.61 1643.82 199.61 1594.36 199.61C1578.02 199.61 1561.7 199.61 1545.36 199.61C1543.73 199.61 1542.73 198.979 1542.39 197.716C1541.86 195.874 1543.13 194.243 1545.18 194.243C1549.84 194.243 1554.52 194.243 1559.18 194.243H1560.23C1559.07 191.77 1557.89 189.296 1556.63 186.586C1556.26 186.586 1555.52 186.586 1554.81 186.586C1551.39 186.586 1547.97 186.639 1544.55 186.613C1541.1 186.586 1538.55 184.113 1538.65 181.008C1538.71 179.719 1539.63 178.588 1540.86 178.351C1542.18 178.114 1543.44 178.877 1543.89 180.166C1544 180.456 1544.05 180.771 1544.13 181.113H1557.02C1557.94 176.693 1560.2 173.141 1563.99 170.668C1566.78 168.852 1569.86 168.063 1573.18 168.194C1579.67 168.405 1586.28 172.957 1587.99 181.061H1613.3C1613.41 180.64 1613.54 180.245 1613.64 179.824C1615.48 172.825 1621.75 167.984 1628.9 168.037C1636.16 168.089 1642.37 172.983 1644.08 180.035C1644.3 180.877 1644.64 181.061 1645.43 181.034C1647.22 180.956 1649 181.034 1650.79 180.982C1655.9 180.85 1659.71 176.93 1659.74 171.825C1659.74 168.089 1659.74 164.353 1659.74 160.617C1659.74 157.538 1657.79 155.565 1654.74 155.565C1652.4 155.565 1650.08 155.539 1647.74 155.565C1646.61 155.565 1645.74 155.17 1645.03 154.276C1641.9 150.461 1638.72 146.672 1635.59 142.857C1634.17 141.094 1632.38 140.278 1630.11 140.304C1616.93 140.357 1603.75 140.383 1590.57 140.383C1588.54 140.383 1586.88 141.041 1585.46 142.488C1581.02 147.014 1576.52 151.46 1572.07 155.986C1571.2 156.854 1570.25 157.354 1569.04 157.538C1562.76 158.538 1556.47 159.591 1550.18 160.617C1548.44 160.906 1547.1 160.038 1546.84 158.538C1546.57 156.933 1547.44 155.67 1549.18 155.381C1555.13 154.355 1561.07 153.407 1566.99 152.381C1567.7 152.25 1568.47 151.881 1568.97 151.381C1573.23 147.172 1577.46 142.935 1581.65 138.673C1584.04 136.252 1586.88 135.042 1590.3 135.042C1603.51 135.042 1616.75 134.963 1629.96 134.963C1633.95 134.963 1637.27 136.437 1639.82 139.594C1642.48 142.909 1645.24 146.119 1647.9 149.408C1648.4 150.013 1648.93 150.25 1649.69 150.224C1651.64 150.171 1653.58 150.092 1655.53 150.224C1660.06 150.539 1663.29 153.144 1664.69 157.459C1664.74 157.644 1664.82 157.801 1664.95 158.091C1668.42 154.67 1673.05 153.96 1677.32 152.46C1682.13 150.803 1687 149.303 1691.81 147.698C1692.45 147.487 1693.08 147.093 1693.55 146.619C1698.47 141.751 1703.36 136.858 1708.23 131.937C1710.89 129.254 1714.07 127.938 1717.86 127.964C1723.7 127.964 1729.52 127.964 1735.36 127.964C1737.57 127.964 1738.96 129.832 1738.15 131.7C1737.62 132.911 1736.62 133.358 1735.33 133.358C1729.62 133.358 1723.89 133.358 1718.18 133.358C1715.65 133.358 1713.6 134.174 1711.81 135.989C1708.5 139.383 1705.1 142.699 1701.76 146.067C1701.5 146.33 1701.23 146.619 1700.79 147.093H1702.34C1713.31 147.093 1724.28 147.093 1735.23 147.093C1737.44 147.093 1738.81 148.724 1738.17 150.618C1737.78 151.802 1736.81 152.46 1735.39 152.46C1731.41 152.46 1727.47 152.46 1723.49 152.46C1714.23 152.46 1704.97 152.46 1695.73 152.46C1695.05 152.46 1694.34 152.565 1693.68 152.776C1686.81 155.012 1679.95 157.249 1673.08 159.512C1668 161.169 1665.32 164.906 1665.32 170.273C1665.32 172.168 1665.32 174.088 1665.32 175.983C1665.37 177.903 1666.82 179.64 1668.69 179.693C1672.61 179.798 1676.53 179.719 1680.45 179.719C1682.21 170.273 1690.34 165.063 1697.84 165.142C1704.26 165.221 1712.65 169.431 1714.78 179.745L1714.81 179.798ZM1709.52 182.561C1709.57 176.009 1704.34 170.668 1697.76 170.589C1691.18 170.51 1685.74 175.851 1685.71 182.429C1685.68 188.875 1690.97 194.19 1697.5 194.269C1704.1 194.322 1709.47 189.112 1709.52 182.561ZM1640.74 194.19H1685C1682.55 191.533 1681.18 188.533 1680.53 185.165C1676.74 185.165 1673.05 185.165 1669.37 185.165C1667.11 185.165 1665.08 184.481 1663.34 183.034C1662.77 182.561 1662.21 182.008 1661.61 181.455C1658.4 185.086 1654.27 186.586 1649.45 186.455C1648.01 186.402 1646.58 186.402 1645.14 186.455C1644.82 186.455 1644.3 186.797 1644.24 187.033C1643.66 189.638 1642.53 191.927 1640.72 194.138L1640.74 194.19ZM1628.9 194.269C1634.56 194.269 1639.22 189.533 1639.22 183.797C1639.22 178.114 1634.56 173.483 1628.88 173.483C1623.19 173.483 1618.56 178.14 1618.56 183.824C1618.56 189.559 1623.22 194.295 1628.9 194.295V194.269ZM1582.83 184.008C1582.88 178.272 1578.38 173.667 1572.68 173.588C1567.02 173.483 1562.28 178.114 1562.26 183.771C1562.23 189.507 1566.73 194.19 1572.39 194.269C1578.12 194.348 1582.81 189.77 1582.86 184.034L1582.83 184.008ZM1588.44 186.56C1587.15 189.296 1585.99 191.77 1584.86 194.164H1616.59C1615.43 191.691 1614.27 189.191 1613.04 186.56H1588.44Z" fill="#225597"/>
<path d="M1697.05 91.8135C1693.08 93.1554 1689.37 94.392 1685.66 95.655C1683.42 96.418 1682.76 96.2075 1681.24 94.3394C1677.55 89.7612 1673.9 85.183 1670.24 80.6048C1669.98 80.2891 1669.71 79.9734 1669.32 79.5261C1668.82 80.9995 1668.37 82.3151 1667.92 83.6306C1666.32 88.4193 1664.71 93.208 1663.11 97.9967C1662.45 99.9174 1661.29 100.549 1659.35 100.023C1654.19 98.6545 1649.06 97.3126 1643.9 95.9444C1643.64 95.8655 1643.37 95.8392 1642.95 95.7339C1643.19 96.2338 1643.35 96.6285 1643.53 96.9706C1646.45 102.812 1649.4 108.627 1652.32 114.468C1653.37 116.573 1653.08 117.704 1651.08 118.967C1648.35 120.73 1645.58 122.493 1642.85 124.256C1642.53 124.466 1642.22 124.677 1641.8 124.992C1643.69 126.124 1645.48 127.176 1647.27 128.229C1650.27 130.018 1653.29 131.781 1656.29 133.57C1657.95 134.543 1658.42 136.069 1657.58 137.49C1656.77 138.885 1655.16 139.148 1653.5 138.174C1647.56 134.649 1641.59 131.149 1635.64 127.623C1633.35 126.282 1633.3 124.019 1635.56 122.545C1639.24 120.151 1642.93 117.809 1646.69 115.389C1646.51 114.968 1646.35 114.573 1646.16 114.205C1642.66 107.232 1639.19 100.233 1635.67 93.2606C1635.06 92.0503 1634.8 90.9189 1635.74 89.7875C1636.67 88.6561 1637.85 88.6824 1639.14 89.0508C1645.3 90.7084 1651.45 92.3397 1657.61 93.971C1657.95 94.05 1658.27 94.1289 1658.71 94.2342C1659.4 92.2345 1660.06 90.3138 1660.71 88.3667C1662.35 83.4728 1664 78.5788 1665.61 73.6586C1666 72.4746 1666.55 71.5274 1667.87 71.2906C1669.19 71.0538 1670.05 71.7115 1670.84 72.7114C1675.24 78.2631 1679.71 83.7622 1684.08 89.3139C1684.68 90.1033 1685.21 90.1822 1686.1 89.8665C1690.68 88.2615 1695.31 86.7617 1699.89 85.183C1701.15 84.7357 1702.34 84.5779 1703.36 85.604C1704.39 86.6301 1704.23 87.8142 1703.79 89.0771C1701.63 95.0761 1699.52 101.075 1697.42 107.1C1697.26 107.521 1697.16 107.969 1696.94 108.6C1697.79 108.6 1698.52 108.6 1699.23 108.6C1703.08 108.653 1706.94 108.732 1710.78 108.784C1712.02 108.784 1712.99 109.205 1713.52 110.389C1714.02 111.547 1713.71 112.573 1712.89 113.494C1706.55 120.756 1700.23 128.044 1693.89 135.306C1692.68 136.675 1691.1 136.885 1689.89 135.885C1688.66 134.859 1688.63 133.175 1689.87 131.754C1694.66 126.229 1699.47 120.73 1704.26 115.204C1704.52 114.889 1704.79 114.573 1705.18 114.099C1704.71 114.073 1704.36 114.02 1704.05 114.02C1700.52 113.968 1696.97 113.941 1693.45 113.836C1691.05 113.757 1690 112.152 1690.79 109.863C1692.71 104.364 1694.66 98.865 1696.6 93.3922C1696.76 92.9712 1696.89 92.5239 1697.13 91.8398L1697.05 91.8135Z" fill="#225597"/>
<path d="M1626.77 159.696C1622.96 159.696 1619.17 159.696 1615.35 159.696C1613.22 159.696 1612.19 158.696 1612.19 156.591C1612.19 153.25 1612.19 149.908 1612.19 146.566C1612.19 144.751 1613.27 143.646 1615.06 143.62C1619.8 143.62 1624.54 143.567 1629.27 143.62C1630.06 143.62 1631.06 144.067 1631.59 144.646C1634.69 148.066 1637.69 151.592 1640.72 155.065C1641.51 155.986 1641.69 157.012 1641.19 158.091C1640.69 159.196 1639.72 159.643 1638.53 159.643C1634.61 159.643 1630.69 159.643 1626.77 159.643V159.696ZM1617.62 154.249H1632.85C1632.01 153.276 1631.19 152.565 1630.64 151.671C1629.22 149.355 1627.25 148.671 1624.59 148.934C1622.3 149.171 1619.96 148.987 1617.62 148.987V154.276V154.249Z" fill="#225597"/>
<path d="M1592.62 159.749C1588.8 159.749 1584.99 159.749 1581.2 159.749C1579.91 159.749 1578.91 159.328 1578.39 158.118C1577.86 156.881 1578.28 155.855 1579.15 154.934C1582.38 151.566 1585.59 148.198 1588.8 144.804C1589.54 144.015 1590.41 143.646 1591.49 143.646C1595.72 143.646 1599.96 143.646 1604.2 143.646C1606.28 143.646 1607.3 144.646 1607.3 146.699C1607.3 150.04 1607.3 153.382 1607.3 156.723C1607.3 158.723 1606.3 159.723 1604.28 159.723C1600.38 159.723 1596.49 159.723 1592.62 159.723V159.749ZM1601.88 149.014C1598.72 149.014 1595.72 149.014 1592.7 149.014C1592.46 149.014 1592.15 149.119 1591.96 149.303C1590.41 150.908 1588.88 152.54 1587.2 154.303H1601.88V149.014Z" fill="#225597"/>
<path d="M1546.76 176.273C1545.47 176.273 1544.21 176.299 1542.92 176.273C1539.21 176.168 1536.21 173.247 1536.1 169.642C1536 165.801 1538.71 162.67 1542.52 162.433C1545.31 162.275 1548.13 162.328 1550.92 162.354C1552.63 162.354 1553.76 163.617 1553.7 165.143C1553.65 166.643 1552.52 167.695 1550.81 167.722C1548.26 167.748 1545.68 167.722 1543.13 167.748C1542.13 167.748 1541.52 168.301 1541.47 169.327C1541.44 170.195 1542.15 170.826 1543.15 170.879C1543.47 170.879 1543.79 170.879 1544.07 170.879C1546.26 170.879 1548.42 170.879 1550.6 170.879C1552.49 170.879 1553.73 171.958 1553.73 173.589C1553.73 175.22 1552.49 176.247 1550.57 176.247C1549.28 176.247 1548.02 176.247 1546.73 176.247L1546.76 176.273Z" fill="#225597"/>
<path d="M1524.18 51.1348H1773.46C1774.43 51.1349 1775.22 51.9287 1775.22 52.8984V239.763C1775.22 240.733 1774.43 241.526 1773.46 241.526H1582.07C1573.58 241.526 1565.43 245.009 1559.58 251.165L1525.48 286.923L1525.47 286.925C1524.38 288.073 1522.42 287.299 1522.42 285.702V52.8984C1522.42 51.9288 1523.21 51.1349 1524.18 51.1348Z" stroke="#5A92CB" stroke-width="8.20745" stroke-miterlimit="10" stroke-linecap="round"/>
<path d="M339.073 195.656C340.979 196.55 342.453 198.165 343.168 200.146C343.884 202.126 343.784 204.31 342.889 206.217L322.957 248.71L308.579 241.966L328.512 199.473C329.406 197.566 331.021 196.093 333.002 195.377C334.982 194.661 337.166 194.761 339.073 195.656Z" stroke="#225597" stroke-width="4.86111" stroke-linecap="round" stroke-linejoin="round"/>
<path d="M340.84 210.637C341.923 211.14 342.895 211.851 343.703 212.73C344.51 213.609 345.136 214.639 345.546 215.761C345.955 216.882 346.139 218.073 346.087 219.265C346.036 220.458 345.75 221.629 345.246 222.711L327.57 260.401" stroke="#225597" stroke-width="4.86111" stroke-linecap="round" stroke-linejoin="round"/>
<path d="M310.89 242.684L279.062 310.535L289.156 315.27L320.984 247.419L310.89 242.684Z" stroke="#225597" stroke-width="4.86111" stroke-linecap="round" stroke-linejoin="round"/>
<path d="M282.973 312.882L288.956 315.71L282.701 322.454L279.275 320.823" stroke="#225597" stroke-width="4.86111" stroke-linecap="round" stroke-linejoin="round"/>
<path d="M284.877 313.755L278.894 310.981L277.698 320.064L281.179 321.696" stroke="#225597" stroke-width="4.86111" stroke-linecap="round" stroke-linejoin="round"/>
<path d="M280.036 321.694L277.316 327.351" stroke="#225597" stroke-width="4.86111" stroke-linecap="round" stroke-linejoin="round"/>
<path d="M283.68 341.111V349.378H167.347V177.298H175.233" stroke="#5A92CB" stroke-width="4.86111" stroke-linecap="round" stroke-linejoin="round"/>
<path d="M291.567 310.165V341.111H175.234V169.031H291.567V283.95" stroke="#225597" stroke-width="4.86111" stroke-linecap="round" stroke-linejoin="round"/>
<path d="M197.967 319.41C204.385 319.41 204.385 323.761 210.803 323.761C217.22 323.761 217.275 319.41 223.529 319.41C229.784 319.41 229.947 323.761 236.419 323.761C242.891 323.761 242.836 319.41 249.308 319.41C255.78 319.41 255.78 323.761 262.198 323.761" stroke="#225597" stroke-width="4.86111" stroke-linecap="round" stroke-linejoin="round"/>
<path d="M187.199 205.251H279.819" stroke="#225597" stroke-width="4.86111" stroke-linecap="round" stroke-linejoin="round"/>
<path d="M187.199 223.036H279.819" stroke="#225597" stroke-width="4.86111" stroke-linecap="round" stroke-linejoin="round"/>
<path d="M187.144 240.875H279.819" stroke="#225597" stroke-width="4.86111" stroke-linecap="round" stroke-linejoin="round"/>
<path d="M187.144 258.66H279.765" stroke="#225597" stroke-width="4.86111" stroke-linecap="round" stroke-linejoin="round"/>
<path d="M187.144 276.445H279.765" stroke="#225597" stroke-width="4.86111" stroke-linecap="round" stroke-linejoin="round"/>
<path d="M187.144 294.229H279.765" stroke="#225597" stroke-width="4.86111" stroke-linecap="round" stroke-linejoin="round"/>
<path d="M185.458 186.977V183.442C185.472 182.408 185.889 181.42 186.62 180.689C187.352 179.958 188.34 179.54 189.374 179.526H193.344" stroke="#225597" stroke-width="4.86111" stroke-linecap="round" stroke-linejoin="round"/>
</g>
<defs>
<clipPath id="clip0_1828_3165">
<rect width="1907" height="1105" fill="white" transform="translate(0.034668 0.963867)"/>
</clipPath>
</defs>
</svg>
