<svg width="586" height="778" viewBox="0 0 586 778" fill="none" xmlns="http://www.w3.org/2000/svg">
<path d="M569.577 424.066C499.162 222.23 244.379 142.37 105.326 231.666C2.2578 297.947 -35.2821 398.29 38.6871 594.143C47.3501 616.927 56.6796 637.41 66.8976 655.821C47.7944 572.049 26.4699 440.637 51.7927 403.814C89.3327 349.039 171.299 330.398 171.299 330.398C171.299 330.398 321.903 345.817 337.896 354.563C354.111 363.078 407.867 401.512 413.864 413.48C419.64 425.677 436.077 449.382 451.404 535.686C464.066 606.34 465.843 655.361 465.843 676.764C465.843 683.208 467.175 689.422 469.841 694.946C544.921 645.695 618.89 565.605 569.577 424.066Z" fill="#D0E2F3"/>
<path d="M453.331 534.517C437.782 448.213 421.566 424.508 415.791 412.311C410.016 400.113 356.038 361.909 339.823 353.394C323.607 344.878 173.225 329.229 173.225 329.229C173.225 329.229 91.2593 347.87 53.7194 402.644C28.3966 439.468 49.7211 570.88 68.8242 654.652C145.903 792.969 265.409 804.246 389.58 739.806C412.015 728.068 442.002 713.569 471.768 694.007C469.102 688.253 467.769 682.039 467.769 675.826C467.769 654.192 465.992 605.171 453.331 534.517Z" fill="#4794D0"/>
<path d="M331.789 361.564C331.789 373.071 326.013 382.277 318.905 382.277C311.797 382.277 299.58 363.175 299.58 351.667C299.58 340.16 311.797 340.851 318.905 340.851C326.013 340.851 331.789 350.287 331.789 361.564Z" fill="#00579C"/>
<path d="M214.277 217.034C214.277 217.034 221.385 260.992 214.277 281.014C207.169 301.037 202.06 310.243 202.06 310.243C202.06 310.243 258.703 384.809 288.912 392.404C318.9 400.229 314.679 383.198 314.679 383.198C314.679 383.198 306.683 342.002 311.792 328.654C314.679 321.059 214.277 217.034 214.277 217.034Z" fill="white"/>
<path d="M296.912 411.965L295.135 419.79C294.024 425.083 293.802 430.376 294.469 435.67C299.355 471.802 319.791 619.094 328.232 656.838C337.784 699.875 338.228 742.912 338.228 742.912" stroke="#00579C" stroke-width="8.42455" stroke-miterlimit="10" stroke-linecap="round"/>
<path d="M430.635 553.505L429.524 556.497C428.636 558.338 428.414 560.409 428.636 562.48C430.635 576.519 438.409 634.285 442.186 649.015C446.406 666.045 445.74 682.616 445.74 682.616" stroke="#00579C" stroke-width="8.42455" stroke-miterlimit="10" stroke-linecap="round"/>
<path d="M323.973 535.698C325.92 535.439 327.219 532.98 326.875 530.207C326.53 527.434 324.673 525.396 322.726 525.655C320.779 525.915 319.48 528.373 319.825 531.147C320.169 533.92 322.026 535.958 323.973 535.698Z" fill="white"/>
<path d="M311.527 435.358C313.474 435.098 314.773 432.64 314.428 429.866C314.084 427.093 312.227 425.055 310.28 425.314C308.333 425.574 307.034 428.032 307.378 430.806C307.723 433.579 309.58 435.617 311.527 435.358Z" fill="white"/>
<path d="M348.178 682.524C350.125 682.264 351.424 679.805 351.08 677.032C350.735 674.259 348.878 672.221 346.931 672.48C344.984 672.74 343.685 675.198 344.03 677.972C344.374 680.745 346.232 682.783 348.178 682.524Z" fill="white"/>
<path d="M117.655 408.053C117.655 408.053 179.731 611.451 167.095 751.107" stroke="#00579C" stroke-width="8.42455" stroke-miterlimit="10" stroke-linecap="round"/>
<path d="M183.982 221.78C181.97 256.659 214.369 265.939 214.369 265.939L202.541 229.611L183.982 221.78Z" fill="#00579C"/>
<path d="M172.074 328.883C172.074 328.883 214.057 409.203 246.71 422.321C263.814 429.226 268.256 368.237 268.256 368.237L172.074 328.883Z" fill="#00579C"/>
<path opacity="0.2" d="M326.654 307.231C326.654 307.231 267.911 297.793 251.437 279.476C234.911 260.936 209.146 249.728 209.146 249.728C209.146 249.728 210.285 292.099 249.217 312.512C284.007 330.9 326.654 307.231 326.654 307.231Z" fill="#00579C"/>
<path d="M330.247 104.627C330.247 104.627 354.634 154.344 359.158 199.407C368.004 285.793 333.771 321.775 283.483 313.262C255.377 308.576 234.636 293.48 221.912 281.318C212.462 272.351 205.718 260.324 202.64 247.362L178.76 146.796L330.247 104.627Z" fill="white"/>
<path d="M314.625 192.982C314.625 192.982 316.653 213.085 328.017 229.149C330.001 231.724 328.64 235.626 325.404 236.451C320.39 237.492 313.222 238.134 306.122 235.204" stroke="#00263E" stroke-width="5.61637" stroke-miterlimit="10" stroke-linecap="round"/>
<path d="M284.885 196.146C284.636 190.687 282.15 186.373 279.331 186.511C276.513 186.649 274.43 191.186 274.679 196.645C274.928 202.105 277.415 206.418 280.233 206.28C283.051 206.143 285.134 201.605 284.885 196.146Z" fill="#00263E"/>
<path d="M341.664 190.486C341.415 185.026 338.928 180.713 336.11 180.851C333.292 180.989 331.209 185.526 331.457 190.985C331.706 196.444 334.193 200.758 337.011 200.62C339.83 200.482 341.913 195.945 341.664 190.486Z" fill="#00263E"/>
<path d="M288.173 176.97C290.868 176.757 291.581 173.02 289.216 171.727C285.128 169.925 279.583 168.732 272.033 170.656C265.994 172.195 262.43 174.526 260.266 176.974C258.427 178.864 260.355 182.165 262.943 181.505C266.557 180.347 271.302 179.137 276.801 178.21C280.952 177.389 284.994 177.07 288.173 176.97Z" fill="#00263E"/>
<path d="M351.123 172.303C353.871 172.313 354.8 168.521 352.434 167.228C348.509 165.148 342.911 163.731 335.256 165.208C329.163 166.524 325.33 168.686 323.06 170.687C321.006 172.632 322.933 175.933 325.522 175.273C329.189 174.339 333.987 173.352 339.592 172.872C343.796 172.274 347.891 172.178 351.123 172.303Z" fill="#00263E"/>
<path d="M326.371 262.705C326.371 262.705 310.769 264.871 291.911 258.789L326.371 262.705Z" fill="white"/>
<path d="M326.371 262.705C326.371 262.705 310.769 264.871 291.911 258.789" stroke="#00263E" stroke-width="5.61637" stroke-miterlimit="10" stroke-linecap="round"/>
<path d="M215.899 185.678C214.658 186.232 213.739 187.177 213.573 188.405C212.696 192.42 209.645 201.73 200.463 208.337C193.982 212.833 168.783 208.828 168.783 208.828C168.783 208.828 120.544 154.999 141.279 112.266C151.864 90.3709 170.008 93.5672 170.008 93.5672C170.008 93.5672 193.79 42.4739 227.944 28.317C282.762 5.81173 261.634 38.2161 261.634 38.2161C261.634 38.2161 311.393 29.0876 343.588 79.8959C372.943 126.451 349.628 152.539 349.628 152.539C349.628 152.539 343.26 125.722 326.678 107.907C325.121 106.171 322.211 106.438 321.126 108.611C313.376 121.252 284.193 161.16 215.899 185.678Z" fill="#00579C"/>
<path d="M207.677 236.431C216.503 229.988 216.325 213.984 207.281 200.684C198.236 187.384 183.75 181.825 174.925 188.268C166.1 194.71 166.277 210.714 175.322 224.014C184.366 237.314 198.852 242.873 207.677 236.431Z" fill="white"/>
<path d="M254.622 113.71C254.622 113.71 245.859 138.459 223.289 152.27C200.719 166.082 201.156 149.617 201.156 149.617" stroke="#4794D0" stroke-width="5.61637" stroke-miterlimit="10" stroke-linecap="round"/>
<path d="M310.688 332.567C310.688 332.567 346.006 336.02 339.787 363.177C337.788 372.152 327.125 400.23 327.125 400.23L291.807 398.389C291.807 398.389 319.129 374.914 320.906 355.352C321.794 346.606 312.465 342.694 310.021 341.773C310.021 335.559 310.688 332.567 310.688 332.567Z" fill="#4794D0"/>
<path d="M298.024 402.299L290.472 375.372C289.583 372.15 287.362 369.159 284.474 367.548C273.146 360.643 243.38 342.002 224.055 326.352C202.953 308.861 192.735 289.068 192.735 289.068L171.854 328.883C171.854 328.883 190.291 358.342 214.059 383.427C226.721 396.776 235.606 403.91 241.381 407.823C245.157 410.354 250.266 409.204 252.71 405.061L265.371 382.277L298.024 402.299Z" fill="#4794D0"/>
</svg>
