<svg width="96" height="96" viewBox="0 0 96 96" fill="none" xmlns="http://www.w3.org/2000/svg">
<path d="M61.1002 84.0002C73.7475 84.0002 84.0002 73.7475 84.0002 61.1002C84.0002 48.4529 73.7475 38.2002 61.1002 38.2002C48.4529 38.2002 38.2002 48.4529 38.2002 61.1002C38.2002 73.7475 48.4529 84.0002 61.1002 84.0002Z" fill="#FFE81C"/>
<path d="M31.8801 37.7916C31.8801 38.5651 32.1874 39.307 32.7344 39.854C33.2814 40.401 34.0232 40.7083 34.7968 40.7083H37.7135L45.218 48.2128C45.3193 48.3144 45.4483 48.3838 45.5888 48.4125C45.7294 48.4411 45.8752 48.4276 46.0082 48.3738C46.1411 48.3199 46.2552 48.228 46.3362 48.1097C46.4172 47.9913 46.4614 47.8517 46.4635 47.7083V40.7083H66.8801C67.6537 40.7083 68.3955 40.401 68.9425 39.854C69.4895 39.307 69.7968 38.5651 69.7968 37.7916V17.3749C69.7968 16.6014 69.4895 15.8595 68.9425 15.3125C68.3955 14.7655 67.6537 14.4583 66.8801 14.4583H34.7968C34.0232 14.4583 33.2814 14.7655 32.7344 15.3125C32.1874 15.8595 31.8801 16.6014 31.8801 17.3749V37.7916Z" stroke="#00263E" stroke-width="2" stroke-linecap="round" stroke-linejoin="round"/>
<path d="M40.6301 23.2083H60.9564" stroke="#00263E" stroke-width="2" stroke-linecap="round" stroke-linejoin="round"/>
<path d="M40.6301 31.9583H60.9564" stroke="#00263E" stroke-width="2" stroke-linecap="round" stroke-linejoin="round"/>
<path d="M20.9426 53.1042C20.9426 54.8447 21.634 56.5139 22.8647 57.7446C24.0954 58.9753 25.7646 59.6667 27.5051 59.6667C29.2456 59.6667 30.9148 58.9753 32.1455 57.7446C33.3762 56.5139 34.0676 54.8447 34.0676 53.1042C34.0676 51.3638 33.3762 49.6946 32.1455 48.4639C30.9148 47.2332 29.2456 46.5417 27.5051 46.5417C25.7646 46.5417 24.0954 47.2332 22.8647 48.4639C21.634 49.6946 20.9426 51.3638 20.9426 53.1042Z" stroke="#00263E" stroke-width="2" stroke-linecap="round" stroke-linejoin="round"/>
<path d="M36.748 66.2874C35.0359 64.6728 32.9318 63.5333 30.6439 62.9818C28.3561 62.4303 25.9639 62.4858 23.7041 63.1429C21.4443 63.8 19.3953 65.0359 17.7599 66.7282C16.1246 68.4205 14.9595 70.5106 14.3801 72.7915H31.8801" stroke="#00263E" stroke-width="2" stroke-linecap="round" stroke-linejoin="round"/>
<path d="M61.7761 53.1042C61.7761 54.8447 62.4675 56.5139 63.6982 57.7446C64.9289 58.9753 66.5981 59.6667 68.3386 59.6667C70.0791 59.6667 71.7483 58.9753 72.979 57.7446C74.2097 56.5139 74.9011 54.8447 74.9011 53.1042C74.9011 51.3638 74.2097 49.6946 72.979 48.4639C71.7483 47.2332 70.0791 46.5417 68.3386 46.5417C66.5981 46.5417 64.9289 47.2332 63.6982 48.4639C62.4675 49.6946 61.7761 51.3638 61.7761 53.1042Z" stroke="#00263E" stroke-width="2" stroke-linecap="round" stroke-linejoin="round"/>
<path d="M59.0957 66.2874C60.8078 64.6728 62.912 63.5333 65.1998 62.9818C67.4877 62.4303 69.8799 62.4858 72.1397 63.1429C74.3994 63.8 76.4484 65.0359 78.0838 66.7282C79.7192 68.4205 80.8842 70.5106 81.4636 72.7915H63.9636" stroke="#00263E" stroke-width="2" stroke-linecap="round" stroke-linejoin="round"/>
<path d="M41.3594 61.8542C41.3594 63.5947 42.0508 65.2639 43.2815 66.4946C44.5122 67.7253 46.1814 68.4167 47.9219 68.4167C49.6624 68.4167 51.3316 67.7253 52.5623 66.4946C53.793 65.2639 54.4844 63.5947 54.4844 61.8542C54.4844 60.1138 53.793 58.4446 52.5623 57.2139C51.3316 55.9832 49.6624 55.2917 47.9219 55.2917C46.1814 55.2917 44.5122 55.9832 43.2815 57.2139C42.0508 58.4446 41.3594 60.1138 41.3594 61.8542Z" stroke="#00263E" stroke-width="2" stroke-linecap="round" stroke-linejoin="round"/>
<path d="M61.0469 81.5417C60.3032 78.6251 58.6092 76.0394 56.2325 74.1927C53.8558 72.346 50.9317 71.3435 47.9219 71.3435C44.912 71.3435 41.9879 72.346 39.6112 74.1927C37.2345 76.0394 35.5406 78.6251 34.7969 81.5417H61.0469Z" stroke="#00263E" stroke-width="2" stroke-linecap="round" stroke-linejoin="round"/>
</svg>
