<svg width="1347" height="1423" viewBox="0 0 1347 1423" fill="none" xmlns="http://www.w3.org/2000/svg">
<path d="M774.06 1322.27C1074.89 1146.65 1272.53 932.744 1113.12 672.022C953.699 411.299 512.799 247.614 211.973 423.236C-88.8531 598.858 -25.1703 754.379 134.247 1015.1C293.665 1275.82 473.199 1497.86 774.025 1322.27H774.06Z" fill="#D0E2F3"/>
<path d="M792.03 865.38C792.03 865.38 670.176 829.913 659.223 714.318L645.356 874.504H719.079L792.03 865.415V865.38Z" fill="#235595"/>
<path d="M673.195 514.376C673.195 514.376 700.052 504.017 700.403 482.682C700.929 453.252 669.263 442.515 669.263 442.515C669.263 442.515 653.711 441.726 656.063 467.041C658.416 492.355 676.039 496.986 676.039 496.986" fill="#235595"/>
<path d="M807.651 1029.78L901.069 1224.51L886.149 1249.45L766.612 1053.21L807.651 1029.78Z" fill="white"/>
<path d="M795.865 1265L820.158 1388.31L791.406 1394.11L763.04 1278.45L795.865 1265Z" fill="white"/>
<path d="M484.395 1297.4C478.181 1294.04 474.319 1287.66 474.319 1280.7V1067.52H513.357V1280.7C513.357 1295.24 497.384 1304.43 484.395 1297.4Z" fill="white"/>
<path d="M409.937 589.084C331.334 589.084 272.286 664.718 287.417 746.012L337.338 1014.01C345.658 1058.73 382.87 1090.98 426.086 1090.98H697.493L553.803 693.565C531.054 630.657 473.831 589.118 409.973 589.118L409.937 589.084Z" fill="#235595"/>
<path d="M542.283 604.621C542.283 604.621 501.911 595.806 480.812 611.722C404.034 669.725 305.315 810.874 336.56 843.529C367.805 876.183 476.388 869.529 476.388 869.529L569.701 880.025L645.285 874.468C645.285 874.468 708.371 648.081 600.63 614.02L542.248 604.587L542.283 604.621Z" fill="#5A90C9"/>
<path d="M666.281 510.742C666.281 510.742 681.658 545.867 701.177 563.463C702.3 564.492 701.984 566.276 700.545 566.859C694.296 569.363 678.744 574.542 657.61 574.336C639.214 574.165 638.512 551.972 638.512 551.972L666.246 510.742H666.281Z" fill="#235595"/>
<path d="M649.18 457.879L656.096 467.003L662.731 462.887C663.363 463.95 672.631 463.264 671.507 463.779L673.719 471.599C685.971 521.645 667.575 573.371 651.602 585.17C633.312 598.651 613.126 583.352 611.405 614.841C611.054 621.221 608.281 624.754 608.281 624.754C608.281 624.754 582.724 673.221 545.757 620.501C542.527 615.87 541.333 610.176 542.246 604.653V604.448C542.246 604.448 557.623 587.229 551.058 570.318C546.213 557.867 540.877 551.109 540.877 551.109C540.877 551.109 568.225 546.033 568.049 524.766C567.909 503.534 567.628 504.014 583.566 499.623C599.469 495.233 586.691 470.193 590.236 467.072C593.782 463.95 611.862 468.752 622.394 463.779C632.926 458.771 649.18 457.845 649.18 457.845V457.879Z" fill="white"/>
<path d="M680.986 467.315C671.402 413.531 582.092 393.774 531.293 454.007C494.642 497.466 503.489 579.72 583.531 575.124C585.883 574.987 587.288 572.483 586.129 570.459C582.443 564.045 576.791 550.736 580.091 533.517L591.044 521.82C599.154 513.142 603.647 501.822 603.647 490.091C662.415 490.091 680.986 467.315 680.986 467.315Z" fill="#235595"/>
<path d="M569.284 501.098C561.701 503.191 558.998 512.075 563.281 520.924C567.564 529.774 577.148 535.228 584.731 533.135C592.314 531.043 595.017 522.159 590.734 513.309C586.486 504.46 576.867 499.006 569.284 501.098Z" fill="white"/>
<path d="M996.069 1167.75C999.65 1167.69 1001.23 1172.08 998.491 1174.31L895.84 1256.94C892.435 1259.65 887.38 1259.03 884.852 1255.53C880.85 1250.01 876.356 1240.34 877.936 1225.62C877.936 1225.62 890.75 1232.82 898.193 1207.34C898.193 1207.34 916.623 1201.68 948.991 1183.33C968.475 1172.25 986.344 1168.03 996.069 1167.79V1167.75Z" fill="#241C27"/>
<path d="M918.247 1412.12C922.179 1414.59 920.354 1420.52 915.685 1420.62L783.58 1422.72C779.191 1422.78 775.646 1419.18 775.891 1414.89C776.277 1408.14 778.981 1397.85 789.618 1387.32C789.618 1387.32 805.31 1396.27 819.107 1383.03C819.107 1383.03 835.221 1391.88 872.153 1397.64C896.692 1401.48 910.524 1407.31 918.247 1412.12Z" fill="#241C27"/>
<path d="M883.239 862.432L880.536 860.408C872.181 854.199 861.754 851.318 851.293 852.347L734.845 864.112C733.651 864.249 733.757 865.965 734.95 865.965H882.011C883.941 865.965 884.784 863.563 883.239 862.397V862.432Z" fill="#171C26"/>
<path d="M539.268 867.295C539.268 867.295 573.286 837.385 605.795 840.883C639.111 844.485 646.272 867.295 646.272 867.295H539.268Z" fill="#241C27"/>
<path d="M511.922 840.954L507.253 871.517L539.375 857.693C549.38 853.406 560.263 851.519 571.146 852.102C589.718 853.063 626.649 853.509 622.261 842.224C618.47 832.516 591.122 819.345 561.738 823.495C530.809 827.886 538.146 840.954 525.017 840.954H511.887H511.922Z" fill="white"/>
<path d="M761.135 867.677C761.135 867.231 761.029 866.751 760.819 866.271C757.027 856.564 729.855 844.593 700.296 847.543C674.071 850.149 665.33 864.076 663.469 867.677H761.1H761.135Z" fill="white"/>
<path d="M1013.37 874.506L1010.32 867.749C1006.49 859.311 998.103 854.2 989.151 853.925V847.099C989.151 832.487 985.535 818.081 978.584 805.115L939.054 731.024L917.955 741.761L957.485 815.851C962.645 825.49 965.349 836.192 965.349 847.065V859.928L932.033 870.424C929.751 871.144 930.277 874.437 932.665 874.437H1013.37V874.506Z" fill="white"/>
<path d="M622.397 554.716C628.505 562.746 638.546 561.442 638.546 561.442" stroke="#0B253C" stroke-width="3.89782" stroke-miterlimit="10" stroke-linecap="round"/>
<path d="M632.671 517.863C630.503 517.739 628.937 514.464 629.173 510.549C629.409 506.635 631.357 503.563 633.525 503.687C635.693 503.812 637.259 507.087 637.023 511.001C636.787 514.916 634.838 517.988 632.671 517.863Z" fill="#0B253C"/>
<path d="M668.876 521.238C666.708 521.114 665.142 517.839 665.378 513.924C665.614 510.01 667.562 506.938 669.73 507.062C671.898 507.187 673.464 510.462 673.228 514.376C672.992 518.291 671.044 521.363 668.876 521.238Z" fill="#0B253C"/>
<path opacity="0.2" d="M573.423 554.645C573.423 554.645 577.847 572.001 593.434 583.252C603.509 590.489 613.515 592.307 613.515 592.307C613.515 592.307 598.84 595.6 584.798 579.822C575.284 569.12 573.423 554.679 573.423 554.679V554.645Z" fill="#235595"/>
<path d="M654.798 513.076C658.414 523.435 663.329 528.717 666.243 532.319C667.085 533.348 666.559 534.857 665.295 535.2C662.241 536.024 656.799 535.646 651.849 533.588" stroke="#0B253C" stroke-width="3.89782" stroke-miterlimit="10" stroke-linecap="round"/>
<path d="M666.137 502.511C664.417 502.374 664.136 499.731 665.786 499.01C668.419 497.878 672.07 497.192 676.669 498.667C680.356 499.834 682.532 501.516 683.796 503.094C684.884 504.433 683.445 506.629 681.865 506.011C679.688 505.188 676.704 504.192 673.334 503.506C670.561 502.957 668.103 502.648 666.102 502.476L666.137 502.511Z" fill="#0A253C"/>
<path d="M624.75 499.254C622.784 499.495 621.801 496.989 623.451 495.926C626.049 494.21 629.946 492.734 635.458 493.146C639.881 493.455 642.725 494.587 644.585 495.857C646.165 496.921 645.147 499.357 643.251 499.151C640.618 498.808 637.037 498.534 633.105 498.637C629.876 498.74 627.032 498.98 624.785 499.289L624.75 499.254Z" fill="#0A253C"/>
<path d="M577.146 457.883C577.146 457.883 572.161 475.033 556.82 485.564C541.479 496.094 540.776 485.049 540.776 485.049" stroke="#5A92CB" stroke-width="3.89782" stroke-miterlimit="10" stroke-linecap="round"/>
<path d="M645.322 874.505C645.322 874.505 651.781 985.95 354.571 918.719L377.531 853.959L645.322 874.505Z" fill="#5A90C9"/>
<path d="M1187.57 891.659L237.07 891.659C229.644 891.659 223.624 885.777 223.624 878.522C223.624 871.266 229.644 865.385 237.07 865.385L1187.57 865.385C1195 865.385 1201.02 871.266 1201.02 878.522C1201.02 885.777 1195 891.659 1187.57 891.659Z" fill="white"/>
<path d="M502.369 839.407C502.369 839.407 454.098 820.267 408.038 808.021C408.038 808.021 451.184 751.39 466.175 710.641" stroke="#235595" stroke-width="5.84674" stroke-miterlimit="10" stroke-linecap="round"/>
<path d="M826.968 1367.41L765.04 988.627L755.105 993.463L425.632 1022.45C425.632 1022.45 443.431 1058.22 501.181 1067.52C555.771 1076.3 633.602 1062.58 658.984 1058.4C667.339 1057.02 675.449 1061.89 677.976 1069.78L775.256 1374.38C776.59 1378.6 780.592 1381.48 785.121 1381.48H814.68C822.333 1381.48 828.161 1374.79 826.968 1367.41Z" fill="#171C26"/>
<path d="M347.411 904.488C347.411 904.488 350.781 993.054 397.157 1029.79C458.347 1078.29 600.457 1026.98 680.114 1004.96C703.74 998.439 728.771 1008.59 741.023 1029.76L823.944 1172.96C828.016 1179.99 838.267 1180.34 842.796 1173.55L863.017 1143.33C865.054 1140.31 865.44 1136.5 864.106 1133.11L792.489 954.671C778.657 924.109 748.15 904.488 714.518 904.488H347.446H347.411Z" fill="#235595"/>
<path d="M375.391 800.998L402.738 808.373C402.738 808.373 385.396 809.676 381.955 812.283" stroke="#225597" stroke-width="5.84674" stroke-miterlimit="10" stroke-linecap="round"/>
<path d="M1034.37 542.705L1030.36 544.209C1028.82 544.811 1027.28 543.908 1026.97 542.404L1026.66 539.396C1026.36 536.989 1024.81 535.184 1022.66 533.98L1019.57 532.476C1015.87 530.671 1013.41 527.361 1013.1 523.45L1010.63 501.187C1010.63 499.683 1008.78 499.081 1007.55 499.983L1005.7 501.187C1004.47 502.089 1003.54 503.594 1003.54 505.399L1005.08 524.353C1005.39 527.662 1003.54 530.972 1000.77 532.777L994.907 536.387C993.366 537.29 991.824 537.59 989.974 537.59C987.816 537.289 985.657 538.192 983.808 539.696L949.892 572.189C948.351 573.693 946.501 574.295 944.651 574.295L918.752 573.392C916.285 573.392 913.819 572.189 911.969 570.384L891.619 549.023C890.078 547.218 889.461 545.112 889.461 542.705L890.694 533.679C890.694 532.777 891.003 531.874 891.619 530.972L893.469 528.264C895.011 525.556 894.394 522.247 891.928 520.442L888.536 518.035C886.07 516.23 884.836 513.221 885.453 510.212L891.003 487.047C891.928 483.737 891.928 480.428 891.003 477.118L887.303 460.872C886.686 457.563 886.686 454.253 887.303 450.944L892.853 428.981C893.469 427.176 893.469 425.07 893.469 423.265L893.161 407.32C893.161 404.01 894.703 400.701 897.169 398.294L924.918 375.429C927.385 373.323 930.16 371.518 933.243 370.013L989.049 343.839C991.824 342.635 993.982 340.529 995.524 338.123L1010.32 315.558C1012.48 312.249 1015.26 309.842 1018.65 308.037L1030.67 302.02C1032.21 301.117 1033.45 299.914 1033.76 298.109L1034.68 294.198C1034.99 292.994 1034.37 291.791 1033.14 291.189L1032.21 290.587C1030.36 289.685 1030.36 287.579 1031.6 286.375L1047.63 272.837C1050.71 270.43 1052.87 267.121 1053.8 263.51L1067.98 217.479C1069.21 213.568 1070.75 209.958 1072.91 206.648L1108.68 150.087C1109.6 148.583 1110.84 147.079 1112.38 145.875L1118.85 140.46L1131.8 135.947C1133.34 135.345 1133.04 133.239 1131.49 132.939L1122.24 131.735C1120.7 131.434 1118.85 131.735 1117.62 132.638L1109.91 137.451C1108.99 138.053 1107.75 138.655 1106.52 138.956L1088.33 143.769C1086.17 144.371 1084.32 145.274 1082.78 146.477L1071.68 154.6C1070.45 155.503 1068.6 153.999 1069.21 152.795L1072.91 145.875C1074.45 143.168 1076.61 140.761 1079.7 139.257L1099.43 129.93C1101.28 129.027 1101.59 126.921 1100.04 125.417L1097.27 122.709C1095.11 120.603 1095.42 117.294 1097.89 115.79L1113.3 105.26C1115.46 103.756 1118.54 104.658 1119.47 107.065C1120.09 108.569 1121.94 109.773 1123.79 109.472L1135.5 107.968C1138.89 107.667 1141.67 105.26 1142.28 101.95L1145.98 87.8101C1146.6 84.8016 1148.14 82.0939 1149.68 79.687L1160.78 64.0425C1162.94 61.0339 1167.26 60.4322 1170.03 62.8391L1174.66 66.7502C1175.58 67.6527 1176.51 68.5554 1177.13 69.458L1181.44 76.3776L1197.78 50.5039C1199.32 47.7962 1202.72 46.5928 1205.8 47.1945L1215.97 48.9997C1219.37 49.6014 1223.07 47.7962 1224.3 44.4868L1235.09 20.1174C1236.01 18.0114 1237.56 16.5072 1239.71 15.6046L1252.05 11.0917C1254.21 10.1892 1256.67 12.2952 1256.06 14.7021L1249.27 37.2663C1248.66 38.7706 1249.89 40.2748 1251.74 40.2748H1252.05C1254.21 40.2748 1256.06 38.7705 1256.67 36.9654L1265 12.8969C1265.61 11.3926 1267.77 11.6935 1268.08 13.1978L1270.24 24.6303C1270.55 26.1346 1272.4 27.0372 1273.94 26.4354L1275.17 25.8338C1276.71 25.2321 1277.95 23.7278 1278.25 22.2235L1283.19 3.26956C1283.5 1.76527 1284.73 0.862631 1285.96 0.561775L1289.35 0.260992C1291.51 -0.0398644 1293.36 1.46434 1293.36 3.57034V15.9055C1293.36 18.3123 1295.83 20.1175 1298.3 18.914C1299.22 18.3123 1299.84 17.4098 1300.15 16.5072L1301.69 6.87978C1302 4.77378 1304.15 3.26952 1306.31 4.17209L1331.29 12.2952C1334.68 13.1978 1336.22 16.808 1334.99 20.1174L1333.44 24.3295C1332.21 27.9398 1329.13 30.6475 1325.43 31.8509L1317.72 34.2577C1315.87 34.8594 1315.87 37.5671 1317.72 38.1688L1328.51 42.3809C1330.36 42.9826 1332.21 43.5842 1334.06 44.1859L1343.93 46.292C1346.09 46.8937 1347.32 49.3006 1346.09 51.4066L1345.16 52.61C1343.93 54.4151 1342.08 55.3177 1339.92 55.6185L1337.14 55.9194C1334.06 56.2203 1331.9 58.928 1332.21 61.9365C1332.21 62.8391 1332.21 64.0425 1331.59 64.9451L1324.81 78.4836C1323.89 80.2888 1321.42 80.8905 1319.57 79.687C1318.64 79.0853 1318.03 78.1828 1318.03 76.9794L1317.72 60.4323C1317.72 56.5211 1315.56 53.2117 1311.86 51.4066L1301.69 46.292C1298.6 44.7877 1294.6 44.7877 1291.51 46.5928L1281.34 50.8048C1278.25 52.61 1276.1 55.9194 1275.79 59.5296L1274.55 85.4033C1274.25 89.6153 1273.32 93.8273 1271.16 97.7384L1266.85 105.861C1264.69 109.773 1260.37 112.48 1255.75 112.179L1226.15 110.976C1222.14 110.675 1218.13 108.87 1215.67 105.561L1207.65 95.3315C1205.49 92.323 1201.17 92.0221 1198.4 94.429L1189.77 101.95C1187.3 104.056 1186.07 107.065 1185.76 110.074L1185.45 116.091C1185.45 117.896 1184.83 119.701 1183.91 121.506L1181.75 125.718C1180.52 128.426 1177.43 129.629 1174.66 129.027L1163.56 126.621C1162.33 126.32 1160.78 126.621 1159.86 127.824L1155.85 132.337C1154.62 133.54 1154.31 135.345 1154.62 136.85L1155.23 139.858C1155.54 140.761 1155.23 141.964 1154.93 142.867L1153.38 146.176C1152.15 148.884 1149.38 150.689 1146.29 150.388H1144.13C1140.74 150.087 1137.66 151.893 1135.81 154.901L1125.94 172.351C1125.02 174.156 1124.4 176.563 1124.71 178.669L1125.94 190.402C1126.25 193.11 1125.64 195.517 1123.79 197.924C1121.01 201.835 1115.77 211.462 1113.3 215.975C1112.38 217.479 1111.45 218.984 1109.91 219.886L1097.89 229.513C1094.8 231.92 1092.95 235.531 1093.26 239.442L1093.57 261.404C1093.57 264.112 1092.95 266.82 1091.72 269.527L1079.7 293.897C1078.46 296.003 1078.77 298.71 1079.7 300.816L1082.47 306.232C1083.09 307.134 1083.4 308.338 1083.4 309.24L1084.01 317.364C1084.32 320.372 1081.55 322.478 1078.77 322.177L1069.83 320.673C1067.05 320.071 1064.28 321.275 1062.43 323.08L1049.17 338.123C1047.94 339.627 1047.01 341.432 1047.01 343.538L1044.86 382.349C1044.55 385.959 1045.78 389.87 1048.25 392.879L1051.33 397.09C1053.49 399.798 1054.41 403.408 1053.49 407.019L1050.41 420.557C1049.79 423.265 1050.41 425.973 1052.25 428.079L1059.96 436.803C1061.81 438.609 1062.12 441.316 1061.2 443.723L1058.11 451.546C1057.5 453.05 1056.57 453.952 1055.03 454.855L1054.72 455.156C1051.95 456.359 1050.71 459.368 1051.64 462.076L1055.65 475.614C1056.26 478.021 1056.26 480.428 1055.65 482.534L1051.64 493.966C1050.71 496.373 1049.17 498.479 1047.01 499.983L1039.31 505.098C1037.46 506.301 1036.22 507.806 1035.91 509.912L1034.37 515.327C1033.76 517.132 1033.76 518.937 1034.68 520.742L1037.46 528.264C1038.07 529.768 1038.07 531.573 1037.76 533.078L1035.3 542.103C1035.61 541.802 1034.99 542.404 1034.37 542.705Z" fill="#ABCAE9"/>
<path d="M980.728 340.23C979.803 342.336 977.953 343.84 975.795 344.442L969.32 345.946C966.854 346.548 964.696 344.141 965.929 341.734C966.237 341.133 966.854 340.531 967.471 340.23L976.72 336.319C979.187 335.416 981.653 337.823 980.728 340.23Z" fill="#ABCAE9"/>
<path d="M1059.66 166.94L1059.97 167.542C1060.89 169.649 1059.04 172.057 1056.58 171.455L1055.03 171.154C1054.73 171.154 1054.42 170.853 1054.11 170.552L1053.18 168.746C1052.26 166.94 1054.11 164.833 1055.96 165.435L1058.43 166.338C1059.04 166.338 1059.35 166.639 1059.66 166.94Z" fill="#ABCAE9"/>
<path d="M1135.81 92.6264L1134.27 96.8403C1133.96 97.7433 1133.03 98.3453 1132.11 98.3453H1131.49C1129.95 98.3453 1128.72 96.8403 1129.03 95.3353L1129.95 91.7234C1130.26 90.8204 1130.57 90.2184 1131.49 89.9174L1132.72 89.6164C1134.57 88.7134 1136.73 90.8204 1135.81 92.6264Z" fill="#ABCAE9"/>
<path d="M1218.13 29.1438L1216.28 32.4532C1215.66 33.6566 1214.12 34.2584 1212.58 33.9575L1210.11 33.6566C1207.34 33.0549 1206.1 29.7455 1208.26 27.9404L1209.8 26.4361C1210.11 26.1352 1210.42 25.8344 1210.73 25.8344L1213.5 24.6309C1216.59 22.8258 1219.67 26.1352 1218.13 29.1438Z" fill="#ABCAE9"/>
<path d="M1194.49 449.31C1196.96 449.611 1196.96 451.717 1196.65 453.221C1196.03 455.628 1195.42 458.035 1194.8 460.442C1194.49 461.344 1194.18 462.247 1193.87 462.247C1191.41 462.848 1192.02 464.954 1191.72 466.459C1191.41 467.662 1191.1 469.167 1190.48 470.069C1187.4 473.679 1188.02 477.59 1188.32 481.802C1188.32 483.006 1189.25 484.51 1189.87 484.811C1192.95 486.616 1196.34 488.421 1199.73 489.926C1204.36 491.731 1208.98 493.536 1213.61 494.739C1220.08 496.544 1221.93 501.358 1223.47 506.774C1224.09 508.579 1222.55 510.384 1220.7 510.384H1128.82C1126.66 510.384 1125.43 508.579 1126.04 506.473C1126.66 504.968 1126.97 503.464 1127.59 501.659C1128.82 498.65 1130.67 496.544 1134.06 495.341C1138.99 493.536 1143.93 491.731 1148.55 489.926C1151.63 488.722 1155.03 487.218 1158.11 485.714C1161.81 483.608 1163.04 475.785 1160.88 472.175C1159.34 469.768 1158.73 467.061 1157.8 464.353C1157.49 463.751 1156.88 463.149 1156.57 462.548C1155.95 461.946 1155.33 461.043 1155.03 460.442C1154.41 458.636 1154.1 456.831 1153.48 455.026C1152.56 452.619 1152.56 450.513 1154.72 449.009C1154.41 444.195 1153.79 439.683 1153.48 435.17C1153.18 432.763 1153.79 430.055 1154.41 427.648C1155.33 424.038 1158.73 421.33 1162.43 421.631C1163.66 418.923 1165.82 418.322 1168.9 418.021C1172.29 417.72 1175.68 416.817 1178.77 417.419C1182.16 418.021 1185.55 419.826 1188.32 421.631C1190.48 423.436 1192.95 425.843 1193.87 428.551C1196.34 435.471 1196.34 442.39 1194.49 449.31C1194.49 449.009 1194.49 449.009 1194.49 449.31Z" fill="#BFDCF3"/>
<path d="M893.09 236.555L948.279 236.555L948.279 228.428L893.09 228.428L893.09 236.555Z" fill="#BFDCF3"/>
<path d="M893.09 258.744L948.279 258.744L948.279 250.617L893.09 250.617L893.09 258.744Z" fill="#BFDCF3"/>
<path d="M893.09 280.931L948.279 280.931L948.279 272.804L893.09 272.804L893.09 280.931Z" fill="#BFDCF3"/>
<path d="M893.09 303.126L948.279 303.126L948.279 294.999L893.09 294.999L893.09 303.126Z" fill="#BFDCF3"/>
<path d="M1075.17 464.047H1120.8" stroke="#7FB8E6" stroke-width="5.84674" stroke-miterlimit="10" stroke-linecap="round"/>
<path d="M975.278 255.255H1031.08" stroke="#7FB8E6" stroke-width="5.84674" stroke-miterlimit="10" stroke-linecap="round"/>
<path d="M1049.58 488.715C1063.54 488.715 1074.86 477.669 1074.86 464.044C1074.86 450.419 1063.54 439.374 1049.58 439.374C1035.62 439.374 1024.3 450.419 1024.3 464.044C1024.3 477.669 1035.62 488.715 1049.58 488.715Z" stroke="#7FB8E6" stroke-width="5.84674" stroke-miterlimit="10" stroke-linecap="round"/>
<path d="M1049.58 474.574C1055.54 474.574 1060.38 469.859 1060.38 464.044C1060.38 458.228 1055.54 453.514 1049.58 453.514C1043.62 453.514 1038.79 458.228 1038.79 464.044C1038.79 469.859 1043.62 474.574 1049.58 474.574Z" fill="#4095DA"/>
<path d="M1056.37 279.924C1070.33 279.924 1081.65 268.879 1081.65 255.254C1081.65 241.629 1070.33 230.584 1056.37 230.584C1042.4 230.584 1031.08 241.629 1031.08 255.254C1031.08 268.879 1042.4 279.924 1056.37 279.924Z" stroke="#7FB8E6" stroke-width="5.84674" stroke-miterlimit="10" stroke-linecap="round"/>
<path d="M1056.37 265.787C1062.33 265.787 1067.16 261.072 1067.16 255.257C1067.16 249.441 1062.33 244.727 1056.37 244.727C1050.41 244.727 1045.58 249.441 1045.58 255.257C1045.58 261.072 1050.41 265.787 1056.37 265.787Z" fill="#4095DA"/>
<path d="M961.208 438.465L967.421 455.136C974.969 475.442 977.532 497.189 974.864 518.627L942.917 775.542C941.583 786.176 937.827 796.363 931.859 805.35L911.953 835.398C908.724 840.268 900.93 837.49 901.702 831.727L953.063 439.357C953.625 435.069 959.698 434.418 961.208 438.465Z" fill="white"/>
</svg>
