<svg width="96" height="96" viewBox="0 0 96 96" fill="none" xmlns="http://www.w3.org/2000/svg">
<path d="M61.1002 84.0002C73.7475 84.0002 84.0002 73.7475 84.0002 61.1002C84.0002 48.4529 73.7475 38.2002 61.1002 38.2002C48.4529 38.2002 38.2002 48.4529 38.2002 61.1002C38.2002 73.7475 48.4529 84.0002 61.1002 84.0002Z" fill="#FFE81C"/>
<path d="M62.6797 62.5832C62.6797 64.1945 63.3198 65.7398 64.4591 66.8792C65.5985 68.0186 67.1438 68.6586 68.7551 68.6586C70.3664 68.6586 71.9117 68.0186 73.0511 66.8792C74.1904 65.7398 74.8305 64.1945 74.8305 62.5832C74.8305 60.9719 74.1904 59.4266 73.0511 58.2873C71.9117 57.1479 70.3664 56.5078 68.7551 56.5078C67.1438 56.5078 65.5985 57.1479 64.4591 58.2873C63.3198 59.4266 62.6797 60.9719 62.6797 62.5832Z" stroke="#00263E" stroke-width="2" stroke-linecap="round" stroke-linejoin="round"/>
<path d="M64.7037 80.8126H80.9058C80.4274 78.9414 79.5233 77.206 78.264 75.7416C77.0047 74.2773 75.4242 73.1235 73.6457 72.3704C71.8673 71.6172 69.9389 71.285 68.0109 71.3995C66.083 71.5141 64.2075 72.0724 62.5308 73.0309" stroke="#00263E" stroke-width="2" stroke-linecap="round" stroke-linejoin="round"/>
<path d="M21.1694 62.5832C21.1694 63.3811 21.3266 64.1711 21.6319 64.9082C21.9372 65.6453 22.3847 66.315 22.9489 66.8792C23.513 67.4434 24.1828 67.8909 24.9199 68.1962C25.657 68.5015 26.447 68.6586 27.2449 68.6586C28.0427 68.6586 28.8327 68.5015 29.5698 68.1962C30.3069 67.8909 30.9767 67.4434 31.5408 66.8792C32.105 66.315 32.5525 65.6453 32.8578 64.9082C33.1631 64.1711 33.3203 63.3811 33.3203 62.5832C33.3203 61.7854 33.1631 60.9954 32.8578 60.2583C32.5525 59.5212 32.105 58.8514 31.5408 58.2873C30.9767 57.7231 30.3069 57.2756 29.5698 56.9703C28.8327 56.665 28.0427 56.5078 27.2449 56.5078C26.447 56.5078 25.657 56.665 24.9199 56.9703C24.1828 57.2756 23.513 57.7231 22.9489 58.2873C22.3847 58.8514 21.9372 59.5212 21.6319 60.2583C21.3266 60.9954 21.1694 61.7854 21.1694 62.5832Z" stroke="#00263E" stroke-width="2" stroke-linecap="round" stroke-linejoin="round"/>
<path d="M31.2117 80.8124H15.0942C15.5708 78.9503 16.469 77.2226 17.7194 75.7628C18.9698 74.303 20.5391 73.1502 22.3059 72.3933C24.0728 71.6365 25.99 71.2958 27.9094 71.3978C29.8288 71.4997 31.6991 72.0414 33.3759 72.9812" stroke="#00263E" stroke-width="2" stroke-linecap="round" stroke-linejoin="round"/>
<path d="M62.8137 80.8125C62.8412 78.8444 62.4774 76.8905 61.7434 75.0643C61.0093 73.238 59.9196 71.5759 58.5377 70.1744C57.1557 68.7729 55.509 67.6601 53.6932 66.9005C51.8774 66.1409 49.9288 65.7498 47.9605 65.7498C45.9923 65.7498 44.0437 66.1409 42.2279 66.9005C40.4121 67.6601 38.7654 68.7729 37.3834 70.1744C36.0015 71.5759 34.9118 73.238 34.1777 75.0643C33.4436 76.8905 33.0798 78.8444 33.1074 80.8125H62.8137Z" stroke="#00263E" stroke-width="2" stroke-linecap="round" stroke-linejoin="round"/>
<path d="M40.2476 48.6738C42.3049 50.8061 44.9629 52.2612 47.8677 52.8453C50.7725 53.4294 53.7864 53.1148 56.508 51.9434" stroke="#00263E" stroke-width="2" stroke-linecap="round" stroke-linejoin="round"/>
<path d="M39.0312 53.1305C39.0312 55.4581 39.9559 57.6904 41.6018 59.3362C43.2476 60.9821 45.4799 61.9067 47.8075 61.9067C50.1351 61.9067 52.3674 60.9821 54.0132 59.3362C55.6591 57.6904 56.5838 55.4581 56.5838 53.1305C56.5838 50.8029 55.6591 48.5706 54.0132 46.9248C52.3674 45.2789 50.1351 44.3542 47.8075 44.3542C45.4799 44.3542 43.2476 45.2789 41.6018 46.9248C39.9559 48.5706 39.0312 50.8029 39.0312 53.1305Z" stroke="#00263E" stroke-width="2" stroke-linecap="round" stroke-linejoin="round"/>
<path d="M66.9176 50.1875C66.9176 50.1875 58.1676 41.4375 58.1676 34.1458H71.2926L47.9593 15.1875L24.626 34.1458H37.751C37.751 41.4375 29.001 50.1875 29.001 50.1875" stroke="#00263E" stroke-width="2" stroke-linecap="round" stroke-linejoin="round"/>
</svg>
