<svg width="96" height="96" viewBox="0 0 96 96" fill="none" xmlns="http://www.w3.org/2000/svg">
<g clip-path="url(#clip0_1775_3143)">
<path d="M61.1002 84.0002C73.7475 84.0002 84.0002 73.7475 84.0002 61.1002C84.0002 48.4529 73.7475 38.2002 61.1002 38.2002C48.4529 38.2002 38.2002 48.4529 38.2002 61.1002C38.2002 73.7475 48.4529 84.0002 61.1002 84.0002Z" fill="#FFE81C"/>
<path d="M29.1198 58.2002H16.8398V81.4602H29.1198V58.2002Z" stroke="#00263E" stroke-width="2" stroke-linecap="round" stroke-linejoin="round"/>
<path d="M29.1201 61.8199H32.9801C33.6627 61.8172 34.3273 61.6003 34.8801 61.1999L36.5601 59.9799C37.1411 59.5602 37.8436 59.3425 38.5601 59.3599H46.7201C47.117 59.3615 47.5102 59.4361 47.8801 59.5799L51.4201 60.9399C51.7905 61.0819 52.1834 61.1564 52.5801 61.1599H60.3201C60.7473 61.1572 61.1707 61.2391 61.5662 61.4007C61.9616 61.5624 62.3211 61.8006 62.6241 62.1017C62.9271 62.4029 63.1675 62.7609 63.3316 63.1553C63.4957 63.5497 63.5801 63.9727 63.5801 64.3999C63.5801 65.2645 63.2367 66.0937 62.6253 66.705C62.0139 67.3164 61.1847 67.6599 60.3201 67.6599H47.4801" stroke="#00263E" stroke-width="2" stroke-linecap="round" stroke-linejoin="round"/>
<path d="M29.1201 78.9998H57.0001C57.5668 79.0048 58.1178 78.8141 58.5601 78.4598L77.8801 63.1198C78.5818 62.5647 79.0348 61.754 79.1397 60.8655C79.2447 59.977 78.9931 59.0831 78.4401 58.3798C77.8786 57.6798 77.063 57.2303 76.1714 57.1291C75.2797 57.0279 74.3842 57.2834 73.6801 57.8398L62.6401 66.5998" stroke="#00263E" stroke-width="2" stroke-linecap="round" stroke-linejoin="round"/>
<path d="M21.6201 65.7398V64.3198C21.6201 63.922 21.7782 63.5405 22.0595 63.2592C22.3408 62.9779 22.7223 62.8198 23.1201 62.8198H24.2001" stroke="#00263E" stroke-width="2" stroke-linecap="round" stroke-linejoin="round"/>
<path d="M43.4998 37.1798C43.1312 34.9844 41.9969 32.9905 40.2981 31.5517C38.5994 30.1129 36.446 29.3222 34.2198 29.3198C31.7268 29.3198 29.3359 30.3102 27.573 32.073C25.8102 33.8359 24.8198 36.2268 24.8198 38.7198V42.7198H38.8198" stroke="#00263E" stroke-width="2" stroke-linecap="round" stroke-linejoin="round"/>
<path d="M34.2201 25.1799C37.0698 25.1799 39.3801 22.8697 39.3801 20.0199C39.3801 17.1701 37.0698 14.8599 34.2201 14.8599C31.3703 14.8599 29.0601 17.1701 29.0601 20.0199C29.0601 22.8697 31.3703 25.1799 34.2201 25.1799Z" stroke="#00263E" stroke-width="2" stroke-linecap="round" stroke-linejoin="round"/>
<path d="M57.2 42.7599H71.2V38.7599C71.2 36.2668 70.2097 33.8759 68.4468 32.1131C66.684 30.3502 64.2931 29.3599 61.8 29.3599C59.5738 29.3622 57.4204 30.1529 55.7217 31.5917C54.023 33.0305 52.8887 35.0244 52.52 37.2199" stroke="#00263E" stroke-width="2" stroke-linecap="round" stroke-linejoin="round"/>
<path d="M61.7801 25.1799C64.6299 25.1799 66.9401 22.8697 66.9401 20.0199C66.9401 17.1701 64.6299 14.8599 61.7801 14.8599C58.9303 14.8599 56.6201 17.1701 56.6201 20.0199C56.6201 22.8697 58.9303 25.1799 61.7801 25.1799Z" stroke="#00263E" stroke-width="2" stroke-linecap="round" stroke-linejoin="round"/>
<path d="M49.4001 36.5601H46.6001C44.4784 36.5601 42.4435 37.4029 40.9432 38.9032C39.443 40.4035 38.6001 42.4383 38.6001 44.5601V50.0001H57.4001V44.5601C57.4001 43.5095 57.1932 42.4692 56.7911 41.4986C56.3891 40.528 55.7998 39.6461 55.057 38.9032C54.3141 38.1603 53.4322 37.5711 52.4616 37.169C51.491 36.767 50.4507 36.5601 49.4001 36.5601Z" stroke="#00263E" stroke-width="2" stroke-linecap="round" stroke-linejoin="round"/>
<path d="M47.9998 32.4201C50.8496 32.4201 53.1598 30.1099 53.1598 27.2601C53.1598 24.4103 50.8496 22.1001 47.9998 22.1001C45.1501 22.1001 42.8398 24.4103 42.8398 27.2601C42.8398 30.1099 45.1501 32.4201 47.9998 32.4201Z" stroke="#00263E" stroke-width="2" stroke-linecap="round" stroke-linejoin="round"/>
</g>
<defs>
<clipPath id="clip0_1775_3143">
<rect width="72" height="72" fill="white" transform="translate(12 12)"/>
</clipPath>
</defs>
</svg>
