<svg width="1045" height="1402" viewBox="0 0 1045 1402" fill="none" xmlns="http://www.w3.org/2000/svg">
<g clip-path="url(#clip0_782_691)">
<path d="M605.504 1396.3C605.504 1396.3 554.62 1396.66 552.913 1395.18C551.091 1393.61 565.571 1389.53 578.639 1391.03C591.707 1392.54 605.481 1396.3 605.481 1396.3H605.504Z" fill="#272E3F"/>
<path d="M619.796 1394.01C619.796 1394.01 603.29 1398.52 584.007 1395.72C564.724 1392.92 553.591 1381.14 553.591 1381.14L555.617 1373.03L619.796 1394.01Z" fill="#225597"/>
<path d="M558.513 1366.16C558.513 1366.16 555.075 1369.37 553.595 1373.24C552.115 1377.11 553.595 1381.17 553.595 1381.17C553.595 1381.17 553.39 1376.93 572.879 1383.99C592.367 1391.03 597.785 1399.21 627.519 1396.82C647.963 1395.18 646.164 1389.53 671.663 1389.53C697.162 1389.53 704.493 1388.34 705.517 1385.5C707.976 1378.62 704.652 1371.65 704.652 1371.65L558.513 1366.16Z" fill="#C3D6ED"/>
<path d="M636.512 1314.31C636.512 1314.31 629.386 1313.01 623.648 1322.03C619.368 1328.79 615.612 1329.89 608.304 1337.86C604.889 1341.6 600.039 1348.41 597.49 1352.08C596.442 1353.58 594.757 1354.51 592.913 1354.6C586.493 1354.85 570.602 1356.47 558.49 1366.15C558.49 1366.15 577.478 1367 597.49 1376.45C613.449 1383.99 624.809 1386.43 646.779 1379.89C674.304 1371.69 704.629 1371.67 704.629 1371.67C704.629 1371.67 707.088 1360 704.629 1345.2C702.99 1335.24 696.911 1329.11 696.911 1329.11L636.489 1314.33L636.512 1314.31Z" fill="#5A92CB"/>
<path d="M692.514 1308.72L696.931 1329.09C696.931 1329.09 694.882 1343.92 681.495 1343.85C669.861 1343.78 655.359 1331.07 650.646 1329.09C645.933 1327.11 641.221 1329.09 641.221 1329.09C641.221 1329.09 642.746 1326.88 643.042 1322.03C643.474 1314.94 636.508 1314.31 636.508 1314.31V1303.58L692.537 1308.72H692.514Z" fill="white"/>
<path d="M509.744 1379.57C509.744 1379.57 539.432 1383.97 520.581 1385.47C510.313 1386.29 481.24 1385.65 481.24 1385.65L509.744 1379.57Z" fill="#272E3F"/>
<path d="M942.085 868.53C739.849 1236.74 551.296 1314.17 338.928 1249.38C52.4556 1161.97 -117.406 679.54 97.4653 308.327C307.943 -55.3001 613.949 95.3949 763.344 158.202C1027.85 269.418 1144.32 500.324 942.085 868.53Z" fill="#D0E2F3"/>
<path d="M497.746 578.873V628.649C497.746 630.016 497.428 631.36 496.79 632.59C495.743 634.618 495.538 636.941 496.244 639.106C497.541 643.092 499.295 649.835 497.746 653.457C490.689 670.201 478.19 685.966 469.903 687.355C466.124 687.993 468.947 677.036 471.087 674.894L466.306 676.922L456.197 609.285L465.509 574.978L497.746 578.873Z" fill="white"/>
<path d="M791.413 1397.68C791.413 1397.68 781.76 1401.67 738.708 1399.55C695.656 1397.43 705.286 1391.85 710.637 1390.57C715.987 1389.3 782.625 1391.21 783.285 1391.44C783.945 1391.67 791.435 1397.68 791.435 1397.68H791.413Z" fill="#272E3F"/>
<path d="M725.209 1377.3C724.094 1380.39 723.98 1383.47 724.185 1385.93C724.435 1388.8 726.712 1391.08 729.581 1391.4C734.02 1391.87 741.92 1392.95 753.69 1395.31C772.359 1399.05 796.537 1401.37 806.828 1397.71C817.118 1394.04 822.901 1379.46 833.396 1373.04C843.892 1366.61 847.626 1360.67 847.762 1355.68C847.922 1349.71 845.622 1341.53 845.622 1341.53L725.209 1377.34V1377.3Z" fill="#C3D6ED"/>
<path d="M780.484 1303.12C780.484 1303.12 780.37 1304.87 772.334 1314.33C763.25 1325.03 752.117 1343.81 748.133 1350.69C747.131 1352.44 745.833 1353.99 744.285 1355.29C741.348 1357.79 736.158 1362.26 731.923 1366.15C724.433 1373.06 725.184 1377.29 725.184 1377.29C725.184 1377.29 735.907 1373.85 758.173 1380.3C780.461 1386.72 798.037 1391.1 808.738 1385.49C819.438 1379.89 827.452 1361.44 835.671 1355.45C843.889 1349.46 846.462 1345.61 846.462 1345.61C846.462 1345.61 849.558 1341.6 845.688 1328.72C841.84 1315.85 837.879 1287.7 837.879 1287.7L780.461 1303.14L780.484 1303.12Z" fill="#5A92CB"/>
<path d="M788.796 1310.21C788.796 1310.21 808.193 1334.01 821.193 1332.28C835.695 1330.32 835.695 1301.28 835.695 1301.28L788.796 1310.21Z" fill="white"/>
<path d="M537.498 636.735C537.498 636.735 534.493 741.299 558.079 865.728C576.292 961.772 586.31 996.695 589.611 1006.88C590.453 1009.43 590.863 1012.12 590.863 1014.81V1026.86C590.863 1029.7 591.728 1032.48 593.367 1034.83L595.439 1037.81C597.602 1040.94 598.376 1044.79 597.647 1048.52C595.894 1057.57 594.46 1080.12 604.364 1130.08C618.502 1201.47 633.937 1271.59 630.727 1285.74C629.02 1293.21 627.677 1299.27 626.811 1303.3C626.151 1306.29 628.2 1309.18 631.251 1309.54C640.517 1310.64 658.844 1312.98 668.657 1315.33C682.157 1318.54 686.665 1322.03 686.665 1322.03L695.043 1310.2C697.115 1307.29 698.117 1303.73 697.889 1300.16C696.91 1284.69 694.155 1239.88 693.108 1207.9C691.833 1168.67 690.535 1102.49 683.455 1051.32C677.513 1008.38 671.138 832.149 669.226 776.496C669.157 774.833 671.594 774.536 671.912 776.199C678.742 811.851 694.269 897.097 698.231 953.844C702.26 1011.43 723.365 1061.07 732.221 1079.75C735.158 1085.95 737.526 1092.4 739.301 1099.03C745.016 1120.35 757.333 1169.05 765.734 1222.73C770.947 1256.05 771.175 1287.56 771.016 1300.04C770.97 1303.42 773.247 1306.38 776.525 1307.17C784.015 1309 797.516 1311.73 808.171 1310.84C823.88 1309.54 833.51 1304.24 837.972 1301.05C839.862 1299.7 840.955 1297.56 840.955 1295.24C840.909 1272.73 839.885 1143.27 822.309 1086.98C803.025 1025.22 788.887 997.561 787.59 991.136C786.292 984.712 800.157 900.082 808.467 796.269C818.894 666.009 800.749 646.189 800.749 646.189L537.521 636.735H537.498Z" fill="#225597"/>
<path d="M783.057 234.93C783.057 234.93 835.125 242.425 845.415 280.377C855.706 318.33 885.917 488.138 884.619 502.285C883.322 516.432 876.241 537.277 867.271 540.876C856.685 545.136 831.209 542.676 820.896 541.445C818.437 541.149 816.183 542.881 815.841 545.341L806.188 612.909C806.188 612.909 827.065 641.362 811.652 693.302C811.402 694.145 810.218 694.282 809.831 693.485C805.87 685.58 788.203 660.635 721.337 653.436C622.029 642.729 537.496 636.715 537.496 636.715C537.496 636.715 539.727 601.04 553.57 560.171C558.943 544.27 567.639 528.574 571.214 522.401C572.261 520.578 572.671 518.46 572.352 516.387C571.419 510.259 569.324 496.362 567.07 481.555C564.816 466.747 563.428 456.2 562.676 450.003C562.562 448.978 561.083 448.955 560.923 449.981C558.419 466.132 551.839 506.841 547.787 514.519C543.734 522.196 517.371 539.828 517.371 539.828V524.383C517.371 524.383 534.377 525.112 521.446 494.403C508.514 463.695 501.844 456.633 501.844 456.633L517.006 389.999C517.006 389.999 527.32 307.965 547.878 281.721C569.734 253.838 598.283 247.824 598.283 247.824L783.057 234.952V234.93Z" fill="#5A92CB"/>
<path d="M716.442 127.266C716.442 127.266 710.295 169.661 716.442 186.906C725.913 213.491 783.057 234.928 783.057 234.928C783.057 234.928 730.58 284.795 659.935 289.42C587.81 294.135 591.339 252.515 598.26 247.799C605.181 243.084 633.662 231.42 639.878 219.073C642.951 212.945 642.063 183.899 642.063 183.899L716.419 127.243L716.442 127.266Z" fill="white"/>
<path opacity="0.2" d="M708.063 132.869C708.063 132.869 694.767 153.554 673.777 168.544C657.726 180.003 646.775 199.617 646.775 199.617C646.775 199.617 668.722 207.431 689.417 178.727C704.534 157.746 708.063 132.847 708.063 132.847V132.869Z" fill="#225597"/>
<path d="M601.789 51.4044C601.789 51.4044 595.164 75.1648 595.414 85.4845C595.961 106.99 595.414 125.715 601.789 150.455C606.251 167.792 612.102 190.664 633.935 198.044C678.285 213.057 707.654 144.008 708.063 132.869C708.473 121.729 705.923 68.9684 705.923 68.9684L660.504 30.8105L601.789 51.4044Z" fill="white"/>
<path d="M517.372 539.826V567.573C517.372 569.441 517.031 571.286 516.325 573.017C513.821 579.191 507.013 594.021 497.747 598.395V589.579C482.744 574.999 461.662 586.572 461.662 586.572V518.389L481.811 497.795L517.372 524.38V539.826Z" fill="#5A92CB"/>
<path d="M196.477 691.183C196.477 691.183 198.093 794.95 203.238 869.58C208.384 944.209 164.285 1032.96 159.344 1146.16C154.404 1259.36 164.672 1323.69 164.672 1323.69C164.672 1323.69 186.072 1308.25 203.648 1312.12C214.804 1314.58 226.324 1320.75 233.267 1324.95C236.204 1326.72 239.961 1324.76 240.166 1321.32C242.351 1283.83 252.323 1121.19 263.661 1068.98C276.524 1009.8 326.656 847.71 326.656 847.71C326.656 847.71 315.933 1032.96 314.226 1099.85C312.518 1166.73 331.119 1315.97 331.119 1315.97C331.119 1315.97 355.137 1345.24 376.037 1336.24C396.937 1327.25 403.038 1325.01 403.038 1325.01C403.038 1325.01 397.028 1224.64 402.993 1195.05C408.935 1165.46 423.096 940.337 439.169 909.469C455.242 878.601 470.815 686.741 466.808 666.329L196.477 691.206V691.183Z" fill="#2D3B4F"/>
<path d="M326.655 847.708C364.881 814.288 385.803 780.618 385.803 780.618C385.803 780.618 363.31 915.868 346.599 1059.96C329.888 1204.05 343.093 1322 343.093 1322L337.083 1319.54L331.118 1315.94C331.118 1315.94 306.393 1206.62 312.7 1066.4C318.938 927.896 326.655 847.685 326.655 847.685V847.708Z" fill="#171C26"/>
<path d="M331.119 1315.97C320.214 1333.06 327.294 1357.77 327.294 1357.77C327.294 1357.77 354.181 1365.38 404.769 1370.51C455.334 1375.66 497.224 1375.2 509.336 1372.67C525.614 1369.25 524.681 1362.26 524.681 1362.26C524.681 1362.26 516.121 1354.1 499.82 1350.69C483.519 1347.27 472.705 1340.44 460.388 1332.67C439.26 1319.34 424.075 1313.15 402.082 1306.08C402.082 1306.08 402.082 1312.94 379.817 1320.23C359.44 1326.9 331.142 1315.95 331.142 1315.95L331.119 1315.97Z" fill="#5A92CB"/>
<path d="M326.951 1368.86C326.837 1366.13 326.86 1362.33 327.292 1357.79C327.292 1357.79 371.756 1363.19 425.371 1365.86C471.633 1368.16 491.212 1369.25 504.554 1368.02C525.157 1366.15 524.657 1362.28 524.657 1362.28C524.657 1362.28 526.888 1364.69 527.867 1369.16C528.185 1370.57 528.299 1371.87 528.322 1372.99C528.39 1375.9 526.66 1378.55 523.928 1379.59C519.739 1381.19 511.247 1383.35 494.104 1385.13C472.885 1387.32 440.693 1380.41 398.529 1379.27C356.365 1378.14 339.086 1375.86 331.777 1374.49C329.046 1373.99 327.042 1371.67 326.928 1368.86H326.951Z" fill="#C3D6ED"/>
<path d="M163.715 1330.78C163.715 1331.96 163.852 1332.92 164.08 1333.69C164.672 1335.77 164.171 1338 162.964 1339.77C159.959 1344.26 156.18 1352.26 155.041 1357.79C152.446 1370.37 158.001 1380.3 158.001 1380.3C158.001 1380.3 159.367 1386.54 171.911 1388.16C184.456 1389.78 200.028 1387.09 215.783 1388.05C231.537 1389 250.502 1383.15 250.502 1383.15C250.502 1383.15 251.845 1375.81 248.248 1369.16C244.651 1362.51 240.553 1360.03 239.574 1357.79C237.639 1353.33 236.842 1347.02 235.726 1335.61C232.812 1306.13 201.895 1301.37 188.804 1304.74C173.687 1308.63 163.875 1317.81 163.738 1330.8L163.715 1330.78Z" fill="#5A92CB"/>
<path d="M175.919 1398.45C175.919 1398.45 184.616 1399.59 215.783 1401.19C246.951 1402.81 251.299 1401.19 251.299 1401.19C251.299 1401.19 255.306 1394.63 241.487 1392.51C225.027 1389.98 175.919 1398.45 175.919 1398.45Z" fill="#272E3F"/>
<path d="M341.226 152.164L333.85 150.091C329.114 148.747 324.014 150.387 320.941 154.237L307.053 171.596C306.006 172.895 305.437 174.512 305.437 176.198C305.437 179.683 302.978 182.691 299.563 183.397C281.054 187.247 224.274 200.733 208.997 223.787C190.67 251.443 164.01 416.103 161.438 427.698C158.865 439.294 155.655 488.158 171.728 494.583C182.679 498.979 196.043 501.872 203.419 503.262C206.584 503.854 208.724 506.793 208.383 509.982C198.866 599.033 193.835 673.184 192.4 695.874C192.127 700.134 194.723 704.029 198.775 705.396C217.74 711.798 273.154 726.514 322.147 730C373.851 733.69 399.258 728.838 406.953 726.879C408.638 726.446 410.004 725.261 410.664 723.666C412.19 720.021 415.263 711.911 419.725 696.785L419.316 727.995C419.316 729.02 420.363 729.703 421.296 729.248C425.918 726.97 437.688 720.659 447.478 710.681C467.945 689.814 468.4 675.667 468.4 675.667C468.355 643.82 459.681 614.843 459.681 614.843C464.166 612.382 469.174 612.451 471.656 612.701C472.521 612.792 473.295 612.132 473.318 611.266C473.409 608.851 473.227 604.044 471.132 598.372C468.287 590.626 461.616 586.549 461.616 586.549C461.616 586.549 465.532 550.532 463.574 538.299C461.616 526.066 525.112 431.161 525.112 431.161C525.112 431.161 504.007 323.635 501.48 311.243C500.41 306.049 501.571 255.02 474.479 239.848C454.581 228.708 443.175 221.828 437.802 218.479C435.298 216.93 433.294 214.698 431.974 212.055L423.027 193.899L341.203 152.141L341.226 152.164Z" fill="#5A92CB"/>
<path d="M408.001 272.537L409.412 338.943C408.388 354.138 405.246 339.285 405.337 345.777C405.952 390.223 407.932 527.5 410.596 574.018C413.624 627.143 410.846 679.926 410.846 679.926" stroke="#225597" stroke-width="7.35267" stroke-miterlimit="10" stroke-linecap="round"/>
<path d="M341.226 111.547C341.226 111.547 342.934 140.159 341.226 152.165C339.519 164.17 361.625 220.507 375.49 237.502C385.052 249.234 393.954 255.134 398.621 257.708C400.511 258.733 402.878 257.936 403.789 256C415.832 230.508 405.474 209.527 410.027 202.579C410.027 202.579 434.661 192.077 444.928 156.903C450.916 136.446 449.914 122.162 449.914 122.162C449.914 122.162 461.525 119.565 459.704 82.6149C457.882 45.6417 437.984 14.9787 433.955 14.5459C429.925 14.1131 367.362 14.5459 367.362 14.5459C367.362 14.5459 354.499 22.2686 348.944 32.1327C343.366 41.9968 341.226 111.569 341.226 111.569V111.547Z" fill="white"/>
<path d="M186.187 395.783L225.231 406.581C225.231 406.581 207.337 408.768 195.544 412.299" stroke="#225597" stroke-width="7.35267" stroke-miterlimit="10" stroke-linecap="round"/>
<path d="M633.459 411.387C633.459 411.387 640.426 403.778 633.459 399.905C626.492 396.032 610.897 401.067 608.074 396.944C605.251 392.82 612.969 386.624 612.969 386.624" stroke="white" stroke-width="7.35267" stroke-miterlimit="10" stroke-linecap="round"/>
<path opacity="0.2" d="M348.283 153.85C348.283 153.85 357.64 188.112 380.748 199.571C395.638 206.974 409.434 202.441 409.434 202.441C409.434 202.441 390.493 222.033 368.546 199.32C353.656 183.92 348.306 153.85 348.306 153.85H348.283Z" fill="#225597"/>
<path d="M416.035 115.075C413.713 128.47 415.762 137.081 416.718 142.708C416.992 144.303 415.557 145.67 413.986 145.283C410.253 144.394 404.447 142.321 402.057 137.765" stroke="#0A253C" stroke-width="4.90178" stroke-miterlimit="10" stroke-linecap="round"/>
<path d="M620.025 117.877C619.319 128.994 615.358 138.402 613.332 142.594C612.762 143.779 613.764 145.282 615.267 145.282C620.389 145.282 627.584 142.23 627.584 142.23" stroke="#0A253C" stroke-width="4.90178" stroke-miterlimit="10" stroke-linecap="round"/>
<path d="M391.762 115.665C391.958 112.35 390.661 109.576 388.866 109.47C387.071 109.364 385.458 111.967 385.262 115.282C385.067 118.598 386.364 121.372 388.159 121.478C389.954 121.583 391.567 118.981 391.762 115.665Z" fill="#0A253C"/>
<path d="M435.609 119.015C435.804 115.699 434.507 112.926 432.712 112.82C430.918 112.714 429.304 115.316 429.109 118.632C428.914 121.948 430.211 124.721 432.006 124.827C433.801 124.933 435.414 122.331 435.609 119.015Z" fill="#0A253C"/>
<path d="M643.988 122.032C645.781 121.896 647.031 119.101 646.779 115.789C646.528 112.477 644.871 109.902 643.078 110.039C641.286 110.175 640.036 112.97 640.287 116.282C640.538 119.594 642.195 122.169 643.988 122.032Z" fill="#0A253C"/>
<path d="M607.071 126.229C608.864 126.093 610.114 123.297 609.863 119.985C609.611 116.673 607.954 114.099 606.161 114.235C604.368 114.371 603.119 117.166 603.37 120.478C603.621 123.79 605.278 126.365 607.071 126.229Z" fill="#0A253C"/>
<path d="M428.399 102.865C427.283 103.07 426.737 101.339 427.693 100.565C430.243 98.5142 434.432 96.4868 440.42 97.6714C444.973 98.5826 447.591 100.952 449.026 103.025C449.709 104.004 448.798 105.508 447.796 105.052C445.52 104.004 442.059 102.751 437.984 102.387C434.136 102.045 430.789 102.41 428.399 102.865Z" fill="#0A253C"/>
<path d="M631.093 103.276C629.818 103.709 628.793 102.114 629.772 101.18C632.391 98.6512 636.967 95.758 644.343 95.6669C649.966 95.5986 653.564 97.3983 655.726 99.1296C656.751 99.9497 655.977 101.613 654.679 101.362C651.742 100.815 647.371 100.291 642.431 100.793C637.786 101.248 633.848 102.319 631.093 103.276Z" fill="#0A253C"/>
<path d="M593.617 107.674C592.729 108.107 591.864 106.877 592.501 106.057C594.163 103.87 597.214 101.296 602.496 100.795C606.525 100.43 609.257 101.66 610.942 102.936C611.739 103.551 611.329 104.918 610.373 104.804C608.233 104.531 605.045 104.371 601.539 105.032C598.238 105.67 595.506 106.763 593.617 107.674Z" fill="#0A253C"/>
<path d="M377.928 101.09C376.631 101.386 375.811 99.7004 376.858 98.8575C379.659 96.6249 384.417 94.2557 391.611 94.9619C397.098 95.5087 400.399 97.6729 402.311 99.632C403.222 100.566 402.311 102.138 401.059 101.751C398.259 100.885 394.047 99.9054 389.198 99.8598C384.622 99.8143 380.683 100.452 377.906 101.09H377.928Z" fill="#0A253C"/>
<path d="M386.102 159.205C394.457 170.436 408.185 168.636 408.185 168.636" stroke="#0A253C" stroke-width="4.90178" stroke-miterlimit="10" stroke-linecap="round"/>
<path d="M622.94 166.447C636.509 167.085 646.777 159.18 646.777 159.18" stroke="#0A253C" stroke-width="4.90178" stroke-miterlimit="10" stroke-linecap="round"/>
<path d="M275.5 414.347C275.5 414.347 257.765 411.363 228.942 408.242C228.942 408.242 211.276 424.508 203.558 443.393" stroke="#225597" stroke-width="7.35267" stroke-miterlimit="10" stroke-linecap="round"/>
<path d="M308.944 462.829L313.429 481.282C313.93 483.377 313.247 485.564 311.631 487C305.689 492.262 289.57 504.359 263.639 507.685" stroke="#225597" stroke-width="7.35267" stroke-miterlimit="10" stroke-linecap="round"/>
<path d="M367.589 47.5335C367.589 47.5335 366.519 70.7244 355.25 98.2891L341.977 109.406C341.977 109.406 341.453 91.3866 334.168 87.9694L327.77 81.9553C327.77 81.9553 325.448 39.9475 344.322 20.6066C357.708 6.89253 374.852 -3.90557 414.397 1.33402C452.964 10.8792 463.551 30.7896 466.465 52.682C469.015 71.8634 450.71 118.678 450.71 118.678C459.908 64.6419 447.5 53.6388 447.5 53.6388C436.231 89.3363 367.566 47.5107 367.566 47.5107L367.589 47.5335Z" fill="#225597"/>
<path d="M499.822 452.778L493.925 441.479C492.764 439.269 493.356 436.513 495.359 435.009C496.27 434.326 496.953 433.711 497.317 433.141C499.07 430.385 494.79 411.864 492.787 403.799C492.195 401.407 490.715 399.334 488.643 397.99L485.297 395.826L479.787 439.565L456.155 453.074C456.155 453.074 461.619 465.422 464.829 478.475C467.47 489.25 477.943 514.059 486.367 521.576C497.704 531.691 525.502 542.557 529.76 509.024C533.63 478.566 513.117 463.166 504.99 458.314C502.759 456.993 500.983 455.034 499.776 452.755L499.822 452.778Z" fill="white"/>
<path d="M245.173 383.756C245.173 383.756 267.985 287.256 259.994 255.34C254.029 231.534 232.469 225.543 232.469 225.543" stroke="#225597" stroke-width="7.35267" stroke-miterlimit="10" stroke-linecap="round"/>
<path d="M341.435 120.967C346.74 119.309 348.065 108.434 344.394 96.6768C340.723 84.92 333.447 76.7335 328.142 78.3918C322.837 80.0502 321.513 90.9253 325.184 102.682C328.855 114.439 336.131 122.626 341.435 120.967Z" fill="white"/>
<path d="M421.335 298.948C423.407 298.841 424.97 296.473 424.825 293.659C424.681 290.844 422.884 288.649 420.812 288.755C418.74 288.862 417.178 291.23 417.322 294.044C417.467 296.859 419.263 299.054 421.335 298.948Z" fill="white"/>
<path d="M421.326 486.686C423.398 486.58 424.961 484.212 424.816 481.397C424.672 478.583 422.875 476.387 420.803 476.494C418.731 476.6 417.169 478.968 417.313 481.783C417.458 484.597 419.255 486.793 421.326 486.686Z" fill="white"/>
<path d="M423.496 557.856C425.568 557.75 427.131 555.382 426.986 552.567C426.842 549.753 425.045 547.557 422.973 547.664C420.901 547.77 419.339 550.138 419.483 552.953C419.628 555.767 421.424 557.962 423.496 557.856Z" fill="white"/>
<path d="M423.488 636.779C425.559 636.672 427.122 634.304 426.978 631.49C426.833 628.675 425.036 626.48 422.964 626.587C420.893 626.693 419.33 629.061 419.474 631.875C419.619 634.69 421.416 636.885 423.488 636.779Z" fill="white"/>
<path d="M599.923 50.9918C599.923 50.9918 601.358 71.2895 627.858 81.0169C664.171 94.3437 693.244 85.8693 693.244 85.8693C693.244 85.8693 689.51 105.142 706.653 115.484L716.42 127.239C711.025 151.432 713.62 166.468 713.62 166.468C713.62 166.468 768.738 74.7294 722.613 35.5009C666.038 -12.6122 657.682 15.7044 657.682 15.7044C657.682 15.7044 638.149 13.3579 618.797 16.9801C574.129 25.3406 599.901 50.9691 599.901 50.9691L599.923 50.9918Z" fill="#225597"/>
<path d="M604.022 40.1741C604.022 40.1741 592.456 48.2158 590.453 62.8183C588.176 79.5166 595.416 85.4624 595.416 85.4624C595.416 85.4624 598.239 55.2778 615.587 54.2982L604.022 40.1514V40.1741Z" fill="#225597"/>
<path d="M726.005 118.214C729.676 106.457 728.351 95.5818 723.047 93.9235C717.742 92.2651 710.466 100.452 706.795 112.208C703.124 123.965 704.449 134.84 709.753 136.499C715.058 138.157 722.334 129.971 726.005 118.214Z" fill="white"/>
<path d="M659.939 424.463C661.851 424.714 663.149 426.536 662.717 428.427L660.167 439.954L654.816 462.803L663.491 486.222L653.291 495.221L610.126 496.155L604.593 425.876C604.457 424.03 605.845 422.413 607.689 422.322C630.661 421.228 651.743 423.415 659.893 424.441L659.939 424.463Z" fill="#0A253C"/>
<path d="M796.562 350.495C794.991 396.307 810.062 455.925 813.363 468.431C813.705 469.73 814.98 470.55 816.3 470.322C823.29 469.138 844.941 467.361 864.065 486.223" stroke="#225597" stroke-width="7.35267" stroke-miterlimit="10" stroke-linecap="round"/>
<path d="M563.224 436.743C557.737 369.608 567.162 325.026 567.162 325.026" stroke="#225597" stroke-width="7.35267" stroke-miterlimit="10" stroke-linecap="round"/>
<path d="M563.225 436.742C548.905 404.052 548.905 368.924 548.905 368.924" stroke="#225597" stroke-width="7.35267" stroke-miterlimit="10" stroke-linecap="round"/>
<path opacity="0.2" d="M635.851 652.182C635.851 652.182 640.017 704.965 657.069 742.69" stroke="white" stroke-width="6.12722" stroke-miterlimit="10" stroke-linecap="round"/>
<path d="M810.514 476.175C812.313 476.244 814.043 476.631 815.682 477.337C821.579 479.866 833.736 487.406 831.277 506.178C829.092 522.83 818.687 531.533 813.064 535.086C810.947 536.43 808.397 536.772 805.984 536.134C795.078 533.196 761.338 523.992 749.021 519.687C739.846 516.497 728.463 512.26 721.109 509.481C716.328 507.681 711.206 507.089 706.152 507.704C694.586 509.116 671.82 510.984 653.31 507.02C652.172 506.77 651.034 506.633 649.873 506.633H635.507C632.137 506.633 628.791 506.155 625.558 505.198C616.747 502.646 599.854 497.111 600.833 492.646C601.926 487.611 619.365 493.284 624.511 493.921C629.656 494.559 643.156 492.851 643.156 492.851C643.156 492.851 607.162 487.269 599.444 482.987C591.727 478.704 594.185 474.011 599.444 474.193C603.042 474.307 626.651 477.2 632.661 477.405C638.671 477.61 647.027 476.335 647.027 476.335C647.027 476.335 622.803 473.76 612.308 470.753C601.812 467.746 595.119 465.4 597.942 461.322C600.902 457.039 620.868 459.614 631.796 459.181C638.535 458.907 643.43 458.725 646.435 458.588C647.482 458.543 647.801 457.153 646.89 456.652C642.564 454.214 634.938 450.182 631.796 450.182C618.386 450.114 600.833 452.597 600.947 446.105C601.038 440.478 609.325 438.632 618.523 436.673C626.104 435.056 643.384 432.823 663.305 441.184C683.226 449.544 696.385 456.265 722.453 464.329C751.844 473.442 799.905 475.742 810.537 476.152L810.514 476.175Z" fill="white"/>
<path d="M307.987 193.514C315.09 225.543 328.409 243.723 335.285 251.354C337.903 254.27 342.046 255.204 345.689 253.792C349.332 252.379 354.34 250.078 361.147 246.16C361.557 245.932 362.058 246.001 362.377 246.342C364.699 248.985 374.739 259.578 386.1 260.968" stroke="#225597" stroke-width="7.35267" stroke-miterlimit="10" stroke-linecap="round"/>
<path d="M434.728 225.543C434.728 225.543 445.246 240.1 447.978 251.331C448.046 251.604 447.864 251.878 447.591 251.946C443.948 252.607 421.956 257.094 408.022 272.54" stroke="#225597" stroke-width="7.35267" stroke-miterlimit="10" stroke-linecap="round"/>
<path d="M373.12 388.814L374.145 333.548C374.19 330.7 376.603 328.49 379.449 328.673L483.743 335.416C486.475 335.598 488.547 337.944 488.388 340.678L481.876 458.387C481.717 461.166 479.349 463.262 476.572 463.079L383.934 456.929C381.498 456.769 379.54 454.856 379.313 452.441L373.166 389.406C373.166 389.224 373.143 389.019 373.166 388.837L373.12 388.814Z" fill="#0A253C"/>
<path d="M288.724 418.04C288.724 418.04 277.728 420.706 263.84 453.214C257.648 467.68 255.371 477.772 254.506 483.262C254.165 485.517 256.35 487.34 258.513 486.588L342.59 457.588C345.3 456.654 348.259 457.11 350.604 458.75C353.974 461.119 359.551 464.103 365.858 463.716C376.148 463.078 431.016 443.304 435.934 440.571C443.492 436.333 439.918 432.575 437.504 430.889C436.89 430.456 436.981 429.522 437.664 429.203C440.601 427.836 446.383 424.715 447.362 420.774C448.091 417.813 446.611 416.104 445.518 415.284C445.063 414.942 444.995 414.282 445.382 413.894C446.588 412.71 448.273 410.249 445.905 407.265C443.538 404.281 434.659 403.051 430.606 402.618C429.832 402.527 429.491 401.638 429.969 401.023C431.221 399.497 432.428 397.014 429.354 395.032C420.976 389.587 373.098 389.086 373.098 389.086L373.416 361.749C370.047 364.05 368.18 367.444 367.178 369.973C366.404 371.932 365.015 373.618 363.149 374.597C360.143 376.169 355.158 379.518 349.489 386.352C344.935 391.842 342.249 396.103 340.678 398.996C339.107 401.889 336.534 404.053 333.393 404.964L288.724 418.018V418.04Z" fill="white"/>
<path d="M370.049 408.219L387.534 405.69C390.653 405.234 393.817 404.961 396.982 404.87L423.254 404.05" stroke="#C3D6ED" stroke-width="3.67633" stroke-miterlimit="10" stroke-linecap="round"/>
<path d="M374.236 424.941L396.411 421.729L436.731 416.58" stroke="#C3D6ED" stroke-width="3.67633" stroke-miterlimit="10" stroke-linecap="round"/>
<path d="M371.961 443.394L400.579 436.742L428.627 431.184" stroke="#C3D6ED" stroke-width="3.67633" stroke-miterlimit="10" stroke-linecap="round"/>
<path opacity="0.2" d="M358.301 456.264C359.348 456.446 360.009 455.17 359.235 454.419C357.345 452.573 354.727 449.68 352.769 446.24C351.38 443.803 350.902 441.046 350.743 439.133C350.606 437.606 350.06 436.171 349.194 434.895C347.988 433.096 346.462 430.02 346.326 425.806C346.167 421.341 347.533 417.833 348.785 415.623C349.741 413.914 349.604 411.773 348.489 410.155C347.168 408.265 345.666 405.599 345.392 402.911C345.301 401.977 344.163 401.59 343.526 402.273C339.291 406.83 330.162 419.245 335.489 437.265C339.678 451.48 352.222 455.262 358.301 456.241V456.264Z" fill="#225597"/>
<path opacity="0.2" d="M355.412 389.084H373.102L373.216 379.79C363.107 377.056 355.412 389.084 355.412 389.084Z" fill="#225597"/>
<path d="M507.148 453.03C519.602 446.788 533.763 447.221 533.763 447.221" stroke="#225597" stroke-width="7.35267" stroke-miterlimit="10" stroke-linecap="round"/>
<path d="M251.299 1401.19C251.299 1401.19 256.262 1390.14 250.479 1383.15C250.479 1383.15 244.31 1377.09 216.694 1379.82C189.078 1382.56 174.12 1385.15 157.979 1380.3C157.979 1380.3 157.933 1385.5 160.483 1390.17C163.351 1395.45 167.062 1398.82 181.064 1398.64C200.029 1398.39 214.167 1394.13 229.602 1396.07C245.038 1398 251.299 1401.21 251.299 1401.21V1401.19Z" fill="#C3D6ED"/>
<path d="M735.795 89.0631C735.795 89.0631 748.271 82.7756 764.299 95.3506C792.416 117.425 762.455 160.845 820.51 172.031C821.648 172.259 821.83 173.808 820.738 174.241C811.153 178.113 783.901 186.77 761.157 171.507C724.662 147.04 731.287 119.065 731.287 119.065L735.795 89.0403V89.0631Z" fill="#225597"/>
<path d="M735.953 121.863C741.03 107.557 741.895 96.3262 741.895 96.3262" stroke="white" stroke-width="7.35267" stroke-miterlimit="10" stroke-linecap="round"/>
<path d="M620.093 40.1719C620.093 40.1719 631.203 51.8812 641.63 52.2457C652.057 52.6102 646.047 42.9284 646.047 42.9284" stroke="#5A92CB" stroke-width="4.90178" stroke-miterlimit="10" stroke-linecap="round"/>
</g>
<defs>
<clipPath id="clip0_782_691">
<rect width="1044.08" height="1401.91" fill="white" transform="translate(0.545898 0.0117188)"/>
</clipPath>
</defs>
</svg>
