<svg width="96" height="96" viewBox="0 0 96 96" fill="none" xmlns="http://www.w3.org/2000/svg">
<path d="M61.1002 84.0002C73.7475 84.0002 84.0002 73.7475 84.0002 61.1002C84.0002 48.4529 73.7475 38.2002 61.1002 38.2002C48.4529 38.2002 38.2002 48.4529 38.2002 61.1002C38.2002 73.7475 48.4529 84.0002 61.1002 84.0002Z" fill="#FFE81C"/>
<path d="M39.1187 54.9768C39.1187 57.227 40.0126 59.3851 41.6037 60.9763C43.1949 62.5674 45.353 63.4614 47.6032 63.4614C49.8535 63.4614 52.0116 62.5674 53.6027 60.9763C55.1939 59.3851 56.0878 57.227 56.0878 54.9768C56.0878 52.7265 55.1939 50.5684 53.6027 48.9773C52.0116 47.3861 49.8535 46.4922 47.6032 46.4922C45.353 46.4922 43.1949 47.3861 41.6037 48.9773C40.0126 50.5684 39.1187 52.7265 39.1187 54.9768Z" stroke="#00263E" stroke-width="2" stroke-linecap="round" stroke-linejoin="round"/>
<path d="M60.3287 81.492C60.3543 79.8045 60.044 78.1288 59.4159 76.5623C58.7877 74.9958 57.8544 73.5699 56.67 72.3675C55.4857 71.1651 54.0741 70.2102 52.5173 69.5584C50.9605 68.9067 49.2896 68.571 47.6019 68.571C45.9141 68.571 44.2433 68.9067 42.6865 69.5584C41.1297 70.2102 39.718 71.1651 38.5337 72.3675C37.3494 73.5699 36.416 74.9958 35.7879 76.5623C35.1598 78.1288 34.8494 79.8045 34.875 81.492" stroke="#00263E" stroke-width="2" stroke-linecap="round" stroke-linejoin="round"/>
<path d="M64.0415 60.7839C64.0415 62.4857 64.7175 64.1178 65.9209 65.3211C67.1243 66.5245 68.7564 67.2005 70.4582 67.2005C72.16 67.2005 73.7921 66.5245 74.9954 65.3211C76.1988 64.1178 76.8748 62.4857 76.8748 60.7839C76.8748 59.082 76.1988 57.4499 74.9954 56.2466C73.7921 55.0432 72.16 54.3672 70.4582 54.3672C68.7564 54.3672 67.1243 55.0432 65.9209 56.2466C64.7175 57.4499 64.0415 59.082 64.0415 60.7839Z" stroke="#00263E" stroke-width="2" stroke-linecap="round" stroke-linejoin="round"/>
<path d="M80.0836 80.0339C80.084 78.2908 79.6111 76.5803 78.7154 75.085C77.8196 73.5897 76.5346 72.3657 74.9975 71.5437C73.4604 70.7217 71.7289 70.3325 69.9879 70.4178C68.2469 70.503 66.5618 71.0594 65.1123 72.0276" stroke="#00263E" stroke-width="2" stroke-linecap="round" stroke-linejoin="round"/>
<path d="M19.125 60.7839C19.125 61.6265 19.291 62.4609 19.6134 63.2394C19.9359 64.0179 20.4086 64.7253 21.0044 65.3211C21.6002 65.917 22.3076 66.3896 23.0861 66.7121C23.8646 67.0345 24.699 67.2005 25.5417 67.2005C26.3843 67.2005 27.2187 67.0345 27.9972 66.7121C28.7757 66.3896 29.4831 65.917 30.0789 65.3211C30.6748 64.7253 31.1474 64.0179 31.4699 63.2394C31.7924 62.4609 31.9583 61.6265 31.9583 60.7839C31.9583 59.082 31.2823 57.4499 30.0789 56.2466C28.8756 55.0432 27.2435 54.3672 25.5417 54.3672C23.8399 54.3672 22.2078 55.0432 21.0044 56.2466C19.801 57.4499 19.125 59.082 19.125 60.7839Z" stroke="#00263E" stroke-width="2" stroke-linecap="round" stroke-linejoin="round"/>
<path d="M15.9165 80.0339C15.916 78.2908 16.3889 76.5803 17.2847 75.085C18.1805 73.5897 19.4655 72.3657 21.0026 71.5437C22.5397 70.7217 24.2711 70.3325 26.0121 70.4178C27.7531 70.503 29.4383 71.0594 30.8878 72.0276" stroke="#00263E" stroke-width="2" stroke-linecap="round" stroke-linejoin="round"/>
<path d="M48.7264 15.3976L51.9056 22.2459H58.0889C58.4008 22.2338 58.7087 22.3182 58.9709 22.4877C59.233 22.6571 59.4364 22.9032 59.5535 23.1925C59.6706 23.4818 59.6955 23.8002 59.625 24.1042C59.5544 24.4083 59.3918 24.6831 59.1593 24.8913L53.7897 30.1763L56.7647 37.0071C56.8956 37.32 56.925 37.6661 56.8486 37.9965C56.7722 38.327 56.594 38.6251 56.339 38.8488C56.0841 39.0725 55.7653 39.2104 55.4277 39.2432C55.0902 39.2759 54.7508 39.2018 54.4576 39.0313L47.2681 34.9888L40.0814 39.0313C39.788 39.2009 39.4489 39.2743 39.1116 39.2413C38.7743 39.2082 38.4559 39.0704 38.201 38.847C37.9462 38.6237 37.7676 38.3261 37.6906 37.9961C37.6135 37.6661 37.6418 37.3203 37.7714 37.0071L40.7464 30.1763L35.3797 24.8913C35.1462 24.6843 34.9824 24.4102 34.9107 24.1065C34.8389 23.8028 34.8628 23.4843 34.979 23.1947C35.0953 22.9051 35.2981 22.6585 35.5599 22.4887C35.8217 22.3188 36.1296 22.234 36.4414 22.2459H42.6276L45.8097 15.3976C45.9481 15.1302 46.1573 14.906 46.4145 14.7495C46.6717 14.593 46.967 14.5103 47.2681 14.5103C47.5691 14.5103 47.8644 14.593 48.1216 14.7495C48.3788 14.906 48.588 15.1302 48.7264 15.3976Z" stroke="#00263E" stroke-width="2" stroke-linecap="round" stroke-linejoin="round"/>
</svg>
