<svg width="96" height="96" viewBox="0 0 96 96" fill="none" xmlns="http://www.w3.org/2000/svg">
<path d="M61.1002 84.0002C73.7475 84.0002 84.0002 73.7475 84.0002 61.1002C84.0002 48.4529 73.7475 38.2002 61.1002 38.2002C48.4529 38.2002 38.2002 48.4529 38.2002 61.1002C38.2002 73.7475 48.4529 84.0002 61.1002 84.0002Z" fill="#FFE81C"/>
<path d="M34.8752 81.5417L36.3335 64.0417H43.6252V53.8333C43.6252 49.9656 42.0887 46.2563 39.3538 43.5214C36.6189 40.7865 32.9096 39.25 29.0418 39.25C25.1741 39.25 21.4648 40.7865 18.7299 43.5214C15.995 46.2563 14.4585 49.9656 14.4585 53.8333V64.0417H21.7502L23.2085 81.5417H34.8752Z" stroke="#00263E" stroke-width="2" stroke-linecap="round" stroke-linejoin="round"/>
<path d="M18.8335 24.6666C18.8335 26.0072 19.0975 27.3346 19.6106 28.5731C20.1236 29.8117 20.8755 30.937 21.8234 31.885C22.7714 32.8329 23.8967 33.5848 25.1353 34.0979C26.3738 34.6109 27.7013 34.8749 29.0418 34.8749C30.3824 34.8749 31.7099 34.6109 32.9484 34.0979C34.1869 33.5848 35.3123 32.8329 36.2602 31.885C37.2081 30.937 37.9601 29.8117 38.4731 28.5731C38.9861 27.3346 39.2502 26.0072 39.2502 24.6666C39.2502 23.326 38.9861 21.9986 38.4731 20.76C37.9601 19.5215 37.2081 18.3961 36.2602 17.4482C35.3123 16.5003 34.1869 15.7483 32.9484 15.2353C31.7099 14.7223 30.3824 14.4583 29.0418 14.4583C27.7013 14.4583 26.3738 14.7223 25.1353 15.2353C23.8967 15.7483 22.7714 16.5003 21.8234 17.4482C20.8755 18.3961 20.1236 19.5215 19.6106 20.76C19.0975 21.9986 18.8335 23.326 18.8335 24.6666Z" stroke="#00263E" stroke-width="2" stroke-linecap="round" stroke-linejoin="round"/>
<path d="M63.8636 43.2459C61.7357 41.2312 59.0508 39.9035 56.1581 39.4354C53.2654 38.9672 50.2988 39.3803 47.644 40.6209" stroke="#00263E" stroke-width="2" stroke-linecap="round" stroke-linejoin="round"/>
<path d="M45.0835 26.125C45.0835 28.4456 46.0054 30.6712 47.6463 32.3122C49.2873 33.9531 51.5129 34.875 53.8335 34.875C56.1541 34.875 58.3797 33.9531 60.0207 32.3122C61.6616 30.6712 62.5835 28.4456 62.5835 26.125C62.5835 23.8044 61.6616 21.5788 60.0207 19.9378C58.3797 18.2969 56.1541 17.375 53.8335 17.375C51.5129 17.375 49.2873 18.2969 47.6463 19.9378C46.0054 21.5788 45.0835 23.8044 45.0835 26.125Z" stroke="#00263E" stroke-width="2" stroke-linecap="round" stroke-linejoin="round"/>
<path d="M66.9585 58.2083V69.8749" stroke="#00263E" stroke-width="2" stroke-linecap="round" stroke-linejoin="round"/>
<path d="M72.7917 64.0417H61.125" stroke="#00263E" stroke-width="2" stroke-linecap="round" stroke-linejoin="round"/>
<path d="M68.2591 81.2937L69.6037 80.7804C75.9999 78.3333 81.5416 72.2083 81.5416 65.3746V57.1291C81.5429 56.6338 81.3991 56.1489 81.128 55.7342C80.857 55.3196 80.4705 54.9934 80.0162 54.7958C75.8162 53.2277 71.3742 52.4064 66.8912 52.3691C62.4469 52.4053 58.044 53.2268 53.8858 54.7958C53.4315 54.9934 53.045 55.3196 52.7739 55.7342C52.5029 56.1489 52.3591 56.6338 52.3604 57.1291V65.3746C52.6124 68.8176 53.8673 72.1113 55.9702 74.8492C58.073 77.587 60.9318 79.6489 64.1933 80.7804L65.5379 81.2937C66.4137 81.6304 67.3833 81.6304 68.2591 81.2937Z" stroke="#00263E" stroke-width="2" stroke-linecap="round" stroke-linejoin="round"/>
</svg>
