<svg width="70" height="70" viewBox="0 0 70 70" fill="none" xmlns="http://www.w3.org/2000/svg">
<g clip-path="url(#clip0_1545_1652)">
<path d="M47.5542 69.5001C59.6746 69.5001 69.5001 59.6746 69.5001 47.5542C69.5001 35.4339 59.6746 25.6084 47.5542 25.6084C35.4339 25.6084 25.6084 35.4339 25.6084 47.5542C25.6084 59.6746 35.4339 69.5001 47.5542 69.5001Z" fill="#FFE81C"/>
<path d="M55.7663 55.5831C67.1061 44.2433 67.1061 25.8578 55.7663 14.5179C44.4264 3.17808 26.0409 3.17807 14.7011 14.5179C3.36122 25.8578 3.36122 44.2433 14.7011 55.5832C26.0409 66.923 44.4264 66.923 55.7663 55.5831Z" stroke="#00263E" stroke-width="1.91667" stroke-linecap="round" stroke-linejoin="round"/>
<path d="M52.3459 61.3733C53.9549 61.3733 55.2593 60.069 55.2593 58.46C55.2593 56.851 53.9549 55.5466 52.3459 55.5466C50.737 55.5466 49.4326 56.851 49.4326 58.46C49.4326 60.069 50.737 61.3733 52.3459 61.3733Z" stroke="#00263E" stroke-width="1.91667" stroke-linecap="round" stroke-linejoin="round"/>
<path d="M23.615 64.6123C25.224 64.6123 26.5283 63.308 26.5283 61.699C26.5283 60.09 25.224 58.7856 23.615 58.7856C22.006 58.7856 20.7017 60.09 20.7017 61.699C20.7017 63.308 22.006 64.6123 23.615 64.6123Z" stroke="#00263E" stroke-width="1.91667" stroke-linecap="round" stroke-linejoin="round"/>
<path d="M6.19239 41.3442C7.80138 41.3442 9.10572 40.0399 9.10572 38.4309C9.10572 36.8219 7.80138 35.5176 6.19239 35.5176C4.5834 35.5176 3.27905 36.8219 3.27905 38.4309C3.27905 40.0399 4.5834 41.3442 6.19239 41.3442Z" stroke="#00263E" stroke-width="1.91667" stroke-linecap="round" stroke-linejoin="round"/>
<path d="M17.9226 14.99C19.5316 14.99 20.8359 13.6857 20.8359 12.0767C20.8359 10.4677 19.5316 9.16333 17.9226 9.16333C16.3136 9.16333 15.0093 10.4677 15.0093 12.0767C15.0093 13.6857 16.3136 14.99 17.9226 14.99Z" stroke="#00263E" stroke-width="1.91667" stroke-linecap="round" stroke-linejoin="round"/>
<path d="M46.4041 11.2144C48.013 11.2144 49.3174 9.91002 49.3174 8.30103C49.3174 6.69204 48.013 5.3877 46.4041 5.3877C44.7951 5.3877 43.4907 6.69204 43.4907 8.30103C43.4907 9.91002 44.7951 11.2144 46.4041 11.2144Z" stroke="#00263E" stroke-width="1.91667" stroke-linecap="round" stroke-linejoin="round"/>
<path d="M63.8076 34.0608C65.4166 34.0608 66.721 32.7565 66.721 31.1475C66.721 29.5385 65.4166 28.2341 63.8076 28.2341C62.1986 28.2341 60.8943 29.5385 60.8943 31.1475C60.8943 32.7565 62.1986 34.0608 63.8076 34.0608Z" stroke="#00263E" stroke-width="1.91667" stroke-linecap="round" stroke-linejoin="round"/>
<path d="M31.8184 38.8336C31.626 37.1834 30.8348 35.6612 29.5948 34.5555C28.3549 33.4497 26.7523 32.8374 25.0909 32.8345C23.3016 32.8345 21.5855 33.5453 20.3203 34.8105C19.055 36.0758 18.3442 37.7918 18.3442 39.5811V42.4753H28.6367" stroke="#00263E" stroke-width="1.91667" stroke-linecap="round" stroke-linejoin="round"/>
<path d="M25.0908 29.7865C27.1338 29.7865 28.7899 28.1303 28.7899 26.0874C28.7899 24.0444 27.1338 22.3882 25.0908 22.3882C23.0478 22.3882 21.3916 24.0444 21.3916 26.0874C21.3916 28.1303 23.0478 29.7865 25.0908 29.7865Z" stroke="#00263E" stroke-width="1.91667" stroke-linecap="round" stroke-linejoin="round"/>
<path d="M41.3631 42.4177H51.6556V39.5235C51.6556 37.7342 50.9448 36.0182 49.6795 34.7529C48.4143 33.4877 46.6982 32.7769 44.9089 32.7769C43.2387 32.7814 41.6288 33.4018 40.3875 34.5193C39.1462 35.6368 38.3607 37.1729 38.1814 38.8335" stroke="#00263E" stroke-width="1.91667" stroke-linecap="round" stroke-linejoin="round"/>
<path d="M44.9091 29.7865C46.9521 29.7865 48.6083 28.1303 48.6083 26.0874C48.6083 24.0444 46.9521 22.3882 44.9091 22.3882C42.8661 22.3882 41.21 24.0444 41.21 26.0874C41.21 28.1303 42.8661 29.7865 44.9091 29.7865Z" stroke="#00263E" stroke-width="1.91667" stroke-linecap="round" stroke-linejoin="round"/>
<path d="M35 37.9709C36.7944 37.9709 38.5153 38.6838 39.7841 39.9526C41.053 41.2215 41.7658 42.9424 41.7658 44.7368V47.6309H28.2341V44.7176C28.2392 42.9265 28.9543 41.2105 30.2226 39.9458C31.4908 38.6811 33.2089 37.9709 35 37.9709Z" stroke="#00263E" stroke-width="1.91667" stroke-linecap="round" stroke-linejoin="round"/>
<path d="M35.0002 34.9806C37.0432 34.9806 38.6994 33.3244 38.6994 31.2814C38.6994 29.2384 37.0432 27.5823 35.0002 27.5823C32.9572 27.5823 31.301 29.2384 31.301 31.2814C31.301 33.3244 32.9572 34.9806 35.0002 34.9806Z" stroke="#00263E" stroke-width="1.91667" stroke-linecap="round" stroke-linejoin="round"/>
<path d="M33.62 44.6984H31.7034C31.7024 44.164 31.8166 43.6358 32.0382 43.1496C32.2598 42.6634 32.5836 42.2307 32.9875 41.8809L33.16 41.7275" stroke="#00263E" stroke-width="1.91667" stroke-linecap="round" stroke-linejoin="round"/>
</g>
<defs>
<clipPath id="clip0_1545_1652">
<rect width="69" height="69" fill="white" transform="translate(0.5 0.5)"/>
</clipPath>
</defs>
</svg>
