<svg width="96" height="97" viewBox="0 0 96 97" fill="none" xmlns="http://www.w3.org/2000/svg">
<path d="M61.1002 84.9729C73.7475 84.9729 84.0002 74.7202 84.0002 62.0728C84.0002 49.4255 73.7475 39.1729 61.1002 39.1729C48.4529 39.1729 38.2002 49.4255 38.2002 62.0728C38.2002 74.7202 48.4529 84.9729 61.1002 84.9729Z" fill="#FFE81C"/>
<path d="M31.1831 75.0535V79.3847" stroke="black" stroke-width="2" stroke-linecap="round" stroke-linejoin="round"/>
<path d="M46.5278 80.9247C46.5278 76.855 44.9111 72.9521 42.0335 70.0744C39.1558 67.1967 35.2528 65.5801 31.1832 65.5801C27.1136 65.5801 23.2106 67.1967 20.3329 70.0744C17.4553 72.9521 15.8386 76.855 15.8386 80.9247" stroke="black" stroke-width="2" stroke-linecap="round" stroke-linejoin="round"/>
<path d="M20.4412 50.1189C20.4412 52.9787 21.5729 55.7213 23.5874 57.7435C25.602 59.7657 28.3343 60.9018 31.1832 60.9018C34.0322 60.9018 36.7645 59.7657 38.779 57.7435C40.7936 55.7213 41.9253 52.9787 41.9253 50.1189C41.9253 47.259 40.7936 44.5164 38.779 42.4942C36.7645 40.472 34.0322 39.3359 31.1832 39.3359C28.3343 39.3359 25.602 40.472 23.5874 42.4942C21.5729 44.5164 20.4412 47.259 20.4412 50.1189Z" stroke="black" stroke-width="2" stroke-linecap="round" stroke-linejoin="round"/>
<path d="M22.6023 43.6497C25.7771 46.7185 29.9916 48.4784 34.406 48.5788C36.8487 48.5877 39.2755 48.1844 41.584 47.3859" stroke="black" stroke-width="2" stroke-linecap="round" stroke-linejoin="round"/>
<path d="M44.5532 37.5802C45.689 35.766 47.3249 34.3186 49.2641 33.4125C51.2033 32.5064 53.363 32.18 55.4834 32.4727C57.6037 32.7655 59.5942 33.6648 61.2153 35.0625C62.8365 36.4601 64.0191 38.2966 64.6208 40.3507C65.2225 42.4048 65.2177 44.5891 64.6069 46.6405C63.9962 48.692 62.8055 50.5232 61.1783 51.9137C59.551 53.3042 57.5565 54.1948 55.4349 54.4782C53.3133 54.7616 51.1551 54.4257 49.2199 53.511" stroke="black" stroke-width="2" stroke-linecap="round" stroke-linejoin="round"/>
<path d="M65.1593 31.8634L64.4185 23.6997L71.0976 17.0205L73.326 23.6997L80.0051 25.928L73.326 32.6072L65.1593 31.8634Z" stroke="black" stroke-width="2" stroke-linecap="round" stroke-linejoin="round"/>
<path d="M65.5386 32.1084L53.8428 43.8042" stroke="black" stroke-width="2" stroke-linecap="round" stroke-linejoin="round"/>
<path d="M71.6226 32.4438C74.1399 36.3838 75.2772 41.0483 74.856 45.7048C74.4347 50.3612 72.4787 54.7459 69.2952 58.1701C66.1116 61.5943 61.8809 63.8641 57.2674 64.623C52.6539 65.382 47.9191 64.587 43.8064 62.363" stroke="black" stroke-width="2" stroke-linecap="round" stroke-linejoin="round"/>
<path d="M35.4766 33.4209C36.8589 30.978 38.7146 28.8353 40.9351 27.1182C43.1556 25.4012 45.6963 24.1443 48.4084 23.421C51.1206 22.6977 53.9497 22.5227 56.7303 22.9061C59.5109 23.2895 62.1872 24.2236 64.6024 25.6538" stroke="black" stroke-width="2" stroke-linecap="round" stroke-linejoin="round"/>
</svg>
