<svg width="96" height="96" viewBox="0 0 96 96" fill="none" xmlns="http://www.w3.org/2000/svg">
<path d="M61.1002 84.0002C73.7475 84.0002 84.0002 73.7475 84.0002 61.1002C84.0002 48.4529 73.7475 38.2002 61.1002 38.2002C48.4529 38.2002 38.2002 48.4529 38.2002 61.1002C38.2002 73.7475 48.4529 84.0002 61.1002 84.0002Z" fill="#FFE81C"/>
<path d="M42.167 40.7083C42.167 41.4744 42.3179 42.2329 42.611 42.9407C42.9042 43.6484 43.3339 44.2914 43.8755 44.8331C44.4172 45.3748 45.0603 45.8045 45.768 46.0976C46.4757 46.3908 47.2343 46.5417 48.0003 46.5417C48.7664 46.5417 49.5249 46.3908 50.2326 46.0976C50.9404 45.8045 51.5834 45.3748 52.1251 44.8331C52.6668 44.2914 53.0965 43.6484 53.3896 42.9407C53.6828 42.2329 53.8337 41.4744 53.8337 40.7083C53.8337 39.9423 53.6828 39.1837 53.3896 38.476C53.0965 37.7683 52.6668 37.1252 52.1251 36.5835C51.5834 36.0419 50.9404 35.6122 50.2326 35.319C49.5249 35.0259 48.7664 34.875 48.0003 34.875C47.2343 34.875 46.4757 35.0259 45.768 35.319C45.0603 35.6122 44.4172 36.0419 43.8755 36.5835C43.3339 37.1252 42.9042 37.7683 42.611 38.476C42.3179 39.1837 42.167 39.9423 42.167 40.7083Z" stroke="#00263E" stroke-width="2" stroke-linecap="round" stroke-linejoin="round"/>
<path d="M59.6668 58.2082C59.0015 55.6196 57.4941 53.3257 55.382 51.6878C53.2699 50.0498 50.673 49.1609 48.0002 49.1609C45.3274 49.1609 42.7305 50.0498 40.6183 51.6878C38.5062 53.3257 36.9988 55.6196 36.3335 58.2082H59.6668Z" stroke="#00263E" stroke-width="2" stroke-linecap="round" stroke-linejoin="round"/>
<path d="M43.6255 18.8333C43.6255 19.9936 44.0864 21.1064 44.9069 21.9268C45.7274 22.7473 46.8402 23.2083 48.0005 23.2083C49.1608 23.2083 50.2736 22.7473 51.0941 21.9268C51.9146 21.1064 52.3755 19.9936 52.3755 18.8333C52.3755 17.6729 51.9146 16.5601 51.0941 15.7397C50.2736 14.9192 49.1608 14.4583 48.0005 14.4583C46.8402 14.4583 45.7274 14.9192 44.9069 15.7397C44.0864 16.5601 43.6255 17.6729 43.6255 18.8333Z" stroke="#00263E" stroke-width="2" stroke-linecap="round" stroke-linejoin="round"/>
<path d="M42.167 29.0416C42.167 27.4945 42.7816 26.0108 43.8755 24.9168C44.9695 23.8228 46.4532 23.2083 48.0003 23.2083C49.5474 23.2083 51.0312 23.8228 52.1251 24.9168C53.2191 26.0108 53.8337 27.4945 53.8337 29.0416" stroke="#00263E" stroke-width="2" stroke-linecap="round" stroke-linejoin="round"/>
<path d="M71.3335 48C71.3335 49.1603 71.7944 50.2731 72.6149 51.0936C73.4354 51.9141 74.5482 52.375 75.7085 52.375C76.8688 52.375 77.9816 51.9141 78.8021 51.0936C79.6226 50.2731 80.0835 49.1603 80.0835 48C80.0835 46.8397 79.6226 45.7269 78.8021 44.9064C77.9816 44.0859 76.8688 43.625 75.7085 43.625C74.5482 43.625 73.4354 44.0859 72.6149 44.9064C71.7944 45.7269 71.3335 46.8397 71.3335 48Z" stroke="#00263E" stroke-width="2" stroke-linecap="round" stroke-linejoin="round"/>
<path d="M69.875 58.2083C69.875 56.6612 70.4896 55.1775 71.5835 54.0835C72.6775 52.9896 74.1612 52.375 75.7083 52.375C77.2554 52.375 78.7392 52.9896 79.8331 54.0835C80.9271 55.1775 81.5417 56.6612 81.5417 58.2083" stroke="#00263E" stroke-width="2" stroke-linecap="round" stroke-linejoin="round"/>
<path d="M43.6255 71.3333C43.6255 72.4936 44.0864 73.6064 44.9069 74.4268C45.7274 75.2473 46.8402 75.7083 48.0005 75.7083C49.1608 75.7083 50.2736 75.2473 51.0941 74.4268C51.9146 73.6064 52.3755 72.4936 52.3755 71.3333C52.3755 70.1729 51.9146 69.0601 51.0941 68.2397C50.2736 67.4192 49.1608 66.9583 48.0005 66.9583C46.8402 66.9583 45.7274 67.4192 44.9069 68.2397C44.0864 69.0601 43.6255 70.1729 43.6255 71.3333Z" stroke="#00263E" stroke-width="2" stroke-linecap="round" stroke-linejoin="round"/>
<path d="M42.167 81.5416C42.167 79.9945 42.7816 78.5108 43.8755 77.4168C44.9695 76.3228 46.4532 75.7083 48.0003 75.7083C49.5474 75.7083 51.0312 76.3228 52.1251 77.4168C53.2191 78.5108 53.8337 79.9945 53.8337 81.5416" stroke="#00263E" stroke-width="2" stroke-linecap="round" stroke-linejoin="round"/>
<path d="M15.917 48C15.917 49.1603 16.3779 50.2731 17.1984 51.0936C18.0189 51.9141 19.1317 52.375 20.292 52.375C21.4523 52.375 22.5651 51.9141 23.3856 51.0936C24.2061 50.2731 24.667 49.1603 24.667 48C24.667 46.8397 24.2061 45.7269 23.3856 44.9064C22.5651 44.0859 21.4523 43.625 20.292 43.625C19.1317 43.625 18.0189 44.0859 17.1984 44.9064C16.3779 45.7269 15.917 46.8397 15.917 48Z" stroke="#00263E" stroke-width="2" stroke-linecap="round" stroke-linejoin="round"/>
<path d="M14.4585 58.2083C14.4585 56.6612 15.0731 55.1775 16.167 54.0835C17.261 52.9896 18.7447 52.375 20.2918 52.375C21.8389 52.375 23.3227 52.9896 24.4166 54.0835C25.5106 55.1775 26.1252 56.6612 26.1252 58.2083" stroke="#00263E" stroke-width="2" stroke-linecap="round" stroke-linejoin="round"/>
<path d="M59.2583 28.6624C64.0856 30.9383 68.1044 34.6316 70.7791 39.2499" stroke="#00263E" stroke-width="2" stroke-linecap="round" stroke-linejoin="round"/>
<path d="M62.0291 36.4208L59.2583 28.6624L67.0166 25.8916" stroke="#00263E" stroke-width="2" stroke-linecap="round" stroke-linejoin="round"/>
<path d="M32.8334 39.9791L24.5792 40.5041L24.0542 32.2791" stroke="#00263E" stroke-width="2" stroke-linecap="round" stroke-linejoin="round"/>
<path d="M34.0294 67.8042L36.1294 75.7959L28.1377 77.8667" stroke="#00263E" stroke-width="2" stroke-linecap="round" stroke-linejoin="round"/>
<path d="M63.2544 65.5L71.4211 64.2458L72.6752 72.4125" stroke="#00263E" stroke-width="2" stroke-linecap="round" stroke-linejoin="round"/>
<path d="M24.667 40.5041C27.2009 35.4623 31.2919 31.3713 36.3337 28.8374" stroke="#00263E" stroke-width="2" stroke-linecap="round" stroke-linejoin="round"/>
<path d="M36.1296 75.7958C31.0964 73.2501 27.0086 69.1623 24.4629 64.1292" stroke="#00263E" stroke-width="2" stroke-linecap="round" stroke-linejoin="round"/>
<path d="M71.3337 64.2458C68.7879 69.279 64.7002 73.3668 59.667 75.9125" stroke="#00263E" stroke-width="2" stroke-linecap="round" stroke-linejoin="round"/>
</svg>
