<svg width="96" height="97" viewBox="0 0 96 97" fill="none" xmlns="http://www.w3.org/2000/svg">
<path d="M61.1002 84.6486C73.7475 84.6486 84.0002 74.396 84.0002 61.7486C84.0002 49.1013 73.7475 38.8486 61.1002 38.8486C48.4529 38.8486 38.2002 49.1013 38.2002 61.7486C38.2002 74.396 48.4529 84.6486 61.1002 84.6486Z" fill="#FFE81C"/>
<path d="M41.3594 43.5442C41.3594 45.2847 42.0508 46.9539 43.2815 48.1846C44.5122 49.4153 46.1814 50.1067 47.9219 50.1067C49.6624 50.1067 51.3316 49.4153 52.5623 48.1846C53.793 46.9539 54.4844 45.2847 54.4844 43.5442C54.4844 41.8037 53.793 40.1345 52.5623 38.9038C51.3316 37.6731 49.6624 36.9817 47.9219 36.9817C46.1814 36.9817 44.5122 37.6731 43.2815 38.9038C42.0508 40.1345 41.3594 41.8037 41.3594 43.5442Z" stroke="#00263E" stroke-width="2" stroke-linecap="round" stroke-linejoin="round"/>
<path d="M47.9219 53.0234C45.6012 53.0234 43.3756 53.9453 41.7347 55.5863C40.0937 57.2272 39.1719 59.4528 39.1719 61.7734V69.0651H43.5469L45.0052 82.1901H50.8385L52.2969 69.0651H56.6719V61.7734C56.6719 59.4528 55.75 57.2272 54.1091 55.5863C52.4681 53.9453 50.2425 53.0234 47.9219 53.0234Z" stroke="#00263E" stroke-width="2" stroke-linecap="round" stroke-linejoin="round"/>
<path d="M16.5679 37.7081C16.5679 39.8353 17.4129 41.8755 18.9171 43.3797C20.4213 44.8839 22.4614 45.7289 24.5887 45.7289C26.716 45.7289 28.7561 44.8839 30.2603 43.3797C31.7645 41.8755 32.6095 39.8353 32.6095 37.7081C32.6095 35.5808 31.7645 33.5407 30.2603 32.0365C28.7561 30.5323 26.716 29.6873 24.5887 29.6873C22.4614 29.6873 20.4213 30.5323 18.9171 32.0365C17.4129 33.5407 16.5679 35.5808 16.5679 37.7081Z" stroke="#00263E" stroke-width="2" stroke-linecap="round" stroke-linejoin="round"/>
<path d="M33.89 54.6422C32.928 52.5153 31.2661 50.7823 29.1814 49.7321C27.0966 48.6819 24.7149 48.3779 22.4332 48.8708C20.1514 49.3637 18.1076 50.6237 16.6422 52.4409C15.1769 54.258 14.3786 56.5225 14.3804 58.8568V67.6068H18.7554L20.2137 82.1901H28.9637L30.422 67.6068H33.3387" stroke="#00263E" stroke-width="2" stroke-linecap="round" stroke-linejoin="round"/>
<path d="M63.2344 37.7081C63.2344 38.7614 63.4418 39.8044 63.8449 40.7775C64.248 41.7507 64.8388 42.6349 65.5836 43.3797C66.3284 44.1245 67.2126 44.7153 68.1858 45.1184C69.1589 45.5215 70.2019 45.7289 71.2552 45.7289C72.3085 45.7289 73.3515 45.5215 74.3246 45.1184C75.2978 44.7153 76.182 44.1245 76.9268 43.3797C77.6716 42.6349 78.2624 41.7507 78.6655 40.7775C79.0686 39.8044 79.276 38.7614 79.276 37.7081C79.276 36.6548 79.0686 35.6118 78.6655 34.6386C78.2624 33.6655 77.6716 32.7813 76.9268 32.0365C76.182 31.2917 75.2978 30.7009 74.3246 30.2978C73.3515 29.8947 72.3085 29.6873 71.2552 29.6873C70.2019 29.6873 69.1589 29.8947 68.1858 30.2978C67.2126 30.7009 66.3284 31.2917 65.5836 32.0365C64.8388 32.7813 64.248 33.6655 63.8449 34.6386C63.4418 35.6118 63.2344 36.6548 63.2344 37.7081Z" stroke="#00263E" stroke-width="2" stroke-linecap="round" stroke-linejoin="round"/>
<path d="M61.9541 54.6422C62.9161 52.5153 64.5779 50.7823 66.6627 49.7321C68.7475 48.6819 71.1292 48.3779 73.4109 48.8708C75.6926 49.3637 77.7365 50.6237 79.2018 52.4409C80.6672 54.258 81.4655 56.5225 81.4637 58.8568V67.6068H77.0887L75.6304 82.1901H66.8804L65.422 67.6068H62.5054" stroke="#00263E" stroke-width="2" stroke-linecap="round" stroke-linejoin="round"/>
<path d="M48.9747 28.5906C48.8386 28.7326 48.6752 28.8456 48.4942 28.9229C48.3133 29.0001 48.1185 29.0399 47.9218 29.0399C47.7251 29.0399 47.5304 29.0001 47.3494 28.9229C47.1685 28.8456 47.005 28.7326 46.8689 28.5906L40.8197 22.2818C40.2005 21.6572 39.7928 20.854 39.6541 19.9854C39.5155 19.1168 39.6528 18.2266 40.0468 17.4401C40.3441 16.8474 40.7776 16.3334 41.3118 15.9403C41.8459 15.5473 42.4655 15.2863 43.1199 15.1788C43.7743 15.0712 44.4449 15.1202 45.0767 15.3216C45.7086 15.523 46.2837 15.8712 46.7551 16.3376L47.9218 17.5043L49.0885 16.3376C49.5592 15.8667 50.1352 15.5144 50.7688 15.3098C51.4025 15.1052 52.0757 15.0543 52.733 15.1611C53.3902 15.2679 54.0127 15.5295 54.5489 15.9243C55.0852 16.319 55.5199 16.8356 55.8172 17.4314C56.2114 18.2203 56.3475 19.1132 56.2062 19.9837C56.0649 20.8542 55.6533 21.6582 55.0297 22.2818L48.9747 28.5906Z" stroke="#00263E" stroke-width="2" stroke-linecap="round" stroke-linejoin="round"/>
</svg>
