<svg width="96" height="97" viewBox="0 0 96 97" fill="none" xmlns="http://www.w3.org/2000/svg">
<path d="M61.1002 84.6213C73.7475 84.6213 84.0002 74.3686 84.0002 61.7213C84.0002 49.074 73.7475 38.8213 61.1002 38.8213C48.4529 38.8213 38.2002 49.074 38.2002 61.7213C38.2002 74.3686 48.4529 84.6213 61.1002 84.6213Z" fill="#FFE81C"/>
<path d="M62 26.2134L51.6978 36.5159" stroke="#00263E" stroke-width="2" stroke-linecap="round" stroke-linejoin="round"/>
<path d="M66.6065 48.6211L55.7136 48.6208" stroke="#00263E" stroke-width="2" stroke-linecap="round" stroke-linejoin="round"/>
<path d="M61.9426 70.9704L51.6917 60.7195" stroke="#00263E" stroke-width="2" stroke-linecap="round" stroke-linejoin="round"/>
<path d="M35.5727 68.763C46.6967 68.763 55.7145 59.7449 55.7145 48.621C55.7145 37.497 46.6967 28.4792 35.5727 28.4792C24.4487 28.4792 15.4309 37.497 15.4309 48.621C15.4309 59.7449 24.4487 68.763 35.5727 68.763Z" stroke="#00263E" stroke-width="2" stroke-linecap="round" stroke-linejoin="round"/>
<path d="M68.142 29.9932C71.9975 29.9932 75.123 26.8676 75.123 23.012C75.123 19.1563 71.9975 16.0308 68.142 16.0308C64.2861 16.0308 61.1606 19.1563 61.1606 23.012C61.1606 26.8676 64.2861 29.9932 68.142 29.9932Z" stroke="#00263E" stroke-width="2" stroke-linecap="round" stroke-linejoin="round"/>
<path d="M73.5877 55.6024C77.4436 55.6024 80.5691 52.4766 80.5691 48.6211C80.5691 44.7655 77.4436 41.6399 73.5877 41.6399C69.7322 41.6399 66.6067 44.7655 66.6067 48.6211C66.6067 52.4766 69.7322 55.6024 73.5877 55.6024Z" stroke="#00263E" stroke-width="2" stroke-linecap="round" stroke-linejoin="round"/>
<path d="M68.142 81.2114C71.9975 81.2114 75.123 78.0859 75.123 74.2304C75.123 70.3745 71.9975 67.249 68.142 67.249C64.2861 67.249 61.1606 70.3745 61.1606 74.2304C61.1606 78.0859 64.2861 81.2114 68.142 81.2114Z" stroke="#00263E" stroke-width="2" stroke-linecap="round" stroke-linejoin="round"/>
<path d="M35.5735 49.7718C38.9508 49.7718 41.6887 47.0339 41.6887 43.6564C41.6887 40.2791 38.9508 37.5413 35.5735 37.5413C32.1961 37.5413 29.4583 40.2791 29.4583 43.6564C29.4583 47.0339 32.1961 49.7718 35.5735 49.7718Z" stroke="#00263E" stroke-width="2" stroke-linecap="round" stroke-linejoin="round"/>
<path d="M45.8595 65.1758C45.8595 62.4478 44.776 59.8316 42.8469 57.9028C40.918 55.974 38.3018 54.8901 35.5739 54.8901C32.846 54.8901 30.2298 55.974 28.3009 57.9028C26.372 59.8316 25.2883 62.4478 25.2883 65.1758" stroke="#00263E" stroke-width="2" stroke-linecap="round" stroke-linejoin="round"/>
</svg>
