<svg width="96" height="97" viewBox="0 0 96 97" fill="none" xmlns="http://www.w3.org/2000/svg">
<path d="M61.1002 84.9572C73.7475 84.9572 84.0002 74.7045 84.0002 62.0572C84.0002 49.4099 73.7475 39.1572 61.1002 39.1572C48.4529 39.1572 38.2002 49.4099 38.2002 62.0572C38.2002 74.7045 48.4529 84.9572 61.1002 84.9572Z" fill="#FFE81C"/>
<path d="M46.5625 73.3945H49.4375" stroke="#00263E" stroke-width="2" stroke-linecap="round" stroke-linejoin="round"/>
<path d="M65.25 56.1445C65.25 51.5695 63.4326 47.1819 60.1976 43.9469C56.9626 40.7119 52.575 38.8945 48 38.8945C43.425 38.8945 39.0374 40.7119 35.8024 43.9469C32.5674 47.1819 30.75 51.5695 30.75 56.1445V61.8945C30.75 66.4695 32.5674 70.8571 35.8024 74.0921C39.0374 77.3271 43.425 79.1445 48 79.1445C52.575 79.1445 56.9626 77.3271 60.1976 74.0921C63.4326 70.8571 65.25 66.4695 65.25 61.8945V56.1445Z" stroke="#00263E" stroke-width="2" stroke-linecap="round" stroke-linejoin="round"/>
<path d="M30.75 56.0899C34.453 55.7708 40.8125 51.832 40.8125 46.082C45.125 53.2695 50.875 56.1445 59.5 56.1445H65.25" stroke="#00263E" stroke-width="2" stroke-linecap="round" stroke-linejoin="round"/>
<path d="M30.75 62.7168C30.75 65.4365 35.8273 67.6445 39.1364 67.6445C40.581 67.771 42.0176 67.3256 43.1374 66.4042C44.2573 65.4827 44.9709 64.1588 45.125 62.7168C45.125 59.9942 42.4426 59.0195 39.1364 59.0195C35.8301 59.0195 30.75 59.9942 30.75 62.7168Z" stroke="#00263E" stroke-width="2" stroke-linecap="round" stroke-linejoin="round"/>
<path d="M65.25 62.7168C65.25 65.4365 60.1727 67.6445 56.8636 67.6445C55.419 67.771 53.9824 67.3256 52.8626 66.4042C51.7427 65.4827 51.0291 64.1588 50.875 62.7168C50.875 59.9942 53.5574 59.0195 56.8636 59.0195C60.1699 59.0195 65.25 59.9942 65.25 62.7168Z" stroke="#00263E" stroke-width="2" stroke-linecap="round" stroke-linejoin="round"/>
<path d="M50.875 61.8945H45.125" stroke="#00263E" stroke-width="2" stroke-linecap="round" stroke-linejoin="round"/>
<path d="M72.4375 18.7695H73.875C74.2562 18.7695 74.6219 18.921 74.8915 19.1906C75.161 19.4601 75.3125 19.8258 75.3125 20.207V30.2695" stroke="#00263E" stroke-width="2" stroke-linecap="round" stroke-linejoin="round"/>
<path d="M72.4375 30.2695H78.1875" stroke="#00263E" stroke-width="2" stroke-linecap="round" stroke-linejoin="round"/>
<path d="M72.4375 38.8945H73.875C74.2562 38.8945 74.6219 39.046 74.8915 39.3156C75.161 39.5851 75.3125 39.9508 75.3125 40.332V50.3945" stroke="#00263E" stroke-width="2" stroke-linecap="round" stroke-linejoin="round"/>
<path d="M72.4375 50.3945H78.1875" stroke="#00263E" stroke-width="2" stroke-linecap="round" stroke-linejoin="round"/>
<path d="M17.8125 18.7695H19.25C19.6312 18.7695 19.9969 18.921 20.2665 19.1906C20.536 19.4601 20.6875 19.8258 20.6875 20.207V30.2695" stroke="#00263E" stroke-width="2" stroke-linecap="round" stroke-linejoin="round"/>
<path d="M17.8125 30.2695H23.5625" stroke="#00263E" stroke-width="2" stroke-linecap="round" stroke-linejoin="round"/>
<path d="M17.8125 61.8945H19.25C19.6312 61.8945 19.9969 62.046 20.2665 62.3156C20.536 62.5851 20.6875 62.9508 20.6875 63.332V73.3945" stroke="#00263E" stroke-width="2" stroke-linecap="round" stroke-linejoin="round"/>
<path d="M17.8125 73.3945H23.5625" stroke="#00263E" stroke-width="2" stroke-linecap="round" stroke-linejoin="round"/>
<path d="M60.9375 27.3945C60.9375 28.157 60.6346 28.8883 60.0954 29.4275C59.5563 29.9666 58.825 30.2695 58.0625 30.2695C57.3 30.2695 56.5687 29.9666 56.0296 29.4275C55.4904 28.8883 55.1875 28.157 55.1875 27.3945V21.6445C55.1875 20.882 55.4904 20.1508 56.0296 19.6116C56.5687 19.0724 57.3 18.7695 58.0625 18.7695C58.825 18.7695 59.5563 19.0724 60.0954 19.6116C60.6346 20.1508 60.9375 20.882 60.9375 21.6445V27.3945Z" stroke="#00263E" stroke-width="2" stroke-linecap="round" stroke-linejoin="round"/>
<path d="M78.1875 70.5195C78.1875 71.282 77.8846 72.0133 77.3454 72.5525C76.8063 73.0916 76.075 73.3945 75.3125 73.3945C74.55 73.3945 73.8187 73.0916 73.2796 72.5525C72.7404 72.0133 72.4375 71.282 72.4375 70.5195V64.7695C72.4375 64.007 72.7404 63.2758 73.2796 62.7366C73.8187 62.1974 74.55 61.8945 75.3125 61.8945C76.075 61.8945 76.8063 62.1974 77.3454 62.7366C77.8846 63.2758 78.1875 64.007 78.1875 64.7695V70.5195Z" stroke="#00263E" stroke-width="2" stroke-linecap="round" stroke-linejoin="round"/>
<path d="M40.8125 27.3945C40.8125 28.157 40.5096 28.8883 39.9704 29.4275C39.4313 29.9666 38.7 30.2695 37.9375 30.2695C37.175 30.2695 36.4437 29.9666 35.9046 29.4275C35.3654 28.8883 35.0625 28.157 35.0625 27.3945V21.6445C35.0625 20.882 35.3654 20.1508 35.9046 19.6116C36.4437 19.0724 37.175 18.7695 37.9375 18.7695C38.7 18.7695 39.4313 19.0724 39.9704 19.6116C40.5096 20.1508 40.8125 20.882 40.8125 21.6445V27.3945Z" stroke="#00263E" stroke-width="2" stroke-linecap="round" stroke-linejoin="round"/>
<path d="M23.5625 47.5195C23.5625 48.282 23.2596 49.0133 22.7204 49.5525C22.1813 50.0916 21.45 50.3945 20.6875 50.3945C19.925 50.3945 19.1937 50.0916 18.6546 49.5525C18.1154 49.0133 17.8125 48.282 17.8125 47.5195V41.7695C17.8125 41.007 18.1154 40.2758 18.6546 39.7366C19.1937 39.1974 19.925 38.8945 20.6875 38.8945C21.45 38.8945 22.1813 39.1974 22.7204 39.7366C23.2596 40.2758 23.5625 41.007 23.5625 41.7695V47.5195Z" stroke="#00263E" stroke-width="2" stroke-linecap="round" stroke-linejoin="round"/>
</svg>
