<svg width="19" height="23" viewBox="0 0 19 23" fill="none" xmlns="http://www.w3.org/2000/svg">
<path d="M9.21094 0C9.64062 0 9.98828 0.136719 10.2539 0.410156C10.5273 0.683594 10.6641 1.04297 10.6641 1.48828V15.3867L10.5117 19.4531L9.64453 18.9609L13.3477 14.7773L15.9961 12.1523C16.1289 12.0195 16.2812 11.9141 16.4531 11.8359C16.6328 11.7578 16.8281 11.7188 17.0391 11.7188C17.4375 11.7188 17.7695 11.8516 18.0352 12.1172C18.3008 12.3828 18.4336 12.7188 18.4336 13.125C18.4336 13.5156 18.2812 13.8672 17.9766 14.1797L10.3008 21.8789C10.1602 22.0195 9.99219 22.1289 9.79688 22.207C9.60938 22.2852 9.41406 22.3242 9.21094 22.3242C9.01562 22.3242 8.82031 22.2852 8.625 22.207C8.4375 22.1289 8.27344 22.0195 8.13281 21.8789L0.457031 14.1797C0.152344 13.8672 0 13.5156 0 13.125C0 12.7188 0.132812 12.3828 0.398438 12.1172C0.664062 11.8516 0.996094 11.7188 1.39453 11.7188C1.60547 11.7188 1.79688 11.7578 1.96875 11.8359C2.14062 11.9141 2.29297 12.0195 2.42578 12.1523L5.07422 14.7773L8.76562 18.9609L7.91016 19.4531L7.75781 15.3867V1.48828C7.75781 1.04297 7.89062 0.683594 8.15625 0.410156C8.42969 0.136719 8.78125 0 9.21094 0Z" fill="#0072CE"/>
</svg>
