<svg width="726" height="829" viewBox="0 0 726 829" fill="none" xmlns="http://www.w3.org/2000/svg">
<path d="M161.144 189.84C-16.4642 297.962 -36.1669 503.717 51.9878 624.173C108.373 701.218 323.446 820.912 579.118 664.355C827.688 512.147 696.141 299.595 645.381 222.621C584.867 130.863 410.052 38.271 161.126 189.84H161.144Z" fill="#D0E2F3"/>
<path d="M487.953 237.227C487.953 237.227 503.313 227.607 516.484 232.772C529.654 237.937 527.661 248.87 527.661 248.87" stroke="#2D3B4F" stroke-width="4.31437" stroke-miterlimit="10" stroke-linecap="round"/>
<path opacity="0.5" d="M537.77 85.3742C537.77 85.3742 547.096 113.487 485.283 105.998C472.806 104.489 474.088 100.3 474.088 100.3C460.045 96.5555 495.196 87.8412 495.196 87.8412L522.588 80.1562L537.752 85.3565L537.77 85.3742Z" fill="#0A253C"/>
<path d="M481.137 69.8086L485.284 80.1913C487.224 124.207 493.489 183.184 475.745 204.233C467.433 214.101 450.346 214.101 450.346 214.101C436.25 221.768 439.294 245.249 427.351 266.032C427.351 266.032 363.865 223.348 352.99 211.155C342.115 198.962 337.595 187.674 337.595 187.674C337.595 187.674 346.654 161.478 347.562 139.364C348.469 117.232 341.671 85.1785 341.671 85.1785C341.671 85.1785 410.496 69.8263 411.867 69.8263H481.12L481.137 69.8086Z" fill="white"/>
<path d="M395.758 80.1906C395.758 80.1906 383.121 109.99 373.172 118.58C363.205 127.152 361.247 131.572 361.247 131.572C361.247 131.572 348.415 118.757 339.142 126.886C329.851 135.015 346.688 153.437 346.688 153.437L351.654 158.62C351.654 158.62 350.017 167.902 345.193 175.161L342.63 181.337L337.647 187.656L321.575 227.305L302.762 229.293C261.987 235.097 268.946 229.009 266.774 228.973C251.379 148.202 315.168 106.671 315.168 106.671L320.561 109.333C320.561 109.333 333.108 101.542 353.398 95.1346C373.688 88.7275 395.776 80.1729 395.776 80.1729L395.758 80.1906Z" fill="#225597"/>
<path d="M522.591 256.342L523.409 220.1C523.409 219.479 523.018 218.929 522.43 218.751C520.811 218.272 517.447 217.545 513.709 218.503C513.14 218.645 512.748 219.177 512.713 219.763L510.684 254.425L522.591 256.36V256.342Z" fill="#272E3F"/>
<path d="M219.948 697.242H197.487C193.962 697.242 191.506 700.756 192.734 704.04L199.996 723.651L249.991 734.762L219.948 697.242Z" fill="#171C26"/>
<path d="M262.717 614.02L329.086 742.268C329.086 742.268 432.654 746.155 482.169 710.286C531.684 674.417 460.473 609.246 451.129 609.672C441.785 610.116 262.717 614.003 262.717 614.003V614.02Z" fill="#0A253C"/>
<path d="M577.943 329.002C577.943 329.002 567.674 280.088 564.844 277.639C562.708 275.776 553.435 269.227 549.092 266.192C547.633 265.162 546.369 263.902 545.355 262.429C542.24 257.903 535.014 247.84 532.024 247.024C528.144 245.977 510.684 254.407 510.684 254.407L528.891 275.651L514.368 299.452L523.409 308.769C523.409 308.769 528.144 313.189 528.482 319.17C528.838 325.151 529.425 336.758 529.425 336.758C529.425 336.758 559.896 357.524 560.946 357.169C561.996 356.814 581.058 346.254 581.058 346.254L577.925 329.002H577.943Z" fill="white"/>
<path d="M507.94 265.713L524.172 259.945C525.828 259.359 527.661 259.43 529.245 260.157L542.095 266.014" stroke="#C3D6ED" stroke-width="6.47156" stroke-miterlimit="10" stroke-linecap="round"/>
<path d="M523.407 272.386L545.869 281.704" stroke="#C3D6ED" stroke-width="6.47156" stroke-miterlimit="10" stroke-linecap="round"/>
<path d="M518.676 284.011L545.871 293.045" stroke="#C3D6ED" stroke-width="6.47156" stroke-miterlimit="10" stroke-linecap="round"/>
<path d="M570.538 447.028C610.673 351.063 576.785 323.643 576.785 323.643C576.785 323.643 580.523 341.71 567.708 344.585C550.622 348.437 529.424 336.741 529.424 336.741L526.007 410.289L570.538 447.028Z" fill="#0A253C"/>
<path d="M343.845 211.298C343.845 211.298 238.782 230.466 203.328 260.017C167.873 289.585 70.1968 479.597 66.1922 511.277C62.1698 542.94 105.669 607.703 142.458 640.076C179.247 672.448 240.134 742.128 240.134 742.128C240.134 742.128 268.238 738.613 282.957 716.091C297.676 693.569 299.011 682.316 299.011 682.316L326.438 702.017C326.438 702.017 365.096 713.961 425.877 723.687C464.872 729.917 540.355 688.12 540.355 688.12C548.524 667.603 553.686 634.396 555.448 621.617C555.91 618.245 555.252 614.838 553.543 611.892L547.866 601.988C545.943 598.634 545.356 594.676 546.21 590.913L574.705 466.854C576.005 461.21 575.471 455.282 573.193 449.957C546.299 387.04 529.444 336.742 529.444 336.742L527.184 332.323L486.551 283.728L343.862 211.298H343.845Z" fill="#2D3B4F"/>
<path d="M238.386 264.47C238.172 262.979 235.147 260.956 231.641 259.979C228.134 259.003 225.447 259.412 225.66 260.902C225.874 262.393 228.9 264.417 232.406 265.393C235.912 266.369 238.6 265.961 238.386 264.47Z" fill="#E2B745"/>
<path d="M250.618 256.627C250.404 255.136 247.378 253.113 243.872 252.137C240.366 251.161 237.678 251.569 237.892 253.06C238.105 254.55 241.131 256.574 244.637 257.55C248.144 258.526 250.831 258.118 250.618 256.627Z" fill="#E2B745"/>
<path d="M203.057 476.721L190.332 512.341C188.516 517.417 189.673 523.097 193.34 527.055L203.485 538.041C205.371 540.082 206.617 542.62 207.115 545.335L212.829 577.406C213.078 578.773 214.27 579.784 215.676 579.784C217.225 579.784 218.488 578.578 218.56 577.033C218.88 569.845 219.574 550.553 218.435 544.128C217.029 536.16 206.208 519.263 204.321 498.143C202.434 477.023 203.075 476.703 203.075 476.703L203.057 476.721Z" fill="#C3D6ED"/>
<path d="M473.91 379.904C473.91 379.904 507.317 465.308 510.147 516.92C512.977 568.532 527.554 629.994 517.213 637.04C506.855 644.086 493.577 635.638 497.404 653.457C501.213 671.294 512.034 690.053 517.213 697.099" stroke="#171C26" stroke-width="8.62875" stroke-miterlimit="10" stroke-linecap="round"/>
<path d="M552.133 309.639C548.876 309.817 545.619 309.249 543.59 308.787C542.683 308.574 541.882 309.444 542.184 310.332C543.039 312.887 544.694 317.023 546.83 318.442" stroke="#C3D6ED" stroke-width="6.47156" stroke-miterlimit="10" stroke-linecap="round"/>
<path d="M299.204 246.775L300.771 246.367C270.158 250.484 250.775 268.942 244.19 276.237C242.624 277.976 240.079 278.455 237.961 277.444L212.456 265.215C210.765 264.399 210.427 262.145 211.797 260.885C216.585 256.536 227.157 247.769 240.791 241.646C259.603 233.197 276.85 229.506 276.85 229.506" stroke="#CEB84D" stroke-width="8.62875" stroke-miterlimit="10" stroke-linecap="round"/>
<path d="M302.639 758.687L298.741 784.723L291.105 792.816" stroke="white" stroke-width="4.31437" stroke-miterlimit="10"/>
<path d="M282.174 773.451V787.525" stroke="white" stroke-width="4.31437" stroke-miterlimit="10"/>
<path d="M258.874 266.369V272.812C258.874 274.569 259.461 276.29 260.529 277.692L326.294 363.611C327.451 365.12 329.622 365.422 331.153 364.286L358.971 343.485C361.125 341.87 362.709 339.598 363.456 337.025L364.667 332.871L331.17 350.708L258.91 266.387L258.874 266.369Z" fill="#171C26"/>
<path d="M293.99 242.711L246.736 178.942C246.256 178.303 245.437 178.002 244.654 178.179C242.536 178.658 238.353 180.131 235.452 184.586C234.989 185.314 234.989 186.237 235.505 186.929L280.926 248.107L293.99 242.711Z" fill="#272E3F"/>
<path d="M276.634 254.265L269.515 245.001C268.75 243.989 267.29 243.811 266.293 244.592L259.851 249.597C258.854 250.361 258.676 251.798 259.441 252.792L268.251 264.311L276.652 254.283L276.634 254.265Z" fill="#272E3F"/>
<path d="M507.872 295.919L509.919 357.15L530.6 367.338L524.923 368.704C523.766 368.988 522.556 368.935 521.417 368.58L506.235 363.717C504.081 363.025 502.639 361.019 502.693 358.765L503.921 299.788L507.872 295.937V295.919Z" fill="#171C26"/>
<path d="M530.6 367.339L509.474 360.151C507.908 359.618 506.857 358.127 506.875 356.477L507.854 295.902L526.542 301.262C529.693 302.167 531.846 305.06 531.775 308.344L530.582 367.321L530.6 367.339Z" fill="#272E3F"/>
<path d="M204.072 483.944C204.072 483.944 218.4 544.146 329.069 606.229" stroke="#171C26" stroke-width="8.62875" stroke-miterlimit="10" stroke-linecap="round"/>
<path d="M195.976 493.315C194.801 494.859 192.416 495.321 191.063 493.919C148.775 450.347 100.755 436.574 95.291 439.361C93.2086 440.426 91.6602 442.573 90.7525 444.082C90.4143 444.668 89.5244 444.455 89.4532 443.798C89.204 441.349 89.4532 436.592 92.9417 429.457C137.508 337.983 180.082 285.431 192.327 271.197C194.356 268.837 197.738 268.144 200.55 269.493L234.989 286.105C238.674 287.88 240.525 292.069 239.35 295.991C234.544 311.947 222.958 352.217 221.178 374.953C218.918 403.74 224.026 432.404 223.581 447.969C223.331 456.985 202.739 484.477 195.94 493.333L195.976 493.315Z" fill="#272E3F" stroke="#171C26" stroke-width="8.62875" stroke-miterlimit="10" stroke-linecap="round"/>
<path d="M153.011 337.432L156.161 338.674C157.994 339.402 158.724 340.112 157.389 342.348C156.072 344.584 154.88 344.584 153.064 343.874L151.8 343.377L150.715 345.205L148.828 344.46L152.993 337.432H153.011ZM153.972 342.401C154.381 342.561 154.88 342.703 155.502 341.62C156.125 340.538 155.68 340.325 155.271 340.165L154.007 339.668L152.69 341.886L153.972 342.383V342.401Z" fill="#E2B745"/>
<path d="M157.441 343.501C159.275 340.413 160.965 340.413 163.083 341.247C165.201 342.082 166.251 343.146 164.418 346.217C162.585 349.287 160.894 349.323 158.758 348.489C156.623 347.654 155.608 346.572 157.423 343.501H157.441ZM162.282 345.738L162.603 345.187C163.386 343.856 163.315 343.288 162.122 342.827C160.93 342.366 160.378 342.649 159.577 343.981L159.257 344.531C158.474 345.862 158.527 346.483 159.702 346.945C160.876 347.406 161.481 347.051 162.282 345.738Z" fill="#E2B745"/>
<path d="M167.373 343.075L169.259 343.821L166.02 349.287L169.206 350.547L168.28 352.109L163.208 350.121L167.373 343.093V343.075Z" fill="#E2B745"/>
<path d="M173.229 345.365L175.134 346.111L170.969 353.139L169.064 352.394L173.229 345.365Z" fill="#E2B745"/>
<path d="M177.214 348.931L174.954 348.044L175.915 346.429L182.323 348.949L181.361 350.564L179.101 349.677L175.897 355.09L174.011 354.344L177.214 348.931Z" fill="#E2B745"/>
<path d="M183.109 349.252L185.014 349.997L180.849 357.026L178.944 356.28L183.109 349.252Z" fill="#E2B745"/>
<path d="M186.168 350.459L191.24 352.447L190.279 354.062L187.093 352.802L186.452 353.884L189.015 354.896L188.054 356.511L185.491 355.499L184.815 356.653L188.001 357.913L187.075 359.475L182.003 357.487L186.168 350.459Z" fill="#E2B745"/>
<path d="M193.094 355.163L190.834 354.275L191.795 352.66L198.202 355.18L197.241 356.795L194.981 355.908L191.777 361.321L189.891 360.576L193.094 355.163Z" fill="#E2B745"/>
<path d="M185.49 307.12L208.432 315.409C208.432 315.409 200.618 326.182 195.261 329.749C188.818 334.026 180.257 335.925 180.257 335.925C180.257 335.925 174.971 326.359 179.528 317.592C184.084 308.824 185.472 307.12 185.472 307.12H185.49Z" fill="#CE5935"/>
<path d="M180.187 335.941L180.152 335.87C180.152 335.87 176.432 329.782 177.909 322.079C178.853 317.181 185.438 307.207 185.509 307.118L185.616 306.958L208.558 315.246L208.451 315.406C208.38 315.513 201.474 325.363 196.704 328.877C189.193 334.414 180.383 335.905 180.294 335.923H180.205L180.187 335.941ZM185.669 307.331C184.904 308.484 179.084 317.518 178.194 322.079C176.806 329.267 179.974 334.982 180.365 335.657C181.344 335.479 189.496 333.864 196.508 328.7C200.94 325.434 207.276 316.578 208.095 315.442L185.669 307.331Z" fill="#E2B745"/>
<path d="M194.71 314.36L193.927 313.969C193.678 313.845 193.589 313.685 193.589 313.685C193.517 313.65 193.393 313.721 193.375 313.792C193.375 313.792 193.571 314.005 193.784 314.129L194.745 314.573V314.342L194.71 314.36Z" fill="#E2B745"/>
<path d="M188.873 311.023C188.873 311.023 187.894 310.615 187.556 310.1C187.2 309.55 186.773 308.609 186.773 308.609C186.773 308.609 185.936 309.692 185.651 310.473C185.349 311.289 185.188 312.532 185.188 312.532C185.188 312.532 185.705 312.319 186.648 312.017C187.591 311.715 188.25 312.017 188.25 312.017L189.282 312.39L189.941 311.414L188.89 311.041L188.873 311.023Z" fill="#E2B745"/>
<path d="M201.065 304.422C201.065 304.422 201.243 304.546 201.474 304.635C201.705 304.724 202.026 304.777 202.026 304.777L200.798 306.356C200.798 306.356 200.673 306.214 200.459 306.143C200.246 306.072 200.032 306.09 200.032 306.09L201.047 304.44L201.065 304.422Z" fill="#E2B745"/>
<path d="M191.42 303.357C191.42 303.357 191.295 303.233 191.135 303.179C190.975 303.126 190.797 303.108 190.797 303.108C190.797 303.108 191.206 301.795 191.829 301.351C192.292 301.014 193.271 301.227 194.09 301.493C195.157 301.83 196.421 302.363 196.421 302.363C196.421 302.363 196.261 302.434 196.154 302.54C196.047 302.647 195.958 302.736 195.958 302.736C195.958 302.736 194.855 302.256 194.321 302.097C193.787 301.937 192.915 301.724 192.559 301.848C192.256 301.955 192.061 302.185 191.883 302.505C191.687 302.878 191.438 303.375 191.438 303.375L191.42 303.357Z" fill="#E2B745"/>
<path d="M196.047 304.795C196.047 304.795 195.958 304.724 195.833 304.688C195.513 304.582 195.175 304.653 195.175 304.653C195.175 304.653 195.744 303.055 196.421 302.576C196.812 302.292 197.631 302.47 198.645 302.878C199.66 303.286 200.87 304.316 200.87 304.316L200.692 304.564C200.692 304.564 199.642 303.765 198.788 303.428C197.862 303.055 197.542 303.02 197.275 303.126C196.937 303.268 196.688 303.641 196.527 303.907C196.332 304.262 196.047 304.795 196.047 304.795Z" fill="#E2B745"/>
<path d="M209.041 309.709C209.041 309.709 209.237 309.709 209.415 309.763C209.575 309.816 209.7 309.922 209.7 309.922C209.7 309.922 210.892 308.893 211.017 308.254C211.106 307.775 210.269 307.349 209.486 307.029C208.472 306.621 207.101 306.195 207.101 306.195C207.101 306.195 207.119 306.32 207.066 306.462C207.012 306.586 206.959 306.692 206.959 306.692C206.959 306.692 208.169 307.047 208.668 307.26C209.166 307.473 209.931 307.846 210.002 308.13C210.074 308.378 209.949 308.627 209.7 308.911C209.415 309.248 209.024 309.692 209.024 309.692L209.041 309.709Z" fill="#E2B745"/>
<path d="M204.699 307.901C204.699 307.901 204.824 307.901 204.948 307.954C205.268 308.061 205.393 308.309 205.393 308.309C205.393 308.309 206.764 307.031 206.87 306.339C206.941 305.931 206.265 305.576 205.197 305.221C204.129 304.884 202.296 304.795 202.296 304.795L202.118 305.043C202.118 305.043 203.613 305.168 204.521 305.469C205.482 305.789 205.713 305.949 205.767 306.179C205.82 306.463 205.553 306.854 205.357 307.12C205.09 307.493 204.717 307.901 204.717 307.901H204.699Z" fill="#E2B745"/>
<path d="M194.676 310.402L205.728 314.395L209.751 310.366C209.626 310.153 209.27 309.994 209.27 309.994C209.27 309.994 208.861 309.798 208.487 310.047C208.024 310.366 208.256 310.97 208.256 310.97L207.775 311.2C207.775 311.2 207.757 310.597 207.419 310.366C207.277 310.278 206.868 310.278 206.458 310.863C206.12 311.342 206.12 311.591 206.44 311.68C206.796 311.786 207.704 311.431 207.704 311.431L207.651 311.786L206.351 312.656C206.351 312.656 205.604 312.674 204.714 312.336C203.361 311.822 203.397 311.555 203.397 311.555L203.539 310.295L203.895 310.047C203.895 310.047 204.055 310.774 204.376 310.934C204.661 311.076 204.945 310.899 205.284 310.437C205.657 309.905 205.479 309.621 205.23 309.585C204.821 309.532 204.127 309.887 204.127 309.887L204.091 309.461C204.091 309.461 204.892 309.248 205.07 308.875C205.337 308.378 204.714 308.13 204.714 308.13C204.714 308.13 204.162 307.935 203.753 308.29C203.344 308.645 203.646 309.301 203.646 309.301L203.166 309.532C203.166 309.532 203.13 308.893 202.792 308.698C202.685 308.627 202.276 308.574 201.831 309.23C201.528 309.692 201.528 309.923 201.831 310.029C202.187 310.136 203.094 309.781 203.094 309.781L203.041 310.136L201.759 310.987C201.759 310.987 201.457 311.183 200.229 310.721H200.193C198.93 310.278 198.93 310.047 198.93 310.047L199.054 308.627L199.446 308.378C199.446 308.378 199.553 309.142 199.873 309.284C200.175 309.408 200.514 309.284 200.87 308.84C201.297 308.29 201.101 307.935 200.834 307.899C200.425 307.846 199.606 308.165 199.606 308.165V307.793C199.606 307.793 200.603 307.473 200.727 307.012C200.834 306.586 200.318 306.391 200.318 306.391C200.318 306.391 199.748 306.231 199.392 306.533C198.965 306.888 199.197 307.651 199.197 307.651L198.805 307.882C198.805 307.882 198.645 307.154 198.324 306.994C198.111 306.888 197.63 307.047 197.363 307.491C197.007 308.041 197.096 308.307 197.417 308.414C197.755 308.52 198.68 308.112 198.68 308.112L198.645 308.485L197.185 309.426C197.185 309.426 197.043 309.603 195.637 309.088C194.391 308.645 194.427 308.361 194.427 308.361L194.587 307.101L194.943 306.852C194.943 306.852 195.103 307.598 195.423 307.74C195.708 307.864 195.993 307.722 196.295 307.26C196.74 306.604 196.438 306.408 196.295 306.373C195.868 306.302 195.156 306.675 195.156 306.675L195.121 306.249C195.121 306.249 196.011 306.018 196.153 305.574C196.295 305.131 195.744 304.935 195.744 304.935C195.744 304.935 195.103 304.722 194.729 305.184C194.444 305.521 194.694 306.107 194.694 306.107L194.213 306.337C194.213 306.337 194.177 305.716 193.875 305.521C193.679 305.397 193.27 305.468 192.914 306C192.593 306.479 192.576 306.746 192.914 306.834C193.27 306.923 194.16 306.568 194.16 306.568L194.106 306.941L192.825 307.793C192.825 307.793 192.558 307.97 191.17 307.491C190.262 307.189 189.835 306.728 189.835 306.728L189.995 305.45L190.351 305.202C190.351 305.202 190.511 305.947 190.831 306.089C191.134 306.213 191.383 306.071 191.721 305.574C192.113 304.989 191.881 304.74 191.686 304.722C191.241 304.669 190.564 305.024 190.564 305.024L190.529 304.598C190.529 304.598 191.33 304.367 191.401 303.906C191.454 303.533 190.992 303.409 190.992 303.409C190.992 303.409 190.6 303.302 190.297 303.356L188.357 308.13L199.392 312.123" fill="#E2B745"/>
<path d="M203.895 301.156C202.916 300.801 201.634 301.263 201.011 302.168C200.389 303.073 200.673 304.102 201.652 304.457C202.631 304.812 203.913 304.351 204.536 303.446C205.158 302.54 204.874 301.511 203.895 301.156Z" fill="#E2B745"/>
<path d="M204.428 301.173L205.211 300.02L206.154 300.357L206.688 299.576L205.727 299.221L206.386 298.263L205.532 297.961L204.873 298.919L203.912 298.564L203.378 299.345L204.321 299.683L203.52 300.854C203.68 300.872 203.858 300.907 204.001 300.96C204.143 301.014 204.286 301.085 204.41 301.173H204.428Z" fill="#E2B745"/>
<path d="M195.315 303.782C195.315 303.782 194.55 303.64 193.428 303.676C192.378 303.711 191.577 303.906 191.577 303.906C191.577 303.906 191.524 304.102 191.399 304.208C191.399 304.208 192.378 303.942 193.446 303.924C194.443 303.906 195.19 304.031 195.19 304.031L195.315 303.782Z" fill="#E2B745"/>
<path d="M196.67 304.085L196.527 304.333C196.527 304.333 198.45 304.795 200.158 305.381L200.318 305.15C199.304 304.795 197.417 304.262 196.67 304.085Z" fill="#E2B745"/>
<path d="M206.19 307.74C206.19 307.74 206.831 308.077 207.471 308.752C208.077 309.391 208.29 309.888 208.29 309.888C208.29 309.888 208.112 310.012 208.059 310.136C208.059 310.136 207.792 309.515 207.187 308.894C206.617 308.308 205.994 307.953 205.994 307.953L206.19 307.74Z" fill="#E2B745"/>
<path d="M205.051 307.119L204.855 307.349C204.855 307.349 203.147 306.497 201.474 305.876L201.652 305.646C202.648 306.018 204.41 306.799 205.051 307.136V307.119Z" fill="#E2B745"/>
<path d="M196.688 314.057L196.367 313.88C196.367 313.88 196.261 314.057 196.296 314.093C196.296 314.093 196.474 314.182 196.528 314.182C196.581 314.182 196.688 314.057 196.688 314.057ZM203.469 316.329C202.401 315.956 201.671 316.01 200.817 316.649C200.479 316.897 200.372 317.217 200.034 317.536C199.998 317.572 199.553 317.82 199.162 318.015C198.841 318.175 197.969 318.92 197.969 318.92H198.094L199.429 318.459L199.18 318.92C199.18 318.92 198.485 319.24 197.542 319.684C196.937 319.968 195.833 320.695 195.495 320.997L195.745 321.032C195.745 321.032 196.528 320.624 198.218 320.234C198.77 320.11 199.642 319.95 200.034 319.595C200.425 319.258 200.621 318.796 200.621 318.796C200.621 318.796 200.764 319.133 200.621 319.559C200.479 319.968 200.212 320.269 200.212 320.269C200.212 320.269 201.173 319.506 201.44 318.991C201.831 318.228 201.743 317.998 201.44 317.785C201.369 317.731 201.031 317.607 201.031 317.607C201.031 317.607 201.333 316.684 202.401 316.72C203.149 316.755 203.896 316.986 203.878 317.944C203.843 318.956 202.899 319.843 202.134 320.181C201.315 320.536 200.016 320.961 197.845 321.387C196.278 321.689 194.766 322.293 194.232 323.322C193.573 324.635 193.644 326.517 193.662 327.457C193.662 328.398 193.324 329.41 192.398 329.889C191.526 330.333 190.263 330.208 189.871 329.481C189.569 328.895 189.604 327.564 190.031 325.913C190.369 324.547 190.263 323.677 190.263 323.677L193.164 319.595L193.377 319.843C193.377 319.843 193.698 319.453 194.036 319.187C194.481 318.832 195.531 318.335 196.421 317.66C197.311 316.986 198.058 315.868 198.058 315.868C198.058 315.868 198.432 315.761 198.681 315.619L198.948 315.247L198.752 314.909L200.087 314.182C199.998 314.093 199.607 314.111 199.607 314.111C199.607 314.111 199.553 313.685 199.162 313.933C198.859 314.128 199.091 314.306 199.091 314.306L198.841 314.43L198.236 314.004L198.343 313.738C198.343 313.738 198.539 314.057 198.841 313.773C199.108 313.525 198.735 313.401 198.735 313.401C198.735 313.401 198.984 313.241 198.735 313.046C198.485 312.851 198.325 313.099 198.325 313.099C198.325 313.099 198.147 312.797 197.88 313.046C197.631 313.294 197.951 313.419 197.951 313.419L197.613 313.543L197.008 313.17L197.079 312.904C197.079 312.904 197.471 313.046 197.613 312.726C197.791 312.354 197.293 312.425 197.293 312.425C197.293 312.425 197.329 312.176 197.062 312.158L196.474 313.223L198.521 314.625H198.183L196.314 313.348L195.228 313.578L194.944 314.146L195.015 314.696L194.392 315.051L195.46 315.566L195.139 315.797C195.139 315.797 194.588 315.655 193.555 315.548C193.288 315.513 191.188 315.921 190.53 316.134C190.156 316.258 189.782 316.542 189.782 316.542L188.643 315.105L188.768 314.75L188.323 314.714L188.073 314.341C188.073 314.341 188.714 314.075 189.159 313.702C189.497 313.419 189.604 312.868 189.604 312.868L189.515 312.726L189.088 313.312H188.572L187.878 313.862L187.807 313.738L189.853 310.721L189.284 310.508L187.451 313.206C187.451 313.206 187.451 313.117 187.077 312.939C186.703 312.762 186.258 312.797 186.258 312.797L186.027 312.904L186.614 313.206L186.472 313.632L186.934 313.986L186.703 314.324C186.703 314.324 186.489 314.182 185.991 314.324C185.404 314.501 185.012 314.856 185.012 314.856L184.941 315.034C185.101 314.963 185.493 314.75 185.564 314.785C185.76 314.927 185.813 314.945 185.902 315.105L186.24 315.016L183.41 319.169C183.41 319.169 183.161 318.956 182.894 318.938C182.734 318.938 182.556 318.903 182.414 318.92L182.2 319.062C182.2 319.062 182.698 319.116 182.77 319.293C182.823 319.453 182.698 319.524 182.698 319.666C182.698 319.737 182.823 319.843 182.805 319.95L182.342 320.624L181.666 321.032L181.453 321.299L182.111 321.121L181.132 322.559L181.702 322.772L182.627 321.423L182.859 321.547L184.087 321.068C184.087 321.068 184.478 321.21 184.46 321.423C184.46 321.565 184.265 321.76 184.265 321.884C184.318 321.955 184.371 322.009 184.371 322.009L190.903 319.169L188.216 320.34L188.002 321.174L188.216 322.168L187.54 323.606L185.172 323.748C185.172 323.748 184.745 324.067 184.158 324.706C183.553 325.345 183.126 325.86 183.126 325.86L182.876 326.481L180.812 325.47L181.025 324.848C181.025 324.848 181.506 324.635 181.986 324.316C182.467 323.979 182.592 323.357 182.592 323.357L182.556 323.162L182.075 323.766L181.648 323.712L181.114 324.334L180.919 324.245C180.919 324.245 181.043 323.783 180.776 323.357C180.509 322.914 179.94 322.861 179.94 322.861L179.779 322.932L180.313 323.357L179.922 323.73L180.474 324.28L180.278 324.405L179.513 324.263L179.281 324.458L178.658 324.192V324.334C178.658 324.334 178.783 324.689 179.263 324.866C179.744 325.044 180.171 324.955 180.171 324.955L180.011 325.7L179.441 325.895L179.477 326.055L179.815 326.144L181.951 327.528L182.164 328.079L183.197 328.025C183.197 328.025 183.446 327.653 183.748 327.511C183.944 327.404 184.3 327.244 184.532 327.12C184.532 327.12 184.585 326.357 184.603 326.197C184.656 325.771 185.261 324.866 185.404 324.724C185.777 324.334 187.878 323.748 187.878 323.748L188.768 323.145L188.892 323.287L187.967 323.943C186.65 324.263 185.689 324.706 185.546 324.866C185.457 324.973 184.87 325.842 184.834 326.215C184.834 326.375 184.763 327.031 184.763 327.031C184.763 327.031 184.799 327.617 185.012 328.256C185.208 328.895 185.261 329.268 185.083 329.711C184.816 330.404 184.211 331.397 183.695 332.125C183.482 332.427 183.321 332.693 183.321 332.693L182.698 332.622C182.698 332.622 182.77 331.77 182.627 331.61C182.325 331.273 182.058 331.007 182.058 331.007H181.826L182.058 331.539L181.631 332.054L182.075 332.764C182.075 332.764 181.559 332.764 181.346 332.693C180.901 332.533 180.1 333.083 180.1 333.083L179.993 333.225L180.652 333.154L180.919 333.509L181.897 333.243L181.951 333.385C181.951 333.385 181.542 333.793 181.364 334.166C181.203 334.539 181.239 335 181.239 335L181.417 335.107L181.684 334.397L182.307 334.219L182.538 333.545L183.357 333.385L183.624 333.953L183.748 333.9C184.265 332.959 185.973 330.971 185.973 330.971C185.973 330.971 186.4 330.829 186.561 330.634C186.703 330.475 186.97 330.049 187.023 329.907C186.97 329.729 187.077 329.356 187.077 329.356C187.077 329.356 187.486 328.327 188.269 327.315C188.447 327.085 188.607 326.854 188.75 326.641C188.75 326.907 188.696 328.025 188.803 328.788C188.999 330.137 189.942 330.723 190.672 330.776C193.502 330.989 194.356 328.664 194.356 328.664C194.89 326.197 195.3 325.913 195.3 325.913L197.293 325.842L197.329 325.736L196.723 325.558L196.136 325.186L195.691 325.026L195.833 324.795L198.717 324.671L198.752 324.547L198.29 324.44L197.507 323.925L196.617 323.801L196.955 323.464L200.247 323.287C200.247 323.287 199.731 323.233 199.5 322.967C199.429 322.896 199.091 322.665 199.019 322.648C198.735 322.559 198.414 322.541 198.414 322.541C198.414 322.541 199.144 322.08 200.425 321.689C201.707 321.299 203.807 320.252 204.359 318.849C204.911 317.447 204.466 316.755 203.487 316.418L203.469 316.329ZM198.058 315.069H198.414L198.539 315.247L198.379 315.442L198.005 315.548L198.094 315.3L198.04 315.069H198.058ZM196.332 313.632L197.453 314.377L197.364 314.59C197.257 314.466 196.83 314.182 196.83 314.182C196.617 314.377 196.51 314.377 196.439 314.377C196.403 314.377 196.172 314.324 196.1 314.235C195.994 314.111 196.172 313.844 196.172 313.844C195.958 313.827 195.745 313.88 195.745 313.88V313.738L196.332 313.614V313.632ZM195.264 314.856L195.371 314.519L196.225 314.945L196.1 315.282L195.282 314.856H195.264ZM183.731 320.589C183.588 320.82 183.019 320.837 183.019 320.837L183.428 320.234C183.428 320.234 183.873 320.358 183.731 320.589ZM184.959 320.553L184.71 320.127L185.333 319.187V318.175L185.155 318.122L185.066 318.725L184.496 319.08L184.354 319.737L184.033 319.843L183.962 319.329L187.166 314.625L187.451 315.016L187.095 315.247L187.237 315.513H187.504L188.607 317.802L188.145 318.228L188.821 318.406L184.941 320.553H184.959ZM189.835 317.501L189.729 317.359C189.96 317.199 191.081 316.524 191.366 316.489C191.615 316.453 192.381 316.649 192.843 316.773L192.737 316.95C192.737 316.95 191.669 316.649 191.366 316.684C191.153 316.702 189.853 317.501 189.853 317.501H189.835Z" fill="#E2B745"/>
<path d="M212.457 316.667L211.211 316.223L213.418 314.431L214.593 309.958L210.41 313.348L209.787 315.709L208.523 315.247L208.47 315.318C208.47 315.318 208.345 315.336 208.31 315.389L207.74 316.223L206.904 317.448L194.071 336.297L193.235 337.521L192.63 338.409C192.576 338.48 192.612 338.551 192.683 338.568L194.018 339.047L192.523 341.248C191.188 340.947 189.55 341.585 188.75 342.775L188.518 343.13L167.267 335.445L167.498 335.09C168.299 333.918 168.032 332.587 166.911 331.984L168.406 329.783L169.741 330.262C169.741 330.262 169.901 330.262 169.955 330.191L185.617 307.172C185.617 307.172 185.635 307.03 185.581 307.012L185.617 306.959L184.407 306.515L186.596 304.723L187.771 300.25L183.588 303.64L182.983 306L181.719 305.539C179.441 304.776 176.326 306 174.778 308.272C173.229 310.544 173.746 312.94 175.864 313.898L165.63 328.931L167.107 329.463L165.096 332.427L166.181 332.818C166.911 333.191 167.071 334.007 166.573 334.752L165.701 336.048L188.856 344.407L189.728 343.112C190.102 342.562 191.099 341.834 192.167 342.207L193.199 342.562L195.21 339.598L196.688 340.13L206.922 325.097C209.2 325.772 212.225 324.547 213.738 322.329C215.287 320.057 214.735 317.501 212.51 316.632L212.457 316.667ZM176.148 313.561L176.113 313.543C175.579 313.188 175.49 312.461 175.935 311.804C176.38 311.147 177.27 310.739 177.999 310.863L176.148 313.579V313.561ZM178.16 310.615C177.287 310.437 176.22 310.899 175.668 311.715C175.347 312.195 175.258 312.691 175.383 313.117C174.119 312.088 173.941 310.189 175.134 308.432C176.326 306.675 178.462 305.663 180.349 305.752C179.815 305.929 179.334 306.267 178.996 306.746C178.444 307.562 178.587 308.485 179.334 308.876L178.142 310.615H178.16ZM180.936 306.533L180.1 307.757L179.512 308.609C178.907 308.272 178.8 307.509 179.263 306.817C179.69 306.178 180.473 305.787 181.185 305.841C181.239 305.841 181.31 305.841 181.363 305.876L180.936 306.515V306.533ZM172.126 326.535L172.019 324.53L174.297 323.34L172.126 326.517V326.535ZM180.616 310.757L180.491 307.917L183.802 309.106L180.616 310.757ZM183.766 309.408L183.232 310.207L180.651 311.538V311.023L183.748 309.408H183.766ZM180.491 314.182L179.904 315.034L179.601 308.982L180.189 308.13L180.491 314.182ZM179.405 315.815L178.872 316.614L176.291 317.945V317.43L179.388 315.815H179.405ZM179.619 315.425L176.255 317.164L176.131 314.2L176.166 314.147L179.477 312.425L179.619 315.425ZM176.131 320.589L175.543 321.459L175.258 315.478L175.846 314.626L176.131 320.607V320.589ZM175.081 322.151L174.547 322.968L172.001 324.263L171.966 323.731L175.063 322.151H175.081ZM171.966 323.465L171.806 320.536L175.116 318.815L175.241 321.779L171.948 323.465H171.966ZM175.081 317.767L172.927 318.903L174.992 315.868L175.081 317.767ZM175.098 318.034V318.548L172.108 320.11L172.66 319.294L175.098 318.034ZM171.859 326.872L171.272 327.742L170.934 321.832L171.521 320.962L171.859 326.872ZM170.987 327.955L167.676 326.766L170.845 325.151L170.987 327.955ZM170.773 324.086L168.655 325.186L170.684 322.204L170.791 324.086H170.773ZM170.791 324.352L170.827 324.884L167.837 326.411L168.406 325.594L170.809 324.37L170.791 324.352ZM170.969 328.239L170.453 328.984L166.929 327.706L167.445 326.961L170.969 328.239ZM176.398 320.252L176.309 318.211L178.605 317.004L176.398 320.252ZM180.758 313.845L180.669 311.804L182.965 310.597L180.758 313.845ZM183.802 306.32L185.137 304.368L186.062 304.705L183.997 306.391L183.802 306.32ZM186.952 301.705L186.222 304.456L185.297 304.119L186.952 301.705ZM186.667 301.634L185.03 304.03L184.104 303.693L186.649 301.634H186.667ZM183.962 303.942L184.887 304.279L183.552 306.231L183.392 306.178L183.962 303.959V303.942ZM181.63 305.983L185.225 307.278L184.781 307.917L181.185 306.622L181.63 305.983ZM181.025 306.87L184.62 308.166L184.104 308.911L180.509 307.616L181.025 306.87ZM179.352 309.337L179.441 311.36L177.145 312.567L179.334 309.337H179.352ZM176.433 313.685L176.789 313.135L176.896 312.958L179.459 311.627V312.141L176.415 313.721V313.668L176.433 313.685ZM166.288 332.427L165.701 332.214L167.552 329.499L168.139 329.712L166.288 332.427ZM167.516 329.18L166.235 328.718L166.751 327.955L170.275 329.233L169.759 329.996L168.424 329.517L167.498 329.18H167.516ZM192.149 341.816C190.957 341.532 189.8 342.295 189.319 343.005L188.678 343.928L166.306 335.835L166.947 334.912C167.552 334.025 167.374 333.049 166.537 332.552L166.733 332.268C167.712 332.8 167.943 333.989 167.231 335.036L166.911 335.498C166.911 335.498 166.893 335.64 166.965 335.658L188.465 343.431C188.465 343.431 188.625 343.431 188.678 343.36L188.999 342.899C189.711 341.852 191.152 341.266 192.345 341.532L192.131 341.834L192.149 341.816ZM210.624 316.01L211.958 314.058L212.884 314.395L210.819 316.081L210.624 316.01ZM213.756 311.378L213.044 314.129L212.119 313.792L213.774 311.36L213.756 311.378ZM213.489 311.325L211.869 313.721L210.962 313.384L213.507 311.325H213.489ZM210.766 313.632L211.674 313.969L210.339 315.922L210.161 315.868L210.748 313.65L210.766 313.632ZM206.156 319.028L206.245 321.069L203.949 322.275L206.156 319.028ZM206.263 321.317V321.832L203.166 323.447L203.7 322.648L206.281 321.317H206.263ZM201.796 325.435L201.885 327.476L199.589 328.683L201.796 325.435ZM198.806 329.872L199.339 329.073L201.92 327.742V328.257L198.823 329.872H198.806ZM201.938 328.523L202.063 331.487L198.77 333.173L198.628 330.244L201.938 328.523ZM197.488 331.771L197.595 333.776L195.317 334.965L197.488 331.771ZM194.516 336.155L195.05 335.338L197.595 334.025L197.631 334.539L194.516 336.137V336.155ZM197.649 334.823L197.791 337.628L194.498 336.439L197.649 334.823ZM193.021 342.1L192.416 341.887L194.267 339.154L194.872 339.367L193.021 342.1ZM196.51 339.669L195.228 339.207L195.05 339.136L194.32 338.87L192.986 338.391L193.502 337.628L197.026 338.905L196.51 339.669ZM197.204 338.657L193.68 337.379L194.196 336.634L197.72 337.912L197.204 338.657ZM198.076 337.361L197.738 331.434L198.325 330.564L198.663 336.492L198.076 337.361ZM198.93 336.119L198.841 334.22L200.995 333.102L198.948 336.119H198.93ZM201.244 332.711L198.823 333.954L198.788 333.421L201.813 331.877L201.244 332.694V332.711ZM202.365 331.079L202.08 325.08L202.668 324.228L202.953 330.227L202.365 331.079ZM203.202 329.836L203.113 327.902L205.284 326.766L203.202 329.836ZM205.569 326.358L203.113 327.635V327.121L206.121 325.541L205.569 326.358ZM206.405 325.115L203.077 326.837L202.953 323.837L206.316 322.098L206.441 325.08V325.115H206.405ZM206.779 324.654H206.744L206.459 318.655L207.046 317.785L207.349 323.837L206.815 324.618L206.779 324.654ZM207.313 317.59L210.624 318.797L207.438 320.447L207.313 317.608V317.59ZM207.562 323.518L207.473 321.495L209.751 320.288L207.562 323.518ZM210.036 319.915L207.473 321.246V320.731L210.57 319.116L210.214 319.649L210.036 319.915ZM210.926 318.602L207.331 317.306L207.847 316.561L211.442 317.856L210.926 318.602ZM211.585 317.608L207.989 316.312L208.434 315.673L212.03 316.969L211.585 317.608ZM211.015 318.939L211.852 317.714L212.279 317.075C212.279 317.075 212.386 317.146 212.457 317.164C212.937 317.537 212.991 318.229 212.546 318.85C212.065 319.542 211.158 319.95 210.428 319.791L211.015 318.921V318.939ZM207.26 324.778C207.26 324.778 207.135 324.778 207.064 324.742L208.915 322.027C209.502 322.364 209.627 323.11 209.146 323.802C208.719 324.423 207.954 324.813 207.242 324.778H207.26ZM208.078 324.884C208.595 324.707 209.093 324.37 209.413 323.891C209.965 323.074 209.823 322.151 209.093 321.779L210.268 320.039C211.14 320.252 212.243 319.791 212.813 318.957C213.133 318.477 213.222 317.98 213.098 317.572C214.343 318.619 214.504 320.501 213.329 322.222C212.154 323.944 210.001 324.991 208.096 324.884H208.078Z" fill="#E2B745"/>
<path d="M174.811 333.246L173.743 332.855C173.743 332.855 173.654 332.749 173.69 332.695L174.384 331.684C174.384 331.684 174.527 331.577 174.598 331.613L175.666 332.003C175.666 332.003 175.755 332.11 175.719 332.163L175.025 333.175C175.025 333.175 174.883 333.281 174.811 333.246ZM174.028 332.66L174.847 332.962L175.363 332.198L174.544 331.897L174.028 332.66Z" fill="#E2B745"/>
<path d="M176.004 337.24L174.936 336.849C174.936 336.849 174.847 336.743 174.882 336.689L175.559 335.678C175.559 335.678 175.701 335.571 175.772 335.607L176.84 335.997C176.84 335.997 176.929 336.104 176.894 336.157L176.217 337.169C176.217 337.169 176.075 337.275 176.004 337.24ZM175.238 336.654L176.057 336.956L176.573 336.193L175.755 335.891L175.238 336.654Z" fill="#E2B745"/>
<path d="M173.619 329.234L172.551 328.843C172.551 328.843 172.462 328.737 172.498 328.684L173.174 327.672C173.174 327.672 173.316 327.565 173.388 327.601L174.455 327.991C174.455 327.991 174.544 328.098 174.509 328.151L173.833 329.163C173.833 329.163 173.69 329.269 173.619 329.234ZM172.836 328.648L173.655 328.95L174.171 328.187L173.352 327.885L172.836 328.648Z" fill="#E2B745"/>
<path d="M169.721 334.966L168.654 334.576C168.654 334.576 168.565 334.469 168.6 334.416L169.277 333.404C169.277 333.404 169.419 333.298 169.49 333.333L170.558 333.724C170.558 333.724 170.647 333.83 170.611 333.884L169.935 334.895C169.935 334.895 169.793 335.002 169.721 334.966ZM168.938 334.381L169.757 334.682L170.273 333.919L169.455 333.617L168.938 334.381Z" fill="#E2B745"/>
<path d="M182.286 339.51L181.218 339.12C181.218 339.12 181.129 339.013 181.165 338.96L181.841 337.948C181.841 337.948 181.983 337.842 182.055 337.877L183.122 338.268C183.122 338.268 183.211 338.374 183.176 338.428L182.5 339.439C182.5 339.439 182.357 339.546 182.286 339.51ZM181.503 338.925L182.322 339.226L182.838 338.463L182.019 338.161L181.503 338.925Z" fill="#E2B745"/>
<path d="M187.38 337.789L186.312 337.399C186.312 337.399 186.223 337.293 186.258 337.239L186.953 336.228C186.953 336.228 187.095 336.121 187.166 336.157L188.234 336.547C188.234 336.547 188.323 336.654 188.287 336.707L187.593 337.718C187.593 337.718 187.451 337.825 187.38 337.789ZM186.614 337.204L187.433 337.506L187.949 336.742L187.131 336.441L186.614 337.204Z" fill="#E2B745"/>
<path d="M192.487 336.049L191.419 335.659C191.419 335.659 191.33 335.552 191.366 335.499L192.042 334.487C192.042 334.487 192.185 334.381 192.256 334.416L193.324 334.807C193.324 334.807 193.413 334.913 193.377 334.967L192.701 335.978C192.701 335.978 192.558 336.085 192.487 336.049ZM191.704 335.464L192.523 335.765L193.039 335.002L192.22 334.7L191.704 335.464Z" fill="#E2B745"/>
<path d="M188.59 341.782L187.522 341.391C187.522 341.391 187.433 341.285 187.468 341.231L188.145 340.22C188.145 340.22 188.287 340.113 188.358 340.149L189.426 340.539C189.426 340.539 189.515 340.646 189.48 340.699L188.803 341.711C188.803 341.711 188.661 341.817 188.59 341.782ZM187.807 341.196L188.625 341.498L189.141 340.735L188.323 340.433L187.807 341.196Z" fill="#E2B745"/>
<path d="M178.159 322.26C178.159 322.26 178.159 322.171 178.088 322.153L177.305 321.869C177.305 321.869 177.145 321.869 177.091 321.94L176.415 322.952C176.415 322.952 176.397 323.094 176.468 323.112L177.536 323.502C177.536 323.502 177.697 323.502 177.75 323.431L178.052 322.952C178.088 322.721 178.124 322.508 178.159 322.277V322.26ZM177.554 323.2L176.735 322.899L177.252 322.135L177.821 322.348C177.786 322.544 177.75 322.739 177.75 322.899L177.536 323.2H177.554Z" fill="#E2B745"/>
<path d="M197.24 329.075L196.493 328.809C196.493 328.809 196.386 328.809 196.332 328.844C196.083 329.039 195.816 329.217 195.514 329.448L195.282 329.785C195.282 329.785 195.264 329.927 195.336 329.944L196.404 330.335C196.404 330.335 196.564 330.335 196.617 330.264L197.293 329.252C197.293 329.252 197.311 329.11 197.24 329.093V329.075ZM196.421 330.033L195.603 329.731L195.709 329.572C195.941 329.412 196.172 329.252 196.421 329.075L196.955 329.27L196.439 330.033H196.421Z" fill="#E2B745"/>
<path d="M177.999 330.601L178.266 330.193C178.266 330.193 178.302 330.122 178.284 330.104C178.231 329.838 178.177 329.572 178.124 329.305C178.124 329.27 178.088 329.234 178.053 329.234L177.946 329.199C177.946 329.199 177.928 329.057 177.91 328.968L177.999 328.826C177.999 328.826 178.017 328.773 178.017 328.738C177.981 328.542 177.964 328.329 177.946 328.134C177.946 328.099 177.91 328.063 177.875 328.045L177.198 327.797C177.198 327.797 177.038 327.797 176.985 327.868L176.451 328.649L175.632 328.347C175.632 328.347 175.472 328.347 175.419 328.418L174.742 329.43C174.742 329.43 174.724 329.572 174.796 329.589L175.614 329.891L175.08 330.672C175.08 330.672 175.063 330.814 175.134 330.832L176.202 331.222C176.202 331.222 176.362 331.222 176.415 331.151L176.949 330.37L177.768 330.672C177.768 330.672 177.928 330.672 177.981 330.601H177.999ZM177.839 330.388L177.02 330.086C177.02 330.086 176.86 330.086 176.807 330.157L176.273 330.938L175.454 330.654L175.988 329.873C175.988 329.873 176.006 329.731 175.935 329.714L175.116 329.412L175.632 328.649L176.451 328.95C176.451 328.95 176.611 328.951 176.664 328.88L177.198 328.099L177.679 328.276C177.697 328.454 177.715 328.613 177.75 328.791L177.483 329.181C177.483 329.181 177.465 329.323 177.537 329.341L177.857 329.465C177.892 329.714 177.946 329.944 177.999 330.175L177.839 330.406V330.388Z" fill="#E2B745"/>
<path d="M179.227 333.245C179.227 333.245 179.192 333.192 179.156 333.192L179.014 333.139L179.085 333.032C179.085 333.032 179.12 332.961 179.085 332.926C178.978 332.642 178.871 332.322 178.765 332.003C178.765 331.967 178.729 331.949 178.693 331.932L178.391 331.825C178.391 331.825 178.231 331.825 178.177 331.896L177.643 332.677L176.825 332.375C176.825 332.375 176.664 332.375 176.611 332.446L175.935 333.458C175.935 333.458 175.917 333.6 175.988 333.618L176.807 333.919L176.273 334.7C176.273 334.7 176.255 334.842 176.326 334.86L177.394 335.251C177.394 335.251 177.554 335.251 177.608 335.18L178.142 334.399L178.96 334.7C178.96 334.7 179.12 334.7 179.174 334.629L179.494 334.15C179.494 334.15 179.53 334.079 179.494 334.044C179.387 333.813 179.298 333.565 179.192 333.281L179.227 333.245ZM179.031 334.381L178.213 334.079C178.213 334.079 178.053 334.079 177.999 334.15L177.465 334.931L176.647 334.629L177.18 333.848C177.18 333.848 177.198 333.707 177.127 333.689L176.308 333.387L176.825 332.624L177.643 332.926C177.643 332.926 177.803 332.926 177.857 332.855L178.391 332.074L178.515 332.127C178.604 332.429 178.711 332.695 178.8 332.961L178.676 333.139C178.676 333.139 178.658 333.281 178.729 333.298L178.96 333.387C179.049 333.635 179.138 333.848 179.227 334.061L179.014 334.363L179.031 334.381Z" fill="#E2B745"/>
<path d="M177.769 321.052C177.769 321.052 177.751 321.194 177.822 321.212L178.178 321.336C178.178 321.336 178.267 321.336 178.321 321.336C178.374 321.319 178.392 321.283 178.41 321.23C178.588 320.626 178.837 319.917 179.139 319.153C179.157 319.1 179.139 319.029 179.086 319.011L178.321 318.745C178.321 318.745 178.16 318.745 178.107 318.816L177.431 319.828C177.431 319.828 177.413 319.97 177.484 319.988L178.303 320.289L177.769 321.07V321.052ZM177.751 319.792L178.267 319.029L178.801 319.224C178.677 319.508 178.57 319.792 178.481 320.058L177.751 319.792Z" fill="#E2B745"/>
<path d="M186.117 335.695L185.298 335.393L185.832 334.612C185.832 334.612 185.85 334.47 185.779 334.452L185.441 334.328C185.441 334.328 185.37 334.328 185.334 334.328C184.925 334.47 184.533 334.594 184.177 334.701C184.142 334.701 184.088 334.736 184.07 334.772L183.999 334.878C183.999 334.878 183.964 334.878 183.928 334.896L183.786 334.843C183.786 334.843 183.714 334.843 183.679 334.843C183.323 334.949 183.002 335.038 182.7 335.109C182.646 335.109 182.611 335.145 182.593 335.18L182.255 335.677C182.255 335.677 182.237 335.819 182.308 335.837L183.127 336.138L182.593 336.919C182.593 336.919 182.575 337.061 182.646 337.079L183.714 337.47C183.714 337.47 183.875 337.47 183.928 337.399L184.462 336.618L185.281 336.919C185.281 336.919 185.441 336.919 185.494 336.848L186.171 335.837C186.171 335.837 186.188 335.695 186.117 335.677V335.695ZM185.298 336.653L184.48 336.351C184.48 336.351 184.319 336.351 184.266 336.422L183.732 337.203L182.931 336.919L183.465 336.138C183.465 336.138 183.483 335.996 183.412 335.979L182.593 335.677L182.807 335.358C183.074 335.287 183.358 335.216 183.661 335.127L183.928 335.216C183.928 335.216 184.088 335.216 184.142 335.145L184.284 334.932C184.622 334.825 184.96 334.719 185.334 334.594L185.476 334.648L184.942 335.429C184.942 335.429 184.925 335.571 184.996 335.588L185.815 335.89L185.298 336.653Z" fill="#E2B745"/>
<path d="M191.188 333.973L190.369 333.672L190.903 332.891C190.903 332.891 190.921 332.749 190.85 332.731L190.156 332.482C190.156 332.482 190.067 332.482 190.031 332.482C189.8 332.589 189.586 332.695 189.373 332.784C189.337 332.784 189.301 332.82 189.284 332.855L189.195 332.997C189.088 333.05 188.981 333.086 188.892 333.139L188.785 333.104C188.785 333.104 188.696 333.104 188.661 333.104C188.34 333.246 188.038 333.37 187.735 333.476C187.7 333.476 187.664 333.512 187.646 333.547L187.361 333.973C187.361 333.973 187.344 334.115 187.415 334.133L188.233 334.435L187.7 335.216C187.7 335.216 187.682 335.358 187.753 335.375L188.821 335.766C188.821 335.766 188.981 335.766 189.034 335.695L189.568 334.914L190.387 335.216C190.387 335.216 190.547 335.216 190.601 335.145L191.277 334.133C191.277 334.133 191.295 333.991 191.224 333.973H191.188ZM190.387 334.932L189.568 334.63C189.568 334.63 189.408 334.63 189.355 334.701L188.821 335.482L188.002 335.198L188.536 334.417C188.536 334.417 188.554 334.275 188.483 334.257L187.664 333.956L187.842 333.689C188.109 333.583 188.376 333.476 188.661 333.352L189.017 333.476C189.017 333.476 189.177 333.476 189.23 333.405L189.515 332.997C189.693 332.908 189.871 332.837 190.067 332.749L190.565 332.926L190.031 333.707C190.031 333.707 190.013 333.849 190.084 333.867L190.903 334.168L190.387 334.932Z" fill="#E2B745"/>
<path d="M200.105 326.626L199.322 326.342C199.322 326.342 199.179 326.342 199.126 326.395C198.467 327.052 197.862 327.62 197.293 328.081C197.257 328.117 197.239 328.152 197.239 328.188C197.239 328.223 197.275 328.259 197.31 328.276L197.702 328.418C197.702 328.418 197.862 328.418 197.916 328.347L198.45 327.566L199.268 327.868C199.268 327.868 199.428 327.868 199.482 327.797L200.158 326.786C200.158 326.786 200.176 326.644 200.105 326.626ZM199.304 327.566L198.556 327.3C198.788 327.087 199.037 326.857 199.268 326.608L199.82 326.803L199.304 327.566Z" fill="#E2B745"/>
<path d="M173.636 325.614L174.455 325.915L173.921 326.696C173.921 326.696 173.903 326.838 173.975 326.856L175.042 327.247C175.042 327.247 175.203 327.246 175.256 327.176L175.79 326.395L176.609 326.696C176.609 326.696 176.769 326.696 176.822 326.625L177.499 325.631C177.499 325.631 177.516 325.489 177.445 325.472L176.627 325.17L177.16 324.389C177.16 324.389 177.178 324.247 177.107 324.229L176.039 323.839C176.039 323.839 175.879 323.839 175.826 323.91L175.292 324.691L174.473 324.389C174.473 324.389 174.313 324.389 174.259 324.46L173.583 325.454C173.583 325.454 173.565 325.596 173.636 325.614ZM174.437 324.655L175.256 324.957C175.256 324.957 175.416 324.957 175.47 324.886L176.004 324.105L176.805 324.389L176.271 325.17C176.271 325.17 176.253 325.312 176.324 325.33L177.143 325.631L176.627 326.395L175.808 326.093C175.808 326.093 175.648 326.093 175.594 326.164L175.06 326.945L174.259 326.661L174.793 325.88C174.793 325.88 174.811 325.738 174.74 325.72L173.921 325.418L174.437 324.655Z" fill="#E2B745"/>
<path d="M169.739 331.328L170.558 331.629L170.024 332.41C170.024 332.41 170.006 332.552 170.077 332.57L171.145 332.961C171.145 332.961 171.305 332.961 171.359 332.89L171.893 332.109L172.711 332.41C172.711 332.41 172.871 332.41 172.925 332.339L173.601 331.328C173.601 331.328 173.619 331.186 173.548 331.168L172.729 330.866L173.263 330.085C173.263 330.085 173.281 329.943 173.21 329.926L172.142 329.535C172.142 329.535 171.982 329.535 171.928 329.606L171.394 330.387L170.575 330.085C170.575 330.085 170.415 330.085 170.362 330.156L169.686 331.168C169.686 331.168 169.668 331.31 169.739 331.328ZM170.54 330.369L171.359 330.671C171.359 330.671 171.519 330.671 171.572 330.6L172.106 329.819L172.907 330.103L172.373 330.884C172.373 330.884 172.355 331.026 172.426 331.044L173.245 331.345L172.729 332.109L171.91 331.807C171.91 331.807 171.75 331.807 171.697 331.878L171.163 332.659L170.362 332.375L170.896 331.594C170.896 331.594 170.914 331.452 170.842 331.434L170.024 331.133L170.54 330.369Z" fill="#E2B745"/>
<path d="M183.478 339.847L184.297 340.149L183.763 340.93C183.763 340.93 183.745 341.072 183.816 341.09L184.884 341.48C184.884 341.48 185.044 341.48 185.098 341.409L185.632 340.628L186.451 340.93C186.451 340.93 186.611 340.93 186.664 340.859L187.34 339.847C187.34 339.847 187.358 339.705 187.287 339.688L186.468 339.386L187.002 338.605C187.002 338.605 187.02 338.463 186.949 338.445L185.881 338.055C185.881 338.055 185.721 338.055 185.667 338.126L185.133 338.907L184.315 338.605C184.315 338.605 184.155 338.605 184.101 338.676L183.425 339.688C183.425 339.688 183.407 339.829 183.478 339.847ZM184.297 338.889L185.116 339.191C185.116 339.191 185.276 339.191 185.329 339.12L185.863 338.339L186.682 338.623L186.148 339.404C186.148 339.404 186.13 339.546 186.201 339.563L187.02 339.865L186.504 340.628L185.685 340.326C185.685 340.326 185.525 340.326 185.472 340.397L184.938 341.178L184.119 340.894L184.653 340.113C184.653 340.113 184.671 339.972 184.6 339.954L183.781 339.652L184.297 338.889Z" fill="#E2B745"/>
<path d="M177.214 337.576L178.032 337.877L177.498 338.658C177.498 338.658 177.481 338.8 177.552 338.818L178.62 339.209C178.62 339.209 178.78 339.209 178.833 339.138L179.367 338.357L180.186 338.658C180.186 338.658 180.346 338.658 180.399 338.587L181.076 337.576C181.076 337.576 181.094 337.434 181.022 337.416L180.204 337.114L180.738 336.333C180.738 336.333 180.755 336.191 180.684 336.174L179.616 335.783C179.616 335.783 179.456 335.783 179.403 335.854L178.869 336.635L178.05 336.333C178.05 336.333 177.89 336.333 177.837 336.404L177.16 337.416C177.16 337.416 177.142 337.558 177.214 337.576ZM178.015 336.617L178.833 336.919C178.833 336.919 178.993 336.919 179.047 336.848L179.581 336.067L180.399 336.369L179.866 337.15C179.866 337.15 179.848 337.292 179.919 337.31L180.738 337.611L180.221 338.374L179.403 338.073C179.403 338.073 179.243 338.073 179.189 338.144L178.655 338.925L177.837 338.623L178.37 337.842C178.37 337.842 178.388 337.7 178.317 337.682L177.498 337.381L178.015 336.617Z" fill="#E2B745"/>
<path d="M171.571 334.15L170.895 335.162C170.895 335.162 170.877 335.304 170.948 335.322L171.767 335.624L171.233 336.405C171.233 336.405 171.215 336.546 171.286 336.564L172.354 336.955C172.354 336.955 172.514 336.955 172.568 336.884L173.102 336.103L173.92 336.405C173.92 336.405 174.08 336.405 174.134 336.334L174.81 335.322C174.81 335.322 174.828 335.18 174.757 335.162L173.938 334.86L174.472 334.079C174.472 334.079 174.49 333.938 174.419 333.92L173.351 333.529C173.351 333.529 173.191 333.529 173.137 333.6L172.603 334.381L171.784 334.079C171.784 334.079 171.624 334.08 171.571 334.15ZM171.749 334.363L172.568 334.665C172.568 334.665 172.728 334.665 172.781 334.594L173.315 333.813L174.134 334.097L173.6 334.878C173.6 334.878 173.582 335.02 173.653 335.038L174.472 335.34L173.956 336.103L173.137 335.801C173.137 335.801 172.977 335.801 172.924 335.872L172.39 336.653L171.571 336.369L172.105 335.588C172.105 335.588 172.123 335.446 172.051 335.428L171.233 335.127L171.749 334.363Z" fill="#E2B745"/>
<path d="M192.469 332.412L193.288 332.713L192.754 333.494C192.754 333.494 192.736 333.636 192.808 333.654L193.875 334.044C193.875 334.044 194.036 334.044 194.089 333.973L194.623 333.192L195.442 333.494C195.442 333.494 195.602 333.494 195.655 333.423L196.332 332.429C196.332 332.429 196.349 332.287 196.278 332.27L195.46 331.968L195.993 331.187C195.993 331.187 196.011 331.045 195.94 331.027L194.872 330.637C194.872 330.637 194.712 330.637 194.659 330.708L194.125 331.489L193.306 331.187C193.306 331.187 193.146 331.187 193.092 331.258L192.416 332.252C192.416 332.252 192.398 332.394 192.469 332.412ZM193.27 331.453L194.089 331.755C194.089 331.755 194.249 331.755 194.303 331.684L194.837 330.903L195.655 331.205L195.121 331.986C195.121 331.986 195.104 332.128 195.175 332.145L195.993 332.447L195.477 333.21L194.659 332.908C194.659 332.908 194.498 332.908 194.445 332.979L193.911 333.76L193.092 333.459L193.626 332.678C193.626 332.678 193.644 332.536 193.573 332.518L192.754 332.216L193.27 331.453Z" fill="#E2B745"/>
<path d="M188.572 338.126L189.391 338.427L188.857 339.208C188.857 339.208 188.839 339.35 188.91 339.368L189.978 339.758C189.978 339.758 190.138 339.758 190.192 339.687L190.726 338.906L191.544 339.208C191.544 339.208 191.704 339.208 191.758 339.137L192.434 338.126C192.434 338.126 192.452 337.984 192.381 337.966L191.562 337.664L192.096 336.883C192.096 336.883 192.114 336.741 192.043 336.723L190.975 336.333C190.975 336.333 190.815 336.333 190.761 336.404L190.227 337.185L189.408 336.883C189.408 336.883 189.248 336.883 189.195 336.954L188.519 337.966C188.519 337.966 188.501 338.108 188.572 338.126ZM189.373 337.167L190.192 337.469C190.192 337.469 190.352 337.469 190.405 337.398L190.939 336.617L191.758 336.919L191.224 337.7C191.224 337.7 191.206 337.842 191.277 337.859L192.096 338.161L191.58 338.924L190.761 338.623C190.761 338.623 190.601 338.623 190.548 338.694L190.014 339.474L189.195 339.173L189.729 338.392C189.729 338.392 189.747 338.25 189.675 338.232L188.857 337.93L189.373 337.167Z" fill="#E2B745"/>
<path d="M240.113 742.145C240.113 742.145 252.483 754.604 259.478 760.816C266.473 767.01 269.481 768.856 269.481 768.856C269.481 768.856 271.527 777.287 271.225 783.96C270.922 790.633 273.556 793.26 275.888 793.828C278.219 794.396 282.011 789.48 283.452 785.699C284.912 781.919 286.069 777.571 286.069 777.571C286.069 777.571 287.528 779.026 289.272 778.724C291.016 778.423 281.993 786.569 286.353 791.787C290.714 797.005 315.774 779.594 318.105 777.269C320.437 774.944 318.105 749.972 318.105 749.972L323.641 757.515C323.641 757.515 319.565 776.683 325.1 780.464C330.635 784.244 332.379 778.724 333.839 774.66C335.298 770.596 341.403 749.972 341.403 749.972C341.403 749.972 327.645 716.02 314.688 693.622L298.972 682.334C298.972 682.334 282.918 716.109 240.096 742.163L240.113 742.145Z" fill="white"/>
<path d="M254.37 639.205C254.37 639.205 296.872 722.391 448.62 724.68" stroke="#6C7684" stroke-width="8.62875" stroke-miterlimit="10" stroke-linecap="round"/>
<path d="M442.142 440.32L435.343 441.598L437.39 449.78L444.188 448.502L442.142 440.32Z" fill="white"/>
<path d="M428.528 442.876L421.729 444.154L423.794 452.336L430.593 451.058L428.528 442.876Z" fill="white"/>
<path d="M414.929 445.432L408.13 446.71L410.194 454.891L416.993 453.614L414.929 445.432Z" fill="white"/>
<path d="M446.877 430.843L440.078 432.121L442.143 440.32L448.942 439.042L446.877 430.843Z" fill="white"/>
<path d="M433.281 433.398L426.482 434.676L428.529 442.876L435.346 441.598L433.281 433.398Z" fill="white"/>
<path d="M419.681 435.953L412.882 437.231L414.929 445.431L421.728 444.153L419.681 435.953Z" fill="white"/>
<path d="M406.067 438.511L399.269 439.789L401.333 447.988L408.132 446.71L406.067 438.511Z" fill="white"/>
<path d="M401.332 447.986L394.533 449.264L396.58 457.446L403.397 456.168L401.332 447.986Z" fill="white"/>
<path d="M410.196 454.892L403.397 456.169L405.444 464.369L412.243 463.091L410.196 454.892Z" fill="white"/>
<path d="M423.793 452.337L416.994 453.615L419.041 461.814L425.858 460.537L423.793 452.337Z" fill="white"/>
<path d="M437.394 449.779L430.595 451.057L432.659 459.257L439.458 457.979L437.394 449.779Z" fill="white"/>
<path d="M450.989 447.224L444.19 448.502L446.255 456.701L453.054 455.406L450.989 447.224Z" fill="white"/>
<path d="M448.941 439.042L442.143 440.32L444.189 448.502L450.988 447.224L448.941 439.042Z" fill="#2D3B4F"/>
<path d="M440.077 432.121L433.278 433.399L435.343 441.599L442.142 440.321L440.077 432.121Z" fill="#2D3B4F"/>
<path d="M426.482 434.677L419.683 435.955L421.729 444.154L428.528 442.876L426.482 434.677Z" fill="#2D3B4F"/>
<path d="M412.881 437.232L406.064 438.51L408.129 446.71L414.928 445.432L412.881 437.232Z" fill="#2D3B4F"/>
<path d="M403.398 456.169L396.581 457.447L398.646 465.647L405.445 464.369L403.398 456.169Z" fill="#2D3B4F"/>
<path d="M399.268 439.787L392.469 441.065L394.533 449.265L401.332 447.987L399.268 439.787Z" fill="#2D3B4F"/>
<path d="M416.993 453.613L410.194 454.891L412.241 463.091L419.04 461.813L416.993 453.613Z" fill="#2D3B4F"/>
<path d="M430.593 451.058L423.794 452.335L425.859 460.535L432.657 459.257L430.593 451.058Z" fill="#2D3B4F"/>
<path d="M435.347 441.597L428.53 442.875L430.595 451.056L437.394 449.779L435.347 441.597Z" fill="#2D3B4F"/>
<path d="M421.729 444.154L414.93 445.432L416.994 453.614L423.793 452.336L421.729 444.154Z" fill="#2D3B4F"/>
<path d="M408.132 446.71L401.333 447.988L403.398 456.17L410.197 454.892L408.132 446.71Z" fill="#2D3B4F"/>
<path d="M444.19 448.503L437.391 449.781L439.455 457.98L446.254 456.703L444.19 448.503Z" fill="#2D3B4F"/>
<path d="M535.048 424.807L531.008 425.57L532.218 433.911L536.276 433.148L535.048 424.807Z" fill="white"/>
<path d="M526.95 426.334L522.91 427.079L524.138 435.439L528.178 434.676L526.95 426.334Z" fill="white"/>
<path d="M518.87 427.843L514.812 428.606L516.04 436.948L520.08 436.184L518.87 427.843Z" fill="white"/>
<path d="M537.88 415.702L533.822 416.465L535.05 424.807L539.091 424.044L537.88 415.702Z" fill="white"/>
<path d="M529.781 417.229L525.741 417.975L526.951 426.334L531.009 425.571L529.781 417.229Z" fill="white"/>
<path d="M521.684 418.738L517.644 419.501L518.872 427.843L522.912 427.08L521.684 418.738Z" fill="white"/>
<path d="M513.603 420.263L509.545 421.008L510.773 429.367L514.813 428.604L513.603 420.263Z" fill="white"/>
<path d="M510.771 429.368L506.73 430.114L507.941 438.473L511.999 437.71L510.771 429.368Z" fill="white"/>
<path d="M516.042 436.947L512.002 437.71L513.23 446.052L517.27 445.289L516.042 436.947Z" fill="white"/>
<path d="M524.141 435.438L520.083 436.183L521.311 444.542L525.369 443.779L524.141 435.438Z" fill="white"/>
<path d="M532.221 433.912L528.181 434.675L529.409 443.017L533.449 442.254L532.221 433.912Z" fill="white"/>
<path d="M540.319 432.403L536.278 433.149L537.506 441.508L541.547 440.745L540.319 432.403Z" fill="white"/>
<path d="M539.088 424.044L535.048 424.807L536.276 433.149L540.316 432.403L539.088 424.044Z" fill="#2D3B4F"/>
<path d="M533.821 416.465L529.781 417.228L531.009 425.57L535.05 424.806L533.821 416.465Z" fill="#2D3B4F"/>
<path d="M525.742 417.973L521.684 418.736L522.912 427.077L526.952 426.332L525.742 417.973Z" fill="#2D3B4F"/>
<path d="M517.643 419.5L513.603 420.263L514.813 428.605L518.871 427.842L517.643 419.5Z" fill="#2D3B4F"/>
<path d="M512.002 437.71L507.944 438.473L509.172 446.815L513.23 446.052L512.002 437.71Z" fill="#2D3B4F"/>
<path d="M509.545 421.009L505.505 421.772L506.733 430.114L510.773 429.368L509.545 421.009Z" fill="#2D3B4F"/>
<path d="M520.082 436.183L516.042 436.946L517.27 445.287L521.31 444.542L520.082 436.183Z" fill="#2D3B4F"/>
<path d="M528.18 434.675L524.14 435.438L525.368 443.78L529.408 443.016L528.18 434.675Z" fill="#2D3B4F"/>
<path d="M531.008 425.569L526.95 426.333L528.178 434.674L532.218 433.911L531.008 425.569Z" fill="#2D3B4F"/>
<path d="M522.909 427.078L518.869 427.841L520.079 436.183L524.137 435.437L522.909 427.078Z" fill="#2D3B4F"/>
<path d="M514.812 428.605L510.771 429.369L512 437.71L516.04 436.947L514.812 428.605Z" fill="#2D3B4F"/>
<path d="M536.279 433.149L532.221 433.913L533.449 442.254L537.507 441.509L536.279 433.149Z" fill="#2D3B4F"/>
<path d="M378.708 430.417C378.708 430.417 386.379 448.289 403.287 466.268C420.196 484.247 423.933 488.081 423.933 488.081" stroke="#171C26" stroke-width="8.62875" stroke-miterlimit="10" stroke-linecap="round"/>
<path d="M124.729 524.339C124.729 524.339 142.171 528.084 161.108 526.433C180.045 524.783 184.121 524.339 184.121 524.339" stroke="#171C26" stroke-width="12.9431" stroke-miterlimit="10" stroke-linecap="round"/>
<path opacity="0.1" d="M246.77 178.942C246.289 178.303 245.471 178.002 244.688 178.179C243.513 178.445 241.715 179.031 239.864 180.238C239.918 180.38 239.989 180.522 240.078 180.646L288.008 245.214L294.024 242.729L246.77 178.96V178.942Z" fill="white"/>
<path d="M332.096 356.904C330.316 358.217 327.824 357.844 326.489 356.087L258.874 266.37C272.614 246.989 290.857 241.629 296.499 240.387C297.532 240.156 298.617 240.564 299.24 241.416L365.129 329.625C365.895 330.654 365.681 332.092 364.649 332.855L332.096 356.904Z" fill="#272E3F"/>
<path d="M277.881 272.492L296.552 260.086C297.655 259.359 299.115 259.607 299.916 260.654L320.757 287.862C321.184 288.43 321.078 289.229 320.508 289.673L301.215 304.262C300.111 305.096 298.527 304.865 297.691 303.747L277.241 276.042C276.404 274.906 276.689 273.291 277.864 272.492H277.881Z" fill="#344356"/>
<path d="M300.985 254.851L299.455 260.016L276.869 275.493H270.817C270.426 275.493 270.23 275.013 270.479 274.729C282.92 260.779 296.963 255.437 300.416 254.284C300.754 254.177 301.074 254.497 300.967 254.834L300.985 254.851Z" fill="black"/>
<path opacity="0.2" d="M268.573 268.552C277.739 256.217 295.573 250.165 295.573 250.165" stroke="white" stroke-width="4.31437" stroke-miterlimit="10" stroke-linecap="round"/>
<path opacity="0.2" d="M315.399 325.01L337.078 308.93" stroke="white" stroke-width="4.31437" stroke-miterlimit="10"/>
<g opacity="0.4">
<path opacity="0.3" d="M319.208 329.889L323.747 326.534" stroke="white" stroke-width="4.31437" stroke-miterlimit="10"/>
<path opacity="0.3" d="M328.161 323.554L332.682 320.199" stroke="white" stroke-width="4.31437" stroke-miterlimit="10"/>
<path opacity="0.3" d="M336.364 317.483L340.885 314.111" stroke="white" stroke-width="4.31437" stroke-miterlimit="10"/>
<path opacity="0.3" d="M323.994 336.297L328.533 332.942" stroke="white" stroke-width="4.31437" stroke-miterlimit="10"/>
<path opacity="0.3" d="M332.947 329.96L337.468 326.605" stroke="white" stroke-width="4.31437" stroke-miterlimit="10"/>
<path opacity="0.3" d="M341.155 323.89L345.676 320.518" stroke="white" stroke-width="4.31437" stroke-miterlimit="10"/>
<path opacity="0.3" d="M328.785 342.703L333.324 339.349" stroke="white" stroke-width="4.31437" stroke-miterlimit="10"/>
<path opacity="0.3" d="M337.738 336.386L342.277 333.014" stroke="white" stroke-width="4.31437" stroke-miterlimit="10"/>
<path opacity="0.3" d="M345.941 330.297L350.48 326.942" stroke="white" stroke-width="4.31437" stroke-miterlimit="10"/>
</g>
<path d="M443.548 116.391C443.651 112.157 441.879 108.681 439.59 108.625C437.3 108.569 435.36 111.955 435.256 116.189C435.152 120.422 436.924 123.899 439.214 123.955C441.504 124.01 443.444 120.624 443.548 116.391Z" fill="#0A253C"/>
<path d="M485.251 116.387C485.355 112.154 483.583 108.677 481.293 108.621C479.003 108.565 477.063 111.951 476.959 116.185C476.856 120.418 478.628 123.895 480.917 123.951C483.207 124.006 485.147 120.62 485.251 116.387Z" fill="#0A253C"/>
<path d="M450.188 104.506C452.448 104.772 453.552 101.808 451.648 100.566C448.604 98.5959 444.083 96.9098 437.729 97.46C432.621 97.9037 429.346 99.288 427.246 100.797C425.449 102.092 426.659 104.95 428.848 104.648C431.892 104.222 436.021 103.832 440.559 103.903C444.297 103.956 447.572 104.222 450.17 104.524L450.188 104.506Z" fill="#0A253C"/>
<path d="M490.607 104.133C492.191 104.417 493.045 101.72 491.728 100.548C489.628 98.6847 486.478 97.0697 481.993 97.4601C478.38 97.7796 476.048 98.9865 474.535 100.335C473.236 101.489 474.037 104.133 475.585 103.885C477.739 103.548 480.658 103.264 483.844 103.388C486.478 103.494 488.774 103.796 490.589 104.133H490.607Z" fill="#0A253C"/>
<path d="M470.407 118.562C470.407 118.562 474.447 131.288 482.937 143.303C486.514 148.379 477.17 151.627 466.562 148.699" fill="white"/>
<path d="M470.407 118.562C470.407 118.562 474.447 131.288 482.937 143.303C486.514 148.379 477.17 151.627 466.562 148.699" stroke="#0A253C" stroke-width="4.31437" stroke-miterlimit="10" stroke-linecap="round"/>
<path d="M470.796 174.754C458.391 176.724 448.993 174.009 448.993 174.009L470.796 174.754Z" fill="white"/>
<path d="M470.796 174.754C458.391 176.724 448.993 174.009 448.993 174.009" stroke="#0A253C" stroke-width="4.31437" stroke-miterlimit="10" stroke-linecap="round"/>
<path opacity="0.2" d="M443.583 214.084C443.583 214.084 404.196 207.872 391.737 199.637C377.979 190.532 369.632 173.334 369.632 173.334C369.632 173.334 371.803 193.709 390.242 202.902C408.681 212.096 443.601 214.084 443.601 214.084H443.583Z" fill="#225597"/>
<path d="M318.321 206.187L326.241 184.747C327.95 180.132 331.242 176.245 335.532 173.796L339.59 171.489C342.331 169.927 345.73 170.229 348.151 172.234C371.538 191.385 421.764 240.973 431.624 250.752C432.354 251.48 433.6 251.125 433.831 250.113C434.881 245.57 437.444 235.116 441.004 225.834C441.004 225.834 481.21 228.336 491.8 238.204C499.845 245.712 520.562 262.59 530.013 270.222C532.754 272.44 533.234 276.381 531.116 279.185C527.592 283.853 521.755 291.271 514.368 299.435C498.119 317.414 475.764 304.369 472.845 308.593C469.926 312.818 472.845 368.423 472.845 368.423C472.845 368.423 415.962 288.183 387.538 264.259C365.593 245.783 334.802 225.284 321.88 216.889C318.339 214.581 316.861 210.144 318.321 206.204V206.187Z" fill="#2D3B4F"/>
<path d="M340.195 149.818C340.195 149.818 327.701 170.619 307.642 176.618C287.584 182.617 291.891 166.431 291.891 166.431" stroke="#5A92CB" stroke-width="4.31437" stroke-miterlimit="10" stroke-linecap="round"/>
<path d="M333.184 224.342C333.184 224.342 373.158 250.183 444.511 316.685C444.511 316.685 482.671 280.834 470.746 251.585" stroke="#171C26" stroke-width="8.62875" stroke-miterlimit="10" stroke-linecap="round"/>
<path d="M366.929 164.631C373.663 160.322 372.606 146.704 364.568 134.214C356.531 121.724 344.556 115.093 337.822 119.402C331.088 123.712 332.145 137.33 340.183 149.82C348.22 162.309 360.195 168.941 366.929 164.631Z" fill="white"/>
<path d="M405.978 80.1924C393.75 116.31 363.796 133.384 356.641 137.998C350.394 142.027 350.074 146.801 350.074 146.801C350.074 146.801 349.023 140.589 354.381 133.952C359.471 127.633 366.039 124.172 371.058 116.31C377.394 106.389 371.983 90.646 371.983 90.646L405.996 80.1924H405.978Z" fill="#225597"/>
<path d="M509.704 74.548C497.281 71.2468 491.016 68.3894 487.991 66.5968C486.353 65.6384 485.178 64.0766 484.627 62.2485C481.708 52.3628 469.587 14.3817 452.875 6.35957C433.635 -2.90497 405.976 0.715651 392.414 2.96967C372.142 6.34182 344.412 14.0268 331.74 37.0639C321.577 55.522 316.22 96.7687 314.476 112.405C314.191 115.014 316.914 116.877 319.263 115.67C330.085 110.151 356.497 97.7981 393.037 88.498C397.665 89.9001 427.85 98.65 458.072 98.2418C490.909 97.7981 506.02 77.8137 537.772 85.3744C537.772 85.3744 529.282 79.7482 509.704 74.5302V74.548Z" fill="#0A253C"/>
<path opacity="0.3" d="M436.625 6.28711C436.625 6.28711 425.234 6.81955 410.07 17.433C394.906 28.0464 387.876 44.5344 387.876 44.5344" stroke="white" stroke-width="4.31437" stroke-miterlimit="10" stroke-linecap="round"/>
<path d="M477.15 59.6396C477.15 59.6396 449.046 59.6397 384.652 80.1565" stroke="#CEB84D" stroke-width="6.47156" stroke-miterlimit="10" stroke-linecap="round"/>
<path d="M383.348 87.0773C386.407 86.5384 388.392 83.308 387.781 79.862C387.17 76.4161 384.196 74.0595 381.137 74.5984C378.078 75.1373 376.094 78.3677 376.704 81.8137C377.315 85.2596 380.289 87.6162 383.348 87.0773Z" fill="#CEB84D"/>
<mask id="mask0_782_291" style="mask-type:luminance" maskUnits="userSpaceOnUse" x="197" y="650" width="61" height="65">
<path d="M197.328 694.473C222.709 679.688 241.682 650.244 241.682 650.244C241.682 650.244 246.451 657.627 257.38 666.661C257.38 666.661 252.734 685.457 214.788 714.386C214.788 714.386 208.773 707.677 205.106 703.311C202.686 700.418 197.311 694.473 197.311 694.473H197.328Z" fill="white"/>
</mask>
<g mask="url(#mask0_782_291)">
<path d="M253.793 652.912L246.344 659.909L253.361 667.337L260.81 660.34L253.793 652.912Z" fill="white"/>
<path d="M254.223 638.477L246.773 645.475L253.791 652.903L261.24 645.905L254.223 638.477Z" fill="white"/>
<path d="M239.32 652.487L231.871 659.484L238.888 666.913L246.338 659.915L239.32 652.487Z" fill="white"/>
<path d="M224.427 666.461L216.978 673.459L223.995 680.887L231.444 673.89L224.427 666.461Z" fill="white"/>
<path d="M223.997 680.897L216.548 687.895L223.565 695.323L231.014 688.325L223.997 680.897Z" fill="white"/>
<path d="M209.541 680.469L202.092 687.467L209.109 694.895L216.558 687.897L209.541 680.469Z" fill="white"/>
<path d="M194.627 694.463L187.178 701.461L194.195 708.889L201.644 701.892L194.627 694.463Z" fill="white"/>
<path d="M208.687 709.319L201.237 716.316L208.255 723.745L215.704 716.747L208.687 709.319Z" fill="white"/>
<path d="M209.116 694.904L201.667 701.901L208.684 709.33L216.134 702.332L209.116 694.904Z" fill="white"/>
<path d="M194.201 708.878L186.752 715.876L193.769 723.304L201.219 716.307L194.201 708.878Z" fill="white"/>
<path d="M223.571 695.312L216.122 702.31L223.139 709.738L230.589 702.74L223.571 695.312Z" fill="white"/>
<path d="M238.474 681.322L231.024 688.319L238.042 695.748L245.491 688.75L238.474 681.322Z" fill="white"/>
<path d="M238.912 666.902L231.463 673.899L238.48 681.328L245.929 674.33L238.912 666.902Z" fill="white"/>
<path d="M253.368 667.328L245.919 674.325L252.936 681.753L260.386 674.756L253.368 667.328Z" fill="white"/>
<path d="M246.795 645.491L239.346 652.488L246.363 659.917L253.812 652.919L246.795 645.491Z" fill="#272E3F"/>
<path d="M245.914 674.338L238.465 681.336L245.482 688.764L252.931 681.767L245.914 674.338Z" fill="#272E3F"/>
<path d="M231.88 659.468L224.431 666.466L231.448 673.894L238.897 666.896L231.88 659.468Z" fill="#272E3F"/>
<path d="M260.809 660.344L253.359 667.342L260.377 674.77L267.826 667.772L260.809 660.344Z" fill="#272E3F"/>
<path d="M261.251 645.899L253.802 652.896L260.819 660.325L268.268 653.327L261.251 645.899Z" fill="#272E3F"/>
<path d="M246.353 659.893L238.903 666.891L245.921 674.319L253.37 667.321L246.353 659.893Z" fill="#272E3F"/>
<path d="M231.45 673.901L224.001 680.898L231.018 688.327L238.468 681.329L231.45 673.901Z" fill="#272E3F"/>
<path d="M216.544 687.89L209.095 694.888L216.112 702.316L223.561 695.318L216.544 687.89Z" fill="#272E3F"/>
<path d="M216.995 673.475L209.546 680.473L216.563 687.901L224.012 680.903L216.995 673.475Z" fill="#272E3F"/>
<path d="M202.084 687.453L194.635 694.45L201.652 701.878L209.101 694.881L202.084 687.453Z" fill="#272E3F"/>
<path d="M201.642 701.898L194.192 708.896L201.21 716.324L208.659 709.326L201.642 701.898Z" fill="#272E3F"/>
<path d="M216.118 702.323L208.669 709.32L215.686 716.749L223.136 709.751L216.118 702.323Z" fill="#272E3F"/>
<path d="M231.013 688.329L223.563 695.326L230.581 702.754L238.03 695.757L231.013 688.329Z" fill="#272E3F"/>
</g>
<mask id="mask1_782_291" style="mask-type:luminance" maskUnits="userSpaceOnUse" x="540" y="368" width="51" height="19">
<path d="M590.064 370.729C590.064 370.729 590.99 371.882 581.023 373.604C562.94 376.728 540.888 368.883 540.888 368.883C540.888 368.883 541.706 371.208 546.672 384.27C546.672 384.27 555.838 388.317 573.975 386.382C584.493 385.264 589.655 379.283 589.655 379.283C590.99 370.729 590.046 370.729 590.046 370.729H590.064Z" fill="white"/>
</mask>
<g mask="url(#mask1_782_291)">
<path d="M594.851 370.161H588.889V376.107H594.851V370.161Z" fill="white"/>
<path d="M582.911 370.161H576.948V376.107H582.911V370.161Z" fill="white"/>
<path d="M576.945 376.106H570.982V382.052H576.945V376.106Z" fill="white"/>
<path d="M570.983 370.161H565.021V376.107H570.983V370.161Z" fill="white"/>
<path d="M559.059 370.161H553.097V376.107H559.059V370.161Z" fill="white"/>
<path d="M559.059 382.053H553.097V387.998H559.059V382.053Z" fill="white"/>
<path d="M565.021 376.106H559.059V382.052H565.021V376.106Z" fill="white"/>
<path d="M553.081 376.106H547.118V382.052H553.081V376.106Z" fill="white"/>
<path d="M570.983 382.053H565.021V387.998H570.983V382.053Z" fill="white"/>
<path d="M582.911 382.053H576.948V387.998H582.911V382.053Z" fill="white"/>
<path d="M588.889 376.106H582.927V382.052H588.889V376.106Z" fill="white"/>
<path d="M594.851 382.053H588.889V387.998H594.851V382.053Z" fill="white"/>
<path d="M588.889 382.053H582.927V387.998H588.889V382.053Z" fill="#272E3F"/>
<path d="M588.889 370.161H582.927V376.107H588.889V370.161Z" fill="#272E3F"/>
<path d="M594.851 376.106H588.889V382.052H594.851V376.106Z" fill="#272E3F"/>
<path d="M582.911 376.106H576.948V382.052H582.911V376.106Z" fill="#0A253C"/>
<path d="M570.983 376.106H565.021V382.052H570.983V376.106Z" fill="#0A253C"/>
<path d="M576.945 370.161H570.982V376.107H576.945V370.161Z" fill="#0A253C"/>
<path d="M565.021 370.161H559.059V376.107H565.021V370.161Z" fill="#0A253C"/>
<path d="M553.081 370.161H547.118V376.107H553.081V370.161Z" fill="#272E3F"/>
<path d="M559.059 376.106H553.097V382.052H559.059V376.106Z" fill="#0A253C"/>
<path d="M553.081 382.053H547.118V387.998H553.081V382.053Z" fill="#272E3F"/>
<path d="M565.021 382.053H559.059V387.998H565.021V382.053Z" fill="#0A253C"/>
<path d="M576.945 382.053H570.982V387.998H576.945V382.053Z" fill="#0A253C"/>
<path d="M541.153 376.106H535.19V382.052H541.153V376.106Z" fill="white"/>
<path d="M547.115 370.161H541.152V376.107H547.115V370.161Z" fill="white"/>
<path d="M547.115 382.053H541.152V387.998H547.115V382.053Z" fill="white"/>
<path d="M547.115 376.106H541.152V382.052H547.115V376.106Z" fill="#272E3F"/>
<path d="M541.153 370.161H535.19V376.107H541.153V370.161Z" fill="#272E3F"/>
<path d="M541.153 382.053H535.19V387.998H541.153V382.053Z" fill="#272E3F"/>
</g>
<path d="M326.936 267.434L339.679 278.242C340.231 278.704 340.978 278.863 341.672 278.65L350.144 276.006C350.91 275.775 351.106 274.799 350.518 274.267L340.48 265.286" stroke="#171C26" stroke-width="8.62875" stroke-miterlimit="10" stroke-linecap="round"/>
<g clip-path="url(#clip0_782_291)">
<path d="M106.624 426.594L112.905 411.067L116.196 412.403C115.929 414.503 114.624 422.154 114.478 422.886L114.543 422.922C115.213 420.788 116.246 417.915 117.133 415.756L118.171 413.201L120.934 414.332L114.653 429.859L111.33 428.505C111.611 426.892 113.159 418.178 113.264 417.646L113.182 417.609C112.556 419.477 111.396 422.613 110.413 425.053L109.339 427.706L106.624 426.611L106.624 426.594Z" fill="#E0E0E0"/>
<path d="M121.894 427.332L121.434 428.402C120.993 429.406 121.036 429.994 121.71 430.288C122.384 430.583 122.843 429.965 123.172 429.241C123.798 427.792 123.719 427.253 122.711 425.254C121.629 423.034 121.11 421.774 122.086 419.519C123.041 417.329 124.647 415.617 127.539 416.887C130.629 418.232 130.17 420.542 129.399 422.286L129.012 423.175L126.235 421.96L126.64 421.038C127.044 420.1 127.098 419.583 126.507 419.325C125.964 419.086 125.581 419.489 125.213 420.346C124.808 421.267 124.787 421.802 125.612 423.342C127.092 426.097 127.473 427.452 126.37 429.97C125.322 432.374 123.653 433.999 120.596 432.673C117.671 431.401 117.604 429.272 118.597 427L119.001 426.078L121.894 427.332Z" fill="#E0E0E0"/>
<path d="M131.366 432.882L129.291 436.316L126.321 434.909L135.573 420.773L139.905 422.82L134.969 439.003L131.95 437.577L133.22 433.775L131.333 432.88L131.366 432.882ZM134.212 431.085C134.911 429.053 135.986 425.964 136.531 424.445L136.416 424.39C135.874 425.423 133.907 428.661 132.833 430.444L134.212 431.102L134.212 431.085Z" fill="#E0E0E0"/>
<path d="M143.953 427.952L141.79 426.845L143.093 424.317L150.286 428.018L148.982 430.545L146.803 429.421L140.463 441.797L137.612 440.328L143.953 427.952Z" fill="#E0E0E0"/>
<path d="M149.411 440.812L148.837 441.811C148.281 442.76 148.258 443.345 148.895 443.706C149.533 444.082 150.074 443.501 150.468 442.83C151.258 441.454 151.229 440.917 150.476 438.828C149.648 436.501 149.282 435.197 150.52 433.069C151.721 431.006 153.503 429.486 156.248 431.085C159.157 432.774 158.434 435.006 157.482 436.66L156.998 437.495L154.367 435.967L154.869 435.1C155.372 434.215 155.493 433.701 154.937 433.377C154.431 433.073 153.999 433.424 153.532 434.243C153.03 435.111 152.942 435.643 153.597 437.26C154.753 440.169 154.982 441.551 153.6 443.942C152.29 446.218 150.429 447.635 147.552 445.963C144.79 444.364 144.974 442.244 146.213 440.083L146.716 439.215L149.445 440.797L149.411 440.812Z" fill="#E0E0E0"/>
<path d="M162.621 435.272L165.291 437.069L157.513 448.618L160.867 450.877L159.059 453.05L153.279 449.137L162.621 435.255L162.621 435.272Z" fill="#E0E0E0"/>
<path d="M170.758 452.274L167.945 450.287L165.323 454.018L168.625 456.343L166.687 458.426L161.077 454.453L170.712 440.767L176.306 444.723L174.676 447.053L171.716 444.96L169.608 447.958L172.422 449.945L170.793 452.258L170.758 452.274Z" fill="#E0E0E0"/>
<path d="M178.839 446.566L182.005 448.935C184.766 451.003 184.788 452.964 182.706 455.745L178.946 460.788C177.216 463.097 175.228 464.76 172.175 462.479L168.83 459.986L178.823 446.548L178.839 446.566ZM172.981 459.848L173.485 460.22C174.491 460.98 175.148 460.436 175.941 459.396L180.426 453.377C181.167 452.385 181.346 451.672 180.371 450.947L179.884 450.593L172.998 459.849L172.981 459.848Z" fill="#E0E0E0"/>
<path d="M187.779 465.238L185.089 463.088L182.257 466.66L185.417 469.18L183.349 471.158L177.969 466.876L188.383 453.773L193.748 458.038L191.972 460.262L189.135 458.007L186.848 460.88L189.538 463.03L187.779 465.254L187.779 465.238Z" fill="#E0E0E0"/>
<path d="M192.564 469.413L187.816 474.919L185.392 472.814L196.324 460.133L199.476 462.87C201.593 464.713 201.838 466.548 199.928 468.766L199.543 469.22C197.983 471.034 196.8 470.937 196.04 470.723C196.499 471.779 196.364 472.678 194.839 474.46C193.787 475.691 192.16 477.519 191.696 478.271L189.335 476.235C189.664 475.528 191.1 473.877 192.502 472.257C193.728 470.832 193.777 470.449 192.856 469.642L192.565 469.396L192.564 469.413ZM194.228 467.503L194.535 467.766C195.343 468.468 195.893 468.506 196.926 467.325L197.452 466.709C198.188 465.851 198.378 465.289 197.489 464.517L197.117 464.184L194.244 467.503L194.228 467.503Z" fill="#E0E0E0"/>
</g>
<defs>
<clipPath id="clip0_782_291">
<rect width="96.0827" height="64.0551" fill="white" transform="translate(107.247 410.844) rotate(2.2639)"/>
</clipPath>
</defs>
</svg>
