<svg width="1906" height="534" viewBox="0 0 1906 534" fill="none" xmlns="http://www.w3.org/2000/svg">
<g clip-path="url(#clip0_1957_77)">
<path d="M554.672 164.721H649.155C703.919 164.721 731.842 175.327 731.842 242.754C731.842 310.18 703.053 321.652 648.939 321.652H610.951V376.632H554.78V164.721H554.672ZM649.155 277.062C661.494 277.062 675.347 275.871 675.347 243.403C675.347 210.934 660.952 209.96 648.831 209.96H610.843V277.062H649.155Z" fill="white"/>
<path d="M749.377 270.789C749.377 177.713 790.613 161.37 853.926 161.37C917.24 161.37 957.934 177.171 957.934 270.248C957.934 363.325 917.024 380.317 853.385 380.317C789.747 380.317 749.377 363.866 749.377 270.897V270.789ZM898.841 279.123V262.456C898.841 222.411 888.776 209.207 853.385 209.207C817.994 209.207 808.47 221.87 808.47 261.915V278.582C808.47 318.626 818.86 333.562 853.926 333.562C888.992 333.562 898.841 319.167 898.841 279.123Z" fill="white"/>
<path d="M984.014 164.721H1040.51V329.445H1135.86V376.632H984.122V164.721H984.014Z" fill="white"/>
<path d="M1159.02 164.721H1215.73V376.741H1159.02V164.721Z" fill="white"/>
<path d="M1306.75 213.424H1239.32V164.721H1430.89V213.424H1363.24V376.741H1306.75V213.424Z" fill="white"/>
<path d="M1454.48 164.721H1511.19V376.741H1454.48V164.721Z" fill="white"/>
<path d="M1546.04 164.721H1697.78V213.424H1602.43V246H1679.27V294.703H1602.43V329.553H1697.78V376.741H1546.04V164.721Z" fill="white"/>
<path d="M1781.55 213.424H1714.12V164.721H1905.69V213.424H1838.05V376.741H1781.55V213.424Z" fill="white"/>
<path d="M232.04 478.907L231.175 478.365C230.417 477.824 156.064 430.312 120.348 346.651C97.6205 293.511 95.6724 168.182 95.6724 166.883V164.827H368.517V166.883C368.517 168.182 366.569 293.511 343.841 346.651C308.017 430.312 233.664 477.933 233.014 478.365L232.149 478.907H232.04ZM98.7028 168.29C99.0274 182.901 101.95 295.892 123.162 345.353C156.605 423.494 223.923 469.815 232.04 475.227C240.158 469.815 307.476 423.494 340.918 345.353C362.023 295.892 365.053 182.901 365.378 168.29H98.7028Z" fill="white"/>
<path d="M230.422 206.383L220.357 205.3C217.218 204.867 215.27 203.785 215.27 203.785C214.404 203.785 213.647 204.976 213.863 205.733C213.863 205.733 217.11 207.248 219.924 207.681L231.937 208.655L230.314 206.491L230.422 206.383Z" fill="white"/>
<path d="M153.043 194.048C153.043 194.048 141.138 193.506 134.428 189.394C127.393 185.173 117.219 177.056 117.219 177.056C117.219 177.056 116.245 191.125 118.518 200C120.899 209.416 127.501 222.62 127.501 222.62C127.501 222.62 130.964 218.507 137.999 212.014C145.034 205.52 153.368 206.277 153.368 206.277H165.597V193.939H153.259L153.043 194.048Z" fill="white"/>
<path d="M226.53 82.25C226.53 82.25 229.127 82.8994 231.725 82.8994C234.322 82.8994 237.894 82.25 237.894 82.25L236.487 102.813C236.487 102.813 234.43 101.839 231.941 101.839C229.452 101.839 227.504 102.813 227.504 102.813L226.53 82.3582V82.25Z" fill="white"/>
<path d="M127.605 106.814C127.605 106.814 125.765 106.057 123.601 106.057C121.653 106.057 119.813 106.49 119.813 106.49C119.813 106.49 115.159 91.7706 118.081 84.844C120.246 79.649 131.177 78.3503 140.593 77.9174C152.931 77.4845 168.516 78.1338 168.516 78.1338C168.516 78.1338 167.433 79.4326 167.109 80.9478C166.676 82.463 166.459 83.7617 166.459 83.7617C166.459 83.7617 152.822 82.8959 146.653 83.3288C140.593 83.7617 130.852 84.7358 128.146 87.3333C125.874 89.4978 125.441 92.5282 125.982 96.4245C126.523 100.862 127.389 106.814 127.389 106.814H127.605Z" fill="white"/>
<path d="M181.071 104.329C181.071 104.329 179.772 104.004 178.365 104.004C174.577 104.004 171.871 106.061 171.871 106.061C171.871 106.061 166.893 87.77 170.248 80.4105C172.196 76.0813 181.071 74.7826 193.409 75.2155C205.747 75.6484 223.929 81.601 223.929 81.601V84.8479C223.929 84.8479 208.777 80.627 198.387 80.3023C187.131 79.9776 183.885 80.8434 182.045 82.8997C179.664 85.4972 179.772 90.3675 179.988 93.6144C180.313 97.9435 181.179 104.329 181.179 104.329H181.071Z" fill="white"/>
<path d="M337.025 106.814C337.025 106.814 338.865 106.057 341.029 106.057C342.977 106.057 344.709 106.598 344.709 106.598C344.709 106.598 349.471 91.7706 346.441 84.844C344.276 79.649 333.345 78.3503 323.929 77.9174C311.591 77.4845 295.79 78.1338 295.79 78.1338C295.79 78.1338 296.872 79.4326 297.197 80.9478C297.521 82.463 297.738 83.7617 297.738 83.7617C297.738 83.7617 311.699 82.8959 317.76 83.3288C323.821 83.7617 333.561 84.7358 336.267 87.3333C338.54 89.4978 338.973 92.5282 338.432 96.4245C337.89 100.862 337.025 106.814 337.025 106.814Z" fill="white"/>
<path d="M283.775 104.218C283.775 104.218 285.074 103.893 286.481 103.893C290.269 103.893 292.975 105.95 292.975 105.95C292.975 105.95 297.737 87.8755 294.382 80.516C292.434 76.1868 283.559 74.8881 271.221 75.321C258.883 75.7539 240.809 81.7065 240.809 81.7065V84.9533C240.809 84.9533 255.961 80.7324 266.351 80.4077C277.606 80.083 280.853 80.9489 282.693 83.0052C285.074 85.6027 284.966 90.6895 284.858 93.9363C284.641 98.6984 283.775 104.11 283.775 104.11V104.218Z" fill="white"/>
<path d="M204.449 166.449H335.73L347.96 110.82C345.362 109.196 340.925 108.872 340.925 108.872C340.925 108.872 335.73 108.331 333.782 112.335C331.401 117.313 337.57 122.508 337.57 122.508L334.431 126.621C334.431 126.621 330.21 120.452 325.665 119.37C323.608 118.937 319.82 120.56 319.82 127.92C319.82 134.089 321.227 136.47 325.015 136.362C329.02 136.145 335.405 129.11 335.405 129.11L337.245 133.007L330.427 146.535C330.427 146.535 323.392 149.566 312.785 149.349C296.659 149.133 295.144 146.319 295.144 146.319L288.434 133.007L290.274 129.11C290.274 129.11 296.443 135.929 300.556 136.362C304.235 136.795 305.859 133.981 305.859 127.92C305.859 121.101 302.504 118.829 299.798 119.478C295.577 120.344 291.14 126.513 291.14 126.513L288.109 122.4C288.109 122.4 294.278 117.313 293.737 112.876C292.98 106.924 285.512 106.707 285.512 106.707C285.512 106.707 279.018 106.707 277.395 111.794C275.771 116.881 282.806 122.4 282.806 122.4L279.668 126.513C279.668 126.513 275.23 120.127 270.685 119.37C269.278 119.153 264.948 120.019 264.948 128.353C264.948 134.089 266.572 136.578 270.143 136.362C274.148 136.145 280.533 129.11 280.533 129.11L282.373 133.007L275.663 146.427C275.663 146.427 274.148 149.457 259.321 149.457H258.996C244.169 149.674 242.545 147.293 242.545 147.293L234.536 132.357L236.701 128.461C236.701 128.461 242.653 135.821 246.658 136.037C250.338 136.145 252.827 133.656 253.26 127.812C253.801 120.56 249.472 117.746 246.766 118.396C242.545 119.262 236.701 125.539 236.701 125.539L234.428 121.751C234.428 121.751 241.788 114.824 239.948 109.737C238.216 104.975 231.939 104.867 231.939 104.867C231.939 104.867 225.445 105.408 223.93 109.737C222.198 114.932 229.341 121.751 229.341 121.751L227.068 125.539C227.068 125.539 220.683 118.72 216.678 118.396C213.865 118.179 210.401 121.426 210.618 126.946C210.834 133.872 213.432 136.253 217.22 136.145C221.224 136.037 227.285 128.569 227.285 128.569L229.341 132.465L221.549 147.293C221.549 147.293 221.549 149.674 204.557 149.674C189.73 149.674 188.214 146.643 188.214 146.643L181.504 133.223L183.344 129.327C183.344 129.327 189.73 136.253 193.734 136.578C197.306 136.795 198.929 134.305 198.929 128.569C198.929 120.236 194.6 119.37 193.193 119.586C188.647 120.344 184.21 126.729 184.21 126.729L181.071 122.617C181.071 122.617 188.106 117.097 186.483 112.01C184.859 107.032 178.366 106.924 178.366 106.924C178.366 106.924 170.898 107.14 170.14 113.093C169.599 117.53 175.768 122.617 175.768 122.617L172.629 126.729C172.629 126.729 168.192 120.56 163.971 119.695C161.265 119.153 157.91 121.318 157.91 128.136C157.91 134.197 159.534 137.011 163.214 136.578C167.326 136.145 173.495 129.327 173.495 129.327L175.335 133.223L168.625 146.535C168.625 146.535 167.11 149.349 150.984 149.566C140.377 149.782 133.342 146.752 133.342 146.752L126.524 133.223L128.256 129.327C128.256 129.327 134.641 136.362 138.646 136.578C142.325 136.686 143.841 134.305 143.841 128.136C143.841 120.777 139.944 119.153 137.996 119.586C133.342 120.669 129.23 126.838 129.23 126.838L126.091 122.725C126.091 122.725 132.26 117.53 129.879 112.551C127.931 108.547 122.736 109.088 122.736 109.088C122.736 109.088 118.299 109.413 115.701 111.036L128.256 166.666H259.537" fill="white"/>
<path d="M232.367 38.7363C220.787 38.7363 211.479 48.1522 211.479 59.6245C211.479 71.0967 220.895 80.5126 232.367 80.5126C243.839 80.5126 253.255 71.0967 253.255 59.6245C253.255 48.1522 243.839 38.7363 232.367 38.7363Z" fill="white"/>
<path d="M237.566 37.0087V22.2896H248.714V12.3325H237.35V0.210938H227.176V12.3325H215.812V22.2896H227.068V37.0087C228.8 36.5758 230.532 36.3593 232.48 36.3593C234.428 36.3593 236.051 36.5758 237.783 37.0087H237.566Z" fill="white"/>
<path d="M167.546 96.8564C167.546 96.8564 159.321 98.1552 148.822 102.701C138.974 106.922 132.696 111.9 132.696 111.9C132.696 111.9 133.346 114.065 133.021 115.58C133.021 115.58 140.705 109.303 150.662 105.19C159.97 101.294 167.979 99.8868 167.979 99.8868L167.546 96.9647V96.8564Z" fill="white"/>
<path d="M182.48 94.9063L182.804 97.9367C182.804 97.9367 204.234 95.5556 224.256 95.3392V92.417C212.243 92.5252 190.705 93.9322 182.372 95.0145L182.48 94.9063Z" fill="white"/>
<path d="M296.986 97.0781C296.986 97.0781 305.428 98.1604 315.926 102.706C325.775 106.927 331.078 111.148 331.078 111.148C331.078 111.148 330.212 112.988 330.429 114.611C330.429 114.611 323.935 109.308 313.978 105.195C304.67 101.299 296.445 100 296.445 100L296.878 97.0781H296.986Z" fill="white"/>
<path d="M282.046 95.0145L281.721 98.0449C281.721 98.0449 259.967 95.7721 239.836 95.4474L240.053 92.417C251.958 92.5252 273.82 94.0404 282.046 95.0145Z" fill="white"/>
<path d="M340.276 275.977C340.276 275.977 334.973 277.276 331.077 275.544C329.994 275.003 325.232 273.921 324.475 274.029C321.12 274.245 318.089 275.219 318.089 275.219C318.089 275.219 321.986 267.968 331.726 259.201C341.467 250.543 354.671 232.253 350.883 215.91C347.095 199.568 338.22 194.264 326.856 194.373C314.301 194.589 307.591 197.836 303.695 207.36C302.071 211.148 303.154 214.72 301.963 219.265C301.855 219.806 299.258 223.919 296.768 227.274C294.712 230.196 291.14 240.803 291.14 240.803L292.547 240.586L302.071 230.846L302.721 236.365C302.721 236.365 298.175 242.21 291.898 250.11C287.894 255.197 282.157 266.669 280.967 270.89L283.456 270.349C283.456 270.349 288.326 263.314 301.855 253.249C306.184 250.002 313.652 245.024 315.167 240.153C316.682 235.283 315.492 229.872 315.492 229.872C315.492 229.872 319.172 232.794 320.579 237.556C321.986 242.318 321.228 246.214 321.228 246.214C321.228 246.214 325.449 234.958 324.583 228.789C323.284 219.59 320.903 217.533 316.574 216.451C315.492 216.235 311.596 216.126 311.596 216.126C311.596 216.126 308.457 205.628 318.955 202.165C326.206 199.784 335.081 199.351 341.034 209.308C347.311 219.698 343.956 232.144 338.869 238.422C333.458 245.132 323.717 254.115 305.86 266.453C292.98 275.328 282.266 287.016 283.889 299.354C286.054 315.156 299.041 333.879 305.21 343.403C311.487 352.927 314.626 364.508 308.89 372.733C303.478 380.418 290.491 383.773 282.157 377.82C275.339 372.95 267.114 359.421 260.403 341.022C254.884 325.87 247.957 317.428 247.957 317.428L249.039 265.371L252.719 267.102C252.719 267.102 253.152 261.907 254.667 257.903C256.615 252.708 263.434 243.833 267.547 233.66C271.659 223.594 271.659 209.416 271.659 209.416C271.659 209.416 274.473 206.927 275.988 204.654L276.205 199.892L271.984 197.186H272.092L280.101 184.957C278.586 184.307 275.123 186.039 275.123 186.039C275.123 186.039 271.767 181.818 269.603 185.822C267.979 188.961 271.226 189.935 271.226 189.935L269.711 192.208L261.161 190.043L260.403 186.905C260.403 186.905 264.3 189.502 265.382 185.498C266.356 181.926 262.027 182.143 262.027 182.143C262.027 182.143 263.326 179.653 259.646 178.571C256.074 177.597 256.074 180.628 256.074 180.628C256.074 180.628 252.395 178.138 251.529 181.818C250.663 185.281 254.559 185.39 254.559 185.39L252.178 187.987L244.061 186.472L243.087 183.55C243.087 183.55 247.633 183.55 246.983 179.87C246.226 175.541 241.896 177.922 241.896 177.922C241.896 177.922 240.598 175.216 238 175.974L239.299 188.961L267.979 195.671L264.733 196.862L238.65 190.801L229.775 197.186L230.749 204.005L234.97 209.308L231.398 215.261L244.927 216.559L243.412 220.131C243.412 220.131 237.134 220.78 226.636 223.486C223.822 224.244 206.506 236.041 201.635 240.586C198.821 243.292 197.198 247.405 197.198 247.405L177.067 237.015L175.985 232.902L171.44 234.092L166.677 231.279C166.677 231.279 171.007 226.192 172.955 220.889C174.47 216.776 171.764 210.932 171.764 210.932L170.033 209.849L169.816 217.317L164.946 219.157L161.915 227.274L160.4 226.192V188.095H153.69V222.187C153.69 222.187 153.041 221.213 148.387 220.78C143.625 220.347 139.729 222.296 139.729 222.296L138.213 224.135L145.789 225.109L147.088 229.98L153.798 231.82V236.041C153.798 236.041 150.876 235.283 146.98 238.638C142.434 242.534 141.136 247.729 141.136 247.729L141.677 249.786C142.867 248.487 145.032 244.915 146.006 245.024C148.82 245.673 149.469 245.781 151.417 246.972L154.015 244.807V297.298C154.015 297.298 150.227 295.999 147.521 296.865C145.898 297.406 144.058 297.623 142.867 298.38L141.677 300.545C141.677 300.545 146.763 299.246 148.603 300.87C150.119 302.276 149.469 303.467 150.227 304.982C150.66 305.74 152.5 306.389 153.149 307.363V315.805L149.144 322.407L148.82 325.979L154.015 321.649V339.94H160.725V322.84L163.647 323.273L172.089 313.857C172.089 313.857 176.743 313.857 177.933 316.13C178.691 317.537 178.15 320.242 179.124 321.433C179.99 321.866 180.855 322.299 180.855 322.299L224.796 269.591L206.83 291.237L210.294 300.328L218.844 309.744L221.658 326.844L200.012 337.126C200.012 337.126 198.064 341.888 196.549 350.655C195.033 359.421 194.168 366.131 194.168 366.131L195.899 373.383L169.6 370.569L167.652 363.534C167.652 363.534 170.898 359.638 173.388 354.551C175.769 349.356 172.955 342.538 172.955 342.538L171.331 340.589L170.682 348.49L166.245 349.464L165.162 357.69L162.673 357.473C162.673 357.473 160.833 352.386 155.53 349.031C150.119 345.568 144.274 347.083 144.274 347.083L143.3 348.382L151.093 350.655L149.794 355.85L158.669 359.529L157.586 361.478L149.469 362.884L148.495 365.698L140.919 365.374L141.677 366.781C141.677 366.781 145.248 369.919 150.876 369.919C156.504 369.919 160.184 367.43 160.184 367.43L163.539 375.655L159.426 379.768L160.725 381.283L164.513 380.85L193.843 387.019L199.363 391.782L208.995 387.452C208.995 387.452 208.995 382.799 210.835 380.093C212.025 378.361 214.298 375.331 215.813 373.383C215.813 373.274 211.268 365.374 210.51 363.75C208.346 359.313 208.129 347.733 208.562 345.784C209.644 340.481 225.879 326.736 225.879 326.736L230.424 317.428L232.48 318.294L227.935 328.251C217.545 336.26 211.159 344.269 210.835 346.542C210.618 347.949 210.618 358.88 212.783 362.884C213.649 364.508 217.437 371.326 217.437 371.326C217.437 371.326 221.549 377.171 227.718 382.799C233.779 388.535 236.701 392.214 237.892 397.301C239.84 405.418 240.598 417.648 240.489 426.956C240.489 430.744 240.489 434.099 240.489 434.099L234.104 435.614C234.104 435.614 229.125 426.631 226.744 425.657C221.658 423.493 217.328 421.653 217.328 421.653L215.164 422.41L220.684 426.956L220.034 433.774L228.909 439.294C228.909 439.294 223.93 441.242 221.441 441.242C216.138 441.242 212.025 449.792 212.025 449.792V451.524L217.653 448.385L222.632 451.091L230.208 444.814L231.723 446.112C231.723 446.112 230.424 451.74 231.29 456.178C232.156 460.615 235.403 465.161 235.403 465.161L237.675 465.593L235.619 457.26L240.381 453.147L238.217 445.571L245.035 440.809L251.204 445.679L252.07 444.705C250.771 433.341 254.234 406.717 254.234 406.717C254.234 406.717 257.373 403.687 257.59 401.089C257.806 398.925 257.806 393.73 257.265 391.998C255.641 390.483 254.234 386.262 254.234 386.262C254.234 386.262 251.421 374.357 252.395 361.045C252.611 358.014 252.719 355.092 252.611 352.386C254.234 355.2 261.053 366.673 267.005 373.924C277.612 386.803 290.383 389.401 297.742 387.236C326.098 378.902 319.28 352.278 319.28 352.278C308.457 325.329 310.405 321 310.405 321L329.02 313.099L328.588 311.909L321.661 312.234L313.544 310.61H308.349V307.796L334.973 295.891L334.54 294.376L329.453 295.025L318.739 292.644L309.323 294.592L310.297 289.938L340.493 276.085L340.276 275.977ZM270.361 200.109L272.633 201.299L272.417 203.897L269.603 206.494L268.845 203.572L266.789 201.407L270.252 200.109H270.361ZM160.941 314.939V307.363C160.941 307.363 165.92 306.93 166.136 309.961C166.245 312.666 160.941 315.047 160.941 315.047V314.939ZM177.717 305.09L172.63 301.735V289.83L166.028 279.44L163.755 279.657L166.894 286.15L163.755 291.778L166.569 299.03L164.296 301.302L160.292 296.324V236.906L165.595 239.829L163.755 243.4L166.894 245.673L169.491 244.699L194.817 263.855L193.194 269.808L200.77 269.159L177.717 305.307V305.09ZM213.54 242.318C211.592 243.292 204.449 256.279 204.449 256.279L202.393 255.305C203.583 252.924 209.861 241.885 212.35 240.478C214.623 239.179 223.065 238.313 228.26 237.88V240.045C228.26 240.045 216.354 240.911 213.54 242.426V242.318ZM236.377 196.429L241.247 192.966L256.724 196.321L257.373 198.81C255.533 197.944 249.689 196.645 249.689 196.645C248.931 199.459 247.741 199.784 247.2 200.109C246.875 200.325 244.277 200.433 242.979 199.892C241.139 199.026 241.139 195.78 241.139 195.78C238.974 196.321 237.351 197.728 237.351 197.728L236.377 196.429ZM238.974 209.416L237.784 205.628L248.823 206.819L249.689 210.607L239.082 209.308L238.974 209.416ZM246.55 198.052L247.308 196.212L243.087 195.455C243.087 195.455 243.303 197.728 243.736 197.836C243.953 197.836 246.009 198.161 246.55 197.944V198.052Z" fill="white"/>
<path d="M414.843 164.832H400.016L409.324 138.532L391.466 88.8555L373.608 138.532L383.024 164.832H368.089V165.806C367.548 166.022 367.006 166.455 367.006 167.105V177.603V193.188V431.507V447.092V458.348C367.006 459.214 367.656 459.863 368.522 459.863H384.323V487.786C369.604 489.518 358.24 502.181 358.24 517.116V521.553H105.526V517.116C105.526 502.289 94.2703 489.734 79.7676 487.894V459.971H95.569C96.4348 459.971 97.0842 459.322 97.0842 458.456V167.105C97.0842 166.347 96.4348 165.698 95.6772 165.59V164.832H81.2828L90.5905 138.641L72.7328 88.9637L54.7668 138.641L64.2909 164.832H49.2472C22.5147 165.481 0.760742 189.292 0.760742 218.08C0.760742 246.869 21.3242 269.273 47.6237 271.112V461.27H65.1568V498.717H78.1442C87.4519 499.691 94.4867 507.592 94.4867 516.9V533.242H369.712V516.9C369.712 509.865 374.474 498.825 387.029 498.825H399.259V461.27H416.683V271.221C442.766 269.705 463.655 246.22 463.655 218.08C463.655 189.941 441.792 165.373 414.952 164.832H414.843ZM48.2731 266.459C48.2731 266.459 47.8402 266.459 47.732 266.459C40.2642 264.835 34.7445 257.8 34.7445 249.359C34.7445 240.917 40.5889 233.557 48.2731 232.15V266.459ZM48.2731 229.12C38.8572 230.527 31.7141 239.077 31.7141 249.359C31.7141 255.419 34.2034 260.831 38.2078 264.619C19.3761 258.774 5.41457 240.159 5.41457 218.08C5.41457 196.002 19.1596 177.711 37.7749 171.65C33.8787 175.438 31.3894 180.742 31.3894 186.694C31.3894 197.084 38.749 205.851 48.3813 207.041V229.12H48.2731ZM48.2731 177.603V204.011C40.3724 202.82 34.4198 195.461 34.4198 186.802C34.4198 178.685 39.3984 171.975 46.4332 169.919C47.0826 169.919 47.732 169.702 48.3813 169.594V177.603H48.2731ZM94.0538 412.784L80.0923 392.87L94.0538 372.523V412.784ZM72.6245 221.544L52.9269 193.08H92.3222L72.6245 221.544ZM93.8374 196.435L94.0538 206.5L78.1442 229.444L74.5727 224.249L93.9456 196.326L93.8374 196.435ZM93.7291 256.935V267.866L51.52 207.474V196.651L93.7291 257.043V256.935ZM93.8374 277.39L94.0538 287.455L78.1442 310.399L74.5727 305.204L93.8374 277.281V277.39ZM93.4044 272.628L72.6245 302.607L52.1693 273.061V272.303L72.6245 242.757L93.4044 272.736V272.628ZM93.7291 337.889V348.821L52.1693 289.295V278.364L93.7291 337.889ZM93.8374 357.587L94.0538 367.761L78.2524 390.272L74.5727 385.077L93.8374 357.587ZM72.6245 382.372L52.1693 353.258L72.6245 323.712L93.0798 353.258L72.6245 382.372ZM65.3732 313.213L52.1693 332.586V294.165L65.3732 313.213ZM67.2131 315.811L70.7847 321.006L52.1693 347.847V337.457L67.2131 315.703V315.811ZM93.7291 417.221V428.152L52.1693 369.384V358.453L93.7291 417.113V417.221ZM92.3222 431.399H52.9269L72.6245 403.368L92.3222 431.399ZM65.265 392.87L52.1693 411.918V374.254L65.265 392.87ZM67.1049 395.575L70.7847 400.77L52.1693 427.286V416.896L67.1049 395.575ZM94.0538 434.429V443.954H52.1693V434.429H94.0538ZM94.0538 333.452L79.9841 313.105L94.0538 292.325V333.344V333.452ZM94.0538 252.497L79.9841 232.15L94.0538 211.479V252.605V252.497ZM74.248 164.832V140.156H85.2873L76.5208 164.832H74.248ZM74.248 106.389L85.2873 137.017H74.248V106.389ZM71.1093 106.821V137.125H60.1783L71.1093 106.821ZM60.2865 140.156H71.2176V164.832H69.2695L60.2865 140.156ZM51.3035 169.378H94.0538V177.603H51.3035V169.378ZM51.3035 180.633H94.0538V190.157H51.3035V180.633ZM51.3035 211.911L65.3732 232.15L51.3035 252.714V211.911ZM51.6282 266.675H51.4117L51.3035 259.857V257.692L67.2131 234.748L70.7847 239.943L51.8446 267.324L51.6282 266.567V266.675ZM76.7372 494.172H69.7024V459.755H76.7372V494.172ZM67.3213 456.725H52.1693V447.092H94.0538V456.725H67.3213ZM384.215 494.496C371.011 496.012 364.95 508.025 364.95 516.9V528.697H98.9241V516.9C98.9241 505.752 90.9152 496.336 79.7676 494.388V490.708C92.6468 492.548 102.496 503.696 102.496 516.9V522.852C102.496 523.718 103.145 524.367 104.011 524.367H359.647C360.513 524.367 361.162 523.718 361.162 522.852V516.9C361.162 503.588 371.227 492.44 384.215 490.6V494.496ZM392.873 164.832V140.156H403.912L395.146 164.832H392.873ZM392.873 106.389L403.912 137.017H392.873V106.389ZM389.843 106.821V137.017H379.02L389.843 106.821ZM378.912 140.048H389.843V164.724H387.786L378.912 140.048ZM370.037 211.803L384.107 232.15L370.037 252.822V211.803ZM385.946 234.748L389.518 239.943L370.253 267.866L370.037 257.8L385.946 234.856V234.748ZM370.037 292.758L384.107 313.105L370.037 333.777V292.758ZM370.145 348.821L369.929 338.755L385.838 315.811L389.41 321.006L370.037 348.929L370.145 348.821ZM391.358 323.603L411.813 353.15L391.358 382.372L370.903 353.15L391.358 323.603ZM370.037 372.956L383.998 392.87L370.037 413.217V372.956ZM370.145 428.369L369.929 418.195L385.73 395.575L389.41 400.77L370.145 428.369ZM391.358 403.476L410.947 431.399H371.768L391.358 403.476ZM394.496 494.172H387.353V459.755H394.496V494.172ZM412.029 456.725H370.037V446.984H412.029V456.725ZM412.029 443.954H370.037V434.429H412.029V443.954ZM412.029 427.611L370.361 368.626V357.695L412.029 416.68V427.611ZM412.029 411.81L398.826 392.978L412.029 373.713V411.81ZM412.029 368.735L396.877 390.272L393.198 385.077L411.921 358.345V368.735H412.029ZM412.029 348.063L370.361 288.321V277.498L412.029 337.24V348.171V348.063ZM412.029 332.37L398.717 313.105L412.029 293.516V332.37ZM412.029 288.537L396.877 310.399L393.306 305.204L412.029 278.147V288.537ZM412.029 272.844L391.466 302.607L370.686 272.628L391.466 242.648L412.138 272.411V272.844H412.029ZM412.462 266.783H412.029V267.108L370.361 207.366V196.435L412.571 256.826V266.783H412.462ZM371.66 193.08H411.055L391.358 221.544L371.66 193.08ZM412.679 252.281L398.717 232.042L412.679 211.479V252.281ZM412.679 206.608L396.877 229.444L393.306 224.249L412.679 196.326V203.037L412.787 206.5L412.679 206.608ZM412.679 190.049H370.037V180.525H412.679V190.049ZM412.679 177.603H370.037V169.486H412.679V177.603ZM415.709 193.08V169.486C416.467 169.486 417.224 169.702 417.982 169.81C424.909 171.867 429.887 178.577 429.887 186.694C429.887 195.569 423.718 202.928 415.709 204.011V193.08ZM417.766 266.134C417.116 266.134 416.467 266.459 415.709 266.459V232.15C423.502 233.341 429.563 240.592 429.563 249.359C429.563 257.367 424.692 263.969 417.766 266.134ZM426.316 264.402C430.104 260.614 432.593 255.419 432.593 249.359C432.593 238.969 425.233 230.31 415.709 229.012V207.041C425.45 205.959 432.918 197.192 432.918 186.694C432.918 180.633 430.428 175.438 426.64 171.65C445.256 177.603 459.001 196.218 459.001 217.972C459.001 239.726 445.256 258.233 426.316 264.294V264.402Z" fill="white"/>
<path d="M163.217 471.112H150.446C149.581 471.112 148.931 470.463 148.931 469.597V456.826C148.931 455.96 149.581 455.311 150.446 455.311H163.217C164.083 455.311 164.733 455.96 164.733 456.826V469.597C164.733 470.463 164.083 471.112 163.217 471.112ZM152.07 468.082H161.702V458.449H152.07V468.082Z" fill="white"/>
<path d="M200.664 507.258H187.893C187.027 507.258 186.378 506.609 186.378 505.743V492.972C186.378 492.106 187.027 491.457 187.893 491.457H200.664C201.53 491.457 202.179 492.106 202.179 492.972V505.743C202.179 506.609 201.53 507.258 200.664 507.258ZM189.408 504.228H199.041V494.596H189.408V504.228Z" fill="white"/>
<path d="M125.768 434.744H113.106C112.24 434.744 111.59 434.094 111.59 433.229V420.458C111.59 419.592 112.24 418.942 113.106 418.942H125.768C126.634 418.942 127.283 419.592 127.283 420.458V433.229C127.283 434.094 126.634 434.744 125.768 434.744ZM114.621 431.713H124.253V422.081H114.621V431.713Z" fill="white"/>
<path d="M125.877 507.258H113.106C112.24 507.258 111.59 506.609 111.59 505.743V492.972C111.59 492.106 112.24 491.457 113.106 491.457H125.877C126.742 491.457 127.392 492.106 127.392 492.972V505.743C127.392 506.609 126.742 507.258 125.877 507.258ZM114.621 504.228H124.253V494.596H114.621V504.228Z" fill="white"/>
<path d="M275.227 507.258H262.565C261.699 507.258 261.049 506.609 261.049 505.743V492.972C261.049 492.106 261.699 491.457 262.565 491.457H275.227C276.093 491.457 276.742 492.106 276.742 492.972V505.743C276.742 506.609 276.093 507.258 275.227 507.258ZM264.08 504.228H273.712V494.596H264.08V504.228Z" fill="white"/>
<path d="M312.674 471.112H300.011C299.145 471.112 298.496 470.463 298.496 469.597V456.826C298.496 455.96 299.145 455.311 300.011 455.311H312.674C313.54 455.311 314.189 455.96 314.189 456.826V469.597C314.189 470.463 313.54 471.112 312.674 471.112ZM301.418 468.082H311.051V458.449H301.418V468.082Z" fill="white"/>
<path d="M350.123 434.744H337.352C336.486 434.744 335.837 434.094 335.837 433.229V420.458C335.837 419.592 336.486 418.942 337.352 418.942H350.123C350.989 418.942 351.638 419.592 351.638 420.458V433.229C351.638 434.094 350.989 434.744 350.123 434.744ZM338.867 431.713H348.5V422.081H338.867V431.713Z" fill="white"/>
<path d="M350.017 507.258H337.246C336.38 507.258 335.731 506.609 335.731 505.743V492.972C335.731 492.106 336.38 491.457 337.246 491.457H350.017C350.883 491.457 351.532 492.106 351.532 492.972V505.743C351.532 506.609 350.883 507.258 350.017 507.258ZM338.87 504.228H348.502V494.596H338.87V504.228Z" fill="white"/>
<path d="M123.821 347.409C123.604 346.868 123.063 346.543 122.414 346.543H113.106C112.24 346.543 111.591 347.192 111.591 348.058V360.829C111.591 361.695 112.24 362.344 113.106 362.344H125.769C126.635 362.344 127.284 361.695 127.284 360.829V354.877C125.985 352.496 124.903 350.006 123.821 347.517V347.409ZM124.254 359.206H114.621V349.573H121.44C122.414 351.738 123.388 353.903 124.254 355.418V359.206Z" fill="white"/>
<path d="M350.124 346.429H341.249C340.599 346.429 340.058 346.754 339.842 347.295C338.543 350.109 337.353 352.923 335.837 356.387V360.607C335.837 361.473 336.487 362.123 337.353 362.123H350.124C350.989 362.123 351.639 361.473 351.639 360.607V347.836C351.639 346.971 350.989 346.321 350.124 346.321V346.429ZM348.5 359.2H338.76V357.144C339.842 354.655 341.032 352.166 342.223 349.568H348.5V359.2Z" fill="white"/>
<path d="M176.638 432.583V427.496C176.638 427.496 176.53 426.739 176.205 426.522C173.933 424.033 171.768 421.544 169.495 418.946C169.17 418.621 168.738 418.405 168.305 418.405H167.006C166.357 417.756 165.815 416.998 165.166 416.24V414.401C165.166 414.401 165.058 413.751 164.841 413.427C163.326 411.478 161.703 409.53 160.188 407.582C159.863 407.257 159.43 407.041 158.997 407.041H150.988C150.122 407.041 149.473 407.69 149.473 408.556V418.405H139.624C138.758 418.405 138.109 419.054 138.109 419.92V432.583C138.109 433.449 138.758 434.098 139.624 434.098H149.473V443.947C149.473 444.813 150.122 445.462 150.988 445.462H163.651C164.517 445.462 165.166 444.813 165.166 443.947V434.098H175.015C175.881 434.098 176.53 433.449 176.53 432.583H176.638ZM173.5 431.068H163.651C162.785 431.068 162.136 431.717 162.136 432.583V442.432H152.503V432.583C152.503 431.717 151.854 431.068 150.988 431.068H141.139V421.435H150.988C151.854 421.435 152.503 420.786 152.503 419.92V410.071H158.239C159.538 411.695 160.837 413.426 162.136 415.05V419.92C162.136 420.786 162.785 421.435 163.651 421.435H167.547C169.495 423.708 171.552 425.981 173.5 428.146V431.068Z" fill="white"/>
<path d="M205.421 454.991C205.421 454.991 204.772 454.666 204.447 454.666H202.715C202.715 454.666 202.607 454.666 202.499 454.558V453.259C202.499 453.259 202.282 452.393 201.958 452.177C199.036 449.579 196.005 446.873 192.867 443.843C192.542 443.627 192.217 443.41 191.784 443.41H188.213C187.347 443.41 186.697 444.06 186.697 444.925V454.774H176.849C175.983 454.774 175.333 455.424 175.333 456.289V468.952C175.333 469.818 175.983 470.467 176.849 470.467H186.697V480.316C186.697 481.182 187.347 481.831 188.213 481.831H200.875C201.741 481.831 202.391 481.182 202.391 480.316V470.467H212.239C213.105 470.467 213.755 469.818 213.755 468.952V462.891C213.755 462.891 213.538 462.025 213.214 461.701C210.724 459.644 208.127 457.48 205.313 455.099L205.421 454.991ZM210.832 467.22H200.984C200.118 467.22 199.468 467.87 199.468 468.736V478.584H189.836V468.736C189.836 467.87 189.187 467.22 188.321 467.22H178.472V457.588H188.321C189.187 457.588 189.836 456.939 189.836 456.073V446.332H191.351C194.165 449.038 196.871 451.527 199.577 453.8V456.073C199.577 456.939 200.226 457.588 201.092 457.588H203.906C206.395 459.644 208.668 461.593 210.832 463.432V467.22Z" fill="white"/>
<path d="M112.238 336.583C112.238 337.449 112.887 338.098 113.753 338.098H117.974C117.974 338.098 118.948 337.882 119.164 337.449C119.489 337.016 119.489 336.583 119.381 336.042C117.108 329.223 114.835 321.215 112.887 312.232C112.779 311.582 112.129 311.041 111.372 311.041H102.389C101.523 311.041 100.874 311.69 100.874 312.556V325.219C100.874 326.085 101.523 326.734 102.389 326.734H112.238V336.475V336.583ZM103.904 323.704V314.071H110.181C110.939 317.427 111.696 320.673 112.562 323.704H103.904Z" fill="white"/>
<path d="M286.914 454.551H277.065V444.703C277.065 443.837 276.415 443.188 275.55 443.188H271.653C271.653 443.188 270.896 443.296 270.571 443.62C267.541 446.434 264.619 449.14 261.805 451.629C261.48 451.954 261.263 452.279 261.263 452.712V454.01C261.263 454.01 260.939 454.335 260.722 454.443H258.991C258.991 454.443 258.233 454.552 258.017 454.768C255.311 457.041 252.822 459.205 250.441 461.045C250.116 461.37 249.899 461.803 249.899 462.236V468.621C249.899 469.487 250.549 470.136 251.415 470.136H261.263V479.985C261.263 480.851 261.913 481.5 262.779 481.5H275.441C276.307 481.5 276.957 480.851 276.957 479.985V470.136H286.805C287.671 470.136 288.321 469.487 288.321 468.621V455.958C288.321 455.093 287.671 454.443 286.805 454.443L286.914 454.551ZM285.398 467.214H275.55C274.684 467.214 274.034 467.864 274.034 468.729V478.578H264.402V468.729C264.402 467.864 263.753 467.214 262.887 467.214H253.038V463.102C255.094 461.37 257.367 459.53 259.64 457.582H262.779C263.644 457.582 264.294 456.933 264.294 456.067V453.469C266.783 451.196 269.489 448.815 272.086 446.218H273.818V455.958C273.818 456.824 274.467 457.474 275.333 457.474H285.182V467.106L285.398 467.214Z" fill="white"/>
<path d="M324.26 418.405H314.519V408.556C314.519 407.69 313.87 407.041 313.004 407.041H304.67C304.67 407.041 303.804 407.257 303.48 407.582C302.073 409.422 300.558 411.262 299.151 413.102C298.934 413.318 298.826 413.751 298.826 414.076V415.916C298.177 416.782 297.419 417.539 296.77 418.405H295.471C295.471 418.405 294.605 418.621 294.28 418.946C292.116 421.435 290.059 423.816 287.895 426.197C287.678 426.522 287.462 426.847 287.462 427.172V432.583C287.462 433.449 288.111 434.098 288.977 434.098H298.826V443.947C298.826 444.813 299.475 445.462 300.341 445.462H313.004C313.87 445.462 314.519 444.813 314.519 443.947V434.098H324.26C325.125 434.098 325.775 433.449 325.775 432.583V419.92C325.775 419.054 325.125 418.405 324.26 418.405ZM322.744 431.068H313.004C312.138 431.068 311.489 431.717 311.489 432.583V442.432H301.856V432.583C301.856 431.717 301.207 431.068 300.341 431.068H290.492V427.713C292.332 425.656 294.28 423.6 296.12 421.327H300.341C301.207 421.327 301.856 420.678 301.856 419.812V414.509C303.047 412.994 304.237 411.478 305.428 409.963H311.489V419.812C311.489 420.678 312.138 421.327 313.004 421.327H322.744V430.96V431.068Z" fill="white"/>
<path d="M361.593 311.041H352.286C351.528 311.041 350.987 311.582 350.77 312.232C348.822 321.215 346.549 329.332 344.277 336.15C344.06 336.583 344.277 337.124 344.493 337.557C344.818 337.99 345.251 338.206 345.684 338.206H350.229C351.095 338.206 351.744 337.557 351.744 336.691V326.842H361.485C362.351 326.842 363 326.193 363 325.327V312.664C363 311.799 362.351 311.149 361.485 311.149L361.593 311.041ZM360.078 323.812H351.095C351.853 320.782 352.719 317.535 353.476 314.18H360.078V323.812Z" fill="white"/>
<path d="M102.388 397.952H112.237V407.692C112.237 408.558 112.886 409.207 113.752 409.207H126.415C127.281 409.207 127.93 408.558 127.93 407.692V397.952H137.779C138.645 397.952 139.294 397.302 139.294 396.436V383.774C139.294 382.908 138.645 382.259 137.779 382.259H127.93V372.41C127.93 371.544 127.281 370.895 126.415 370.895H113.752C112.886 370.895 112.237 371.544 112.237 372.41V382.259H102.388C101.522 382.259 100.873 382.908 100.873 383.774V396.436C100.873 397.302 101.522 397.952 102.388 397.952ZM103.903 385.181H113.752C114.618 385.181 115.267 384.531 115.267 383.666V373.817H124.9V383.666C124.9 384.531 125.549 385.181 126.415 385.181H136.264V394.813H126.415C125.549 394.813 124.9 395.462 124.9 396.328V406.177H115.267V396.328C115.267 395.462 114.618 394.813 113.752 394.813H103.903V385.181Z" fill="white"/>
<path d="M102.388 470.35H112.237V480.199C112.237 481.065 112.886 481.714 113.752 481.714H126.415C127.281 481.714 127.93 481.065 127.93 480.199V470.35H137.779C138.645 470.35 139.294 469.701 139.294 468.835V456.172C139.294 455.306 138.645 454.657 137.779 454.657H127.93V444.808C127.93 443.942 127.281 443.293 126.415 443.293H113.752C112.886 443.293 112.237 443.942 112.237 444.808V454.657H102.388C101.522 454.657 100.873 455.306 100.873 456.172V468.835C100.873 469.701 101.522 470.35 102.388 470.35ZM103.903 457.579H113.752C114.618 457.579 115.267 456.93 115.267 456.064V446.323H124.9V456.064C124.9 456.93 125.549 457.579 126.415 457.579H136.264V467.211H126.415C125.549 467.211 124.9 467.861 124.9 468.727V478.576H115.267V468.727C115.267 467.861 114.618 467.211 113.752 467.211H103.903V457.579Z" fill="white"/>
<path d="M288.871 506.391H298.72V516.132C298.72 516.998 299.369 517.647 300.235 517.647H312.898C313.764 517.647 314.413 516.998 314.413 516.132V506.391H324.154C325.02 506.391 325.669 505.742 325.669 504.876V492.213C325.669 491.347 325.02 490.698 324.154 490.698H314.413V480.849C314.413 479.983 313.764 479.334 312.898 479.334H300.235C299.369 479.334 298.72 479.983 298.72 480.849V490.698H288.871C288.005 490.698 287.356 491.347 287.356 492.213V504.876C287.356 505.742 288.005 506.391 288.871 506.391ZM290.495 493.728H300.343C301.209 493.728 301.859 493.079 301.859 492.213V482.364H311.491V492.213C311.491 493.079 312.14 493.728 313.006 493.728H322.747V503.361H313.006C312.14 503.361 311.491 504.01 311.491 504.876V514.616H301.859V504.876C301.859 504.01 301.209 503.361 300.343 503.361H290.495V493.728Z" fill="white"/>
<path d="M214.295 506.391H224.144V516.132C224.144 516.998 224.793 517.647 225.659 517.647H238.322C239.188 517.647 239.837 516.998 239.837 516.132V506.391H249.686C250.552 506.391 251.201 505.742 251.201 504.876V492.213C251.201 491.347 250.552 490.698 249.686 490.698H239.837V480.849C239.837 479.983 239.188 479.334 238.322 479.334H225.659C224.793 479.334 224.144 479.983 224.144 480.849V490.698H214.295C213.429 490.698 212.78 491.347 212.78 492.213V504.876C212.78 505.742 213.429 506.391 214.295 506.391ZM215.81 493.728H225.551C226.417 493.728 227.066 493.079 227.066 492.213V482.364H236.698V492.213C236.698 493.079 237.348 493.728 238.214 493.728H248.062V503.361H238.214C237.348 503.361 236.698 504.01 236.698 504.876V514.616H227.066V504.876C227.066 504.01 226.417 503.361 225.551 503.361H215.81V493.728Z" fill="white"/>
<path d="M138.214 492.213V504.876C138.214 505.742 138.863 506.391 139.729 506.391H149.578V516.132C149.578 516.998 150.227 517.647 151.093 517.647H163.756C164.622 517.647 165.271 516.998 165.271 516.132V506.391H175.12C175.986 506.391 176.635 505.742 176.635 504.876V492.213C176.635 491.347 175.986 490.698 175.12 490.698H165.271V480.849C165.271 479.983 164.622 479.334 163.756 479.334H151.093C150.227 479.334 149.578 479.983 149.578 480.849V490.698H139.729C138.863 490.698 138.214 491.347 138.214 492.213ZM141.244 493.728H151.093C151.959 493.728 152.608 493.079 152.608 492.213V482.364H162.241V492.213C162.241 493.079 162.89 493.728 163.756 493.728H173.605V503.361H163.756C162.89 503.361 162.241 504.01 162.241 504.876V514.616H152.608V504.876C152.608 504.01 151.959 503.361 151.093 503.361H141.244V493.728Z" fill="white"/>
<path d="M326.202 397.952H335.942V407.692C335.942 408.558 336.592 409.207 337.458 409.207H350.228C351.094 409.207 351.744 408.558 351.744 407.692V397.952H361.484C362.35 397.952 362.999 397.302 362.999 396.436V383.774C362.999 382.908 362.35 382.259 361.484 382.259H351.744V372.41C351.744 371.544 351.094 370.895 350.228 370.895H337.458C336.592 370.895 335.942 371.544 335.942 372.41V382.259H326.202C325.336 382.259 324.687 382.908 324.687 383.774V396.436C324.687 397.302 325.336 397.952 326.202 397.952ZM327.717 385.181H337.458C338.323 385.181 338.973 384.531 338.973 383.666V373.817H348.605V383.666C348.605 384.531 349.254 385.181 350.12 385.181H359.861V394.813H350.12C349.254 394.813 348.605 395.462 348.605 396.328V406.177H338.973V396.328C338.973 395.462 338.323 394.813 337.458 394.813H327.717V385.181Z" fill="white"/>
<path d="M326.202 470.35H335.942V480.199C335.942 481.065 336.592 481.714 337.458 481.714H350.228C351.094 481.714 351.744 481.065 351.744 480.199V470.35H361.484C362.35 470.35 362.999 469.701 362.999 468.835V456.172C362.999 455.306 362.35 454.657 361.484 454.657H351.744V444.808C351.744 443.942 351.094 443.293 350.228 443.293H337.458C336.592 443.293 335.942 443.942 335.942 444.808V454.657H326.202C325.336 454.657 324.687 455.306 324.687 456.172V468.835C324.687 469.701 325.336 470.35 326.202 470.35ZM327.717 457.579H337.458C338.323 457.579 338.973 456.93 338.973 456.064V446.323H348.605V456.064C348.605 456.93 349.254 457.579 350.12 457.579H359.861V467.211H350.12C349.254 467.211 348.605 467.861 348.605 468.727V478.576H338.973V468.727C338.973 467.861 338.323 467.211 337.458 467.211H327.717V457.579Z" fill="white"/>
<path d="M554.672 441.359H585.625C604.782 441.359 613.981 447.745 613.981 467.875C613.981 488.006 604.457 494.5 585.409 494.5H566.252V522.206H554.672V441.359ZM585.625 484.651C595.258 484.651 602.509 483.136 602.509 468.092C602.509 453.048 594.933 451.316 585.409 451.316H566.252V484.543H585.625V484.651Z" fill="white"/>
<path d="M621.987 481.836C621.987 447.203 637.247 440.06 657.486 440.06C677.725 440.06 692.768 446.986 692.768 481.619C692.768 516.253 677.508 523.396 657.269 523.396C637.031 523.396 621.987 516.361 621.987 481.836ZM680.538 484.65V479.022C680.538 455.969 671.664 450.45 657.269 450.45C642.875 450.45 634.217 455.753 634.217 478.805V484.433C634.217 507.594 643.2 513.222 657.486 513.222C671.772 513.222 680.538 507.811 680.538 484.65Z" fill="white"/>
<path d="M704.247 441.359H715.828V512.033H757.928V522.206H704.247V441.359Z" fill="white"/>
<path d="M769.068 441.359H780.757V522.206H769.068V441.359Z" fill="white"/>
<path d="M818.429 451.855H791.697V441.465H856.417V451.855H829.901V522.312H818.321V451.855H818.429Z" fill="white"/>
<path d="M867.773 441.359H879.462V522.206H867.773V441.359Z" fill="white"/>
<path d="M895.919 441.351H946.029V451.741H907.392V474.794H937.371V485.076H907.392V511.916H946.029V522.09H895.919V441.243V441.351Z" fill="white"/>
<path d="M979.683 451.855H952.951V441.465H1017.67V451.855H991.155V522.312H979.575V451.855H979.683Z" fill="white"/>
<path d="M1022.66 519.497L1024.5 509.54C1028.39 510.514 1040.84 512.787 1048.96 512.787C1061.51 512.787 1066.6 510.839 1066.6 500.016C1066.6 490.709 1063.46 489.626 1049.71 486.596C1028.72 481.942 1023.2 478.479 1023.2 462.244C1023.2 446.01 1033.16 440.599 1050.9 440.599C1061.08 440.599 1072.12 442.33 1075.15 443.304L1073.31 453.261C1069.63 452.612 1059.56 451.097 1050.69 451.097C1040.08 451.097 1035.1 453.478 1035.1 462.136C1035.1 471.552 1038.46 472.959 1052.42 476.098C1070.39 479.994 1078.72 482.7 1078.72 499.908C1078.72 517.982 1068.33 522.961 1048.85 522.961C1038.24 522.961 1026.55 520.796 1022.55 519.497H1022.66Z" fill="white"/>
<path d="M1132.07 441.359H1143.76V522.206H1132.07V441.359Z" fill="white"/>
<path d="M1190.4 451.855H1163.67V441.465H1228.39V451.855H1201.87V522.312H1190.4V451.855Z" fill="white"/>
<path d="M1236.72 486.817H1267.46V496.774H1236.72V486.817Z" fill="white"/>
<path d="M1293.44 441.351H1343.55V451.741H1304.91V474.794H1334.89V485.076H1304.91V511.916H1343.55V522.09H1293.44V441.243V441.351Z" fill="white"/>
<path d="M1361.3 441.359H1372.67L1413.25 501.426V441.359H1424.29V522.206H1414.23L1372.45 460.408V522.206H1361.41V441.359H1361.3Z" fill="white"/>
<path d="M1441.94 441.359H1453.52V474.153H1494.97V441.359H1506.55V522.206H1494.97V484.867H1453.52V522.206H1441.94V441.359Z" fill="white"/>
<path d="M1522.45 441.351H1572.56V451.741H1533.92V474.794H1563.9V485.076H1533.92V511.916H1572.56V522.09H1522.45V441.243V441.351Z" fill="white"/>
<path d="M1606.23 451.855H1579.49V441.465H1644.21V451.855H1617.7V522.312H1606.12V451.855H1606.23Z" fill="white"/>
</g>
<defs>
<clipPath id="clip0_1957_77">
<rect width="1905.69" height="534" fill="white"/>
</clipPath>
</defs>
</svg>
