<svg width="1452" height="882" viewBox="0 0 1452 882" fill="none" xmlns="http://www.w3.org/2000/svg">
<path d="M8.13953 426.142C-4.0675 495.359 -2.88391 592.734 29.2435 650.188C168.129 990.813 1208.92 897.916 1365.39 732.158C1488.45 566.4 1420.66 196.203 946.275 258.836C866.68 269.193 785.638 266.974 707.201 251.439C484.625 207.546 71.4238 67.3027 8.13953 426.142Z" fill="#BFD8F1"/>
<mask id="mask0_782_103" style="mask-type:alpha" maskUnits="userSpaceOnUse" x="2" y="0" width="1450" height="880">
<path d="M9.82739 424.357C-2.37964 493.574 -1.19604 590.949 30.9314 648.403C169.816 989.029 1210.6 896.131 1367.07 730.373C1490.14 564.615 1541.83 -57.2606 1067.44 5.37219C987.85 15.7288 655.375 42.7662 576.938 27.2313C354.362 -16.661 73.1117 65.518 9.82739 424.357Z" fill="#D0E2F3"/>
</mask>
<g mask="url(#mask0_782_103)">
<path d="M128.56 763.851C119.436 757.47 110.768 750.853 102.784 743.999C118.979 739.509 131.297 734.073 131.297 734.073L128.56 763.851Z" fill="#BFD8F1"/>
<path d="M30.4356 649.936C36.3662 614.486 46.6307 568.874 57.8076 513.1C80.6177 399.662 107.99 379.337 107.99 379.337C107.99 379.337 128.747 366.812 178.245 357.359C221.584 349.087 251.465 352.396 251.465 352.396L269.485 357.595L367.112 396.826C367.112 396.826 468.389 436.766 486.181 459.217C503.973 481.905 523.361 627.484 523.361 627.484L454.019 752.74L466.108 869.723C305.525 851.289 198.546 813.004 128.291 763.611L131.256 733.833C131.256 733.833 118.939 739.269 102.744 743.759C68.9846 715.163 45.9464 683.258 30.4356 649.936Z" fill="#262F41"/>
<path d="M541.612 423.055L537.962 398.949C537.734 397.295 538.874 395.877 540.243 395.641C541.612 395.404 543.208 396.586 543.436 398.004L547.086 422.11C547.314 423.764 546.174 425.182 544.805 425.418C543.436 425.655 541.84 424.473 541.612 423.055Z" fill="#00579C"/>
<path d="M565.789 425.419L585.405 411.948C586.774 411.003 588.599 411.475 589.283 412.893C590.196 414.311 589.739 416.202 588.371 416.911L568.754 430.382C567.385 431.327 565.561 430.854 564.876 429.436C563.964 428.018 564.42 426.364 565.789 425.419Z" fill="#00579C"/>
<path d="M585.862 465.594L564.192 456.141C562.824 455.432 562.139 453.778 562.596 452.36C563.28 450.942 564.877 450.233 566.245 450.705L587.915 460.159C589.283 460.868 589.968 462.522 589.512 463.94C588.827 465.594 587.231 466.303 585.862 465.594Z" fill="#00579C"/>
<path d="M511.503 617.792C511.503 617.792 505.801 629.845 490.518 631.499C475.235 633.154 466.34 631.499 466.34 631.499C466.34 631.499 445.354 753.682 450.829 759.59C456.531 765.262 483.903 800.476 519.487 782.042C555.071 763.608 556.667 728.631 547.087 702.635C537.279 676.638 531.804 660.568 523.593 643.079C515.381 625.591 511.503 617.792 511.503 617.792Z" fill="#262F41"/>
<path d="M166.65 463.238C166.65 463.475 166.65 527.52 148.63 585.185C148.174 586.839 146.578 587.548 144.981 587.075C143.384 586.603 142.7 584.948 143.156 583.294C152.052 555.171 156.614 524.921 158.667 501.996C159.807 490.416 160.264 480.727 160.72 473.873C160.948 470.565 160.948 467.729 160.948 465.838C160.948 464.893 160.948 464.184 160.948 463.711C160.948 463.238 160.948 463.002 160.948 463.002C160.948 461.348 162.317 460.166 163.685 460.166C165.054 460.166 166.65 461.584 166.65 463.238Z" fill="white"/>
<path d="M504.205 527.75L545.035 447.161C546.632 444.089 544.579 440.072 541.158 439.599L487.782 432.982C485.045 432.745 482.308 434.163 481.167 436.527L420.72 556.819L425.054 562.018L473.184 566.272L504.205 527.75Z" fill="#262F41"/>
<path d="M511.499 616.609V602.429C511.499 599.829 512.183 597.23 513.323 594.867L527.922 565.089C529.519 562.017 529.975 558.235 529.519 554.927L528.378 545.001C527.922 542.165 528.378 539.329 529.29 536.729L542.292 498.916C543.205 496.553 542.977 493.953 542.064 491.59C538.871 484.5 532.028 469.375 528.606 466.775C519.71 459.922 511.042 455.668 508.077 462.285C505.796 467.012 511.955 473.629 516.973 485.682C518.342 488.754 519.026 490.881 519.482 492.535C519.938 494.19 519.938 496.317 519.026 497.971L507.621 520.422C506.708 522.313 504.427 523.258 502.375 522.549L490.285 517.823C485.951 516.169 481.617 514.987 477.055 514.042C467.247 512.151 449.911 509.079 441.472 510.024C428.014 511.915 425.048 514.751 425.048 520.186C425.048 525.149 433.032 527.749 433.032 527.749C433.032 527.749 414.328 526.567 411.591 535.548C409.994 540.747 412.047 545.001 430.295 548.782C448.543 552.563 461.773 559.653 461.773 559.653L469.756 564.853C470.441 565.325 470.212 566.507 469.3 566.507L439.647 563.907C438.278 563.671 436.91 564.616 436.453 566.034C435.769 568.398 434.857 571.942 435.541 574.306C436.682 578.087 441.928 581.396 441.928 581.396L460.632 592.267C462.229 593.212 462.913 595.103 462.229 596.757C459.948 602.902 455.842 618.027 464.966 630.316C465.65 631.025 466.335 631.734 467.475 631.97C470.669 632.679 478.652 634.097 490.057 631.498C503.971 628.425 508.99 622.045 510.586 619.209C511.271 618.263 511.499 617.554 511.499 616.609Z" fill="white"/>
<path d="M502.841 555.637L478.206 541.221C473.644 538.621 468.853 536.73 463.835 535.549L443.99 531.059C443.078 530.822 442.394 529.877 442.622 528.932C442.85 527.986 443.762 527.277 444.675 527.514L464.52 532.004C469.766 533.185 475.012 535.312 479.802 538.148L504.437 552.565C505.35 553.037 505.578 554.219 505.122 554.928C504.665 555.637 503.753 556.11 502.841 555.637Z" fill="#BFD8F1"/>
<path d="M287.282 270.147C279.07 318.123 263.559 342.937 257.173 351.445C255.348 353.809 254.891 356.881 255.576 359.717C259.91 376.024 277.017 428.489 324.69 443.614C366.205 456.849 376.697 420.217 376.697 420.217L372.82 416.2C368.258 411.473 365.52 405.329 365.064 398.711L362.327 367.043L287.282 270.147Z" fill="white"/>
<mask id="mask1_782_103" style="mask-type:luminance" maskUnits="userSpaceOnUse" x="285" y="296" width="74" height="79">
<path d="M286.379 296.379C292.081 321.903 306.223 346.717 325.84 359.952C337.473 367.751 348.422 372.005 358.687 373.895C355.721 374.368 352.3 374.604 348.65 374.604C336.333 374.604 320.366 371.059 305.311 357.588C283.869 337.737 285.01 308.195 286.379 296.379Z" fill="white"/>
</mask>
<g mask="url(#mask1_782_103)">
<path d="M284.092 296.379H358.909V374.368H284.092V296.379Z" fill="#C9CEE4"/>
</g>
<path d="M450.14 179.632L466.107 213.428C454.93 272.747 438.051 328.757 417.978 350.499C395.396 374.841 363.69 385.476 325.825 359.952C302.103 344.118 286.592 311.741 283.855 281.018C281.118 250.532 315.105 177.505 315.105 177.505L362.322 121.731L450.14 179.632Z" fill="white"/>
<path d="M404.295 265.42C404.295 266.129 403.839 269.201 403.839 273.455C403.839 280.309 404.751 290.707 408.629 300.633C408.857 301.579 409.085 302.288 409.085 303.233C409.085 304.887 408.401 306.541 407.26 307.959C406.12 309.141 404.523 310.086 402.698 310.086H402.47C397.452 309.85 390.153 308.668 383.766 303.942C382.853 303.233 382.397 301.815 383.31 300.633C384.222 299.452 385.362 299.215 386.503 300.161C391.749 304.178 398.136 305.36 402.698 305.36C403.154 305.36 403.611 305.123 404.067 304.887C404.295 304.415 404.523 303.942 404.523 303.469C404.523 303.233 404.523 302.997 404.295 302.524C400.189 291.889 399.277 281.018 399.277 273.692C399.277 268.492 399.733 265.184 399.733 265.184C399.961 264.002 401.101 263.057 402.242 263.057C403.382 263.057 404.523 264.002 404.295 265.42Z" fill="#00263E"/>
<path d="M368.249 254.553C367.108 259.989 368.477 264.952 371.442 265.66C374.407 266.369 377.601 262.352 378.741 256.916C379.882 251.481 378.513 246.518 375.548 245.809C372.583 245.1 369.389 249.117 368.249 254.553Z" fill="#00263E"/>
<path d="M420.72 267.784C419.58 273.22 420.949 278.183 423.914 278.892C426.879 279.601 430.073 275.583 431.213 270.147C432.354 264.712 430.985 259.749 428.02 259.04C425.054 258.567 421.861 262.348 420.72 267.784Z" fill="#00263E"/>
<path d="M362.097 232.571C359.36 232.098 359.132 228.08 361.641 227.135C365.975 225.717 371.906 225.244 379.205 228.317C385.135 230.68 388.557 233.516 390.61 236.115C392.207 238.242 389.926 241.551 387.416 240.369C383.995 238.715 379.205 236.824 373.73 235.17C369.168 233.989 365.291 233.28 362.097 232.571Z" fill="#00263E"/>
<path d="M423.915 249.827C421.177 249.355 420.949 245.337 423.458 244.392C427.792 242.974 433.723 242.501 441.022 245.573C446.953 247.937 450.374 250.773 452.427 253.372C454.024 255.499 451.743 258.808 449.234 257.626C445.812 255.972 441.022 254.081 435.548 252.427C430.986 251.245 427.108 250.536 423.915 249.827Z" fill="#00263E"/>
<path d="M356.389 317.412C356.389 317.412 369.391 327.338 389.464 331.356L356.389 317.412Z" fill="white"/>
<path d="M357.763 315.528C358.447 316.001 370.993 325.218 389.925 328.999C391.066 329.236 391.978 330.417 391.75 331.835C391.522 333.253 390.381 333.962 389.013 333.726C368.484 329.708 355.254 319.546 355.026 319.546C354.113 318.837 353.885 317.183 354.57 316.237C355.254 315.292 356.851 314.583 357.763 315.528Z" fill="#00263E"/>
<path d="M313.517 239.189L318.079 222.409C318.991 218.864 321.501 215.792 324.694 214.374C330.853 211.302 342.942 203.976 359.821 186.251C359.821 186.251 384 162.381 415.022 169.944C446.044 177.507 464.748 180.579 466.345 157.182C467.941 133.785 410.004 128.114 410.004 128.114C410.004 128.114 392.668 91.0097 333.134 121.969C304.393 136.858 291.163 146.075 291.163 146.075C274.056 192.632 287.97 236.353 287.97 236.353H305.305L310.096 240.843C311.236 241.316 313.061 240.843 313.517 239.189Z" fill="#00579C"/>
<path d="M292.788 261.886C285.86 261.886 280.243 250.247 280.243 235.89C280.243 221.533 285.86 209.894 292.788 209.894C299.717 209.894 305.334 221.533 305.334 235.89C305.334 250.247 299.717 261.886 292.788 261.886Z" fill="white"/>
<path d="M399.049 102.826C449.003 121.024 472.498 147.493 482.534 163.091C487.096 170.181 487.324 179.161 483.218 186.487L472.27 205.866C470.901 208.466 471.129 211.775 473.41 213.902C483.447 224.064 504.66 264.713 485.5 248.642C427.106 199.249 375.555 245.806 290.93 146.548C290.701 146.548 305.984 69.0311 399.049 102.826Z" fill="#00263E"/>
<path d="M358.902 168.292C405.206 172.782 430.982 181.29 445.352 188.616C459.723 196.179 462.688 202.796 462.916 203.269C463.372 204.451 462.916 205.868 461.775 206.341C461.547 206.577 461.091 206.577 460.863 206.577C459.951 206.577 459.266 206.105 458.81 205.159C458.81 204.923 455.845 199.015 441.931 192.161C428.017 185.071 402.925 177.273 358.674 173.019C357.533 172.782 356.393 171.837 356.621 170.419C356.621 169.237 357.762 168.292 358.902 168.292Z" fill="#304156"/>
<path d="M140.184 376.505C141.325 375.323 146.115 374.851 150.905 375.56C155.695 376.269 158.888 377.687 157.748 379.105C156.607 380.523 151.817 380.759 147.027 380.05C142.237 379.341 139.044 377.687 140.184 376.505Z" fill="#EAB520"/>
<path d="M207.473 376.739C208.614 376.739 209.526 377.685 209.754 378.866C209.982 380.048 209.07 381.23 207.701 381.466C207.701 381.466 207.473 381.466 206.789 381.702C204.736 381.939 199.033 382.884 192.647 384.302C186.032 385.72 178.732 387.847 172.802 390.446C168.012 392.573 164.134 394.464 161.397 396.118C157.519 398.245 153.185 399.191 148.623 399.191C145.43 399.191 142.236 398.718 139.271 397.536C135.165 396.118 130.375 394.228 126.269 391.864C122.163 389.501 118.514 386.665 116.233 382.884C115.549 381.702 116.005 380.284 116.917 379.575C117.373 379.339 117.601 379.339 118.058 379.339C118.742 379.339 119.654 379.812 120.11 380.521C121.707 383.12 124.673 385.72 128.55 387.847C132.428 389.974 136.762 391.864 140.64 393.282C143.149 394.228 145.886 394.7 148.623 394.7C152.501 394.7 156.15 393.755 159.344 392.101C162.309 390.446 166.187 388.556 170.977 386.429C178.276 383.12 187.4 380.993 194.471 379.339C201.771 377.921 207.245 377.212 207.245 377.212C207.245 376.739 207.245 376.739 207.473 376.739Z" fill="#464958"/>
<path d="M95.2491 483.089L118.287 489.943C123.077 491.361 126.271 497.269 123.762 500.814C115.778 512.867 102.32 531.3 88.8623 534.136C73.3515 537.445 84.0721 499.632 88.6341 485.925C89.5466 483.325 92.2838 482.144 95.2491 483.089Z" fill="#EAB520"/>
<path d="M95.4811 483.325L108.939 488.052C113.045 489.47 115.554 494.196 113.957 497.269C108.939 506.958 98.9026 524.683 89.7786 527.046C79.514 529.646 86.3572 498.214 89.3225 486.161C90.0068 483.562 92.5158 482.38 95.4811 483.325Z" fill="#DE5126"/>
<path d="M244.658 502.233C244.886 502.233 256.063 498.216 271.117 498.216C273.855 498.216 276.82 498.452 279.785 498.689C281.61 498.925 282.979 500.579 282.751 502.47C282.522 504.36 280.926 505.778 279.101 505.542C276.364 505.306 273.855 505.069 271.117 505.069C264.046 505.069 258.116 506.015 253.782 506.96C251.501 507.433 249.904 507.905 248.763 508.142C248.079 508.378 247.623 508.378 247.395 508.614H247.167C245.342 509.323 243.517 508.378 242.833 506.487C242.149 504.597 242.833 502.942 244.658 502.233Z" fill="#D3B833"/>
<path d="M284.803 613.781L289.365 626.307L280.925 629.852L275.907 617.562L284.803 613.781Z" fill="white"/>
<path d="M280.929 629.851L283.21 635.759C278.648 637.177 274.542 638.358 270.893 639.54L269.068 635.286L280.929 629.851Z" fill="white"/>
<path d="M264.047 622.76L269.065 635.049L260.626 638.83L255.607 626.541L264.047 622.76Z" fill="white"/>
<path d="M269.523 571.24L270.663 574.313L260.627 580.693L259.258 577.621C262.451 575.258 265.873 573.84 269.523 571.24Z" fill="white"/>
<path d="M240.097 589.675L239.413 588.257C241.466 586.366 245.8 586.839 248.765 584.476L248.537 586.13L260.398 580.931L265.417 593.22L253.555 598.419L258.574 610.708L270.435 605.509L265.417 593.22L275.681 588.73L280.243 601.255L270.891 605.273L275.909 617.562L264.048 622.761L259.03 610.472L250.362 614.253L245.116 601.964L253.555 598.183L248.537 585.894L240.097 589.675Z" fill="white"/>
<path d="M280.919 629.848L289.359 626.066L291.868 632.684C288.903 633.629 285.938 634.574 283.2 635.52L280.919 629.848Z" fill="#262F41"/>
<path d="M275.819 617.475L280.842 629.9L268.849 635.104L263.826 622.679L275.819 617.475Z" fill="#262F41"/>
<path d="M270.889 605.273L280.469 601.255L284.803 613.78L275.907 617.562L270.889 605.273Z" fill="#262F41"/>
<path d="M250.362 614.255L259.03 610.474L264.048 622.763L255.608 626.544L250.362 614.255Z" fill="#262F41"/>
<path d="M270.891 639.539C267.469 640.484 264.504 641.193 261.995 641.902L260.626 638.83L269.066 635.285L270.891 639.539Z" fill="#262F41"/>
<path d="M260.622 580.693L271.342 575.967L275.904 588.729L265.64 592.983L260.622 580.693Z" fill="#262F41"/>
<path d="M246.936 581.64C250.129 579.04 253.551 576.204 257.657 573.132L260.622 580.458L248.761 585.657L246.936 581.64Z" fill="#262F41"/>
<path d="M265.522 592.988L270.545 605.413L258.552 610.617L253.53 598.191L265.522 592.988Z" fill="#262F41"/>
<path d="M248.762 585.894L253.78 598.183L245.341 601.964L240.094 589.675L248.762 585.894Z" fill="#262F41"/>
<path d="M515.836 642.84L517.433 650.875L506.256 653.475L504.659 644.73L515.836 642.84Z" fill="white"/>
<path d="M522.68 649.931C523.137 654.185 523.365 658.202 523.593 661.747L519.715 662.692L517.434 651.112L522.68 649.931Z" fill="white"/>
<path d="M519.716 662.692L521.541 670.728L510.364 673.327L508.539 665.056L519.716 662.692Z" fill="white"/>
<path d="M470.901 650.402L472.954 660.801L466.339 662.219C464.971 659.147 463.374 655.602 461.777 652.057L470.901 650.402Z" fill="white"/>
<path d="M475.231 672.383L472.95 660.803L484.127 658.44L486.408 670.02L497.585 667.656L495.304 656.076L484.127 658.44L482.074 648.514L493.251 646.623L495.076 655.84L506.253 653.477L508.534 665.057L497.357 667.42L498.954 675.928L487.777 678.528L486.18 670.256L475.231 672.383L476.828 680.655L475.46 680.891C474.319 678.764 472.95 675.928 471.354 673.092L475.231 672.383Z" fill="white"/>
<path d="M517.436 650.877L515.84 642.605L521.77 641.66C521.998 644.496 522.455 647.332 522.683 649.932L517.436 650.877Z" fill="#262F41"/>
<path d="M517.535 650.942L519.817 662.52L508.643 664.884L506.361 653.306L517.535 650.942Z" fill="#262F41"/>
<path d="M495.078 655.843L493.481 646.626L504.658 644.735L506.255 653.48L495.078 655.843Z" fill="#262F41"/>
<path d="M499.186 675.692L497.362 667.42L508.539 665.057L510.363 673.328L499.186 675.692Z" fill="#262F41"/>
<path d="M523.819 661.749C524.047 664.821 524.275 667.657 524.275 670.021L521.31 670.73L519.713 662.458L523.819 661.749Z" fill="#262F41"/>
<path d="M472.95 660.8L470.897 650.401L482.074 648.511L484.127 658.437L472.95 660.8Z" fill="#262F41"/>
<path d="M471.356 673.09C469.76 669.781 467.935 666.236 466.11 662.219L472.725 660.801L475.006 672.381L471.356 673.09Z" fill="#262F41"/>
<path d="M495.112 655.993L497.395 667.571L486.22 669.936L483.938 658.358L495.112 655.993Z" fill="#262F41"/>
<path d="M475.234 672.383L486.411 670.02L488.008 678.291L476.831 680.654L475.234 672.383Z" fill="#262F41"/>
<path d="M269.718 329.942L236.872 371.064C236.872 371.064 250.33 423.057 324.69 443.854C399.051 464.651 385.137 419.512 385.137 419.512L365.292 398.478L363.696 380.281C306.442 405.568 269.718 329.942 269.718 329.942Z" fill="#262F41"/>
<path d="M337.464 848.687C339.061 848.923 340.43 849.396 342.026 849.632C341.114 857.903 339.973 865.466 338.833 872.083C338.605 873.265 337.692 873.974 336.552 873.974H336.096C334.955 873.738 334.043 872.556 334.271 871.138C335.411 864.757 336.552 856.958 337.464 848.687Z" fill="white"/>
<path d="M325.146 443.616C326.743 444.089 328.34 444.562 329.936 444.798C331.989 468.904 334.955 502.935 337.464 541.693C342.026 608.102 345.903 688.218 345.903 756.281C345.903 791.967 344.763 824.345 342.026 849.632C340.429 849.396 339.06 848.923 337.464 848.687C340.201 823.636 341.341 791.731 341.341 756.281C341.341 688.455 337.236 608.339 332.902 542.166C330.164 502.699 327.199 467.958 325.146 443.616Z" fill="#464958"/>
<path d="M326.745 392.097C326.973 392.097 327.201 392.097 327.429 392.097C328.57 392.569 329.254 393.751 329.026 394.933L326.973 402.495C326.517 404.15 326.289 405.568 326.289 407.222C326.289 407.931 326.289 408.64 326.517 409.349C327.201 414.784 328.342 427.074 329.938 444.562C328.342 444.089 326.745 443.853 325.148 443.38C323.78 427.074 322.411 415.257 321.955 410.058C321.727 409.112 321.727 408.167 321.727 407.222C321.727 405.095 321.955 403.204 322.639 401.314L324.692 393.751C324.92 392.806 325.833 392.097 326.745 392.097Z" fill="#464958"/>
<path d="M452.654 654.896C452.654 654.896 452.654 655.132 452.654 655.368C452.426 657.968 451.741 669.312 451.741 684.437C451.741 700.98 452.654 721.777 455.847 740.211C456.075 741.865 455.163 743.283 453.566 743.756C451.969 743.992 450.601 743.047 450.145 741.392C446.723 722.25 446.039 701.216 446.039 684.437C446.039 666.948 446.951 654.423 446.951 654.423C447.179 652.769 448.548 651.587 449.917 651.587C451.285 651.587 452.882 653.241 452.654 654.896Z" fill="white"/>
<path d="M335.637 494.9C339.743 489.464 345.446 485.683 351.833 484.265L397.681 474.103C400.418 473.394 403.383 473.63 406.12 474.575L455.162 490.882C455.162 490.882 457.215 502.226 441.476 501.044C430.527 500.099 415.473 496.79 407.717 494.663C404.296 493.954 400.874 493.954 397.681 495.136L381.942 500.808C380.573 501.281 380.345 503.171 381.486 504.117L398.821 516.879C402.471 519.478 404.524 523.732 404.752 528.222L405.664 556.346C405.664 559.182 404.524 561.781 402.243 563.436L389.925 572.416C387.644 574.07 384.907 575.016 382.17 575.016H380.573C379.433 575.016 378.292 575.252 377.152 575.488L359.816 580.215C358.447 580.451 357.079 580.451 356.166 579.742C354.114 578.561 351.604 575.961 352.973 570.998C354.114 567.217 357.535 563.672 359.588 562.018C360.272 561.545 360.044 560.6 359.36 560.363C357.763 559.891 355.482 559.182 353.885 558.236C353.201 558 352.745 558 352.061 558L350.008 558.473C348.411 558.945 347.271 560.6 347.499 562.254C348.183 568.162 348.411 582.106 336.322 591.323C326.513 598.649 305.756 609.284 305.756 609.284L287.736 560.6L335.637 494.9Z" fill="white"/>
<path d="M362.554 510.262L391.523 532.95C393.804 534.841 395.173 537.677 395.173 540.749V559.183C395.173 560.128 394.489 561.073 393.348 561.073C392.208 561.073 391.523 560.364 391.523 559.183V540.749C391.523 538.858 390.611 536.968 389.242 535.786L360.273 513.098C359.589 512.389 359.361 511.444 360.045 510.499C360.73 509.553 361.642 509.79 362.554 510.262Z" fill="#BFD8F1"/>
<path d="M350.008 517.825L378.976 540.512C381.257 542.403 382.626 545.239 382.626 548.311V566.745C382.626 567.69 381.942 568.636 380.801 568.636C379.661 568.636 378.976 567.927 378.976 566.745V548.311C378.976 546.421 378.064 544.53 376.695 543.348L347.727 520.661C347.042 519.952 346.814 519.006 347.498 518.061C348.183 517.116 349.323 517.352 350.008 517.825Z" fill="#BFD8F1"/>
<path d="M99.5872 615.2C103.921 613.073 107.571 611.655 110.992 610.71C114.414 609.764 117.379 609.528 120.116 609.528C124.45 609.528 128.328 610.237 132.662 610.946C137.224 611.655 142.242 612.364 149.313 612.364C157.525 612.364 168.017 611.418 182.844 608.346C230.973 598.42 271.803 569.352 282.752 560.844C283.664 560.135 285.033 559.662 286.174 559.662C287.314 559.662 288.455 559.898 289.367 560.607C290.279 561.316 291.192 562.262 291.42 563.443L306.018 602.674C306.474 604.092 306.931 605.747 306.931 607.165C306.931 610.473 305.79 613.546 303.509 616.145C295.754 624.417 276.593 642.85 234.395 673.81C233.026 674.755 231.429 674.519 230.517 673.101C229.605 671.683 229.833 670.028 231.201 669.083C273.172 638.36 292.104 619.926 299.403 612.128C300.544 610.71 301.228 609.055 301.228 607.401C301.228 606.692 301 605.747 300.772 605.038L286.174 565.807C274.769 574.551 233.482 604.092 183.984 614.254C168.93 617.327 157.981 618.272 149.541 618.272C142.242 618.272 136.768 617.563 132.206 616.854C127.644 616.145 123.994 615.436 120.572 615.436C118.063 615.436 115.782 615.672 112.817 616.618C109.852 617.327 106.658 618.745 102.552 620.872C101.184 621.581 99.359 620.872 98.6747 619.454C97.9904 618.036 98.2186 615.909 99.5872 615.2Z" fill="white"/>
<path d="M488.009 440.068C488.237 440.068 488.237 440.068 488.465 440.068C488.921 440.305 489.149 440.777 488.921 441.25L455.39 510.258C454.706 510.258 454.25 510.022 453.566 510.022L487.325 440.541C487.325 440.305 487.553 440.068 488.009 440.068Z" fill="#464958"/>
<path d="M453.336 510.021C454.021 510.021 454.477 510.021 455.161 510.258L450.599 519.711C450.371 519.947 450.143 520.184 449.915 520.184C449.687 520.184 449.687 520.184 449.459 520.184C449.002 519.947 448.774 519.475 449.002 519.002L453.336 510.021Z" fill="white"/>
<path d="M943.839 763.319C922.397 745.594 910.308 659.097 910.308 659.097C910.308 659.097 915.782 686.511 947.032 681.548C970.983 677.531 974.632 648.698 974.632 648.698L975.317 544.713L956.612 533.133C956.612 533.133 953.875 426.311 980.563 412.132C1007.25 397.952 1103.74 355.176 1103.74 355.176L1195.43 344.541C1195.43 344.541 1333.66 375.737 1360.35 419.221C1381.11 453.253 1384.07 635.936 1368.33 731.414C1289.41 805.858 1160.31 860.687 974.176 868.958L986.95 770.645C986.95 770.645 965.28 781.28 943.839 763.319Z" fill="#4794D0"/>
<path d="M912.815 664.532C912.815 679.893 928.554 683.674 943.38 682.965C954.329 682.493 971.437 672.331 971.437 656.969C971.437 641.608 966.19 649.879 951.364 649.879C936.765 649.879 912.815 649.17 912.815 664.532Z" fill="#00579C"/>
<path d="M1195.43 343.122C1195.43 343.122 1177.41 258.515 1176.5 249.771C1175.59 240.791 1103.74 353.757 1103.74 353.757L1124.04 390.151L1195.43 343.122Z" fill="white"/>
<path d="M1058.33 239.944L1059.49 239.977C1059.41 241.412 1059.6 242.669 1059.89 243.465C1060.01 243.979 1060.19 244.262 1060.58 244.598C1060.75 244.881 1060.97 244.933 1061.2 244.986L1061.69 244.861C1061.96 244.683 1062.29 244.275 1062.61 243.866C1062.99 243.228 1063.14 242.537 1063.34 241.615C1063.44 241.154 1063.5 240.924 1063.6 240.463C1063.68 239.028 1063.49 237.771 1063.2 236.974C1063.08 236.461 1062.9 236.178 1062.51 235.842C1062.34 235.559 1062.12 235.507 1061.89 235.454L1061.4 235.579C1061.12 235.757 1060.8 236.165 1060.48 236.573C1060.1 237.212 1059.95 237.903 1059.75 238.825C1059.64 239.286 1059.59 239.516 1059.49 239.977L1058.33 239.944L1057.17 239.911C1057.27 239.451 1057.37 238.99 1057.52 238.299C1057.83 236.916 1058.35 235.586 1059.28 234.592C1059.6 234.184 1060.15 233.829 1060.69 233.473C1061.24 233.117 1061.73 232.992 1062.4 233.15L1062.85 233.255C1063.51 233.413 1064.13 233.801 1064.47 234.367C1065.78 235.888 1066.43 238.224 1066.09 240.811C1065.99 241.272 1065.89 241.733 1065.74 242.424C1065.43 243.807 1064.91 245.136 1063.99 246.131C1063.66 246.539 1063.12 246.894 1062.57 247.25C1062.02 247.605 1061.53 247.731 1060.86 247.573L1060.41 247.467C1059.75 247.31 1059.13 246.921 1058.79 246.355C1057.49 244.835 1056.83 242.498 1057.17 239.911L1058.33 239.944Z" fill="white"/>
<path d="M1288.95 505.717C1288.95 505.717 1288.95 505.953 1288.72 506.662C1287.12 515.879 1274.35 592.214 1274.35 678.711C1274.35 679.892 1274.35 681.074 1274.35 682.255C1274.35 684.146 1272.75 685.8 1270.93 685.8C1269.1 685.8 1267.51 684.146 1267.51 682.255C1267.51 681.074 1267.51 679.892 1267.51 678.711C1267.51 585.833 1282.11 504.771 1282.11 504.535C1282.56 502.644 1284.16 501.226 1286.21 501.699C1288.26 501.935 1289.41 503.826 1288.95 505.717Z" fill="#00579C"/>
<path d="M1317.92 685.568L1291.92 695.731C1291.46 695.967 1291.46 695.967 1291.23 696.203C1291 696.44 1291 696.676 1291 697.149C1291 697.385 1291 697.858 1291.23 698.094C1291.46 698.33 1291.46 698.567 1291.92 698.567L1329.78 712.51C1331.61 713.219 1332.52 715.11 1331.83 717C1331.15 718.891 1329.33 719.836 1327.5 719.127L1289.64 705.184C1287.81 704.475 1286.44 703.293 1285.53 701.875C1284.62 700.457 1284.16 698.803 1284.16 697.149C1284.16 695.494 1284.62 693.84 1285.53 692.422C1286.44 691.004 1287.81 689.822 1289.64 689.113L1315.64 678.951C1317.46 678.242 1319.29 679.187 1319.97 681.078C1320.66 682.969 1319.52 684.859 1317.92 685.568Z" fill="#00579C"/>
<path d="M1113.64 328.666C1107.13 334.881 1101.7 340.385 1097.57 344.257C1097.28 343.46 1097.16 342.947 1097.16 342.947C1097.16 342.947 1102.37 335.211 1113.64 328.666Z" fill="#9BB6DB"/>
<path d="M1179.15 294.711C1179.15 294.711 1156.89 333.078 1133.78 345.55C1121.3 352.293 1112.91 353.216 1107.35 351.901C1101.35 350.48 1098.55 346.182 1097.62 344.023C1101.53 340.099 1107.17 334.648 1113.69 328.433C1116.92 326.53 1120.32 324.91 1124.38 323.448C1143.12 316.973 1179.15 294.711 1179.15 294.711Z" fill="#C9CEE4"/>
<path d="M1046.44 172.89C1047.25 177.689 1037.13 335.046 1082.48 344.806C1127.82 354.566 1183.29 293.996 1183.29 293.996L1209.15 196.846L1143.48 113.675L1046.44 172.89Z" fill="white"/>
<path d="M1086.17 234.654C1086.17 234.654 1085.79 252.262 1072.49 264.87C1067.16 269.913 1085.5 273.767 1092.79 270.402" fill="white"/>
<path d="M1088.49 234.715C1088.44 234.945 1088.49 237.868 1087.48 242.476C1086.01 249.157 1082.49 258.749 1074.18 266.722L1073.91 266.9L1073.24 266.742L1073.96 266.669L1073.91 266.9L1073.24 266.742L1073.96 266.669L1073.46 266.794L1073.73 266.617L1073.24 266.742L1073.51 266.564C1073.51 266.564 1073.51 266.564 1073.91 266.9C1074.47 267.518 1076.2 268.17 1078.42 268.696C1080.65 269.222 1083.14 269.57 1085.74 269.458C1088.12 269.293 1090.49 269.128 1091.81 268.469C1092.85 267.989 1094.36 268.587 1094.82 269.667C1095.29 270.746 1094.71 272.306 1093.67 272.787C1091.31 273.926 1088.66 274.269 1085.84 274.329C1083.02 274.389 1080.08 273.935 1077.41 273.304C1075.18 272.777 1073.46 272.126 1071.83 271.014C1070.99 270.573 1070.42 269.955 1069.91 269.105C1069.4 268.256 1068.98 266.947 1069.46 265.847C1069.71 264.695 1070.36 263.879 1070.96 263.293C1078.4 256.084 1081.49 247.361 1082.81 241.371C1083.27 239.297 1083.4 237.632 1083.65 236.48C1083.75 236.019 1083.63 235.506 1083.74 235.045L1083.79 234.814C1083.82 233.61 1084.79 232.385 1086.17 232.471C1087.56 232.556 1088.52 233.51 1088.49 234.715Z" fill="#00263E"/>
<path d="M1082.21 298.197C1082.21 298.197 1099.01 299.504 1114.68 297.395L1082.21 298.197Z" fill="white"/>
<path d="M1082.28 295.787C1082.28 295.787 1082.5 295.84 1082.94 295.945C1086.38 296.274 1100.73 297.002 1114.02 295.057C1115.24 294.86 1116.42 295.866 1116.61 297.124C1116.8 298.381 1115.83 299.605 1114.61 299.803C1098.67 302.09 1081.88 300.784 1081.65 300.731C1080.49 300.698 1079.36 299.461 1079.61 298.309C1079.97 296.696 1081.11 295.755 1082.28 295.787Z" fill="#00263E"/>
<path d="M1116.15 138.962C1116.15 138.962 1124.11 175.026 1145.88 201.51C1167.87 228.047 1190 239.101 1190 239.101C1190 239.101 1195.11 228.674 1199.09 233.978C1203.07 239.283 1214.19 250.399 1214.19 250.399C1214.19 250.399 1271.35 152.413 1192.78 102.309C1113.99 52.1521 1139.41 89.6808 1139.41 89.6808C1139.41 89.6808 1119 72.9717 1079.22 93.1351C1034.41 115.985 1026.59 142.982 1026.59 142.982C1026.59 142.982 1041.78 133.487 1041.17 136.251C1040.61 138.786 1028.28 153.322 1029.88 177.941C1031.46 199.406 1045.57 207.592 1045.57 207.592C1045.57 207.592 1041.81 171.553 1068.18 159.127C1092.1 148.301 1116.15 138.962 1116.15 138.962Z" fill="#00579C"/>
<path d="M1186.11 276.342C1177.98 272.482 1176.28 258.291 1182.32 244.646C1188.35 231 1199.84 223.068 1207.97 226.928C1216.1 230.789 1217.8 244.98 1211.76 258.625C1205.73 272.27 1194.24 280.202 1186.11 276.342Z" fill="white"/>
<path d="M1136.58 218.215C1138.08 218.814 1139.43 216.951 1138.3 215.713C1135.52 212.39 1130.25 208.718 1121.49 208.101C1114.79 207.727 1110.62 209.649 1107.89 211.427C1106.75 212.369 1107.45 214.475 1108.94 214.1C1112.31 213.684 1117.55 213.229 1123.44 214.136C1128.77 215.399 1133.34 216.965 1136.58 218.215Z" fill="#00263E"/>
<path d="M1073.6 212.04C1075.15 212.408 1076.28 210.492 1075.1 209.485C1071.99 206.57 1066.4 203.306 1057.71 203.433C1051.13 203.572 1046.86 205.956 1044.52 208.069C1043.38 209.011 1044.31 211.17 1045.79 210.794C1049.26 209.918 1054.34 209.18 1060.1 209.574C1065.92 209.737 1070.59 210.842 1073.6 212.04Z" fill="#00263E"/>
<path d="M1195.43 343.121C1195.43 343.121 1151.87 412.839 1115.6 413.075C1079.33 413.311 1103.97 353.992 1103.97 353.992L1195.43 343.121Z" fill="white"/>
<path d="M1161.44 642.792C1161.44 642.792 1147.07 639.484 1119.47 613.251C1097.11 591.981 1084.57 581.819 1077.72 576.62C1075.22 574.729 1072.48 573.547 1069.51 572.838C1060.16 570.711 1038.95 565.985 1030.51 564.33C1027.77 563.858 1025.03 563.858 1022.52 564.567L986.712 573.075L991.959 589.145L1018.42 586.309C1019.1 586.309 1019.79 586.309 1020.47 586.309L1030.74 588.436C1031.42 588.672 1031.65 589.618 1030.74 589.854C1026.4 591.272 1018.42 594.108 1017.51 597.653C1016.14 602.616 1022.3 608.761 1025.03 611.124C1025.49 611.597 1025.49 612.305 1025.03 612.778C1023.66 613.723 1021.84 616.323 1024.81 622.231C1027.31 627.667 1032.1 631.685 1034.39 633.339C1035.07 633.812 1035.3 634.757 1035.07 635.702C1034.61 638.302 1034.61 643.737 1043.05 649.173C1052.41 655.081 1063.13 654.845 1066.55 654.609C1067.23 654.609 1068.14 654.136 1068.6 653.663L1071.79 650.591C1072.48 649.882 1073.39 650.118 1074.07 650.591C1077.72 654.845 1090.27 668.552 1100.76 671.861C1107.61 673.988 1114.22 673.515 1117.87 673.042C1119.92 672.806 1121.75 673.279 1123.34 674.697L1142.96 693.603C1142.96 693.603 1156.19 669.97 1158.93 661.935C1161.44 653.9 1161.44 642.792 1161.44 642.792Z" fill="white"/>
<path d="M1059.25 602.379L1032.11 611.359C1031.2 611.595 1030.28 611.123 1030.05 610.177C1029.83 609.232 1030.28 608.287 1031.2 608.051L1058.34 599.07C1059.25 598.834 1060.16 599.306 1060.39 600.252C1060.62 600.961 1060.16 602.142 1059.25 602.379Z" fill="#BFD8F1"/>
<path d="M1057.2 583.237L1036.9 589.854C1035.99 590.091 1035.07 589.618 1034.85 588.673C1034.62 587.727 1035.07 586.782 1035.99 586.546L1056.29 579.928C1057.2 579.692 1058.11 580.165 1058.34 581.11C1058.57 581.819 1058.11 582.764 1057.2 583.237Z" fill="#BFD8F1"/>
<path d="M1065.19 621.996L1038.96 631.685C1038.04 631.922 1037.13 631.449 1036.68 630.504C1036.45 629.558 1036.9 628.613 1037.82 628.14L1064.05 618.451C1064.96 618.215 1065.87 618.687 1066.33 619.633C1066.56 620.814 1066.1 621.759 1065.19 621.996Z" fill="#BFD8F1"/>
<path d="M1058.25 230.711C1057.7 236.398 1059.73 240.999 1062.67 241.453C1065.66 241.676 1068.24 237.436 1068.79 231.749C1069.34 226.061 1067.31 221.461 1064.37 221.007C1061.6 220.836 1058.81 225.023 1058.25 230.711Z" fill="#00263E"/>
<path d="M1111.59 234.346C1112.1 228.758 1114.84 224.453 1117.73 224.732C1120.61 225.011 1122.54 229.768 1122.04 235.356C1121.54 240.944 1118.79 245.248 1115.91 244.97C1113.02 244.691 1111.09 239.934 1111.59 234.346Z" fill="#00263E"/>
<path d="M1142.4 126.019C1142.69 126.816 1145.08 132.957 1150.43 140.525C1155.51 148.272 1163.38 157.164 1174.35 163.639C1178.94 166.179 1182.34 167.712 1185.01 168.343C1186.79 168.764 1188.17 168.849 1189.39 168.652C1191.1 168.329 1191.69 167.743 1192.34 166.926C1192.99 166.11 1193.42 165.241 1193.62 164.32C1193.72 163.859 1193.82 163.398 1193.92 162.937L1193.97 162.707C1194.01 161.502 1194.98 160.278 1196.14 160.31C1197.3 160.343 1198.48 161.35 1198.45 162.554C1198.4 162.785 1198.42 163.759 1198.07 165.372C1197.66 167.215 1196.66 169.644 1194.37 171.527C1193.23 172.469 1191.69 173.075 1189.98 173.398C1188.27 173.72 1186.22 173.477 1183.99 172.951C1180.66 172.162 1176.81 170.524 1172.27 167.753C1160.29 160.554 1151.73 150.531 1146.26 142.448C1140.84 134.136 1138.5 127.764 1138.28 127.712C1137.87 126.402 1138.39 125.072 1139.66 124.644C1140.7 124.163 1141.93 124.94 1142.4 126.019Z" fill="#4794D0"/>
<path d="M1257.7 696.203C1257.7 696.203 1246.98 691.476 1233.52 685.095C1220.06 678.714 1204.33 670.679 1193.6 663.826C1181.29 655.79 1172.62 648.464 1167.37 643.737C1167.15 643.501 1166.92 643.501 1166.69 643.501C1166.46 643.501 1166.23 643.501 1166 643.737C1165.78 643.974 1165.78 643.974 1165.55 644.21C1163.72 650.118 1160.76 659.099 1156.88 668.316C1153 677.533 1148.67 686.986 1144.11 694.312C1143.65 695.021 1143.42 695.967 1143.42 696.675C1143.42 697.857 1143.88 699.275 1145.02 700.22C1160.76 715.109 1201.82 751.504 1239.68 778.682C1241.28 779.864 1241.51 781.991 1240.59 783.645C1239.68 785.299 1237.4 785.536 1235.8 784.59C1197.48 757.176 1156.42 720.545 1140.46 705.42C1137.95 703.056 1136.81 699.984 1136.81 696.675C1136.81 694.549 1137.49 692.185 1138.63 690.295C1142.74 683.677 1147.3 674.224 1150.95 665.243C1154.6 656.263 1157.79 647.519 1159.39 641.847C1159.85 639.956 1160.99 638.538 1162.36 637.593C1163.72 636.647 1165.32 636.175 1166.92 636.175C1168.74 636.175 1170.79 636.884 1172.16 638.302C1176.95 642.792 1185.39 649.882 1197.25 657.681C1207.29 664.298 1223.03 672.097 1236.26 678.478C1242.87 681.55 1248.81 684.386 1253.14 686.277C1255.19 687.222 1257.02 687.931 1258.16 688.64C1259.3 689.113 1259.98 689.349 1259.98 689.349C1261.81 690.058 1262.49 692.185 1261.81 694.076C1261.12 695.966 1259.53 696.912 1257.7 696.203Z" fill="#00579C"/>
<path d="M1070.2 650.354L1059.48 644.919L1070.2 642.083C1071.11 641.846 1072.03 642.319 1072.25 643.264C1072.48 644.21 1072.03 645.155 1071.11 645.391L1069.52 645.864L1071.8 647.046C1072.71 647.518 1072.94 648.464 1072.48 649.409C1072.25 650.354 1071.11 650.591 1070.2 650.354Z" fill="#BFD8F1"/>
<path d="M1011.35 639.242L976.453 541.165C975.769 539.511 974.628 538.329 972.803 537.856L923.078 523.677C921.937 523.44 920.797 523.676 919.884 524.385L918.059 525.803C916.919 526.749 916.463 528.167 916.919 529.585L955.24 634.752L1006.11 643.26C1008.39 643.496 1010.9 641.605 1011.35 639.242Z" fill="#00263E"/>
<path d="M915.095 623.65C916.235 622.232 916.692 620.577 916.692 618.923C916.463 609.47 916.235 582.056 921.482 578.747C927.868 574.729 959.575 565.749 964.137 573.075C968.699 580.638 950.451 586.546 942.467 588.909C940.642 589.382 939.502 591.509 940.186 593.399L943.607 602.616C944.064 603.798 945.204 604.507 946.345 604.507C955.925 604.034 991.965 601.907 1002.23 604.271C1009.07 605.925 1013.41 617.032 991.965 619.632C975.542 621.759 962.996 624.122 957.522 624.831C956.609 624.831 955.925 626.013 956.153 626.958L957.294 630.74C957.522 631.449 958.206 631.921 958.89 631.921C963.68 631.449 980.104 629.794 991.737 625.777C1006.11 620.577 1019.34 620.577 1019.34 625.777C1019.34 633.812 1003.6 640.666 994.93 643.502C986.262 646.337 975.313 650.119 975.313 650.119C975.313 650.119 1010.44 628.14 1013.63 634.521C1017.97 642.793 991.509 658.39 978.279 659.808C965.049 661.226 964.593 670.68 949.538 673.279C945.432 673.988 940.414 674.461 937.677 674.697C936.308 674.697 934.94 675.17 933.571 675.642C929.465 677.533 919.429 680.842 914.182 671.861C908.024 660.517 907.568 632.63 915.095 623.65Z" fill="white"/>
<path d="M996.75 618.449L998.347 623.176C997.89 623.412 997.206 623.412 996.75 623.648L995.153 618.685C995.609 618.685 996.294 618.449 996.75 618.449ZM929.46 531.243H929.688L968.237 542.823C970.29 543.296 971.659 544.95 972.343 546.841L991.504 602.851C990.819 602.851 990.363 602.851 989.679 602.851L970.746 547.55C970.29 546.132 969.15 544.95 967.781 544.478L929.232 532.898C928.776 532.661 928.548 532.189 928.548 531.716C928.776 531.48 929.004 531.243 929.46 531.243Z" fill="#304156"/>
<path d="M998.354 623.176L999.951 627.903C1000.18 628.375 999.951 628.848 999.494 629.084H999.266C998.81 629.084 998.582 628.848 998.354 628.612L996.757 623.649C997.213 623.412 997.898 623.412 998.354 623.176ZM989.686 602.852C990.37 602.852 990.827 602.852 991.511 602.852L996.757 618.449C996.301 618.686 995.617 618.686 995.16 618.686L989.686 602.852Z" fill="white"/>
<path d="M1003.14 641.611C1003.14 641.611 992.648 647.992 982.156 651.537C981.243 651.774 980.331 651.301 980.103 650.356C979.875 649.41 980.331 648.465 981.243 648.229C986.261 646.574 991.508 643.975 995.157 642.084C996.982 641.139 998.807 640.193 999.719 639.484C1000.18 639.248 1000.63 639.012 1001.09 638.775C1001.32 638.539 1001.54 638.539 1001.54 638.539C1002.46 638.066 1003.37 638.303 1003.83 639.248C1004.28 640.193 1003.83 641.139 1003.14 641.611Z" fill="#BFD8F1"/>
<path d="M977.597 671.622L994.932 703.29C995.845 704.944 995.389 707.071 993.564 708.017C991.967 708.962 989.914 708.489 989.002 706.599L971.666 674.93C970.754 673.276 971.21 671.149 973.035 670.204C974.403 669.495 976.684 669.967 977.597 671.622Z" fill="#00579C"/>
<path d="M808.565 318.728C824.942 313.986 829.128 329.366 842.715 317.921C847.244 314.106 856.97 314.838 854.856 309.225C939.63 419.496 853.812 474.335 853.812 474.335C853.812 474.335 774.364 441.864 826.884 329.197C824.376 325.632 808.565 318.728 808.565 318.728Z" fill="#00579C"/>
<path d="M861.594 309.728C859.827 327.776 840.223 335.651 840.223 335.651" stroke="#00263E" stroke-width="22.8076" stroke-miterlimit="10" stroke-linecap="round"/>
<path d="M971.57 860.712C866.058 918.998 756.104 927.4 646.592 900.459C646.592 900.459 684.346 841.655 673.095 664.466C672.845 661.098 668.344 660.321 667.094 663.43C651.777 748.16 642.986 822.843 642.986 822.843L569.147 808.27C569.147 808.27 577.165 627.94 604.309 562.365C656.314 436.727 748.853 419.924 748.853 419.924L793.358 407.23L839.614 421.219C1036.64 442.979 1055.14 785.96 1055.14 785.96C1055.14 785.96 1023.13 752.802 1013.13 771.712C985.88 762.904 991.131 778.706 963.127 772.489L971.57 860.712Z" fill="#4794D0"/>
<path d="M816.611 349.205C816.611 349.205 814.86 369.152 823.861 396.093C829.612 413.449 840.363 422.775 846.864 427.438C849.864 429.51 850.364 433.914 847.614 436.504C837.863 445.83 815.36 463.964 782.607 471.994C720.6 487.019 735.852 443.499 743.102 427.697C744.853 424.07 745.603 419.925 745.103 415.781L741.102 383.14L816.611 349.205Z" fill="white"/>
<path opacity="0.2" d="M827.125 354.409C827.125 354.409 788.984 387.122 765.144 391.043C741.305 394.963 730.22 399.323 730.22 399.323C730.22 399.323 746.309 427.286 777.049 417.912C811.638 407.268 827.125 354.409 827.125 354.409Z" fill="#00579C"/>
<path d="M708.505 165.493C708.505 165.493 676.694 161.541 669.767 221.018C662.841 280.494 662.8 377.631 717.206 406.139C756.622 426.767 813.563 404.819 836.997 335.156C860.43 265.493 771.02 174.872 771.02 174.872L708.505 165.493Z" fill="white"/>
<path d="M756.491 286.789C756.561 281.496 758.856 277.236 761.618 277.275C764.379 277.315 766.561 281.637 766.492 286.93C766.422 292.224 764.127 296.483 761.365 296.444C758.603 296.405 756.421 292.082 756.491 286.789Z" fill="#00263E"/>
<path d="M690.293 291.217C690.363 285.923 692.658 281.664 695.42 281.703C698.181 281.742 700.363 286.065 700.293 291.358C700.224 296.651 697.928 300.911 695.167 300.872C692.405 300.832 690.223 296.51 690.293 291.217Z" fill="#00263E"/>
<path d="M708.356 264.173C710.065 264.821 711.475 262.59 710.301 261.462C707.045 257.841 701.064 253.754 691.57 253.3C684.32 253.014 679.401 255.241 676.477 257.618C675.14 258.816 675.992 260.959 677.756 260.831C681.569 260.079 687.359 259.736 693.824 260.482C699.542 261.172 704.688 262.858 708.356 264.173Z" fill="#00263E"/>
<path d="M784.232 261.83C784.232 261.83 778.278 250.214 761.656 251.301C752.089 251.879 747.81 255.713 746.114 258.442C745.543 259.438 746.468 260.547 747.484 260.364C750.816 259.316 757.195 257.718 764.695 258.022C776.202 258.369 784.232 261.83 784.232 261.83Z" fill="#00263E"/>
<path d="M725.611 286.252C725.611 286.252 723.346 304.263 712.57 318.516C710.893 320.987 711.904 324.44 714.611 325.163C719.045 326.276 725.511 327.022 732.212 324.41" stroke="#00263E" stroke-width="5.70191" stroke-miterlimit="10" stroke-linecap="round"/>
<path d="M768.771 350.019C753.485 367.829 726.933 360.376 726.933 360.376" stroke="#00263E" stroke-width="5.70191" stroke-miterlimit="10" stroke-linecap="round"/>
<path d="M667.496 181.879C679.3 156.534 703.421 155.752 703.421 155.752C703.421 155.752 739.636 125.491 803.894 152.923C904.421 195.811 876.518 325.654 838.247 331.606C839.285 327.528 839.951 321.604 835.336 323.075L841.401 315.22L830.461 317.514L823.341 297.498C750.204 260.827 712.152 184.979 712.152 184.979C672.694 200.711 668.088 255.687 668.088 255.687C668.088 255.687 653.942 210.728 667.496 181.879Z" fill="#00579C"/>
<path d="M826.792 329.358C818.977 326.103 816.399 313.78 821.035 301.833C825.67 289.886 835.763 282.84 843.579 286.095C851.394 289.35 853.972 301.674 849.336 313.621C844.701 325.568 834.608 332.614 826.792 329.358Z" fill="white"/>
<path d="M914.371 580.538C914.371 580.538 922.122 640.378 943.124 694.52" stroke="#00579C" stroke-width="8.55286" stroke-miterlimit="10" stroke-linecap="round"/>
<path d="M817.109 616.546L823.109 579.761L723.098 578.466C720.348 578.466 718.098 581.056 718.598 583.906L736.6 697.628C737.35 702.032 740.85 705.141 745.101 705.141L797.857 705.659C802.357 705.659 806.107 702.291 806.608 697.887L817.109 616.546Z" fill="#00263E"/>
<path d="M748.101 635.196C753.102 623.021 807.858 625.093 807.858 625.093C807.858 625.093 776.104 610.328 775.354 601.261C774.854 592.453 807.108 603.851 824.359 619.653C848.112 641.672 861.864 670.427 861.864 670.427C861.864 670.427 871.865 685.97 922.12 706.435C990.878 734.412 1017.88 724.568 1044.38 759.022C1064.64 785.704 1063.39 862.382 938.872 800.21C871.865 766.793 840.611 713.429 840.611 713.429C840.611 713.429 820.109 703.585 810.858 692.705C801.607 681.825 795.606 677.162 795.606 677.162C795.606 677.162 770.853 677.939 767.103 670.427C764.853 666.023 773.604 661.878 781.605 659.029C770.353 661.878 746.601 660.583 753.602 652.034C758.352 646.335 767.353 642.709 774.604 640.636C758.602 642.45 746.101 640.377 748.101 635.196Z" fill="white"/>
<path d="M751.603 190.809C751.603 190.809 773.416 230.111 815.615 246.793C857.565 263.455 852.485 235.801 852.485 235.801" stroke="#4794D0" stroke-width="5.70191" stroke-miterlimit="10" stroke-linecap="round"/>
<path d="M719.35 586.496H822.862C824.362 586.496 825.612 585.201 825.612 583.647V581.315C825.612 579.761 824.362 578.466 822.862 578.466H719.35C717.85 578.466 716.6 579.761 716.6 581.315V583.647C716.6 585.201 717.85 586.496 719.35 586.496Z" fill="white"/>
<path d="M796.856 566.548C796.856 566.548 789.105 557.999 796.856 553.595C804.607 549.191 821.609 554.89 824.859 550.228C828.11 545.565 819.359 538.57 819.359 538.57" stroke="white" stroke-width="8.55286" stroke-miterlimit="10" stroke-linecap="round"/>
<path d="M644.307 768.617C644.307 768.617 646.94 765.904 605.934 734.886C575.2 711.603 586.264 726.989 586.264 726.989" stroke="#00579C" stroke-width="8.55286" stroke-miterlimit="10" stroke-linecap="round"/>
<path d="M607.969 750.89C576.807 748.387 552.354 798.521 563.872 888.418L644.744 901.166C652.1 843.789 650.853 754.236 607.969 750.89Z" fill="white"/>
</g>
</svg>
