<svg width="96" height="97" viewBox="0 0 96 97" fill="none" xmlns="http://www.w3.org/2000/svg">
<path d="M61.1002 84.6486C73.7475 84.6486 84.0002 74.396 84.0002 61.7486C84.0002 49.1013 73.7475 38.8486 61.1002 38.8486C48.4529 38.8486 38.2002 49.1013 38.2002 61.7486C38.2002 74.396 48.4529 84.6486 61.1002 84.6486Z" fill="#FFE81C"/>
<path d="M40.6733 29.801C40.2025 29.7271 39.7266 29.69 39.25 29.6902C36.9294 29.6902 34.7038 30.6121 33.0628 32.253C31.4219 33.8939 30.5 36.1195 30.5 38.4402V45.7319H34.875L36.3333 58.8569H42.1667L42.8754 52.4635" stroke="#00263E" stroke-width="2" stroke-linecap="round" stroke-linejoin="round"/>
<path d="M54.2738 30.043C55.5793 29.6578 56.9566 29.5825 58.2963 29.823C59.636 30.0635 60.9011 30.6133 61.9911 31.4285C63.081 32.2438 63.9657 33.3021 64.5749 34.5193C65.184 35.7365 65.5008 37.079 65.5001 38.4401V45.7318H61.1251L59.6668 58.8568H53.8334L53.0518 51.813" stroke="#00263E" stroke-width="2" stroke-linecap="round" stroke-linejoin="round"/>
<path d="M49.0529 49.0071C48.9167 49.1491 48.7533 49.2621 48.5723 49.3394C48.3914 49.4166 48.1967 49.4564 47.9999 49.4564C47.8032 49.4564 47.6085 49.4166 47.4275 49.3394C47.2466 49.2621 47.0831 49.1491 46.947 49.0071L40.8979 42.6983C40.2786 42.0737 39.8709 41.2705 39.7322 40.4019C39.5936 39.5333 39.7309 38.6431 40.1249 37.8567C40.4223 37.2639 40.8557 36.7499 41.3899 36.3569C41.924 35.9638 42.5436 35.7028 43.198 35.5953C43.8524 35.4877 44.523 35.5367 45.1548 35.7381C45.7867 35.9395 46.3619 36.2877 46.8333 36.7542L47.9999 37.9208L49.1666 36.7542C49.6373 36.2832 50.2133 35.9309 50.847 35.7263C51.4806 35.5217 52.1539 35.4708 52.8111 35.5776C53.4684 35.6844 54.0908 35.946 54.6271 36.3408C55.1633 36.7355 55.598 37.2521 55.8954 37.8479C56.2896 38.6368 56.4256 39.5297 56.2843 40.4002C56.143 41.2707 55.7314 42.0747 55.1079 42.6983L49.0529 49.0071Z" stroke="#00263E" stroke-width="2" stroke-linecap="round" stroke-linejoin="round"/>
<path d="M33.4167 20.94C33.4167 21.7061 33.5676 22.4646 33.8608 23.1723C34.1539 23.8801 34.5836 24.5231 35.1253 25.0648C35.667 25.6065 36.31 26.0362 37.0178 26.3293C37.7255 26.6225 38.484 26.7734 39.2501 26.7734C40.0161 26.7734 40.7747 26.6225 41.4824 26.3293C42.1901 26.0362 42.8332 25.6065 43.3749 25.0648C43.9165 24.5231 44.3462 23.8801 44.6394 23.1723C44.9325 22.4646 45.0834 21.7061 45.0834 20.94C45.0834 20.174 44.9325 19.4154 44.6394 18.7077C44.3462 18 43.9165 17.3569 43.3749 16.8152C42.8332 16.2736 42.1901 15.8439 41.4824 15.5507C40.7747 15.2576 40.0161 15.1067 39.2501 15.1067C38.484 15.1067 37.7255 15.2576 37.0178 15.5507C36.31 15.8439 35.667 16.2736 35.1253 16.8152C34.5836 17.3569 34.1539 18 33.8608 18.7077C33.5676 19.4154 33.4167 20.174 33.4167 20.94Z" stroke="#00263E" stroke-width="2" stroke-linecap="round" stroke-linejoin="round"/>
<path d="M50.9167 20.94C50.9167 22.4871 51.5313 23.9709 52.6253 25.0648C53.7193 26.1588 55.203 26.7734 56.7501 26.7734C58.2972 26.7734 59.7809 26.1588 60.8749 25.0648C61.9688 23.9709 62.5834 22.4871 62.5834 20.94C62.5834 19.3929 61.9688 17.9092 60.8749 16.8152C59.7809 15.7213 58.2972 15.1067 56.7501 15.1067C55.203 15.1067 53.7193 15.7213 52.6253 16.8152C51.5313 17.9092 50.9167 19.3929 50.9167 20.94Z" stroke="#00263E" stroke-width="2" stroke-linecap="round" stroke-linejoin="round"/>
<path d="M23.2083 82.1902L17.3341 74.8489C15.4718 72.521 14.4576 69.6284 14.4583 66.6473V51.5652C14.4583 50.4049 14.9192 49.2921 15.7397 48.4716C16.5601 47.6511 17.6729 47.1902 18.8333 47.1902C19.9936 47.1902 21.1064 47.6511 21.9268 48.4716C22.7473 49.2921 23.2083 50.4049 23.2083 51.5652V62.8673" stroke="#00263E" stroke-width="2" stroke-linecap="round" stroke-linejoin="round"/>
<path d="M36.3334 82.1901V73.0434C36.3358 70.4479 35.5673 67.91 34.1255 65.7518L30.7917 60.7643C30.5075 60.2904 30.1301 59.8791 29.6823 59.5553C29.2345 59.2315 28.7256 59.002 28.1865 58.8807C27.6474 58.7593 27.0893 58.7487 26.5459 58.8493C26.0026 58.95 25.4853 59.1599 25.0255 59.4664C24.1977 60.0187 23.6001 60.8543 23.345 61.8162C23.0898 62.7781 23.1948 63.8001 23.6401 64.6901L27.5834 71.2526" stroke="#00263E" stroke-width="2" stroke-linecap="round" stroke-linejoin="round"/>
<path d="M72.7917 82.1902L78.6659 74.8489C80.5282 72.521 81.5424 69.6284 81.5417 66.6473V51.5652C81.5417 50.4049 81.0808 49.2921 80.2603 48.4716C79.4399 47.6511 78.3271 47.1902 77.1667 47.1902C76.0064 47.1902 74.8936 47.6511 74.0732 48.4716C73.2527 49.2921 72.7917 50.4049 72.7917 51.5652V62.8673" stroke="#00263E" stroke-width="2" stroke-linecap="round" stroke-linejoin="round"/>
<path d="M59.6668 82.1901V73.0434C59.6644 70.4479 60.4328 67.91 61.8747 65.7518L65.2084 60.7643C65.4926 60.2904 65.8701 59.8791 66.3179 59.5553C66.7657 59.2315 67.2745 59.002 67.8136 58.8807C68.3527 58.7593 68.9109 58.7487 69.4542 58.8493C69.9976 58.95 70.5148 59.1599 70.9747 59.4664C71.803 60.0183 72.4012 60.8537 72.6568 61.8156C72.9125 62.7776 72.808 63.7998 72.363 64.6901L68.4168 71.2526" stroke="#00263E" stroke-width="2" stroke-linecap="round" stroke-linejoin="round"/>
</svg>
