<svg width="96" height="97" viewBox="0 0 96 97" fill="none" xmlns="http://www.w3.org/2000/svg">
<path d="M61.1002 84.3244C73.7475 84.3244 84.0002 74.0717 84.0002 61.4244C84.0002 48.7771 73.7475 38.5244 61.1002 38.5244C48.4529 38.5244 38.2002 48.7771 38.2002 61.4244C38.2002 74.0717 48.4529 84.3244 61.1002 84.3244Z" fill="#FFE81C"/>
<path d="M17.3359 81.866V49.7826C17.3359 49.0091 17.6432 48.2672 18.1902 47.7202C18.7372 47.1733 19.4791 46.866 20.2526 46.866H75.6693C76.4428 46.866 77.1847 47.1733 77.7317 47.7202C78.2786 48.2672 78.5859 49.0091 78.5859 49.7826V81.866" stroke="#00263E" stroke-width="2" stroke-linecap="round" stroke-linejoin="round"/>
<path d="M29.0024 55.616H65.4608" stroke="#00263E" stroke-width="2" stroke-linecap="round" stroke-linejoin="round"/>
<path d="M47.9609 52.6992V81.8659" stroke="#00263E" stroke-width="2" stroke-linecap="round" stroke-linejoin="round"/>
<path d="M40.6694 81.866H55.2528" stroke="#00263E" stroke-width="2" stroke-linecap="round" stroke-linejoin="round"/>
<path d="M29.0024 70.1993L33.3774 55.616L37.7524 70.1993" stroke="#00263E" stroke-width="2" stroke-linecap="round" stroke-linejoin="round"/>
<path d="M39.2111 70.1992C39.2111 71.7463 38.5965 73.23 37.5026 74.324C36.4086 75.418 34.9249 76.0326 33.3778 76.0326C31.8307 76.0326 30.3469 75.418 29.253 74.324C28.159 73.23 27.5444 71.7463 27.5444 70.1992H39.2111Z" stroke="#00263E" stroke-width="2" stroke-linecap="round" stroke-linejoin="round"/>
<path d="M58.1694 70.1993L62.5444 55.616L66.9194 70.1993" stroke="#00263E" stroke-width="2" stroke-linecap="round" stroke-linejoin="round"/>
<path d="M68.3776 70.1992C68.3776 71.7463 67.763 73.23 66.6691 74.324C65.5751 75.418 64.0914 76.0326 62.5443 76.0326C60.9972 76.0326 59.5134 75.418 58.4195 74.324C57.3255 73.23 56.7109 71.7463 56.7109 70.1992H68.3776Z" stroke="#00263E" stroke-width="2" stroke-linecap="round" stroke-linejoin="round"/>
<path d="M62.2528 46.8659C60.9094 44.2308 58.8635 42.0183 56.3414 40.4731C53.8192 38.9279 50.919 38.1101 47.9611 38.1101C45.0032 38.1101 42.103 38.9279 39.5808 40.4731C37.0587 42.0183 35.0128 44.2308 33.6694 46.8659" stroke="#00263E" stroke-width="2" stroke-linecap="round" stroke-linejoin="round"/>
<path d="M38.4819 24.2616C38.4819 25.5065 38.7271 26.7391 39.2035 27.8892C39.6799 29.0392 40.3781 30.0842 41.2583 30.9644C42.1385 31.8446 43.1835 32.5429 44.3336 33.0192C45.4836 33.4956 46.7163 33.7408 47.9611 33.7408C49.2059 33.7408 50.4386 33.4956 51.5886 33.0192C52.7387 32.5429 53.7837 31.8446 54.6639 30.9644C55.5441 30.0842 56.2423 29.0392 56.7187 27.8892C57.1951 26.7391 57.4403 25.5065 57.4403 24.2616C57.4403 23.0168 57.1951 21.7842 56.7187 20.6341C56.2423 19.4841 55.5441 18.4391 54.6639 17.5589C53.7837 16.6786 52.7387 15.9804 51.5886 15.504C50.4386 15.0277 49.2059 14.7825 47.9611 14.7825C46.7163 14.7825 45.4836 15.0277 44.3336 15.504C43.1835 15.9804 42.1385 16.6786 41.2583 17.5589C40.3781 18.4391 39.6799 19.4841 39.2035 20.6341C38.7271 21.7842 38.4819 23.0168 38.4819 24.2616Z" stroke="#00263E" stroke-width="2" stroke-linecap="round" stroke-linejoin="round"/>
</svg>
