<svg width="102" height="111" viewBox="0 0 102 111" fill="none" xmlns="http://www.w3.org/2000/svg">
<g clip-path="url(#clip0_1424_2190)">
<path d="M65.3437 110.383C85.5884 110.383 102 93.9712 102 73.7266C102 53.4819 85.5884 37.0703 65.3437 37.0703C45.0991 37.0703 28.6875 53.4819 28.6875 73.7266C28.6875 93.9712 45.0991 110.383 65.3437 110.383Z" fill="#FFE81C"/>
<mask id="path-2-inside-1_1424_2190" fill="white">
<path fill-rule="evenodd" clip-rule="evenodd" d="M79.3374 3.07068C80.8817 3.07068 82.3747 3.29764 83.7868 3.72104L73.6872 13.8207L75.3252 23.4522L84.9567 25.0902L94.7429 15.304C95.09 16.6555 95.2749 18.0751 95.2749 19.5394C95.2749 28.6349 88.1394 36.0082 79.3374 36.0082C77.369 36.0082 75.484 35.6395 73.7435 34.9652L12.6969 96.0118L12.6969 96.0118C9.79233 98.9164 5.08316 98.9164 2.17864 96.0118C-0.725886 93.1073 -0.725888 88.3981 2.17864 85.4936L2.17868 85.4936L63.9249 23.7474C63.5823 22.4042 63.3999 20.9938 63.3999 19.5394C63.3999 10.444 70.5354 3.07068 79.3374 3.07068Z"/>
</mask>
<path d="M83.7868 3.72104L85.2894 5.22365L87.8056 2.70751L84.3971 1.68557L83.7868 3.72104ZM73.6872 13.8207L72.1846 12.3181L71.4082 13.0945L71.5923 14.177L73.6872 13.8207ZM75.3252 23.4522L73.2303 23.8085L73.483 25.2944L74.9689 25.5471L75.3252 23.4522ZM84.9567 25.0902L84.6004 27.1851L85.6829 27.3692L86.4593 26.5928L84.9567 25.0902ZM94.7429 15.304L96.8011 14.7754L95.8745 11.1672L93.2403 13.8014L94.7429 15.304ZM73.7435 34.9652L74.5111 32.9837L73.22 32.4835L72.2409 33.4626L73.7435 34.9652ZM12.6969 96.0118L11.1943 94.5092L11.1701 94.5334L11.1466 94.5584L12.6969 96.0118ZM12.6969 96.0118L14.1995 97.5144L14.2237 97.4902L14.2471 97.4652L12.6969 96.0118ZM2.17864 96.0118L3.68124 94.5092L2.17864 96.0118ZM2.17864 85.4936L3.68124 86.9962L3.70339 86.9741L3.72488 86.9513L2.17864 85.4936ZM2.17868 85.4936L0.676079 83.991L0.653928 84.0131L0.632439 84.0359L2.17868 85.4936ZM63.9249 23.7474L65.4275 25.25L66.2829 24.3945L65.984 23.2223L63.9249 23.7474ZM84.3971 1.68557C82.7895 1.20357 81.091 0.945679 79.3374 0.945679V5.19568C80.6723 5.19568 81.9598 5.39171 83.1765 5.75652L84.3971 1.68557ZM75.1898 15.3233L85.2894 5.22365L82.2842 2.21844L72.1846 12.3181L75.1898 15.3233ZM77.4201 23.0959L75.7821 13.4644L71.5923 14.177L73.2303 23.8085L77.4201 23.0959ZM85.313 22.9953L75.6814 21.3573L74.9689 25.5471L84.6004 27.1851L85.313 22.9953ZM93.2403 13.8014L83.4541 23.5876L86.4593 26.5928L96.2455 16.8066L93.2403 13.8014ZM97.3999 19.5394C97.3999 17.8956 97.1922 16.2984 96.8011 14.7754L92.6847 15.8326C92.9877 17.0125 93.1499 18.2546 93.1499 19.5394H97.3999ZM79.3374 38.1332C89.3782 38.1332 97.3999 29.7423 97.3999 19.5394H93.1499C93.1499 27.5275 86.9007 33.8832 79.3374 33.8832V38.1332ZM72.9759 36.9467C74.9564 37.7139 77.1014 38.1332 79.3374 38.1332V33.8832C77.6366 33.8832 76.0116 33.565 74.5111 32.9837L72.9759 36.9467ZM14.1995 97.5144L75.2461 36.4678L72.2409 33.4626L11.1943 94.5092L14.1995 97.5144ZM14.2471 97.4652L14.2472 97.4652L11.1466 94.5584L11.1466 94.5584L14.2471 97.4652ZM0.676036 97.5144C4.41042 101.249 10.4651 101.249 14.1995 97.5144L11.1942 94.5092C9.11959 96.5839 5.7559 96.5839 3.68124 94.5092L0.676036 97.5144ZM0.676036 83.991C-3.05835 87.7254 -3.05835 93.78 0.676036 97.5144L3.68124 94.5092C1.60658 92.4346 1.60658 89.0709 3.68124 86.9962L0.676036 83.991ZM0.632439 84.0359L0.632396 84.036L3.72488 86.9513L3.72492 86.9512L0.632439 84.0359ZM62.4223 22.2448L0.676079 83.991L3.68128 86.9962L65.4275 25.25L62.4223 22.2448ZM61.2749 19.5394C61.2749 21.1721 61.4798 22.7588 61.8658 24.2725L65.984 23.2223C65.6849 22.0495 65.5249 20.8155 65.5249 19.5394H61.2749ZM79.3374 0.945679C69.2966 0.945679 61.2749 9.3366 61.2749 19.5394H65.5249C65.5249 11.5514 71.7741 5.19568 79.3374 5.19568V0.945679Z" fill="#00263E" mask="url(#path-2-inside-1_1424_2190)"/>
<circle cx="8.07568" cy="89.8529" r="2.65625" fill="#00263E"/>
<mask id="path-5-inside-2_1424_2190" fill="white">
<path fill-rule="evenodd" clip-rule="evenodd" d="M61.5182 51.9453L51 62.4635L83.776 95.2395L83.8298 95.1857C86.7429 97.3696 90.8938 97.1368 93.5432 94.4875C96.1926 91.8381 96.4253 87.6872 94.2414 84.774L94.2942 84.7213L93.6173 84.0444C93.5928 84.0192 93.5681 83.9942 93.5432 83.9692C93.5183 83.9443 93.4932 83.9196 93.468 83.8951L61.5182 51.9453Z"/>
</mask>
<path d="M51 62.4635L49.4974 60.9609L47.9948 62.4635L49.4974 63.9661L51 62.4635ZM61.5182 51.9453L63.0208 50.4427L61.5182 48.9401L60.0156 50.4427L61.5182 51.9453ZM83.776 95.2395L82.2734 96.7421L83.776 98.2447L85.2786 96.7421L83.776 95.2395ZM83.8298 95.1857L85.1044 93.4854L83.6301 92.3802L82.3272 93.6831L83.8298 95.1857ZM94.2414 84.774L92.7388 83.2714L91.4359 84.5743L92.5411 86.0487L94.2414 84.774ZM94.2942 84.7213L95.7968 86.2239L97.2994 84.7213L95.7968 83.2187L94.2942 84.7213ZM93.6173 84.0444L92.094 85.526L92.1043 85.5366L92.1147 85.547L93.6173 84.0444ZM93.5432 83.9692L92.0405 85.4718L92.0406 85.4719L93.5432 83.9692ZM93.468 83.8951L91.9654 85.3977L91.9758 85.4081L91.9864 85.4184L93.468 83.8951ZM52.5026 63.9661L63.0208 53.4479L60.0156 50.4427L49.4974 60.9609L52.5026 63.9661ZM85.2786 93.7369L52.5026 60.9609L49.4974 63.9661L82.2734 96.7421L85.2786 93.7369ZM82.3272 93.6831L82.2734 93.7369L85.2786 96.7421L85.3324 96.6883L82.3272 93.6831ZM92.0406 92.9849C90.1495 94.876 87.1836 95.0441 85.1044 93.4854L82.5551 96.886C86.3022 99.695 91.6382 99.3977 95.0458 95.9901L92.0406 92.9849ZM92.5411 86.0487C94.0998 88.1279 93.9317 91.0937 92.0406 92.9849L95.0458 95.9901C98.4534 92.5824 98.7507 87.2465 95.9417 83.4994L92.5411 86.0487ZM92.7916 83.2187L92.7388 83.2714L95.744 86.2766L95.7968 86.2239L92.7916 83.2187ZM92.1147 85.547L92.7916 86.2239L95.7968 83.2187L95.1199 82.5418L92.1147 85.547ZM92.0406 85.4719C92.0585 85.4898 92.0763 85.5078 92.094 85.526L95.1406 82.5628C95.1093 82.5306 95.0777 82.4985 95.0458 82.4667L92.0406 85.4719ZM91.9864 85.4184C92.0047 85.4362 92.0227 85.454 92.0405 85.4718L95.0458 82.4667C95.0138 82.4347 94.9818 82.4031 94.9497 82.3719L91.9864 85.4184ZM60.0156 53.4479L91.9654 85.3977L94.9706 82.3925L63.0208 50.4427L60.0156 53.4479Z" fill="#00263E" mask="url(#path-5-inside-2_1424_2190)"/>
<path d="M1.12695 6.58032L5.63476 2.07252L17.6556 11.8394L18.7825 15.2203L46.205 42.6428L41.6972 47.1506L14.2747 19.7281L10.8939 18.6011L1.12695 6.58032Z" stroke="#00263E" stroke-width="2.125"/>
</g>
<defs>
<clipPath id="clip0_1424_2190">
<rect width="102" height="109.438" fill="white" transform="translate(0 0.945312)"/>
</clipPath>
</defs>
</svg>
